<svg xmlns="http://www.w3.org/2000/svg" version="1.1" xmlns:xlink="http://www.w3.org/1999/xlink" width="512" height="512" x="0" y="0" viewBox="0 0 512 512" style="enable-background:new 0 0 512 512" xml:space="preserve"><g><path d="M458.754 428.759a8.25 8.25 0 0 0 8.261-8.258V8.259A8.252 8.252 0 0 0 458.754 0H94.932c-27.5 0-49.869 22.379-49.869 49.887v405.49s-.879 9.72 3.242 23.924C53.162 496.041 73.499 512 94.932 512h363.822c4.569 0 8.261-3.691 8.261-8.258s-3.69-8.258-8.261-8.258c-18.396 0-33.37-14.967-33.37-33.369 0-18.397 14.972-33.356 33.37-33.356zM61.579 49.887c0-15.531 10.712-28.507 25.096-32.208v395.397c-9.583 1.607-18.195 5.963-25.096 12.226zm33.353 445.597c-18.387 0-33.353-14.967-33.353-33.369 0-18.397 14.966-33.356 33.353-33.356h326.76c-7.969 8.84-12.824 20.538-12.824 33.356 0 12.82 4.855 24.521 12.838 33.369zm8.258-83.241V16.517h347.309v395.726z" fill="#352315" opacity="1" data-original="#000000"></path></g></svg>