<svg xmlns="http://www.w3.org/2000/svg" version="1.1" xmlns:xlink="http://www.w3.org/1999/xlink" width="512" height="512" x="0" y="0" viewBox="0 0 24 24" style="enable-background:new 0 0 512 512" xml:space="preserve"><g><path d="M14 24a1 1 0 0 1-.6-.2l-4-3A1 1 0 0 1 9 20v-5.62L1.984 6.487A3.9 3.9 0 0 1 4.9 0h14.2a3.9 3.9 0 0 1 2.913 6.488L15 14.38V23a1 1 0 0 1-1 1zm-3-4.5 2 1.5v-7a1 1 0 0 1 .253-.664l7.268-8.177A1.9 1.9 0 0 0 19.1 2H4.9a1.9 1.9 0 0 0-1.421 3.158l7.269 8.178A1 1 0 0 1 11 14z" fill="#352315" opacity="1" data-original="#000000"></path></g></svg>