<svg xmlns="http://www.w3.org/2000/svg" version="1.1" xmlns:xlink="http://www.w3.org/1999/xlink" width="512" height="512" x="0" y="0" viewBox="0 0 24 24" style="enable-background:new 0 0 512 512" xml:space="preserve" class=""><g><path d="M20 0a4 4 0 0 0-4 4 1 1 0 0 0 2 0 2 2 0 0 1 4 0v11.026A4.948 4.948 0 0 0 19 14a5 5 0 0 0-4.145 2.207 3.98 3.98 0 0 0-5.71 0A5 5 0 0 0 5 14a4.948 4.948 0 0 0-3 1.026V4a2 2 0 0 1 4 0 1 1 0 0 0 2 0 4 4 0 0 0-8 0v15a5 5 0 0 0 10 0 2 2 0 0 1 4 0 5 5 0 0 0 10 0V4a4 4 0 0 0-4-4zM5 22a3 3 0 1 1 3-3 3 3 0 0 1-3 3zm14 0a3 3 0 1 1 3-3 3 3 0 0 1-3 3z" fill="#352315" opacity="1" data-original="#000000" class=""></path></g></svg>