<?xml version="1.0" encoding="utf-8"?>
<!-- Generator: Adobe Illustrator 27.5.0, SVG Export Plug-In . SVG Version: 6.00 Build 0)  -->
<svg version="1.1" id="Layer_1" xmlns="http://www.w3.org/2000/svg" xmlns:xlink="http://www.w3.org/1999/xlink" x="0px" y="0px"
	 viewBox="0 0 2400 2400" style="enable-background:new 0 0 2400 2400;" xml:space="preserve">
<g>
	<path style="fill:#EEBAB9;" d="M2300.002,1199.995c0,232.96-72.42,449.01-195.98,626.86c-61,87.82-134.48,166.32-217.86,232.95
		c-2.39,1.92-4.79,3.82-7.2,5.71c-186.99,146.88-422.74,234.48-678.96,234.48c-189.72,0-368.23-48.03-524.02-132.59
		c-133.29-72.36-249.96-171.46-342.79-290.1c-8.09-10.33-15.99-20.81-23.7-31.43c-131.78-181.37-209.49-404.55-209.49-645.88
		c0-607.51,492.48-1100,1100-1100C1807.512,99.995,2300.002,592.485,2300.002,1199.995z"/>
	<g>
		<g>
			<g>
				<g>
					<path style="fill:#F7991C;" d="M1886.162,2059.805c-2.39,1.92-4.79,3.82-7.2,5.71c-186.99,146.88-422.74,234.48-678.96,234.48
						c-189.72,0-368.23-48.03-524.02-132.59c-133.29-72.36-249.96-171.46-342.79-290.1c34.81-100.08,86.62-174.61,154.73-219.92
						c36.96-24.61,78.73-40.6,125.19-47.4c90.86-13.34,162.64-36.84,215.64-59.88c6.46-2.8,12.62-5.6,18.52-8.39
						c13.35-6.26,25.27-12.39,35.77-18.16c7.34-4.04,13.99-7.9,19.95-11.51c25.43-15.42,38.23-26.24,38.53-26.5
						c0.01-0.01,0.01-0.01,0.01-0.01h440.09c12.53,16.83,26.17,31.56,40.67,44.56c7.19,6.46,14.59,12.47,22.18,18.12h0.01
						c22.84,16.97,47.34,30.45,72.73,41.63c5.63,2.49,11.34,4.87,17.08,7.14c103.76,41.21,219.06,49.28,294.96,101.98
						c37.24,25.85,65,62.44,77.25,118.96C1917.552,1868.945,1903.272,1945.545,1886.162,2059.805z"/>
				</g>
			</g>
			<g>
				<g>
					<path style="fill:#E96A23;" d="M1356.53,2049.68c-73.755,0-152.842-18.421-235.135-54.781
						c-141.524-62.525-245.334-158.103-246.367-159.062c-3.822-3.549-4.044-9.522-0.496-13.345
						c3.551-3.826,9.528-4.047,13.348-0.498c1.013,0.937,102.841,94.623,241.58,155.819
						c184.388,81.329,343.05,69.789,471.577-34.297c4.053-3.284,10.002-2.66,13.284,1.395c3.282,4.055,2.658,10.002-1.396,13.282
						c-74.089,60.001-159.252,90.778-253.119,91.476C1358.716,2049.676,1357.622,2049.68,1356.53,2049.68z"/>
				</g>
			</g>
			<g>
				<g>
					<path style="fill:#E96A23;" d="M1256.063,1707.843c-102.645,0-222.063-81.274-228.639-85.809
						c-4.294-2.963-5.376-8.844-2.415-13.138c2.959-4.294,8.836-5.372,13.136-2.417c2.003,1.38,201.54,137.177,294.435,57.16
						c3.953-3.402,9.915-2.966,13.321,0.989c3.405,3.951,2.961,9.917-0.991,13.319
						C1319.8,1699.583,1288.781,1707.843,1256.063,1707.843z"/>
				</g>
			</g>
			<g>
				<g>
					<path style="fill:#FFFFFF;" d="M1259.544,1923.162c-112.823,0-213.968-70.044-292.501-202.564
						c-58.531-98.766-83.739-195.892-84.783-199.98c-1.55-6.064,2.11-12.234,8.172-13.786c6.06-1.549,12.236,2.107,13.789,8.17
						c0.249,0.974,25.592,98.473,82.577,194.468c75.244,126.754,167.009,191.024,272.746,191.024
						c53.312,0,94.807-17.905,123.332-53.213c80.431-99.559,37.372-305.35,36.927-307.418c-1.315-6.119,2.579-12.147,8.7-13.463
						c6.106-1.317,12.144,2.575,13.463,8.7c1.907,8.871,45.708,218.536-41.456,326.426
						C1367.469,1902.423,1320.041,1923.162,1259.544,1923.162z"/>
				</g>
			</g>
			<g>
				<g>
					<path style="fill:#F7991C;" d="M2104.022,1826.855c-61,87.82-134.48,166.32-217.86,232.95c-2.39,1.92-4.79,3.82-7.2,5.71
						c-6.69-83.28-27.71-324.54-49.71-366.55L2104.022,1826.855z"/>
				</g>
			</g>
		</g>
		<g>
			<path style="fill:#F7991C;" d="M778.972,2009.205c-2.69,4.45-40.7,67.06-102.99,158.2c-133.29-72.36-249.96-171.46-342.79-290.1
				c-8.09-10.33-15.99-20.81-23.7-31.43c35.02-52.88,55.28-86.25,55.73-86.98c29.42-48.63,73.25-83.19,122.7-101.51
				c66.73-24.74,143.71-19.91,209.33,19.79C811.512,1746.295,848.102,1894.955,778.972,2009.205z"/>
		</g>
		<g>
			<g>
				<g>
					<g>
						<path style="fill:#00232C;" d="M947.923,903.375c4.384,4.384,9.106,8.769,13.996,12.647v0.169
							c1.855,22.427-12.647,32.208-32.713,33.725l-3.878-71.496C925.328,878.419,934.94,890.391,947.923,903.375z"/>
						<path style="fill:#00232C;" d="M1142.851,536.957c52.61,26.98,109.943,50.249,166.094,54.297
							c-81.951,16.862-186.497,35.411-274.688-4.384C1014.192,548.254,1063.431,496.488,1142.851,536.957z"/>
						<path style="fill:#00232C;" d="M1580.26,903.881v1.012c-5.733,6.408-12.309,10.792-18.886,10.792
							c-20.909,0-36.086-33.725-36.086-57.669c0-2.024,0.169-4.048,0.338-6.071c4.891-40.132,6.408-97.633-17.2-130.683
							c-38.783-54.465-15.344-124.612-78.072-144.173c-6.24-1.855-13.996-2.698-22.933-2.192
							c56.658-24.956,83.469-36.76,120.397-23.607c24.956,30.688,40.807,67.955,45.022,112.134L1580.26,903.881z"/>
					</g>
				</g>
			</g>
			<g>
				<g>
					<g>
						<path style="fill:#914533;" d="M1381.625,1374.49v111.042c-12.992,10.497-26.125,19.629-39.305,27.537
							c-192.806,115.796-400.816-27.537-400.816-27.537v-384.999l387.635,241.289L1381.625,1374.49z"/>
					</g>
				</g>
				<g>
					<g>
						<path d="M1381.625,1374.49v111.042c-12.992,10.497-26.125,19.629-39.305,27.537
							c-164.171-64.991-283.667-237.242-283.667-237.242l270.486,65.995L1381.625,1374.49z"/>
					</g>
				</g>
			</g>
			<g>
				<g>
					<path style="fill:#914533;" d="M1520.392,882.402c0,0,63.065-74.508,98.71,0c35.646,74.508,8.226,225.316-87.743,200.638
						L1520.392,882.402z"/>
				</g>
			</g>
			<g>
				<g>
					<path style="fill:#914533;" d="M1587.679,1143.663c0,0,0.338,229.666-238.432,228.991
						c-237.422-0.337-399.132-186.666-407.563-195.434c-0.169,0-0.169-0.169-0.169-0.169l-2.698-48.226l-9.612-178.91l-3.878-71.496
						c0,0,9.612,11.973,22.595,24.956c4.384,4.384,9.106,8.769,13.996,12.647c-0.505-3.878-7.419-55.308-12.309-81.108
						c-10.623-56.657-32.713-122.926,19.222-148.219c51.936-25.294,43-111.46,43-111.46c7.251,4.384,14.839,8.262,22.426,11.635
						c-20.066-38.615,29.172-90.382,108.593-49.913c52.61,26.98,109.943,50.249,166.094,54.297
						c39.457-8.095,73.688-15.851,98.475-16.357c56.658-24.956,83.469-36.76,120.397-23.607
						c24.956,30.688,40.807,67.955,45.022,112.134l7.42,240.457v1.012l1.856,57.838L1587.679,1143.663z"/>
				</g>
			</g>
			<g>
				<g>
					<path d="M1140.356,723.234L1140.356,723.234c12.116,26.841,43.48,39.056,70.533,27.422
						c15.797-6.793,34.429-13.472,54.073-17.747c27.856-6.063,45.057-34.061,37.519-61.555l0,0
						C1302.48,671.354,1191.309,661.164,1140.356,723.234z"/>
				</g>
			</g>
			<g>
				<g>
					<path d="M1572.178,723.234L1572.178,723.234c-12.116,26.841-43.481,39.056-70.533,27.422
						c-15.797-6.793-34.429-13.472-54.073-17.747c-27.857-6.063-45.058-34.061-37.519-61.555l0,0
						C1410.053,671.354,1521.225,661.164,1572.178,723.234z"/>
				</g>
			</g>
			<g>
				<g>
					<path d="M1671.486,655.162c-8.095,72.171-59.693,77.904-60.367,127.479c-0.505,27.654-6.07,60.03-10.961,83.3
						c-2.36,11.298-10.117,27.991-19.897,38.952v-1.012l-7.42-240.457c-4.216-44.179-20.066-81.445-45.022-112.134
						c-36.928-13.153-63.739-1.349-120.397,23.607c-24.787,0.506-59.018,8.262-98.475,16.357
						c-56.152-4.048-113.484-27.317-166.094-54.297c-79.421-40.469-128.66,11.297-108.593,49.913
						c-7.587-3.373-15.176-7.251-22.426-11.635c0,0,8.937,86.166-43,111.46c-51.935,25.294-29.846,91.562-19.222,148.219
						c4.89,25.8,11.804,77.23,12.309,81.108c-4.89-3.878-9.612-8.262-13.996-12.647c-12.983-12.983-22.595-24.956-22.595-24.956
						l3.878,71.496c-23.944,2.023-55.814-7.925-77.566-22.09c-17.706-11.635-16.188-46.877-23.27-89.708
						c-8.262-50.587,9.779-18.886-39.289-87.009c-51.936-72.171-13.49-200.324,39.289-203.191c0,0-65.595-110.954,26.979-196.784
						c83.3-77.06,156.483-22.257,156.483-22.257s15.513-105.222,102.522-119.892c86.841-14.67,155.64,65.764,155.64,65.764
						s57.331-80.096,160.361-42.156c103.029,38.109,71.496,116.182,71.496,116.182s103.028-12.647,144.678,68.123
						c36.086,70.148-11.129,122.252-11.129,122.252S1681.098,570.681,1671.486,655.162z"/>
					<path d="M1031.561,712.662c-31.533,49.575,59.692,72.677,9.274,111.63c-21.247,16.356-19.897,40.807-11.297,63.57
						c9.274,24.957-12.478,50.418-38.614,45.529c-9.106-2.361-19.392-9.105-29.004-17.2v-0.169
						c-0.505-3.878-7.419-55.308-12.309-81.108c-10.623-56.657-32.713-122.926,19.222-148.219c51.936-25.294,43-111.46,43-111.46
						c7.251,4.384,14.839,8.262,22.426,11.635c1.012,2.023,2.192,3.878,3.541,5.733
						C1066.128,631.554,1063.093,663.086,1031.561,712.662z"/>
					<path style="fill:#00232C;" d="M1407.421,574.897c-0.843,0.338-1.686,0.675-2.529,1.012
						c-31.027,13.659-63.234,17.705-95.947,15.345C1348.403,583.159,1382.634,575.403,1407.421,574.897z"/>
				</g>
			</g>
			<g>
				<g>
					<ellipse style="fill:#A9253A;" cx="1191.903" cy="933.428" rx="76.891" ry="30.263"/>
				</g>
			</g>
			<g>
				<g>
					<path style="fill:#A9253A;" d="M1582.068,962.809c-5.929,0.593-12.155,0.89-18.529,0.89c-42.43,0-76.856-13.563-76.856-30.276
						c0-16.713,34.426-30.276,76.856-30.276c5.744,0,11.339,0.259,16.713,0.741L1582.068,962.809z"/>
				</g>
			</g>
			<g>
				<g>
					<ellipse cx="1259.545" cy="841.428" rx="23.257" ry="41.566"/>
				</g>
			</g>
			<g>
				<g>
					<ellipse cx="1490.228" cy="841.428" rx="23.257" ry="41.566"/>
				</g>
			</g>
			<g>
				<g>
					<path d="M1414.69,1068.375c-83.896,0-152.608-71.953-153.517-72.923c-3.564-3.804-3.37-9.773,0.43-13.343
						c3.802-3.566,9.779-3.378,13.348,0.421c4.483,4.769,111,115.953,214.749,41.925c4.243-3.027,10.142-2.046,13.175,2.203
						c3.029,4.246,2.044,10.144-2.203,13.175C1471.62,1060.563,1442.327,1068.375,1414.69,1068.375z"/>
				</g>
			</g>
			<g>
				<g>
					<path d="M1016.49,1084.151c-1.082,2.542-31.302,72.632-74.75,93.155c-0.141-0.141-0.235-0.235-0.235-0.235l-2.589-48.249
						C938.916,1128.823,976.611,1122.385,1016.49,1084.151z"/>
				</g>
			</g>
			<g>
				<g>
					<path style="fill:#914533;" d="M974.445,924.713c0,0-91.789-123.294-159.034-26.407
						c-55.414,79.84,49.355,287.906,159.034,216.615V924.713z"/>
				</g>
			</g>
			<g>
				<g>
					<g>
						<g>
							
								<ellipse transform="matrix(0.1642 -0.9864 0.9864 0.1642 -294.2008 1778.7784)" style="fill:#FFFFFF;" cx="902.602" cy="1063.005" rx="21.147" ry="21.147"/>
						</g>
					</g>
				</g>
			</g>
			<g>
				<g>
					<path d="M961.896,1077.795c-4.756,0-8.849-3.581-9.379-8.417c-10.205-93.309-88.371-125.843-91.693-127.182
						c-4.831-1.948-7.182-7.443-5.245-12.278c1.939-4.835,7.416-7.196,12.254-5.263c3.752,1.494,91.992,37.811,103.463,142.668
						c0.566,5.185-3.177,9.849-8.362,10.417C962.586,1077.776,962.239,1077.795,961.896,1077.795z"/>
				</g>
			</g>
			<g>
				<g>
					<path d="M873.763,1020.536c-2.749,0-5.471-1.192-7.338-3.488c-3.285-4.047-2.675-9.987,1.367-13.276
						c3.769-3.066,37.641-29.737,66-22.487c5.055,1.293,8.102,6.438,6.809,11.491c-1.293,5.056-6.445,8.1-11.491,6.809
						c-16.309-4.176-41.191,12.188-49.403,18.846C877.958,1019.846,875.853,1020.536,873.763,1020.536z"/>
				</g>
			</g>
			<g>
				<g>
					<g>
						<g>
							<path style="fill:#FFFFFF;" d="M1717.719,847.02l-139.387,4.866v19.351c0.091,0,0.181,0,0.277-0.005l139.79-4.88
								c5.334-0.189,9.515-4.666,9.326-10.006C1727.542,851.012,1723.285,846.661,1717.719,847.02z"/>
						</g>
					</g>
				</g>
				<g>
					<g>
						<g>
							<g>
								<path style="fill:#FFFFFF;" d="M1356.242,808.525c-1.33-6.5-3.06-12.87-5.14-19.07c-10.43-30.99-29.91-57.86-55.29-77.44
									c-22.79-17.59-50.33-29.3-80.34-32.84h-0.01c-6.33-0.76-12.76-1.14-19.29-1.14c-67.03,0-124.77,40.58-149.93,98.47
									c-3.94,9.04-7.07,18.51-9.32,28.31c-1.44,6.26-2.52,12.65-3.21,19.16c-0.28,2.58-0.49,5.18-0.65,7.79v0.01
									c-0.19,3.2-0.28,6.41-0.28,9.65c0,90.1,73.3,163.39,163.39,163.39c22.32,0,43.61-4.5,63-12.63
									c5.86-2.46,11.55-5.25,17.04-8.35c49.72-28.05,83.36-81.37,83.36-142.41
									C1359.572,830.155,1358.422,819.155,1356.242,808.525z M1196.172,985.475c-79.42,0-144.04-64.62-144.04-144.05
									c0-7.37,0.56-14.61,1.63-21.69c0.01-0.01,0-0.01,0-0.01c0.11-0.71,0.22-1.42,0.34-2.13c0.01-0.01,0.01-0.01,0-0.02
									c9.73-58.11,54.38-104.55,111.56-116.94c9.83-2.13,20.04-3.25,30.51-3.25c32.1,0,61.8,10.56,85.77,28.38
									c35.34,26.28,58.28,68.34,58.28,115.66C1340.222,920.855,1275.602,985.475,1196.172,985.475z"/>
							</g>
						</g>
					</g>
					<g>
						<g>
							<g>
								<path style="fill:#FFFFFF;" d="M1659.292,697.465c-23.01-12.4-49.31-19.43-77.22-19.43c-2.94,0-5.86,0.08-8.77,0.229
									c-17.12,0.91-33.55,4.47-48.89,10.271c-9.51,3.6-18.6,8.06-27.18,13.3c-14.84,9.05-28.13,20.4-39.38,33.55
									c-13.88,16.24-24.65,35.23-31.35,56.02c-2.15,6.68-3.89,13.55-5.17,20.57c-1.6,8.731-2.5,17.69-2.64,26.84
									c-0.01,0.87-0.02,1.74-0.02,2.61c0,32.01,9.25,61.9,25.23,87.13c19.25,30.44,48.29,54.1,82.65,66.55
									c17.34,6.28,36.04,9.71,55.52,9.71c0.45,0,0.89,0,1.34-0.01c16.31-0.13,32.06-2.66,46.91-7.26
									c66.61-20.63,115.14-82.81,115.14-156.12C1745.462,779.245,1710.542,725.065,1659.292,697.465z M1633.282,976.075
									c-15.7,5.99-32.71,9.31-50.47,9.4h-0.74c-20.11,0-39.27-4.14-56.68-11.62c-51.33-22.05-87.37-73.11-87.37-132.43
									c0-38.71,15.36-73.91,40.29-99.82c8.44-8.76,17.96-16.46,28.36-22.87c12.64-7.8,26.57-13.7,41.39-17.3h0.01
									c8.35-2.03,16.99-3.32,25.83-3.82c2.7-0.15,5.43-0.23,8.17-0.23c24.2,0,47.02,6,67.06,16.59
									c45.74,24.16,76.98,72.231,76.98,127.45c0,3.14-0.1,6.25-0.3,9.34c-0.29,4.48-0.78,8.91-1.48,13.28
									C1716.192,915.495,1680.702,957.965,1633.282,976.075z"/>
							</g>
						</g>
					</g>
					<g>
						<g>
							<g>
								<path style="fill:#FFFFFF;" d="M840.534,875.457c-1.153,0-2.317-0.201-3.457-0.636c-4.987-1.908-7.487-7.5-5.579-12.493
									c43.047-112.549,214.392-54.911,216.105-54.313c5.05,1.744,7.726,7.242,5.989,12.292c-1.738,5.037-7.236,7.726-12.292,5.995
									c-1.555-0.542-155.357-52.165-191.729,42.94C848.097,873.09,844.426,875.457,840.534,875.457z"/>
							</g>
						</g>
					</g>
				</g>
			</g>
			<g>
				<g>
					<path d="M1376.635,956.995c-5.217,0-9.445-4.228-9.445-9.445c0-5.217,4.228-9.445,9.445-9.445
						c34.74,0,50.982-18.359,56.374-26.284c-37.671-77.666-75.104-155.924-75.486-156.721c-2.251-4.706-0.26-10.345,4.446-12.596
						c4.715-2.252,10.345-0.258,12.596,4.446c0.387,0.812,39.267,82.091,77.644,161.172c1.242,2.559,1.266,5.54,0.063,8.117
						C1451.496,917.904,1432.609,956.995,1376.635,956.995z"/>
				</g>
			</g>
			<g>
				<g>
					<g>
						<path style="fill:#FFFFFF;" d="M1429.486,816.082c-2.493,0-4.993-0.963-6.883-2.878c-26.832-27.204-67.455-4.118-67.852-3.885
							c-4.622,2.67-10.535,1.115-13.218-3.508c-2.682-4.622-1.114-10.541,3.508-13.218c18.57-10.774,61.536-23.167,91.328,7.021
							c3.753,3.803,3.715,9.924-0.089,13.677C1434.398,815.156,1431.942,816.082,1429.486,816.082z"/>
					</g>
				</g>
			</g>
		</g>
	</g>
</g>
</svg>
