<?xml version="1.0" encoding="utf-8"?>
<!-- Generator: Adobe Illustrator 27.5.0, SVG Export Plug-In . SVG Version: 6.00 Build 0)  -->
<svg version="1.1" id="Layer_1" xmlns="http://www.w3.org/2000/svg" xmlns:xlink="http://www.w3.org/1999/xlink" x="0px" y="0px"
	 viewBox="0 0 2400 2400" style="enable-background:new 0 0 2400 2400;" xml:space="preserve">
<path style="fill:#FAC5BB;" d="M2300.002,1199.995c0,102.95-14.14,202.6-40.6,297.11c-34.64,123.81-90.41,238.8-163.17,340.83
	c-1.05,1.47-2.1,2.94-3.15,4.4c-0.62,0.85-1.24,1.71-1.85,2.56c-8.82,12.16-17.87,24.13-27.16,35.9
	c-103.04,130.59-235.04,237.26-386.31,310.31c-2.9,1.4-5.8,2.79-8.71,4.16c-0.15,0.08-0.31,0.15-0.46,0.21
	c-8.83,4.17-17.72,8.22-26.67,12.15c-13.74,6.03-27.62,11.79-41.65,17.27c-52.54,20.54-107.05,37.15-163.16,49.48
	c-19.47,4.28-39.13,8.04-58.97,11.27c-15.23,2.48-30.57,4.65-46.01,6.5c-23.55,2.82-47.33,4.89-71.32,6.19
	c-4,0.23-8.01,0.42-12.03,0.59c-16.17,0.71-32.43,1.07-48.78,1.07c-208.59,0-403.62-58.06-569.81-158.9
	c-2.21-1.33-4.41-2.68-6.61-4.04c-0.73-0.45-1.46-0.9-2.19-1.36c-0.38-0.22-0.76-0.46-1.13-0.7
	c-114.64-71.23-215.22-162.95-296.61-270.06c-140.35-184.68-223.65-415.08-223.65-664.94c0-607.51,492.48-1100,1100-1100
	C1807.512,99.995,2300.002,592.485,2300.002,1199.995z"/>
<g>
	<g>
		<g>
			<g>
				<path style="fill:#C26B56;" d="M2064.072,1880.795c-103.04,130.59-235.04,237.26-386.31,310.31c-2.9,1.4-5.8,2.79-8.71,4.16
					c-0.15,0.08-0.31,0.15-0.46,0.21c-8.83,4.17-17.72,8.22-26.67,12.15c-13.74,6.03-27.62,11.79-41.65,17.27
					c-52.54,20.54-107.05,37.15-163.16,49.48c-19.47,4.28-39.13,8.04-58.97,11.27c-15.23,2.48-30.57,4.65-46.01,6.5
					c-23.55,2.82-47.33,4.89-71.32,6.19c-4,0.23-8.01,0.42-12.03,0.59c-16.17,0.71-32.43,1.07-48.78,1.07
					c-208.59,0-403.62-58.06-569.81-158.9c-2.21-1.33-4.41-2.68-6.61-4.04c-0.73-0.45-1.46-0.9-2.19-1.36
					c-0.38-0.22-0.76-0.46-1.13-0.7c-114.64-71.23-215.22-162.95-296.61-270.06c48.96-54.1,101.71-112.23,157.71-173.75
					c241.11-264.89,509.85-321.37,633.55-332.82c43.61-4.03,69.19-2.47,69.19-2.47l335.29-32.15c16.16,5.96,31.94,12.26,47.35,18.89
					c71.86,30.87,135.75,68.84,192.44,112.67c13.44,10.38,26.46,21.1,39.1,32.13c4.12,3.59,8.2,7.22,12.24,10.89
					c103.12,93.54,179.19,208.44,234.25,335.34c0.12,0.25,0.22,0.5,0.33,0.75c1,2.3,1.99,4.6,2.97,6.91
					C2053.622,1854.355,2058.952,1867.515,2064.072,1880.795z"/>
			</g>
			<path style="fill:#BC5C46;" d="M1437.112,2274.375c-19.47,4.28-39.13,8.04-58.97,11.27c-15.23,2.48-30.57,4.65-46.01,6.5
				c-23.55,2.82-47.33,4.89-71.32,6.19c-4,0.23-8.01,0.42-12.03,0.59c-0.06-107.6,11.5-179.62,11.5-179.62l4.55,3.99l148.9,130.58
				l12.77,11.2L1437.112,2274.375z"/>
			<g>
				<g style="opacity:0.7;">
					<path style="fill:#BC5C46;" d="M633.21,2110.433c3.413-6.454,5.252-9.916,5.252-9.916
						C636.723,2103.636,634.969,2106.981,633.21,2110.433z"/>
					<path style="fill:#BC5C46;" d="M633.152,2110.555c-3.88,7.62-7.8,16.03-11.76,25.14c-0.38-0.22-0.76-0.46-1.13-0.7
						C625.722,2124.605,630.072,2116.365,633.152,2110.555z"/>
				</g>
			</g>
			<g>
				<path style="fill:#311D12;" d="M704.842,1946.655c-0.87,2.04-32.41,76.25-74.65,194.44c-2.21-1.33-4.41-2.68-6.61-4.04
					c3.26-9.1,6.45-17.94,9.57-26.5c0-0.01,0.01-0.01,0.01-0.02c37.17-102.07,63.91-164.99,64.71-166.87L704.842,1946.655z"/>
			</g>
		</g>
		<g>
			<g>
				<path style="fill:#F05F56;" d="M2096.232,1837.935c-1.05,1.47-2.1,2.94-3.15,4.4c0.81,0.89,1.76,1.96,2.87,3.21
					c-1.58-0.23-3.15-0.45-4.72-0.65c-8.82,12.16-17.87,24.13-27.16,35.9c-103.04,130.59-235.04,237.26-386.31,310.31
					c-2.9,1.4-5.8,2.79-8.71,4.16c-0.15,0.08-0.31,0.15-0.46,0.21c-8.83,4.17-17.72,8.22-26.67,12.15
					c-13.74,6.03-27.62,11.79-41.65,17.27c-52.54,20.54-107.05,37.15-163.16,49.48c-19.47,4.28-39.13,8.04-58.97,11.27
					c-15.23,2.48-30.57,4.65-46.01,6.5c-23.55,2.82-47.33,4.89-71.32,6.19c-1.52-21.73-2.29-43.7-2.29-65.88
					c0-37.02,2.15-73.46,6.31-109.16c35.13-301.32,213.62-550.21,453.71-652.31c0.63-0.27,1.26-0.54,1.89-0.81
					c12.75-5.38,25.67-10.34,38.75-14.87c64.17-22.24,132.2-34.19,202.65-34.19c106.36,0,207.2,27.23,297.57,75.99
					C2224.762,1620.915,2168.992,1735.905,2096.232,1837.935z"/>
				<g>
					<path style="fill:#FFFFFC;" d="M1933.223,1966.849l15.167-0.208c-3.464-256.589-145.198-421.714-227.955-496.462
						c-5.064,2.136-10.012,4.541-15.02,6.806C1785.184,1547.48,1929.766,1710.295,1933.223,1966.849z"/>
					<path style="fill:#FFFFFC;" d="M1641.922,2207.625c-13.74,6.03-27.62,11.79-41.65,17.27c-64.5,5.51-122.88,20.77-173.77,40.18
						c-16.97,6.46-33.11,13.39-48.36,20.57c-15.23,2.48-30.57,4.65-46.01,6.5c24.4-13.34,51.69-26.47,81.6-38.27
						C1478.472,2228.345,1555.462,2209.075,1641.922,2207.625z"/>
				</g>
				<path style="opacity:0.4;fill:#FFFFFC;" d="M1339.383,2059.866l-14.799-3.345c0.395-1.728,40.326-174.365,156.08-331.895
					c107.237-145.942,303.141-308.575,627.268-254.548l-2.491,14.96c-254.009-42.338-459.978,41.176-612.275,248.19
					C1379.14,1888.216,1339.765,2058.165,1339.383,2059.866z"/>
			</g>
			<g>
				<path style="fill:#C26B56;" d="M2095.952,1845.545c-1.58-0.23-3.15-0.45-4.72-0.65c-8.82,12.16-17.87,24.13-27.16,35.9
					c-103.04,130.59-235.04,237.26-386.31,310.31c-2.9,1.4-5.8,2.79-8.71,4.16c22.5-98.08,56.64-169.95,95.96-222.45
					c48.57-64.88,105.02-100.21,157.12-118.91c2.57-0.92,5.14-1.8,7.69-2.64c2.28-0.77,4.56-1.49,6.82-2.18
					c42.17-12.94,80.6-15.42,108.46-14.67c27.78,0.75,45.06,4.7,45.06,4.7s1.01,1.09,2.92,3.22
					C2093.892,1843.225,2094.842,1844.295,2095.952,1845.545z"/>
				<g>
					<g>
						<path style="fill:#311D12;" d="M1769.172,1977.085c-42.13,41.22-71.48,127.26-91.41,214.02c-2.9,1.4-5.8,2.79-8.71,4.16
							c-0.15,0.08-0.31,0.15-0.46,0.21c20.16-89.68,50.55-180.06,95.28-223.82l1.14,1.16L1769.172,1977.085z"/>
						<path style="fill:#311D12;" d="M2093.082,1842.335c0.81,0.89,1.76,1.96,2.87,3.21c-1.58-0.23-3.15-0.45-4.72-0.65
							c-15.14-2-29.59-3.11-43.16-3.57c-54.94-1.85-95.66,7-110.83,10.96c-4.1,1.07-6.34,1.78-6.48,1.83l-0.94-2.85l-1.43-4.36
							c0.16-0.05,2.73-0.87,7.43-2.08c15.76-4.06,55.54-12.53,108.95-11.16c16.02,0.41,33.27,1.7,51.46,4.27
							C2095.182,1839.405,2094.132,1840.875,2093.082,1842.335z"/>
					</g>
				</g>
			</g>
		</g>
		<g>
			<g>
				<g>
					<path style="fill:#C26B56;" d="M920.138,798.418c0,0-44.596-81.758-102.198-42.738
						c-57.602,39.022,14.864,261.999,135.644,178.384L920.138,798.418z"/>
					<g>
						<path style="fill:#311D12;" d="M895.571,953.549c-14.411,0-27.663-3.696-39.63-11.076
							c-45.904-28.323-56.411-100.316-56.833-103.366l7.955-1.112c0.1,0.71,10.44,71.337,53.123,97.651
							c18.616,11.478,40.975,12.914,66.415,4.292l2.585,7.614C917.388,951.55,906.164,953.549,895.571,953.549z"/>
						<g>
							<path style="fill:#311D12;" d="M866.669,854.449c-16.989,0-29.384-12.502-29.987-13.125l5.752-5.612
								c0.141,0.147,14.404,14.434,31.353,9.723l2.156,7.741C872.736,854.067,869.629,854.449,866.669,854.449z"/>
							<path style="fill:#311D12;" d="M875.428,900.279c-4.045,0-8.478-0.703-12.958-2.692
								c-12.08-5.357-20.618-18.248-25.379-38.317c-13.667-57.626,35.605-72.134,36.1-72.275l2.176,7.738
								c-1.734,0.495-42.315,12.69-30.455,62.682c4.138,17.451,11.116,28.487,20.745,32.796c11.438,5.116,23.217-1.132,23.337-1.195
								l3.857,7.051C892.417,896.305,885.03,900.279,875.428,900.279z"/>
						</g>
					</g>
				</g>
				<path style="fill:#C26B56;" d="M873.92,907.164c-0.161,0,0,0.161,0,0.161c0,1.125,0,2.412,0.161,3.537
					c0.161,2.089,0.322,4.339,0.643,6.429c1.606,20.734,4.179,40.504,7.716,59.149c0.32,1.768,0.641,3.376,1.124,5.145v0.159
					c47.9,251.39,234.513,293.825,234.513,293.825l-0.161,4.018l-2.09,54.811l-2.249,59.471
					c198.508,139.841,450.217-30.539,450.217-30.539s25.557-153.18,32.469-527.372c6.429-351.366-198.347-508.566-429.484-494.421
					C901.085,357.773,851.577,599.678,873.92,907.164z"/>
				<path style="fill:#311D12;" d="M1641.089,746.676c-21.378-9.002-48.38,12.377-48.38,12.377l-9.323,47.257l-0.804,4.339
					c-10.126,0-19.854-9.649-29.177-12.542c-44.363-12.859-78.997-45.644-103.107-85.507c-27.325-45.006-41.47-88.404-41.47-88.404
					s7.233,60.276-108.013,62.045c-115.086,1.928-117.016-74.904-117.016-74.904s-20.091,73.135-109.621,74.904
					c-89.69,1.928-111.71-74.904-111.71-74.904c1.928,137.108-102.388,215.867-102.388,215.867s-35.363-545.534,328.06-545.534
					c363.26,0,381.745,244.317,421.447,289.968c26.682,30.698,31.665,99.333,32.147,140.963
					C1641.893,732.853,1641.089,746.676,1641.089,746.676z"/>
				<g>
					<path style="fill:#B3523C;" d="M1232.17,939.064c0,36.876,39.656,66.771,88.575,66.771c48.917,0,88.574-29.895,88.574-66.771
						c0-36.878-39.656-66.771-88.574-66.771C1271.826,872.293,1232.17,902.186,1232.17,939.064z"/>
					<path style="fill:#B3523C;" d="M873.92,907.164c-0.161,0,0,0.161,0,0.161c0,1.125,0,2.412,0.161,3.537
						c0.161,2.089,0.322,4.339,0.643,6.429c1.606,20.734,4.179,40.504,7.716,59.149c0.32,1.768,0.641,3.376,1.124,5.145v0.159
						c16.074,14.788,40.666,24.111,67.992,24.111c48.863,0,88.565-29.898,88.565-66.866c0-36.808-39.702-66.704-88.565-66.704
						C917.801,872.286,888.708,886.429,873.92,907.164z"/>
				</g>
				<g>
					<g>
						<path style="fill:#C26B56;" d="M1560.23,798.418c0,0,44.596-81.758,102.198-42.738
							c57.602,39.022-14.867,261.999-135.645,178.384L1560.23,798.418z"/>
						<g>
							<path style="fill:#311D12;" d="M1584.794,953.549c-10.594,0-21.817-1.999-33.616-5.997l2.585-7.614
								c25.447,8.632,47.799,7.185,66.415-4.292c42.683-26.314,53.022-96.941,53.123-97.651l7.955,1.112
								c-0.422,3.05-10.928,75.043-56.832,103.366C1612.457,949.853,1599.204,953.549,1584.794,953.549z"/>
							<g>
								<path style="fill:#311D12;" d="M1613.702,854.449c-2.96,0-6.067-0.382-9.275-1.272l2.156-7.741
									c17.029,4.704,31.199-9.569,31.339-9.716l5.759,5.605C1643.079,841.946,1630.691,854.449,1613.702,854.449z"/>
								<path style="fill:#311D12;" d="M1604.937,900.279c-9.609,0-16.989-3.974-17.424-4.212l3.871-7.045
									c0.107,0.067,11.906,6.305,23.324,1.189c9.63-4.309,16.607-15.345,20.746-32.796c11.866-49.995-28.721-62.186-30.455-62.682
									l2.176-7.738c0.495,0.141,49.774,14.648,36.1,72.275c-4.761,20.069-13.299,32.96-25.38,38.317
									C1613.414,899.576,1608.981,900.279,1604.937,900.279z"/>
							</g>
						</g>
					</g>
				</g>
				<g>
					<path style="fill:#B3523C;" d="M1115.826,1334.399c67.027-5.145,133.249-59.151,137.429-62.688
						c-22.986,16.717-85.351,13.823-135.339,7.876L1115.826,1334.399z"/>
					<path style="fill:#311D12;" d="M1182.606,1291.397c-19.755,0-41.598-2.314-65.598-7.895l1.821-7.828
						c135.107,31.436,199.413-43.61,200.042-44.37l6.188,5.126C1324.51,1237.093,1278.238,1291.397,1182.606,1291.397z"/>
				</g>
				<g>
					<g>
						<path style="fill:#F05F56;" d="M970.821,1043.496c-83.585,0.009-192.709-12.816-253.362-71.679
							c-62.504-60.668-84.448-191.218-67.073-399.09c12.196-145.909,39.682-274.341,40.859-279.733l78.547,16.945
							c-41.393,192.066-77.009,525.928,3.641,604.208c62.159,60.338,235.89,51.117,297.563,42.484l11.224,79.583
							C1071.516,1037.721,1026.905,1043.496,970.821,1043.496z"/>
						<path style="fill:#FFFFFC;" d="M1229.813,998.665c0,31.976-44.675,57.898-99.782,57.898
							c-55.109,0-99.784-25.922-99.784-57.898c0-31.977,44.675-57.899,99.784-57.899
							C1185.137,940.766,1229.813,966.688,1229.813,998.665z"/>
					</g>
					<g>
						<g>
							<path style="fill:#B1E1F5;" d="M884.301,721.033l541.937,6.158c0,0,5.807,196.44-156.012,186.805
								c-123.056-7.327-114.957-106.746-151.906-108.798c-36.95-2.052-26.681,94.739-125.221,96.482
								C839.918,904.387,884.301,721.033,884.301,721.033z"/>
							<path style="fill:#F05F56;" d="M1442.302,726.715l-0.42-14.08v-0.04l-0.04-1.3l-495.56-5.63l-74.44-0.85h-0.15l-3.01,12.44
								c-0.33,1.36-3.06,12.95-4.86,29.96c-1.33,12.54-2.15,28.01-1.13,44.51c0.18,2.9,0.41,5.84,0.72,8.8
								c0.71,6.98,1.78,14.08,3.3,21.16v0.01c0.93,4.27,2.01,8.53,3.29,12.75c0,0.01,0,0.01,0,0.02s0,0.01,0.01,0.02
								c4.51,14.91,11.33,29.35,21.43,41.93c2.47,3.09,5.09,6,7.85,8.74c13.19,13.13,29.62,22.3,49.01,27.5
								c13.59,3.65,28.65,5.35,45.08,5.09c15.01-0.27,27.86-2.49,38.95-6.12c40.79-13.33,57.66-45.56,69.7-68.56
								c0.08-0.15,0.16-0.3,0.24-0.46c3.54-6.76,7.63-14.53,11.09-18.58l0.01-0.01c1.47-1.72,2.82-2.77,3.96-2.77h0.1
								c0.48,0.03,0.98,0.19,1.51,0.47c4.33,2.31,10.27,12.66,15.58,21.91c2.29,3.99,4.73,8.23,7.4,12.61
								c15.82,25.88,40,56.62,92.2,68.85c10.52,2.47,22.18,4.19,35.14,4.96c4.19,0.24,8.3,0.37,12.34,0.37
								c41.16,0,75.45-12.85,102.12-38.29c0.3-0.27,0.6-0.56,0.9-0.85c3.26-3.16,6.33-6.45,9.23-9.85
								c19.3-22.58,30.94-49.82,37.95-75.12C1443.202,765.205,1442.382,729.235,1442.302,726.715z M1352.342,876.675
								c-21.41,16.07-48.69,23.23-81.16,21.28c-6.45-0.38-12.49-1.04-18.14-1.93c-56.46-8.91-75.26-41.63-90.64-68.42
								c-7.46-12.99-15.1-26.29-26.69-33.36c-2-1.22-4.12-2.26-6.38-3.07c-1.4-0.51-2.85-0.93-4.36-1.26
								c-1.46-0.31-2.97-0.54-4.55-0.68c-0.4-0.04-0.8-0.07-1.21-0.09c-0.74-0.04-1.48-0.06-2.2-0.06
								c-23.01,0-33.86,20.73-43.46,39.08c-12.86,24.57-27.32,52.18-70.1,56.79h-0.01c-3.36,0.36-6.9,0.58-10.63,0.65
								c-21.41,0.34-39.43-3.3-53.86-10.91h-0.01c-0.88-0.45-1.74-0.93-2.59-1.43c-7.69-4.42-14.29-10.06-19.77-16.88
								c-14.21-17.7-19.95-41.31-21.62-63.64c-0.7-9.31-0.69-18.39-0.3-26.73v-0.01c0.53-11.42,1.78-21.45,2.93-28.75l34.51,0.39
								l292.27,3.32l0.4,0.01l90.23,1.021h0.01l2.19,0.03l92.51,1.05c-1.78,28.3-10.05,88.89-47.57,125.23
								C1359.032,871.315,1355.762,874.105,1352.342,876.675z"/>
						</g>
						<path style="fill:#F05F56;" d="M1641.089,746.676c-21.378-9.002-48.38,12.377-48.38,12.377l-9.323,47.257h-156.878V712.6
							h215.225C1641.893,732.853,1641.089,746.676,1641.089,746.676z"/>
						<path style="fill:#311D12;" d="M1398.472,885.416l-6.08-5.25c55.138-63.934,48.509-166.423,48.435-167.451l8.022-0.576
							C1449.158,716.469,1455.814,818.931,1398.472,885.416z"/>
						<g>
							
								<rect x="897.454" y="782.858" transform="matrix(0.582 -0.8132 0.8132 0.582 -243.1697 1108.0157)" style="fill:#FFFFFC;" width="117.553" height="15.383"/>
							
								<rect x="931.164" y="802.538" transform="matrix(0.5371 -0.8435 0.8435 0.5371 -216.012 1226.8314)" style="fill:#FFFFFC;" width="157.263" height="15.385"/>
							
								<rect x="1149.497" y="775.655" transform="matrix(0.6445 -0.7646 0.7646 0.6445 -172.7886 1195.084)" style="fill:#FFFFFC;" width="98.402" height="15.378"/>
							
								<rect x="1181.406" y="805.892" transform="matrix(0.6215 -0.7834 0.7834 0.6215 -157.4299 1301.3204)" style="fill:#FFFFFC;" width="173.246" height="15.386"/>
						</g>
						<path style="fill:#311D12;" d="M1579.383,806.623c-0.121-1.52-2.672-37.453,19.4-55.179
							c13.132-10.537,31.875-12.208,55.741-4.932l-2.344,7.688c-21.127-6.445-37.4-5.277-48.342,3.492
							c-18.763,15.037-16.473,47.973-16.446,48.305L1579.383,806.623z"/>
					</g>
					<g>
						<path style="fill:#B3523C;" d="M1132.93,766.52l-36.048,105.957c-4.96,19.635,29.999,34.295,50.217,35.461L1132.93,766.52z"/>
						<path style="fill:#311D12;" d="M1146.841,912.456c-16.755-0.964-40.768-10.095-50.35-23.16
							c-4.152-5.655-5.531-11.856-3.998-17.93l36.154-106.306l8.571,2.92l-36.047,105.954c-0.77,3.117,0.054,6.506,2.618,10.004
							c7.661,10.44,29.109,18.643,43.574,19.477L1146.841,912.456z"/>
					</g>
				</g>
			</g>
			<g>
				<path style="fill:#F69138;" d="M1634.619,596.094L506.607,529.74c0,0-10.616-42.467,5.309-42.467
					c15.926,0,347.693,5.309,347.693,5.309s95.549-283.993,448.551-262.761C1661.162,251.056,1634.619,596.094,1634.619,596.094z"/>
				
					<rect x="1165.054" y="201.323" transform="matrix(0.0605 -0.9982 0.9982 0.0605 587.8783 1647.3232)" style="fill:#311D12;" width="8.037" height="620.062"/>
			</g>
		</g>
	</g>
</g>
</svg>
