<?xml version="1.0" encoding="utf-8"?>
<!-- Generator: Adobe Illustrator 27.5.0, SVG Export Plug-In . SVG Version: 6.00 Build 0)  -->
<svg version="1.1" id="Layer_1" xmlns="http://www.w3.org/2000/svg" xmlns:xlink="http://www.w3.org/1999/xlink" x="0px" y="0px"
	 viewBox="0 0 2400 2400" style="enable-background:new 0 0 2400 2400;" xml:space="preserve">
<path style="fill:#D67C38;" d="M2300.002,1199.995c0,215.68-62.07,416.86-169.32,586.65c-38.58,61.07-82.99,118.07-132.46,170.23
	c-73.24,77.2-157.55,143.79-250.4,197.22c-10.27,5.91-20.65,11.67-31.14,17.25c-4.82,2.57-9.67,5.11-14.53,7.61
	c-4.26,2.19-8.54,4.35-12.83,6.49c-4.48,2.23-8.97,4.42-13.48,6.58c-87.13,41.88-180.63,72.6-278.65,90.34
	c-36.75,6.66-74.13,11.48-112.05,14.38c-5.6,0.43-11.21,0.82-16.84,1.16c-22.59,1.39-45.36,2.09-68.3,2.09
	c-76.28,0-150.75-7.76-222.66-22.55c-42.99-8.83-85.07-20.18-126.07-33.88c-5.3-1.76-10.58-3.57-15.84-5.42
	c-31.87-11.19-63.07-23.81-93.52-37.78c-85.37-39.15-164.86-88.91-236.79-147.6c-28.12-22.94-55.09-47.24-80.79-72.81
	c-200.32-199.23-324.33-475.11-324.33-779.96c0-607.51,492.48-1100,1100-1100C1807.512,99.995,2300.002,592.485,2300.002,1199.995z"
	/>
<g>
	<g>
		<g>
			<g>
				<g>
					<g>
						<g>
							<g>
								<path style="fill:#3E1347;" d="M505.122,2052.765c-28.12-22.94-55.09-47.24-80.79-72.81
									c24.87-118.61,62.9-235.1,128.35-322.94c16.29-21.87,34.28-41.97,54.2-59.88l265.16,471.04l12.16,21.61l16.98,30.16
									l71.76,127.48c0,0,1.78,10.74,4.4,30.02c-42.99-8.83-85.07-20.18-126.07-33.88c-5.3-1.76-10.58-3.57-15.84-5.42
									c-31.87-11.19-63.07-23.81-93.52-37.78C656.542,2161.215,577.052,2111.455,505.122,2052.765z"/>
							</g>
						</g>
					</g>
				</g>
			</g>
			<g>
				<g>
					<g>
						<g>
							<path style="fill:#3E1347;" d="M897.154,1463.121c0,0-149.351-303.525,167.865-471.931
								c221.916-117.81,650.337-139.38,781.113,130.328c121.607,250.798-151.902,461.796-151.902,461.796
								S1108.504,1708.537,897.154,1463.121z"/>
						</g>
					</g>
				</g>
				<g>
					<g>
						<g>
							<g>
								<g>
									<path style="fill:#1C1B12;" d="M1413.516,1111.771c0,0,274.221,37.364,174.846,183.575
										c-52.599,77.385-349.72,119.616-349.72,119.616S1180.43,1146.921,1413.516,1111.771z"/>
								</g>
							</g>
						</g>
					</g>
				</g>
				<g>
					<g>
						<g>
							<g>
								<g>
									<g>
										<path style="fill:#3E1347;" d="M1998.222,1956.875c-73.24,77.2-157.55,143.79-250.4,197.22
											c-10.27,5.91-20.65,11.67-31.14,17.25c-4.82,2.57-9.67,5.11-14.53,7.61c-4.26,2.19-8.54,4.35-12.83,6.49
											c-4.48,2.23-8.97,4.42-13.48,6.58c-87.13,41.88-180.63,72.6-278.65,90.34c-36.75,6.66-74.13,11.48-112.05,14.38
											c-5.6,0.43-11.21,0.82-16.84,1.16c-22.59,1.39-45.36,2.09-68.3,2.09c-76.28,0-150.75-7.76-222.66-22.55
											c-42.99-8.83-85.07-20.18-126.07-33.88c-5.3-1.76-10.58-3.57-15.84-5.42c-31.87-11.19-63.07-23.81-93.52-37.78
											c-85.37-39.15-164.86-88.91-236.79-147.6c8.11-144.82,15.14-291.96,47.56-395.75c21.1-67.6,52.98-116.82,102.93-135.03
											c73.42-26.76,155.67-61.54,227.92-93.63c5.84-2.59,11.62-5.17,17.32-7.73c98.15-43.96,173.99-81.05,176.74-82.39
											c0.05-0.03,0.08-0.04,0.08-0.04c10.9,4.91,22.13,9.14,33.57,12.76c13.17,4.16,26.63,7.51,40.23,10.15
											c26.99,5.26,54.54,7.76,81.51,8.34c44.42,0.96,87.27-3.27,123.39-8.9c19.85-3.1,37.67-6.62,52.6-9.93
											c29.78-6.61,48.07-12.42,48.07-12.42s14.64,5.1,39.62,14.47c59.36,22.22,177.13,68.49,295.88,127.54
											c13.7,6.82,27.41,13.8,41.05,20.94c28.76,15.04,57.18,30.77,84.45,47.01c41.75,24.88,69.17,52.06,86.17,83.14
											C2046.122,1707.935,2024.662,1808.355,1998.222,1956.875z"/>
									</g>
								</g>
							</g>
						</g>
					</g>
				</g>
				<g>
					<g>
						<path style="fill:#65346F;" d="M1409.312,2149.095l-12.12,133.27c-36.75,6.66-74.13,11.48-112.05,14.38
							c-5.6,0.43-11.21,0.82-16.84,1.16c-22.59,1.39-45.36,2.09-68.3,2.09c-76.28,0-150.75-7.76-222.66-22.55
							c-42.99-8.83-85.07-20.18-126.07-33.88c-5.3-1.76-10.58-3.57-15.84-5.42c-31.87-11.19-63.07-23.81-93.52-37.78l17.28-88.57
							l101.81,5.84l16.8,0.96l23.38,1.35l385.68,22.12l16.61,0.96L1409.312,2149.095z"/>
					</g>
				</g>
				<g>
					<g>
						<g>
							<g>
								<g>
									<g>
										<path style="fill:#65346F;" d="M1157.927,1764.955c-169.16,0-222.124-151.602-222.655-153.193
											c-1.954-5.797,1.168-12.082,6.965-14.03c5.82-1.958,12.076,1.173,14.03,6.957l0,0
											c2.054,6.044,52.239,147.963,218.638,137.568c172.905-10.803,395.048-125.034,397.274-126.185
											c5.455-2.82,12.128-0.693,14.938,4.736c2.814,5.432,0.696,12.116-4.736,14.934
											c-9.246,4.797-228.468,117.533-406.089,128.629C1170.033,1764.765,1163.897,1764.955,1157.927,1764.955z"/>
									</g>
								</g>
							</g>
						</g>
					</g>
				</g>
				<g>
					<g>
						<g>
							<g>
								<g>
									<g>
										<path style="fill:#FFFFFF;" d="M1413.372,1421.055c-0.36,1.94-6.77,36.29-17,95.72c-4.76,27.64-10.34,60.7-16.52,98.45
											c-4.34,26.44-8.96,55.18-13.81,85.97c-1.28,8.12-2.58,16.39-3.89,24.79c-18.14,116.6-38.96,259.74-58.68,417.04
											c-6.26,49.95-12.41,101.32-18.33,153.72c-5.6,0.43-11.21,0.82-16.84,1.16c5.99-53.13,12.22-105.22,18.56-155.84
											c19.33-154.34,39.72-295.09,57.63-410.63c1.3-8.33,2.58-16.52,3.84-24.58c5.16-32.9,10.08-63.54,14.68-91.62
											c6.41-39.18,12.18-73.39,17.08-101.83c10.2-59.25,16.58-93.48,16.95-95.42c0.85-4.52,5.22-7.47,9.7-6.63
											C1411.252,1412.205,1414.222,1416.545,1413.372,1421.055z"/>
									</g>
								</g>
							</g>
						</g>
					</g>
				</g>
				<g>
					<g>
						<g>
							<g>
								<g>
									<g>
										<path style="fill:#FFFFFF;" d="M1064.582,1419.225c-0.55,1.63-10.36,31.11-26.37,83.54
											c-4.66,15.24-9.83,32.42-15.45,51.41c-9.46,31.94-20.18,69.02-31.82,110.68c-2.26,8.11-4.56,16.4-6.9,24.85
											c-29.92,108.5-65.07,244.85-99.84,400.08c-2.14,9.53-4.27,19.14-6.4,28.81c-8.92,40.49-17.8,82.2-26.53,124.97
											c-5.3-1.76-10.58-3.57-15.84-5.42c8.42-41.2,16.97-81.42,25.57-120.51c3.67-16.7,7.35-33.19,11.04-49.46
											c34.69-153.32,69.55-287.55,99.03-393.88c2.5-9.04,4.97-17.88,7.4-26.51c10.6-37.73,20.4-71.51,29.11-100.87
											c5.31-17.94,10.23-34.24,14.67-48.78c16.13-52.85,26.03-82.57,26.58-84.2c1.47-4.35,6.16-6.7,10.53-5.23
											C1063.712,1410.165,1066.052,1414.875,1064.582,1419.225z"/>
									</g>
								</g>
							</g>
						</g>
					</g>
				</g>
			</g>
			<g>
				<g>
					<g>
						<g>
							<g>
								<g>
									<g>
										<path style="fill:#F48767;" d="M1069.755,1258.911l9.918,100.433c12.688,8.333,27.337,12.384,38.009,21.395
											c121.103,102.25,279.876-9.156,360.9-89.588l-35.223-319.337l-329.052,252.862L1069.755,1258.911z"/>
									</g>
								</g>
							</g>
						</g>
					</g>
					<g>
						<g>
							<g>
								<g>
									<g>
										<path style="fill:#1C1B12;" d="M1069.755,1258.911l9.918,100.433c12.688,8.333,25.383,15.419,38.009,21.395
											c142.683-73.444,235.377-239.913,235.377-239.913l-238.751,83.85L1069.755,1258.911z"/>
									</g>
								</g>
							</g>
						</g>
					</g>
					<g>
						<g>
							<g>
								<path style="fill:#1C1B12;" d="M856.106,509.151c0,0-127.456-144.081-66.498-205.039
									c60.958-60.958,138.539-11.083,138.539-11.083s-22.165-72.04,44.333-83.123c43.731-7.288,110.833,66.498,110.833,66.498
									s110.831-22.165,277.079,27.708c166.246,49.875,245.912,259.069,164.517,409.384
									C1524.909,713.497,1238.476,381.696,856.106,509.151z"/>
							</g>
						</g>
						<g>
							<g>
								<g>
									<g>
										<g>
											<path style="fill:#1C1B12;" d="M936.903,431.1c0,0-209.352,58.981-96.664,304.193
												C840.239,735.293,949.054,496.896,936.903,431.1z"/>
										</g>
									</g>
								</g>
							</g>
						</g>
						<g>
							<g>
								<g>
									<g>
										<g>
											<path style="fill:#F16A52;" d="M900.293,826.229c0,0-63.697-61.758-89.282,8.817
												c-25.585,70.574,12.686,204.526,97.282,173.634L900.293,826.229z"/>
										</g>
									</g>
								</g>
							</g>
						</g>
						<g>
							<g>
								<g>
									<g>
										<g>
											<path style="fill:#F48767;" d="M862.786,1068.559c0,0,20.203,207.667,236.141,185.869
												c214.603-21.599,344.225-204.601,351.061-213.162c0.121-0.148,0.217-0.223,0.217-0.223l-1.964-43.872l-10.17-227.712
												l-5.42-121.709c0,0,5.89-220.702-205.203-239.993c-154.234-14.113-293.696,25.044-357.524,111.083
												c-23.5,31.73-36.724,69.858-36.626,114.049l14.773,218.121l3.62,53.453L862.786,1068.559z"/>
										</g>
									</g>
								</g>
							</g>
						</g>
						<g>
							<g>
								<g>
									<g>
										<g>
											<path style="fill:#1C1B12;" d="M869.936,518.839c2.252,7.13,5.982,13.124,11.289,17.673
												c46.326,39.875,143.939,14.459,233.055-23.017c89.118-37.432,160.246,22.867,160.246,22.867
												c-16.854,90.523,70.401,89.086,58.552,157.58c-11.889,68.539,3.911,155.839,3.911,155.839l53.239-12.437
												c8.529-32.482,33.069-68.683,93.035-88.036c64.136,5.374,54.82-125.971,12.203-226.425c0,0-56.94-95.832-268.036-115.14
												C1073.211,393.653,933.748,432.789,869.936,518.839z"/>
										</g>
									</g>
								</g>
							</g>
						</g>
						<g>
							<g>
								<g>
									<g>
										<g>
											<g>
												<path style="fill:#F16A52;" d="M1132.413,849.907c1.494,15.117,33.84,24.298,72.249,20.505
													c38.407-3.795,68.335-19.125,66.842-34.242c-1.493-15.117-33.839-24.298-72.249-20.505
													C1160.845,819.46,1130.919,834.789,1132.413,849.907z"/>
											</g>
										</g>
									</g>
								</g>
							</g>
						</g>
						<g style="opacity:0.8;">
							<g>
								<g>
									<g>
										<g>
											<g>
												<path style="fill:#F16A52;" d="M851.691,904.462c5.415,0.006,11.072-0.281,16.837-0.85
													c38.378-3.791,68.304-19.133,66.81-34.248c-1.493-15.117-33.842-24.309-72.217-20.52
													c-5.197,0.514-10.235,1.248-15.051,2.164L851.691,904.462z"/>
											</g>
										</g>
									</g>
								</g>
							</g>
						</g>
						<g>
							<g>
								<g>
									<g>
										<g>
											<g>
												<path style="fill:#1C1B12;" d="M1111.524,767.946c2.052,20.764,13.132,36.666,24.748,35.518
													c11.618-1.148,19.374-18.91,17.323-39.673c-2.049-20.762-13.13-36.664-24.748-35.516
													C1117.231,729.422,1109.475,747.184,1111.524,767.946z"/>
											</g>
										</g>
									</g>
								</g>
							</g>
							<g>
								<g>
									<g>
										<g>
											<g>
												<path style="fill:#1C1B12;" d="M906.102,788.232c2.052,20.764,13.13,36.666,24.748,35.518
													c11.616-1.148,19.372-18.91,17.323-39.674c-2.052-20.761-13.132-36.664-24.748-35.516
													C911.807,749.708,904.053,767.471,906.102,788.232z"/>
											</g>
										</g>
									</g>
								</g>
							</g>
							<g>
								<g>
									<g>
										<g>
											<g>
												<path style="fill:#1C1B12;" d="M1221.001,660.918c-6.917-21.449-29.243-60.812-99.644-57.013
													c-8.596,0.465-15.734,6.871-17.189,15.354l0,0c-1.827,10.652,5.807,20.699,16.579,21.538
													c18.935,1.475,46.911,8.967,65.317,37.789c5.749,9.002,18.177,10.835,26.654,4.336l1.97-1.508
													C1220.947,676.618,1223.419,668.42,1221.001,660.918z"/>
											</g>
										</g>
									</g>
								</g>
							</g>
							<g>
								<g>
									<g>
										<g>
											<g>
												<path style="fill:#1C1B12;" d="M861.792,696.391c2.587-22.386,16.781-65.357,86.568-75.4
													c8.519-1.227,16.773,3.66,19.86,11.695l0,0c3.876,10.087-1.645,21.434-12.045,24.365
													c-18.281,5.151-44.252,17.968-56.663,49.833c-3.878,9.954-15.709,14.182-25.294,9.468l-2.226-1.093
													C864.917,711.778,860.888,704.224,861.792,696.391z"/>
											</g>
										</g>
									</g>
								</g>
							</g>
							<g>
								<g>
									<g>
										<g>
											<g>
												<path style="fill:#1C1B12;" d="M1013.167,991.68c-25.004,2.468-52.183-1.977-80.318-18.137
													c-4.112-2.362-5.53-7.606-3.168-11.72c2.362-4.111,7.607-5.526,11.718-3.168
													c100.638,57.804,189.597-55.942,190.484-57.096c2.883-3.755,8.275-4.472,12.039-1.583
													c3.76,2.885,4.47,8.275,1.581,12.034C1144.766,912.97,1089.04,984.186,1013.167,991.68z"/>
											</g>
										</g>
									</g>
								</g>
							</g>
						</g>
						<g>
							<g>
								<g>
									<g>
										<g>
											<path style="fill:#1C1B12;" d="M1374.076,963.695c1.206,2.204,34.799,62.897,75.929,77.579
												c0.117-0.14,0.192-0.233,0.192-0.233l-1.968-43.87C1448.228,997.17,1413.56,994.714,1374.076,963.695z"/>
										</g>
									</g>
								</g>
							</g>
						</g>
						<g>
							<g>
								<g>
									<g>
										<g>
											<path style="fill:#F48767;" d="M1397.864,815.734c0,0,72.007-119.716,141.482-38.091
												c57.252,67.263-18.925,264.809-124.492,210.127L1397.864,815.734z"/>
										</g>
									</g>
								</g>
							</g>
						</g>
						<g>
							<g>
								<g>
									<g>
										<g>
											<g>
												<g>
													<path style="fill:#FFFFFF;" d="M1495.46,944.05c1.044,10.564-6.675,19.972-17.237,21.016
														c-10.564,1.043-19.972-6.673-21.016-17.237c-1.043-10.564,6.673-19.972,17.237-21.016
														C1485.007,925.769,1494.417,933.488,1495.46,944.05z"/>
												</g>
											</g>
										</g>
									</g>
								</g>
							</g>
						</g>
						<g>
							<g>
								<g>
									<g>
										<g>
											<path style="fill:#1C1B12;" d="M1422.886,953.068c-0.31,0.031-0.625,0.046-0.941,0.044
												c-4.743-0.05-8.548-3.935-8.496-8.675c1.008-95.866,77.574-136.593,80.832-138.28c4.212-2.187,9.392-0.533,11.57,3.676
												c2.176,4.205,0.537,9.377-3.664,11.562l0,0c-2.883,1.508-70.674,37.916-71.57,123.224
												C1430.57,949.038,1427.19,952.644,1422.886,953.068z"/>
										</g>
									</g>
								</g>
							</g>
						</g>
						<g>
							<g>
								<g>
									<g>
										<g>
											<path style="fill:#1C1B12;" d="M1497.487,893.412c-1.891,0.188-3.855-0.25-5.567-1.379l0,0
												c-8.023-5.284-32.009-17.858-46.364-12.632c-4.459,1.616-9.383-0.677-11.001-5.132c-1.622-4.455,0.677-9.379,5.13-10.999
												c25.019-9.114,58.019,12.003,61.703,14.442c3.951,2.616,5.036,7.942,2.422,11.895
												C1502.325,891.85,1499.969,893.169,1497.487,893.412z"/>
										</g>
									</g>
								</g>
							</g>
						</g>
						<g>
							<g>
								<g>
									<g>
										<g>
											<g>
												<g>
													<path style="fill:#FFFFFF;" d="M719.24,803.158l126.506-8.05l1.729,17.502c-0.083,0.008-0.164,0.017-0.252,0.021
														l-126.871,8.071c-4.841,0.306-9.025-3.368-9.329-8.215C710.711,807.644,714.173,803.329,719.24,803.158z"/>
												</g>
											</g>
										</g>
									</g>
								</g>
							</g>
							<g>
								<g>
									<g>
										<g>
											<g>
												<g>
													<g>
														<path style="fill:#FFFFFF;" d="M1338.242,736.915c-0.53-5.33-1.33-10.56-2.4-15.69c-1.16-5.6-2.63-11.08-4.4-16.41
															c-0.07-0.22-0.14-0.44-0.22-0.65c-21.55-64.1-85.25-107.36-155.36-100.43c-5.84,0.58-11.57,1.49-17.16,2.71
															c-19.57,4.27-37.57,12.34-53.27,23.35c-29.87,20.94-51.44,52.48-59.74,88.55c-1.33,5.79-2.32,11.7-2.95,17.71
															c-1.02,9.8-1.08,19.86-0.07,30.05c8.05,81.49,80.89,141.24,162.38,133.19c59.43-5.86,107.29-46.2,125.73-99.21
															C1337.632,780.405,1340.422,758.975,1338.242,736.915z M1203.322,881.805c-71.84,7.09-136.06-45.59-143.15-117.43
															c-5.02-50.88,19.94-97.95,60.47-123.59c16.68-10.561,36-17.49,56.95-19.561c4.79-0.47,9.56-0.68,14.27-0.62
															c58.66,0.57,109.78,40.55,124.96,96.62c0.17,0.65,0.34,1.3,0.5,1.95c0.01,0.02,0.01,0.03,0.02,0.05
															c1.6,6.29,2.74,12.771,3.4,19.42C1327.842,810.485,1275.162,874.705,1203.322,881.805z"/>
													</g>
												</g>
											</g>
										</g>
									</g>
								</g>
								<g>
									<g>
										<g>
											<g>
												<g>
													<g>
														<path style="fill:#FFFFFF;" d="M989.502,774.665c-0.09-1.09-0.18-2.19-0.29-3.28c-0.9-9.09-2.6-17.91-5.04-26.39
															c-1.78-6.24-3.96-12.3-6.51-18.15c-10.23-23.51-26.31-43.69-46.24-58.9c-12.82-9.78-27.23-17.5-42.69-22.73
															c-2.99-1-6.02-1.92-9.09-2.74c-14.66-3.92-30.14-5.63-46.01-4.789c-2.26,0.12-4.53,0.289-6.8,0.52
															c-5.71,0.56-11.3,1.44-16.78,2.62c-72.73,15.66-123.89,83.98-116.4,159.75c6.43,65.2,54.36,116.49,114.99,130.26
															c14.43,3.27,29.57,4.43,45.04,3.14c0.78-0.06,1.56-0.13,2.34-0.21c17.25-1.7,33.53-6.31,48.4-13.29
															c28.3-13.29,51.49-35.18,66.55-61.99C984.852,833.775,991.822,804.865,989.502,774.665z M903.582,901.205
															c-14.84,8.03-31.47,13.3-49.28,15.06c-0.6,0.06-1.2,0.11-1.8,0.16c-16.44,1.4-32.45-0.32-47.45-4.68
															c-43.54-12.65-78.5-47.51-90.28-92.6c-1.02-3.88-1.86-7.85-2.51-11.88c-0.47-2.77-0.84-5.58-1.12-8.42
															c-6.58-66.67,38.32-126.78,102.24-140.75c4.95-1.08,10.01-1.89,15.18-2.4c2.09-0.21,4.18-0.36,6.25-0.47
															c13.14-0.67,25.97,0.64,38.18,3.7c0.87,0.21,1.74,0.43,2.6,0.68c15.06,4.08,29.14,10.81,41.64,19.71
															c29.79,21.19,50.62,54.65,54.49,93.8C977.052,827.145,948.582,876.855,903.582,901.205z"/>
													</g>
												</g>
											</g>
										</g>
									</g>
								</g>
								<g>
									<g>
										<g>
											<g>
												<g>
													<g>
														<path style="fill:#FFFFFF;" d="M1515.166,750.527c1.041-0.102,2.076-0.39,3.07-0.883
															c4.341-2.172,6.101-7.454,3.93-11.799c-48.988-97.953-198.815-30.515-200.313-29.822
															c-4.411,2.029-6.34,7.24-4.318,11.653c2.022,4.401,7.236,6.34,11.653,4.324
															c1.358-0.629,135.856-61.058,177.248,21.711C1508.113,749.061,1511.646,750.875,1515.166,750.527z"/>
													</g>
												</g>
											</g>
										</g>
									</g>
								</g>
							</g>
						</g>
						<g>
							<g>
								<g>
									<g>
										<g>
											<g>
												<path style="fill:#FFFFFF;" d="M977.174,749.429c2.253-0.223,4.43-1.316,5.967-3.218
													c21.839-27.002,60.643-9.75,61.022-9.575c4.42,2.002,9.627,0.067,11.641-4.353c2.016-4.42,0.067-9.633-4.351-11.641
													c-17.76-8.088-57.727-15.459-81.978,14.507c-3.053,3.776-2.472,9.308,1.302,12.364
													C972.648,749.029,974.952,749.648,977.174,749.429z"/>
											</g>
										</g>
									</g>
								</g>
							</g>
						</g>
						<g>
							<g>
								<g>
									<g>
										<g>
											<path style="fill:#1C1B12;" d="M1036.98,880.855c-50.631,4.999-71.201-28.672-72.053-30.105
												c-1.318-2.224-1.564-4.922-0.669-7.348c27.649-74.954,55.549-151.941,55.828-152.71c1.616-4.455,6.54-6.761,10.995-5.147
												c4.459,1.616,6.761,6.538,5.146,10.995c-0.273,0.754-27.139,74.883-54.276,148.499
												c5.59,6.713,21.876,21.838,53.339,18.731c4.72-0.466,8.921,2.981,9.387,7.7
												C1045.143,876.188,1041.698,880.389,1036.98,880.855z"/>
										</g>
									</g>
								</g>
							</g>
						</g>
					</g>
				</g>
				<g>
					<g>
						<g>
							<g>
								<path style="fill:#3E1347;" d="M1479.31,1277.426c0,0-197.734,145.112-255.251,144.508c0,0,74.729,86.068,192.967,97.678
									c155.105,15.234,416.582-18.479,416.582-18.479S1641.014,1350.597,1479.31,1277.426z"/>
							</g>
						</g>
					</g>
					<g>
						<g>
							<g>
								<path style="fill:#3E1347;" d="M1069.199,1280.721c0,0,38.574,112.907,154.86,141.213c0,0-26.008,105.986-143.641,89.367
									c-117.635-16.617-183.263-84.188-183.263-84.188S976.333,1280.721,1069.199,1280.721z"/>
							</g>
						</g>
					</g>
				</g>
			</g>
			<g>
				<g>
					<g>
						<g>
							<path style="fill:#3E1347;" d="M2004.212,1631.295c29.18,30.63,74.42,82.11,126.47,155.35
								c-38.58,61.07-82.99,118.07-132.46,170.23c-73.24,77.2-157.55,143.79-250.4,197.22c-71-572.26,81.48-593.39,221.74-556.96
								C1969.562,1597.135,1982.402,1608.395,2004.212,1631.295z"/>
						</g>
					</g>
				</g>
				<g>
					<g>
						<g>
							<g>
								<path style="fill:#65346F;" d="M1700.272,1992.115c0.56,52.97,6.68,114.21,16.41,179.23c-4.82,2.57-9.67,5.11-14.53,7.61
									c-4.26,2.19-8.54,4.35-12.83,6.49c-1.86-12.03-3.6-23.95-5.21-35.72c-7.78-56.76-12.58-110.2-13.08-157.3
									c-0.08-8.07,6.4-14.68,14.47-14.77C1693.722,1977.765,1700.192,1984.045,1700.272,1992.115z"/>
							</g>
						</g>
					</g>
					<g>
						<g>
							<g>
								<g>
									<path style="fill:#65346F;" d="M1702.152,2178.955c-4.26,2.19-8.54,4.35-12.83,6.49c-4.48,2.23-8.97,4.42-13.48,6.58
										l-64.37-104.35c-4.23-6.87-2.1-15.88,4.77-20.12c6.88-4.24,15.88-2.11,20.12,4.77l47.75,77.4L1702.152,2178.955z"/>
								</g>
							</g>
						</g>
					</g>
				</g>
			</g>
		</g>
	</g>
</g>
</svg>
