<?xml version="1.0" encoding="utf-8"?>
<!-- Generator: Adobe Illustrator 27.5.0, SVG Export Plug-In . SVG Version: 6.00 Build 0)  -->
<svg version="1.1" id="Layer_1" xmlns="http://www.w3.org/2000/svg" xmlns:xlink="http://www.w3.org/1999/xlink" x="0px" y="0px"
	 viewBox="0 0 2400 2400" style="enable-background:new 0 0 2400 2400;" xml:space="preserve">
<g>
	<path style="fill:#CBB4A1;" d="M2300.002,1199.995c0,114.6-17.52,225.1-50.04,328.98c-39.77,127.07-101.97,244.22-181.97,346.81
		c-3.59,4.62-7.23,9.21-10.9,13.77c-24.97,30.99-51.58,60.6-79.71,88.69c-33.79,33.77-69.77,65.34-107.71,94.48
		c-2.91,2.24-5.83,4.46-8.76,6.66c-75.49,56.83-158.53,104.16-247.35,140.22c-63.8,25.91-130.59,46-199.7,59.62
		c-1.43,0.28-2.86,0.55-4.29,0.83c-12.85,2.48-25.79,4.74-38.8,6.76c-49.23,7.68-99.54,12.09-150.71,13
		c-4.16,0.08-8.32,0.13-12.5,0.16c-2.52,0.01-5.04,0.02-7.56,0.02c-1,0-2.01,0-3.01-0.01c-17.95-0.04-35.79-0.52-53.52-1.42
		c-5.28-0.26-10.55-0.57-15.81-0.91c-17.1-1.11-34.08-2.61-50.95-4.49c-3.5-0.39-6.99-0.8-10.48-1.22
		c-12.34-1.5-24.62-3.2-36.83-5.1c-20.82-3.24-41.44-7.07-61.86-11.46c-0.44-0.09-0.89-0.19-1.34-0.29
		c-31.97-6.92-63.43-15.23-94.3-24.86c-43.46-13.56-85.76-29.75-126.71-48.37c-36.73-16.7-72.38-35.36-106.81-55.85
		c-13.7-8.14-27.2-16.58-40.5-25.29c-9.94-6.51-19.76-13.18-29.47-20c-3.46-2.43-6.9-4.88-10.33-7.35c-2.1-1.51-4.19-3.02-6.27-4.55
		c-105.47-77.04-196.7-172.4-269.03-281.39c-115.5-174.06-182.78-382.89-182.78-607.44c0-607.51,492.48-1100,1100-1100
		C1807.512,99.995,2300.002,592.485,2300.002,1199.995z"/>
	<g>
		<g>
			<g>
				<g>
					<g>
						<g>
							<g>
								<g>
									<g>
										<path style="fill:#FFFFFF;" d="M2067.992,1875.785c-3.59,4.62-7.23,9.21-10.9,13.77c-24.97,30.99-51.58,60.6-79.71,88.69
											c-33.79,33.77-69.77,65.34-107.71,94.48c-2.91,2.24-5.83,4.46-8.76,6.66c-75.49,56.83-158.53,104.16-247.35,140.22
											c-63.8,25.91-130.59,46-199.7,59.62c-1.43,0.28-2.86,0.55-4.29,0.83c-12.85,2.48-25.79,4.74-38.8,6.76
											c-49.23,7.68-99.54,12.09-150.71,13c-4.16,0.08-8.32,0.13-12.5,0.16c-2.52,0.01-5.04,0.02-7.56,0.02
											c-1,0-2.01,0-3.01-0.01c-17.95-0.04-35.79-0.52-53.52-1.42c-2.12,0.71-4.39,1.09-6.74,1.09c-3.24,0-6.31-0.72-9.07-2
											c-17.1-1.11-34.08-2.61-50.95-4.49c-3.5-0.39-6.99-0.8-10.48-1.22c-12.34-1.5-24.62-3.2-36.83-5.1
											c-20.82-3.24-41.44-7.07-61.86-11.46c-0.44-0.09-0.89-0.19-1.34-0.29c-31.97-6.92-63.43-15.23-94.3-24.86
											c-43.46-13.56-85.76-29.75-126.71-48.37c-36.73-16.7-72.38-35.36-106.81-55.85c-13.7-8.14-27.2-16.58-40.5-25.29
											c-2.95-29.97-5.88-60.32-8.68-90.76c-8.65-93.72-12.45-189.47-10.98-277.49c0.32-19.18,0.89-38,1.72-56.35
											c2.37-52.52,6.83-101.2,13.48-143.66c11.65-74.44,30.03-129.77,55.7-153.22c29.69-27.13,73.99-53.78,123.28-78.45
											c35.47-17.76,73.54-34.48,110.61-49.61h0.01c11.22-4.57,22.33-9,33.26-13.27c3.54-1.38,7.05-2.74,10.54-4.08
											c1.92-0.75,3.83-1.47,5.73-2.21c0.07-0.02,0.13-0.05,0.19-0.07c0.11-0.04,0.21-0.07,0.31-0.12
											c0.22-0.08,0.33-0.12,0.33-0.12c4.39-1.69,8.69-3.32,12.87-4.91c14.75-5.58,28.11-10.51,39.52-14.67
											c3.69-1.34,7.18-2.6,10.45-3.77c19.55-7.03,31.24-11,31.24-11s3.41-5.08,10.37-12.87c7.19-8.06,18.18-19.02,33.11-30.27
											c26.89-20.25,66.57-41.42,119.94-48.26c0,0,0,0,0.01,0c51.58-6.6,115.95,0.2,193.91,34.2c5.37,2.34,10.81,4.81,16.31,7.42
											l0.01,0.01h0.01c5.4,2.55,10.86,5.24,16.39,8.06c7.62,3.89,15.23,7.56,22.83,11.01c3.01,1.38,6.01,2.71,9.01,4.01
											c3.23,1.41,6.46,2.78,9.69,4.1c16.12,6.66,32.17,12.44,48.13,17.49c3.4,1.08,6.8,2.12,10.2,3.14
											c11.27,3.36,22.5,6.38,33.67,9.11c0.01,0.01,0.01,0.01,0.01,0.01c7.83,1.9,15.62,3.67,23.39,5.32
											c5.59,1.19,11.17,2.3,16.74,3.35c161.92,30.61,314.01,7.27,399.98,120.12c9.51,12.47,18.2,26.6,26.02,42.66
											c10.04,20.63,18.62,44.44,25.58,71.96c29.65,117.26,22.26,209.18,24.92,363.21
											C2067.952,1845.515,2068.032,1860.515,2067.992,1875.785z"/>
									</g>
								</g>
							</g>
						</g>
						<path style="fill:#633613;" d="M568.412,2100.725c-3.46-2.43-6.9-4.88-10.33-7.35c-2.1-1.51-4.19-3.02-6.27-4.55
							c-1.65-32.52-3.21-59.43-4.63-78.86c-12.1-165.3-22.8-499.63,20.43-581.69c3.14-5.95,6.56-10.58,10.28-13.71
							c0.01-0.01,0.02-0.02,0.02-0.02c32.81-27.59,117.42-66.82,195.86-99.9c41.11-17.34,80.52-32.99,109.9-44.4
							c13.12-5.09,24.24-9.34,32.61-12.51c4.25-1.61,7.79-2.94,10.53-3.97c2.96-1.11,4.98-1.86,5.93-2.21
							c0.11-0.04,0.21-0.07,0.31-0.12c0.22-0.08,0.33-0.12,0.33-0.12l12.52,108.82c0,0,0.27,12.47,0.76,35.03
							c0.24,11.38,0.54,25.32,0.89,41.52c0.85,39.24,1.99,91.74,3.33,153.18c1.56,71.09,3.38,154.15,5.33,242.51
							c3.17,143.16,6.7,300.22,9.99,442.72c-31.97-6.92-63.43-15.23-94.3-24.86c-43.46-13.56-85.76-29.75-126.71-48.37
							c-36.73-16.7-72.38-35.36-106.81-55.85c-13.7-8.14-27.2-16.58-40.5-25.29C587.942,2114.215,578.122,2107.545,568.412,2100.725
							z"/>
						<path style="fill:#371B0D;" d="M958.252,1826.385l9.29,449c-0.44-0.09-0.89-0.19-1.34-0.29
							c-31.97-6.92-63.43-15.23-94.3-24.86c-43.46-13.56-85.76-29.75-126.71-48.37l-20.71-435.52l121.09-109.13l-135.5-57.41
							l62.33-279.01l1.37-6.15l3.7-16.57c51.95-43.23,99.95-60.81,146.15-66.75c0.99-0.13,1.97-0.25,2.95-0.37
							c6.47-0.77,12.92-1.31,19.33-1.67l0.35,17.12l3.31,159.71l0.81,39.12l3.08,148.86L958.252,1826.385z"/>
						<path style="fill:#633613;" d="M282.782,1807.435c119.34-158.62,248.1-330.2,284.83-379.16c6.4-8.53,10-13.34,10.28-13.71
							c0.01-0.01,0.02-0.02,0.02-0.02s6.62,54.56,15.51,137.92c16.39,153.8,40.49,405.61,44.96,593.55
							c-13.7-8.14-27.2-16.58-40.5-25.29c-9.94-6.51-19.76-13.18-29.47-20c-3.46-2.43-6.9-4.88-10.33-7.35
							c-2.1-1.51-4.19-3.02-6.27-4.55C446.342,2011.785,355.112,1916.425,282.782,1807.435z"/>
						<path style="fill:#633613;" d="M1400.242,1857.955c-7.58-105.16-16.89-210.67-23.68-303.95c-2.48-33.93-4.61-66.24-6.21-96.32
							c-0.28-5.17-0.54-10.27-0.78-15.3c-1.85-38.5-2.71-72.98-2.12-102.06c0.12-6.13,0.31-12.02,0.57-17.65
							c0.03-0.83,0.07-1.66,0.11-2.48c0.55-10.88,1.35-20.78,2.46-29.61c2.07-16.46,5.17-29.21,9.51-37.61
							c0.81-1.58,1.67-3,2.57-4.26c1.33-1.86,2.65-3.69,3.97-5.47c8.49-11.54,16.72-21.38,24.47-29.77
							c10.82-11.7,20.73-20.56,29.24-27.21c6.08-4.76,11.44-8.38,15.92-11.11c9-5.5,14.38-7.37,14.69-7.48h0.01
							c0,0,18.07,4.35,46.59,9.89c18.07,3.51,40.35,7.5,64.89,11.17c14.17,2.13,29.11,4.14,44.42,5.89
							c78.88,9.01,309.61,67.59,365.58,118.78c3.35,3.06,6.07,6.09,8.1,9.09c5.78,8.54,11.32,34.7,16.64,73.08
							c14.95,107.93,28.14,312.53,39.9,493.98c-24.97,30.99-51.58,60.6-79.71,88.69c-33.79,33.77-69.77,65.34-107.71,94.48
							c-2.91,2.24-5.83,4.46-8.76,6.66c-75.49,56.83-158.53,104.16-247.35,140.22c-63.8,25.91-130.59,46-199.7,59.62
							c-0.29-40.34-0.46-79.04-0.34-115.53C1413.832,2070.915,1407.922,1964.615,1400.242,1857.955z"/>
						<path style="fill:#371B0D;" d="M1498.092,1572.395l124.42,105.33l-8.95,541.88c-63.8,25.91-130.59,46-199.7,59.62
							c-1.43,0.28-2.86,0.55-4.29,0.83l-9.33-422.1l-7.11-321.15l-2.28-103.38l-0.37-16.53l-2.29-103.49l-0.38-17.46l-0.01-0.23
							l-0.39-17.83l-0.57-25.62l-0.2-9.02l-1.11-50.13l-0.73-33.35l-0.27-11.99c4.19,0.1,8.59,0.16,13.16,0.19
							c52.52,0.42,128.05-1.69,184.76,40.77c0.87,0.65,1.74,1.31,2.6,1.98l6.14,42.08l40.56,278.01L1498.092,1572.395z"/>
						<g>
							<g>
								<path d="M1090.732,1932.605c-2.19,56.49-4.39,112.97-6.59,169.46c-1.15,29.5-2.29,59.01-3.44,88.51
									c-1.33,34.2-2.66,68.39-3.99,102.59c-3.5-0.39-6.99-0.8-10.48-1.22c1.81-46.34,3.61-92.68,5.41-139.02
									c2.86-73.44,5.71-146.88,8.57-220.32C1080.482,1925.845,1091.002,1925.835,1090.732,1932.605z"/>
							</g>
						</g>
						<g>
							<g>
								<path d="M1207.562,2299.975c-2.52,0.01-5.04,0.02-7.56,0.02c-1,0-2.01,0-3.01-0.01c-0.31-20.5-0.71-40.99-1.17-61.48
									c-1.9-83.13-5.01-166.25-9.34-249.3c-0.36-6.77,10.17-6.73,10.52,0c4.38,84.24,7.57,168.53,9.47,252.86
									c0.19,8.6,0.37,17.19,0.54,25.79C1207.222,2278.565,1207.402,2289.265,1207.562,2299.975z"/>
							</g>
						</g>
						<g>
							<g>
								<path d="M581.682,1700.225c-1.33,17.4-2.47,34.82-3.46,52.25c-2.91,51.02-4.55,102.14-5.98,153.21
									c-1.82,64.99-3.07,130.01-3.83,195.04c-3.46-2.43-6.9-4.88-10.33-7.35c1.41-131.02,3.1-262.49,13.09-393.15
									c0.37-4.82,5.87-6.2,8.77-4.1C581.092,1696.945,581.832,1698.315,581.682,1700.225z"/>
							</g>
						</g>
						<g>
							<path d="M1158.242,2278.155c0,9.52-6.19,17.6-14.77,20.41c-2.12,0.71-4.39,1.09-6.74,1.09c-3.24,0-6.31-0.72-9.07-2
								c-7.35-3.42-12.44-10.87-12.44-19.5c0-11.88,9.63-21.52,21.51-21.52S1158.242,2266.275,1158.242,2278.155z"/>
						</g>
						<g>
							<g>
								<g>
									<path style="fill:#008099;" d="M1119.892,1857.265c-1.16,17.23-2.58,34.17-4.25,50.81c-0.1,1.08-0.21,2.16-0.32,3.24
										c-0.03,0.32-0.06,0.65-0.1,0.97c-4.61,45.1-10.93,88.02-18.46,128.68c-3.89,20.97-8.12,41.34-12.62,61.1
										c-3.97,17.44-8.15,34.4-12.5,50.86c-5.47,20.7-11.21,40.63-17.14,59.77c-8.08,26.22-16.53,50.95-25.1,74.15
										c-20.82-3.24-41.44-7.07-61.86-11.46c-0.44-0.09-0.89-0.19-1.34-0.29c-31.97-6.92-63.43-15.23-94.3-24.86
										c1.09-25.93,3.11-51.78,5.91-77.44c7.21-66.62,19.8-131.9,35.11-193.46c12.84-51.57,27.58-100.51,42.82-145.56
										c0.16-0.47,0.32-0.94,0.47-1.4c0.68-2.01,1.36-4,2.04-5.99c18.99-55.45,38.63-104.72,55.96-145.18
										c0.6-1.4,1.2-2.8,1.81-4.18c0.66-1.55,1.33-3.08,1.98-4.6c2.85-6.54,5.63-12.82,8.32-18.84
										c5.51-12.32,10.68-23.53,15.39-33.53c1.35-2.85,2.65-5.6,3.92-8.25c14.64-30.66,23.99-47.87,23.99-47.87l40.28,71.03
										l8.18,14.43l3.09,5.44c0.1,1.81,0.19,3.62,0.28,5.42c0,0.06,0.01,0.11,0.01,0.17c0.28,5.56,0.53,11.1,0.75,16.62
										c0.04,1.03,0.08,2.05,0.12,3.08C1124.732,1742.115,1123.662,1801.225,1119.892,1857.265z"/>
								</g>
							</g>
							<g>
								<g>
									<path style="fill:#008099;" d="M1370.772,2286.815c-49.23,7.68-99.54,12.09-150.71,13c-4.36-10.32-8.72-20.97-13.05-31.96
										c-3.76-9.53-7.5-19.32-11.19-29.35c-3.74-10.14-7.44-20.53-11.09-31.18c-17.57-51.05-33.96-107.89-47.53-170.2
										c-8.57-39.44-16.05-81.07-21.98-124.84c-0.03-0.2-0.05-0.39-0.08-0.59c-1.85-13.68-3.54-27.57-5.07-41.67
										c-0.47-4.28-0.92-8.58-1.35-12.91c-0.09-0.93-0.19-1.87-0.28-2.81c-4.3-43.74-7.01-89.43-7.74-136.96
										c-0.18-11.53-0.24-23.17-0.18-34.92c-0.01-0.55,0-1.1,0-1.65c0.03-5.29,0.09-10.61,0.18-15.94
										c0.05-4.26,0.13-8.53,0.23-12.81l8.97-17.06l36.52-69.4l3.24-6.15c0,0,13.31,22.77,33.43,62.66
										c5.9,11.72,12.4,24.91,19.32,39.43c1.75,3.69,3.54,7.47,5.35,11.33c0.29,0.63,0.59,1.27,0.89,1.91
										c0.78,1.67,1.56,3.36,2.36,5.07c18.81,40.66,40.09,89.99,60.77,145.44c16.62,44.51,32.86,92.91,47.27,144.02
										c17.2,61.01,31.79,125.83,41.04,192.17C1365.902,2202.815,1369.672,2244.785,1370.772,2286.815z"/>
								</g>
							</g>
							<g>
								<path style="fill:#008099;" d="M999.225,1554.41c0,0,63.394,108.264,98.383,126.896
									c34.989,18.63,144.086-131.723,144.086-131.723l-43.313-81.459l-117.29-2.321
									C1081.091,1465.803,993.828,1517.472,999.225,1554.41z"/>
							</g>
						</g>
					</g>
					<g>
						<g>
							<path style="fill:#633613;" d="M1016.545,299.079L1554.744,606.4c0,0,37.034-65.225,45.343-133.613
								c3.43-28.122,1.972-56.734-8.886-81.593c-37.274-85.285-180.796-182.199-315.207-207.452
								c-63.718-11.985-125.362,13.313-172.53,43.259C1051.117,260.18,1016.545,299.079,1016.545,299.079z"/>
						</g>
						<g>
							<path style="fill:#CE3C27;" d="M1016.545,299.079L1554.744,606.4c0,0,37.034-65.225,45.343-133.613
								C1458.322,299.96,1207.475,229.042,1103.464,227C1051.117,260.18,1016.545,299.079,1016.545,299.079z"/>
						</g>
						<g>
							<path style="fill:#371B0D;" d="M1773.357,707.401c-9.29-33.198-26.188-64.121-48.223-91.662
								c-71.195-88.987-285.225-314.242-666.732-374.785c-450.319-71.462-472.79,170.444-257.85,318.709
								c132.195,91.19,487.588,315.549,721.535,318.47C1726.789,880.691,1806.747,826.715,1773.357,707.401z"/>
						</g>
						<g>
							<g>
								<g>
									<g>
										<g>
											<path d="M937.62,520.467c0,0-72.987,43.317-42.119,114.088c25.188,57.753,40.019,33.587,40.804,82.53
												c0.783,48.941,30.783,44.525,49.485,37.155C1004.495,746.871,1064.9,544.482,937.62,520.467z"/>
										</g>
									</g>
								</g>
							</g>
							<g>
								<g>
									<g>
										<g>
											<path d="M922.82,610.651c0,0-140.759-102.36,15.58-206.566c51.98-34.647,187.296-43.422,276.348-45.297
												c57.916-1.219,115.24,12.242,166.719,39.402c62.223,32.827,136.705,80.907,137.673,123.374
												c4.642,203.482-45.922,271.291-45.922,271.291s-19.538,187.914-96.433,181.27c-51.919-4.487-98.472-93.059-98.472-93.059
												L922.82,610.651z"/>
										</g>
									</g>
								</g>
							</g>
							<g>
								<g>
									<g>
										<g>
											<g>
												<g>
													<path style="fill:#EB844B;" d="M1420.411,1248.704c0,0-209.169,218.479-411.24,43.586l39.595-163.067l26.127-107.6
														l18.277-75.337l292.948-62.482C1376.948,1022.756,1390.171,1142.882,1420.411,1248.704z"/>
												</g>
											</g>
										</g>
									</g>
								</g>
								<g>
									<g>
										<g>
											<path style="fill:#EB844B;" d="M1009.171,1292.291c0,0-57.853,174.059,113.129,172.338
												c170.985-1.722,298.111-215.924,298.111-215.924L1009.171,1292.291z"/>
										</g>
									</g>
								</g>
								<g>
									<path style="fill:#008099;" d="M1095.884,1464.645l-15.869,46.515l-4.488,13.148l-29.267,85.64l-4.17,12.229
										l-20.714,60.687l-27.039-29.513c-56.163-72.387-96.384-155.943-116.955-245.224c-0.425-1.802-0.814-3.535-1.203-5.266
										c-4.418-19.9-7.177-40.328-7.177-60.617c0-24.352,3.996-48.424,13.999-71.042c8.767-12.937,20.218-24.283,32.905-34.179
										c3.464-2.686,7.036-5.266,10.674-7.743c19.124-13.11,40.048-23.149,58.426-30.572c3.676-1.485,7.211-2.828,10.639-4.101
										c23.257-8.622,40.259-12.475,40.259-12.475C1052.763,1389.82,1095.884,1464.645,1095.884,1464.645z"/>
								</g>
								<g>
									<path style="fill:#008099;" d="M1551.057,1224.123c-50.119,312.802-345.887,458.743-345.887,458.743l-109.286-218.22
										c153.043-27.675,305.239-297.465,305.239-297.465c21.208-7.032,41.354-6.715,59.629-2.368
										c3.463,0.78,6.891,1.767,10.214,2.864c16.824,5.478,31.74,14.138,44.004,23.044c3.148,2.263,6.115,4.561,8.872,6.824
										C1541.019,1211.432,1551.057,1224.123,1551.057,1224.123z"/>
								</g>
								<g>
									<g>
										<g>
											<g>
												<g>
													<path d="M1320.615,997.868c-126.203,164.675-242.842,187.207-281.811,172.389l36.089-148.634L1320.615,997.868z"/>
												</g>
											</g>
										</g>
									</g>
								</g>
							</g>
							<g>
								<g>
									<g>
										<g>
											<g>
												<g>
													<path style="fill:#EB844B;" d="M1415.461,800.138c-0.601,12.202-1.775,23.446-3.602,34.079
														c-4.213,24.6-11.777,45.896-23.335,67.627c-15.238,28.611-37.381,58.089-67.86,96.878
														c-47.894,60.912-124.219,82.04-197.304,79.737c-194.109-6.084-207.279-141.971-184.629-345.766
														c14.094-126.545-18.623-198.091,13.966-246.337l0.056,0.002c2.151-2.209,4.353-4.358,6.556-6.446
														c52.478-50.359,122.882-76.718,194.898-75.804c13.881,0.192,27.115,0.812,39.821,1.872
														c2.884,0.148,5.764,0.411,8.584,0.731c1.187,0.06,2.37,0.179,3.497,0.353c3.217,0.28,6.375,0.617,9.53,1.067
														c2.256,0.233,4.508,0.523,6.704,0.867c5.123,0.669,10.075,1.445,14.911,2.274
														c154.475,26.952,189.921,124.904,192.256,220.456C1431.142,696.695,1417.404,760.521,1415.461,800.138z"/>
												</g>
											</g>
										</g>
									</g>
								</g>
								<path style="fill:#371B0D;" d="M1065.036,878.219c0,0-0.087-55.332-64.651-60.738c-34.743-2.909-95.04,20.54-112.496-40.002
									c0,0-23.274,65.257,18.015,100.74C947.194,913.701,1054.225,869.57,1065.036,878.219z"/>
								<path style="fill:#371B0D;" d="M1046.619,878.219c0,0,0.089-55.332,64.653-60.738c34.743-2.909,95.04,20.54,112.496-40.002
									c0,0,23.274,65.257-18.017,100.74C1164.463,913.701,1057.43,869.57,1046.619,878.219z"/>
								<g>
									<g>
										<g>
											<g>
												<path d="M1137.958,721.141c-2.196,8.798-10.952,14.111-19.558,11.866c-8.604-2.249-13.8-11.202-11.602-20.003
													c2.198-8.799,10.952-14.113,19.56-11.864C1134.962,703.387,1140.156,712.341,1137.958,721.141z"/>
											</g>
										</g>
									</g>
								</g>
								<g>
									<g>
										<g>
											<g>
												<path d="M1009.086,723.495c-2.194,8.801-10.952,14.111-19.558,11.864c-8.602-2.245-13.798-11.202-11.602-20.001
													c2.198-8.799,10.954-14.111,19.56-11.864C1006.09,705.738,1011.284,714.695,1009.086,723.495z"/>
											</g>
										</g>
									</g>
								</g>
								<g>
									<g>
										<g>
											<g>
												<g>
													<path d="M1055.972,685.972c-12.879,25.436-25.754,50.875-38.629,76.314c-1.941,3.839-1.008,8.932,2.913,11.126
														c11.808,6.623,22.505,14.302,32.527,23.536c7.589,6.988,18.854-4.534,11.209-11.576
														c-11.032-10.162-22.746-18.758-35.771-26.063c0.971,3.709,1.943,7.421,2.913,11.126
														c12.877-25.439,25.752-50.878,38.627-76.316C1074.464,684.827,1060.694,676.638,1055.972,685.972L1055.972,685.972z"/>
												</g>
											</g>
										</g>
									</g>
								</g>
								<g>
									<g>
										<g>
											<g>
												<g>
													<path style="fill:#CB5E28;" d="M1212.403,774.963c-0.537,10.878-17.517,18.847-37.933,17.798
														c-20.414-1.049-36.531-10.715-35.995-21.593c0.532-10.88,17.516-18.851,37.929-17.803
														C1196.82,754.413,1212.937,764.083,1212.403,774.963z"/>
												</g>
											</g>
										</g>
									</g>
								</g>
								<g>
									<g>
										<g>
											<g>
												<g>
													<path style="fill:#CB5E28;" d="M933.744,783.992c6.565,4.982,16.94,8.456,28.719,9.06
														c20.383,1.047,37.372-6.902,37.909-17.816c0.534-10.86-15.594-20.51-35.977-21.557
														c-11.224-0.575-21.42,1.583-28.423,5.454L933.744,783.992z"/>
												</g>
											</g>
										</g>
									</g>
								</g>
								<g>
									<g>
										<g>
											<g>
												<g>
													<g>
														<path d="M1112.703,658.892c10.558-7.538,27.59-11.12,36.225,1.436c5.239,7.622,14.561,11.547,23.131,6.556
															c7.372-4.298,11.851-15.956,6.54-23.677c-18.814-27.361-55.132-34.072-82.489-14.547
															c-7.51,5.364-11.361,14.974-6.54,23.679C1093.751,659.882,1105.092,664.325,1112.703,658.892L1112.703,658.892z"/>
													</g>
												</g>
											</g>
										</g>
									</g>
								</g>
								<g>
									<g>
										<g>
											<g>
												<g>
													<g>
														<path d="M979.233,661.297c12.314-8.987,24.083-11.218,37.737-3.515c19.155,10.809,36.051-19.344,16.891-30.156
															c-23.547-13.288-49.918-12.291-71.931,3.763C944.24,644.297,961.403,674.3,979.233,661.297L979.233,661.297z"/>
													</g>
												</g>
											</g>
										</g>
									</g>
								</g>
							</g>
							<g>
								<g>
									<g>
										<g>
											<g>
												<path d="M1343.16,852.373c27.352,1.813,50.265-5.302,68.7-18.156c-4.213,24.6-11.777,45.896-23.335,67.627
													C1369.719,891.136,1354,875.197,1343.16,852.373z"/>
											</g>
										</g>
									</g>
								</g>
							</g>
							<g>
								<g>
									<g>
										<g>
											<g>
												<path d="M1386.093,628.109c-78.196,17.552-92.498,151.796-130.948,126.628
													c-38.454-25.164,45.858-241.159-56.221-240.604c-102.079,0.555-90.438,20.924-137.148,21.946
													c-79.455,1.719-77.468-38.765-109.022-49.721c2.151-2.209,4.353-4.358,6.556-6.446
													c52.478-50.359,122.882-76.718,194.898-75.804c13.881,0.192,27.115,0.812,39.821,1.872
													c2.884,0.148,5.764,0.411,8.584,0.731c1.187,0.06,2.37,0.179,3.497,0.353c3.217,0.28,6.375,0.617,9.53,1.067
													c2.256,0.233,4.508,0.523,6.704,0.867c5.071,0.608,10.08,1.391,14.911,2.274
													c154.475,26.952,189.921,124.904,192.256,220.456C1417.719,625.965,1403.234,624.236,1386.093,628.109z"/>
											</g>
										</g>
									</g>
								</g>
							</g>
							<g>
								<g>
									<g>
										<g>
											<g>
												<path d="M1255.168,754.745c38.438,25.144,52.704-109.08,130.928-126.63c17.157-3.87,31.635-2.167,43.411,3.616
													c1.614,64.946-12.119,128.783-14.064,168.402c-0.581,11.877-1.695,22.867-3.457,33.244
													c33.71-80.589,71.688-175.748,80.571-216.288c1.809-8.184,2.869-15.922,3.28-23.27c-1.72-2.117-3.446-4.179-5.281-6.144
													c-7.821-8.729-16.64-16.229-26.186-22.751c-15.104-10.227-32.165-17.881-50.164-23.451
													c-58.406-18.212-127.267-14.862-176.183-8.459C1274.308,586.071,1223.712,734.126,1255.168,754.745z"/>
											</g>
										</g>
									</g>
								</g>
							</g>
							<g>
								<g>
									<g>
										<g>
											<g>
												<g>
													<path style="fill:#CB5E28;" d="M1048.987,934.205c13.309,7.982,28.554,11.31,42.468,2.699
														c7.054-4.363,0.163-15.27-6.878-10.914c-9.935,6.149-20.459,2.16-29.651-3.351
														C1047.858,918.397,1041.957,929.99,1048.987,934.205L1048.987,934.205z"/>
												</g>
											</g>
										</g>
									</g>
								</g>
							</g>
							<g>
								<g>
									<g>
										<g>
											<g>
												<g>
													<path style="fill:#EB844B;" d="M1284.055,800.165c-8.881-32.381-1.369-67.095,18.006-94.269
														c25.094-35.196,70.891-88.981,111.828-80.996c60.168,11.734,64.64,67.348,55.911,123.307
														c-8.729,55.955-48.424,127.784-123.466,112C1308.813,852.313,1291.328,826.679,1284.055,800.165z"/>
												</g>
											</g>
										</g>
									</g>
								</g>
							</g>
							<g>
								<g>
									<g>
										<g>
											<g>
												<g>
													<g>
														<path d="M1356.717,793.897c-1.831-23.697-2.109-48.413,7.591-70.587c8.666-19.804,32.207-47.95,57.102-38.144
															c8.349,3.289,14.8-9.451,6.392-12.761c-23.99-9.449-47.953,4.045-63.359,23.402
															c-22.226,27.929-24.374,64.595-21.718,99.022C1343.431,804.008,1357.428,803.127,1356.717,793.897L1356.717,793.897z"
															/>
													</g>
												</g>
											</g>
										</g>
									</g>
								</g>
							</g>
						</g>
						<g>
							<path style="fill:#371B0D;" d="M1521.184,669.227c0,0-131.495-206.91-318.132-254.809
								c-186.637-47.901-297.148,15.026-297.148,15.026s19.907-85.779,180.258-102.694
								c160.351-16.917,385.185,72.891,433.318,148.243C1586.427,579.794,1521.184,669.227,1521.184,669.227z"/>
						</g>
					</g>
				</g>
				<g>
					<g>
						<path style="fill:#044D60;" d="M1016.755,1657.086c-2.831,23.42,15.755,42.437,38.825,43.38
							c28.547,1.161,49.138-20.374,62.643-43.074c-3.204-0.42-6.41-0.838-9.613-1.257c16,53.312,88.093,54.462,106.448,2.234
							c2.249-6.401-7.909-9.152-10.144-2.797c-14.986,42.645-73.279,40.692-86.159-2.232c-1.297-4.32-7.271-5.198-9.615-1.257
							c-8.875,14.919-19.784,29.065-36.712,35.045c-21.982,7.768-48.359-3.531-45.153-30.042
							C1028.085,1650.381,1017.56,1650.441,1016.755,1657.086L1016.755,1657.086z"/>
					</g>
				</g>
				<g>
					<g>
						<path style="fill:#044D60;" d="M1026.461,1649.887c0.642-66.656,28.182-129.36,76.642-175.126
							c4.932-4.658-2.516-12.088-7.439-7.439c-50.397,47.597-79.055,113.266-79.724,182.565
							C1015.874,1656.659,1026.394,1656.666,1026.461,1649.887L1026.461,1649.887z"/>
					</g>
				</g>
				<g>
					<g>
						<path style="fill:#044D60;" d="M1120.972,1477.625c49.813,45.254,79.623,107.331,83.321,174.525
							c0.373,6.733,10.892,6.775,10.52,0c-3.842-69.818-34.584-134.89-86.405-181.964
							C1123.409,1465.642,1115.947,1473.061,1120.972,1477.625L1120.972,1477.625z"/>
					</g>
				</g>
				<g>
					<g>
						<path style="fill:#044D60;" d="M1112.321,1653.05c-19.847,84.81-22.103,172.176-6.809,257.917
							c1.187,6.654,11.327,3.833,10.145-2.797c-14.956-83.836-12.595-169.409,6.807-252.325
							C1124.008,1649.261,1113.866,1646.45,1112.321,1653.05L1112.321,1653.05z"/>
					</g>
				</g>
				<g>
					<g>
						<path style="fill:#044D60;" d="M1470.966,1167.676c-61.501,145.904-171.141,269.294-309.551,346.911
							c-2.052-2.898-4.208-5.76-6.397-8.553c136.43-76.238,244.974-197.542,305.734-341.221
							C1464.214,1165.592,1467.642,1166.579,1470.966,1167.676z"/>
					</g>
				</g>
				<g>
					<g>
						<path style="fill:#044D60;" d="M1523.841,1197.544c-59.133,165.732-173.473,309.797-321.535,404.913
							c-0.883-3.607-1.872-7.177-2.967-10.748v-0.034c145.763-94.512,258.018-236.989,315.63-400.955
							C1518.117,1192.983,1521.084,1195.281,1523.841,1197.544z"/>
					</g>
				</g>
				<g>
					<g>
						<path style="fill:#044D60;" d="M1073.298,1499.354c-2.404,3.039-4.7,6.151-6.963,9.295
							c-53.583-94.229-81.718-201.607-81.329-309.94c3.676-1.485,7.211-2.828,10.639-4.101
							C994.585,1301.032,1021.411,1406.36,1073.298,1499.354z"/>
					</g>
				</g>
				<g>
					<g>
						<path style="fill:#044D60;" d="M1029.86,1585.772c-1.274,4.629-2.404,9.297-3.43,14.031
							c-71.75-106.987-110.276-234.265-110.524-362.78c3.464-2.686,7.036-5.266,10.674-7.743
							C925.344,1355.181,961.359,1479.879,1029.86,1585.772z"/>
					</g>
				</g>
			</g>
			<g>
				<g>
					<path style="fill:#633613;" d="M2249.962,1528.975c-39.77,127.07-101.97,244.22-181.97,346.81c-3.59,4.62-7.23,9.21-10.9,13.77
						c-24.97,30.99-51.58,60.6-79.71,88.69l13.79-625.33l0.88-39.85c0.13,0.11,0.27,0.23,0.4,0.34
						C2100.412,1405.385,2181.802,1472.645,2249.962,1528.975z"/>
				</g>
				<g>
					<g>
						<path d="M1925.111,1298.852c-117.963-8.989-235.01,61.152-282.524,169.536c-2.692,6.14,6.368,11.502,9.083,5.31
							c46.175-105.326,158.736-173.068,273.44-164.328C1931.863,1309.886,1931.83,1299.364,1925.111,1298.852L1925.111,1298.852z"/>
					</g>
				</g>
				<g>
					<g>
						<path d="M1649.782,1918.695c73.3,51.34,146.59,102.69,219.89,154.03c-2.91,2.24-5.83,4.46-8.76,6.66
							c-72.15-50.53-144.29-101.07-216.44-151.61C1638.962,1923.915,1644.232,1914.795,1649.782,1918.695z"/>
					</g>
				</g>
			</g>
		</g>
	</g>
</g>
</svg>
