<?xml version="1.0" encoding="utf-8"?>
<!-- Generator: Adobe Illustrator 27.5.0, SVG Export Plug-In . SVG Version: 6.00 Build 0)  -->
<svg version="1.1" id="Layer_1" xmlns="http://www.w3.org/2000/svg" xmlns:xlink="http://www.w3.org/1999/xlink" x="0px" y="0px"
	 viewBox="0 0 2400 2400" style="enable-background:new 0 0 2400 2400;" xml:space="preserve">
<g>
	<path style="fill:#6B4E5E;" d="M2300.002,1199.995c0,202.63-54.79,392.46-150.37,555.49c-12.34,21.08-25.38,41.72-39.08,61.87
		c-14.12,20.79-28.94,41.08-44.42,60.82c-92.92,118.51-209.64,217.46-342.95,289.68c-2.78,1.51-5.57,3-8.37,4.48
		c-1.59,0.85-3.19,1.7-4.79,2.53c-1.33,0.7-2.67,1.4-4,2.09c-3.97,2.06-7.95,4.1-11.94,6.1c-1.87,0.95-3.75,1.89-5.62,2.82
		c-31.41,15.58-63.66,29.71-96.67,42.3c-14.23,5.43-28.6,10.57-43.11,15.41c-30.57,10.21-61.75,19.12-93.45,26.65
		c-81.91,19.46-167.37,29.76-255.23,29.76c-10.65,0-21.26-0.15-31.83-0.46c-5.49-0.15-10.97-0.34-16.44-0.59
		c-24.53-1.05-48.85-2.91-72.94-5.55c-62.47-6.85-123.37-18.93-182.24-35.79c-15.21-4.35-30.29-9.03-45.23-14.02
		c-2.22-0.74-4.43-1.49-6.64-2.24c-5.25-1.79-10.47-3.62-15.68-5.48c-19.04-6.82-37.83-14.15-56.36-21.97
		c-22.64-9.55-44.89-19.84-66.72-30.84c-2.48-1.24-4.96-2.5-7.43-3.77c-5.87-3.01-11.71-6.07-17.51-9.19
		c-48.87-26.2-95.53-55.98-139.62-89c-7.47-5.59-14.86-11.27-22.18-17.05c-30.91-24.38-60.47-50.39-88.57-77.89
		c-0.01-0.01-0.01-0.01-0.02-0.02c-32.67-31.98-63.36-65.98-91.86-101.8c-149.44-187.83-238.73-425.66-238.73-684.34
		c0-607.51,492.48-1100,1100-1100C1807.512,99.995,2300.002,592.485,2300.002,1199.995z"/>
	<g>
		<g>
			<g>
				<path style="fill:#00425A;" d="M909.492,1821.615c-1.47,12.23-3.93,24.42-7.42,36.45c-0.46,1.63-0.96,3.27-1.47,4.89
					c-5.47,17.47-13.11,34.55-23,50.91c-0.35,0.58-1.32,2.18-2.9,4.73c-7.88,12.85-30.83,49.84-65.51,101.97
					c-12.26,18.41-25.97,38.72-41.01,60.53c-19.27,27.95-40.71,58.35-64,90.38c-1.88,2.59-3.78,5.2-5.69,7.81
					c-5.87-3.01-11.71-6.07-17.51-9.19c-48.87-26.2-95.53-55.98-139.62-89c-7.47-5.59-14.86-11.27-22.18-17.05
					c-30.91-24.38-60.47-50.39-88.57-77.89c-0.01-0.01-0.01-0.01-0.02-0.02c-32.67-31.98-63.36-65.98-91.86-101.8
					c85.83-119.14,140.79-209.68,141.51-210.9c15.86-26.22,36.09-48.17,59.19-65.49c1.85-1.4,3.72-2.76,5.61-4.08
					c44.27-31.19,98.26-45.91,152.03-41.73c0,0,0.01,0.01,0.01,0c34.17,2.65,68.25,12.94,99.7,31.48c0.78,0.45,1.55,0.91,2.32,1.38
					c40.98,24.78,71.55,60.2,90.32,100.58c8.95,19.26,15.22,39.64,18.65,60.53C911.622,1777.625,912.142,1799.685,909.492,1821.615z
					"/>
			</g>
			<g>
				<g>
					<g>
						<g>
							<path style="fill:#FFFFFF;" d="M2110.552,1817.355c-14.12,20.79-28.94,41.08-44.42,60.82
								c-92.92,118.51-209.64,217.46-342.95,289.68c-2.78,1.51-5.57,3-8.37,4.48c-1.59,0.85-3.19,1.7-4.79,2.53
								c-1.33,0.7-2.67,1.4-4,2.09c-3.97,2.06-7.95,4.1-11.94,6.1c-1.87,0.95-3.75,1.89-5.62,2.82
								c-31.41,15.58-63.66,29.71-96.67,42.3c-14.23,5.43-28.6,10.57-43.11,15.41c-30.57,10.21-61.75,19.12-93.45,26.65
								c-81.91,19.46-167.37,29.76-255.23,29.76c-10.65,0-21.26-0.15-31.83-0.46c-5.49-0.15-10.97-0.34-16.44-0.59
								c-24.53-1.05-48.85-2.91-72.94-5.55c-62.47-6.85-123.37-18.93-182.24-35.79c-15.21-4.35-30.29-9.03-45.23-14.02
								c-2.22-0.74-4.43-1.49-6.64-2.24c-5.25-1.79-10.47-3.62-15.68-5.48c-19.04-6.82-37.83-14.15-56.36-21.97
								c-22.64-9.55-44.89-19.84-66.72-30.84c-2.48-1.24-4.96-2.5-7.43-3.77c-5.87-3.01-11.71-6.07-17.51-9.19
								c-48.87-26.2-95.53-55.98-139.62-89c-7.47-5.59-14.86-11.27-22.18-17.05c-30.91-24.38-60.47-50.39-88.57-77.89
								c-0.01-0.01-0.01-0.01-0.02-0.02c9.26-117.7,27.16-231.57,64.3-309.55c5.7-11.94,12.18-23.47,19.49-34.64
								c0.06-0.18,0.18-0.42,0.36-0.6c0.13-0.19,0.26-0.38,0.39-0.56c8.98-13.08,19-25.35,29.91-36.92
								c8.46-8.98,17.47-17.54,26.92-25.74c18.96-16.4,39.81-31.32,61.92-45.04c20.8-12.96,42.67-24.84,65.19-36.14
								c43.14-21.62,88.72-40.76,133.05-59.65c12.24-5.23,24.42-10.41,36.42-15.69c3.4-1.49,6.8-2.97,10.18-4.48
								c6.49-2.85,12.93-5.73,19.3-8.66c0.01,0,0.01-0.01,0.02-0.01c14.55-6.59,28.81-13.36,42.52-20.25
								c32.98-16.64,63.05-34.46,88.42-54.67c0.3-0.24,0.61-0.5,0.94-0.77c0.38-0.31,0.79-0.63,1.21-0.95l15.86-0.66l128.25-5.38
								l173.41-7.27c0.01,0,0.01-0.01,0.02,0l88.18-3.7l23.79-1c0,0,13.49,6.78,35.18,18.13c11.29,5.95,24.79,13.17,39.78,21.25
								c5.52,2.99,11.25,6.09,17.14,9.29c22.05,12.12,47.6,25.49,75.77,39.04c72.44,34.88,162.17,71.25,254.03,91.4
								c43.13,9.46,79.36,25.57,109.4,48.39c17.71,13.44,33.27,29.23,46.81,47.36
								C2079.662,1643.395,2102.262,1719.505,2110.552,1817.355z"/>
						</g>
					</g>
				</g>
				<g>
					<g>
						<g>
							<path style="fill:#F7991C;" d="M731.782,1533.082c-24.279,21.609-50.036,41.414-76.372,60.528h1124.002v-60.528H731.782z"/>
						</g>
					</g>
					<g>
						<g>
							<rect x="554.368" y="1695.576" style="fill:#F7991C;" width="1225.044" height="60.528"/>
						</g>
					</g>
					<g>
						<g>
							<rect x="536.776" y="1858.07" style="fill:#F7991C;" width="1242.636" height="60.528"/>
						</g>
					</g>
					<g>
						<g>
							<path style="fill:#F7991C;" d="M1779.412,2020.565v60.53H541.362c-7.47-5.59-14.86-11.27-22.18-17.05v-43.48H1779.412z"/>
						</g>
					</g>
					<g>
						<g>
							<path style="fill:#F7991C;" d="M1694.082,2183.055c-1.87,0.95-3.75,1.89-5.62,2.82c-31.41,15.58-63.66,29.71-96.67,42.3
								c-14.23,5.43-28.6,10.57-43.11,15.41h-697.36c-2.22-0.74-4.43-1.49-6.64-2.24c-5.25-1.79-10.47-3.62-15.68-5.48
								c-19.04-6.82-37.83-14.15-56.36-21.97c-22.64-9.55-44.89-19.84-66.72-30.84H1694.082z"/>
						</g>
					</g>
				</g>
			</g>
			<g>
				<g>
					<path style="fill:#00425A;" d="M1014.342,1728.225c0,0-2.89,9.74-7.93,27.88c-6.16,22.21-15.53,57.02-26.75,101.96
						c-4.62,18.51-9.55,38.75-14.7,60.53c-7.33,31.02-15.1,65.17-23.02,101.97c-4.2,19.46-8.44,39.66-12.68,60.53
						c-6.61,32.47-13.22,66.55-19.68,101.96c-3.61,19.78-7.18,39.97-10.67,60.53c-0.79,4.66-1.58,9.33-2.36,14.02
						c-15.21-4.35-30.29-9.03-45.23-14.02c-2.22-0.74-4.43-1.49-6.64-2.24c-5.25-1.79-10.47-3.62-15.68-5.48
						c-19.04-6.82-37.83-14.15-56.36-21.97c-22.64-9.55-44.89-19.84-66.72-30.84c-2.48-1.24-4.96-2.5-7.43-3.77
						c-5.87-3.01-11.71-6.07-17.51-9.19c-48.87-26.2-95.53-55.98-139.62-89c-7.47-5.59-14.86-11.27-22.18-17.05
						c-30.91-24.38-60.47-50.39-88.57-77.89c9.27-117.71,27.16-231.58,64.31-309.57c5.7-11.94,12.18-23.47,19.49-34.64
						c0.05-0.18,0.17-0.42,0.35-0.6c0.12-0.19,0.24-0.38,0.37-0.56c7.4-11.34,15.55-22.29,24.3-32.84
						c100.06-120.84,278.98-190.26,340.45-211.43c13.58-4.68,21.43-7,21.43-7c-1.25,6.41-2.37,12.7-3.27,18.94v0.01
						c-6.98,46.51-5.19,88.08,1.84,124.62c4.23,22.01,10.36,42.19,17.62,60.53c10.54,26.67,23.46,49.45,36.39,68.28
						c0.01,0,0.01,0.01,0.01,0.01c2.08,3.03,4.22,6.06,6.3,8.91v0.01c6.92,9.4,13.72,17.65,20.03,24.75
						c18.84,21.17,33.39,32.11,34.08,32.64C1014.332,1728.215,1014.342,1728.225,1014.342,1728.225z"/>
				</g>
			</g>
			<g>
				<g>
					<g>
						<path style="fill:#0C647C;" d="M961.842,1663.765c-0.08,0.33-0.65,2.75-1.64,7.05v0.01c-0.53,2.27-1.19,5.06-1.95,8.35
							c0,0.01,0,0.01,0,0.01c-1.06,4.55-2.34,10.03-3.81,16.39c-3.54,15.41-8.23,35.94-13.73,60.53
							c-6.47,28.93-14.08,63.49-22.31,101.96c-4.13,19.27-8.41,39.51-12.79,60.53c-6.74,32.43-13.72,66.68-20.68,101.97
							c-3.93,19.9-7.85,40.12-11.73,60.53c-6.4,33.7-12.67,67.89-18.62,101.96c-3.42,19.52-6.73,38.99-9.9,58.29
							c-5.25-1.79-10.47-3.62-15.68-5.48c2.88-17.5,5.87-35.13,8.96-52.81c5.93-34.05,12.19-68.25,18.58-101.96
							c3.86-20.4,7.77-40.63,11.7-60.53c6.94-35.26,13.9-69.51,20.64-101.97c4-19.23,7.92-37.83,11.72-55.64
							c0.35-1.64,0.7-3.27,1.04-4.89c2.69-12.58,5.31-24.75,7.85-36.45c5.21-23.96,10.06-45.96,14.43-65.51
							c5.42-24.29,10.09-44.78,13.7-60.53c3.81-16.58,6.47-27.9,7.63-32.83c0.38-1.62,0.6-2.55,0.65-2.75l7.95,1.89l0.04,0.01
							L961.842,1663.765z"/>
					</g>
				</g>
			</g>
			<g>
				<g>
					<path style="fill:#0C647C;" d="M774.912,2175.685l-0.44,7.37l-1.83,30.84c-22.64-9.55-44.89-19.84-66.72-30.84
						c-2.48-1.24-4.96-2.5-7.43-3.77c-5.87-3.01-11.71-6.07-17.51-9.19l23.2,1.38L774.912,2175.685z"/>
				</g>
			</g>
			<g>
				<g>
					<path style="fill:#00425A;" d="M2066.132,1878.175c-92.92,118.51-209.64,217.46-342.95,289.68c-2.78,1.51-5.57,3-8.37,4.48
						c-1.59,0.85-3.19,1.7-4.79,2.53c-1.33,0.7-2.67,1.4-4,2.09c-3.97,2.06-7.95,4.1-11.94,6.1c-1.87,0.95-3.75,1.89-5.62,2.82
						c-31.41,15.58-63.66,29.71-96.67,42.3c-14.23,5.43-28.6,10.57-43.11,15.41c-30.57,10.21-61.75,19.12-93.45,26.65
						c-81.91,19.46-167.37,29.76-255.23,29.76c-10.65,0-21.26-0.15-31.83-0.46c-5.49-0.15-10.97-0.34-16.44-0.59
						c-24.53-1.05-48.85-2.91-72.94-5.55c1.68-16.53,3.53-33.16,5.51-49.81c2.4-20.21,5.01-40.43,7.76-60.53
						c4.76-34.65,9.95-68.91,15.3-101.96c3.37-20.72,6.79-40.96,10.21-60.53c6.44-36.81,12.88-71.24,18.86-101.97
						c4.33-22.29,8.43-42.63,12.12-60.53c10.45-50.7,17.61-81.77,17.61-81.77l17.62-20.19l52.83-60.53l28.91-33.13l0.03-0.04
						l11.61-13.27l48.48-55.52l52.86-60.53l157.1-179.9l5.64-6.46c0,0,3.65,1.86,10.19,5.14
						c42.99,21.53,210.84,104.07,287.58,119.59c88.36,17.88,157.68,10.47,194.54,100.07c0.02,0.06,0.05,0.12,0.07,0.18
						c1.73,4.21,3.45,9.9,5.13,16.96C2050.122,1636.035,2060.372,1744.835,2066.132,1878.175z"/>
				</g>
			</g>
			<g>
				<g>
					<g>
						<path style="fill:#0C647C;" d="M1285.122,1651.105c-0.2,0.84-4.1,16.78-10.46,44.47c-1.33,5.83-2.78,12.18-4.32,19.02
							c-2.78,12.31-5.87,26.2-9.21,41.51c-6.39,29.27-13.68,63.68-21.41,101.96c-3.88,19.25-7.88,39.48-11.93,60.53
							c-6.19,32.27-12.51,66.45-18.72,101.97c-3.46,19.8-6.89,40.01-10.25,60.53c-5.46,33.31-10.73,67.44-15.66,101.96
							c-2.86,20.07-5.61,40.28-8.21,60.53c-2.39,18.63-4.66,37.3-6.78,55.95c-5.49-0.15-10.97-0.34-16.44-0.59
							c2.09-18.45,4.33-36.92,6.69-55.36c2.59-20.25,5.33-40.46,8.19-60.53c4.91-34.51,10.16-68.64,15.6-101.96
							c3.36-20.52,6.78-40.73,10.23-60.53c6.19-35.49,12.49-69.67,18.68-101.97c4.02-21.03,8.01-41.26,11.89-60.53
							c7.68-38.15,14.95-72.55,21.35-101.96c1.97-9.07,3.86-17.65,5.66-25.73c2.87-12.96,5.5-24.61,7.83-34.8
							c3.17-13.86,5.78-25.02,7.69-33.12c0-0.02,0.01-0.03,0.01-0.05c2.24-9.48,3.55-14.74,3.67-15.19l7.94,1.92h0.02
							L1285.122,1651.105z"/>
					</g>
				</g>
			</g>
			<g>
				<g>
					<path style="fill:#0C647C;" d="M1591.972,2225.205l-0.18,2.97c-14.23,5.43-28.6,10.57-43.11,15.41
						c-30.57,10.21-61.75,19.12-93.45,26.65l-194.16-11.55l0.9-15.1l2.25-37.89L1591.972,2225.205z"/>
				</g>
			</g>
		</g>
		<g>
			<g>
				<g>
					<g>
						<g>
							<path style="fill:#00425A;" d="M2149.632,1755.485c-12.34,21.08-25.38,41.72-39.08,61.87
								c-14.12,20.79-28.94,41.08-44.42,60.82c-92.92,118.51-209.64,217.46-342.95,289.68c-2.78,1.51-5.57,3-8.37,4.48
								c-1.59,0.85-3.19,1.7-4.79,2.53c-0.34-1.18-0.69-2.37-1.04-3.56c-4.59-15.86-9.5-32.48-14.66-50.04
								c-3.78-12.86-7.7-26.23-11.75-40.17c-5.52-19.05-11.28-39.17-17.21-60.53c-8.68-31.18-17.74-65-27.06-101.97
								c-0.49-1.96-0.99-3.92-1.48-5.9c-1.17-4.68-2.35-9.42-3.53-14.2c-3.19-12.93-5.71-25.58-7.59-37.94
								c-0.13-0.83-0.25-1.66-0.37-2.49c-5.35-36.64-5.11-70.69-0.3-101.96c3.31-21.51,8.77-41.71,16.08-60.53
								c15.75-40.66,40.03-74.86,69.47-101.96c20.77-19.12,44.11-34.7,68.83-46.51c63.65-30.42,136.44-35.83,198.11-12.32
								c4.85,1.85,9.66,4.02,14.42,6.52c14.26,7.42,28.14,17.62,41.61,30.22C2076.862,1612.075,2115.932,1677.495,2149.632,1755.485
								z"/>
						</g>
					</g>
				</g>
			</g>
			<g>
				<g>
					<g>
						<g>
							<g>
								<path style="fill:#0C647C;" d="M1723.182,2167.855c-2.78,1.51-5.57,3-8.37,4.48c-1.59,0.85-3.19,1.7-4.79,2.53
									c-1.33,0.7-2.67,1.4-4,2.09c-1.42-2.51-2.9-4.98-4.45-7.43c-1.54-2.46-3.16-4.9-4.83-7.31
									c-16.37-23.55-30.89-51.52-42.88-81.12c-7.99-19.73-14.86-40.18-20.41-60.53c-9.77-35.82-15.43-71.31-15.92-101.97
									c-0.34-21.43,1.86-40.48,6.96-55.64c0.29-0.87,0.7-1.68,1.21-2.4c0.67-0.99,1.52-1.83,2.49-2.49
									c2.43-1.68,5.6-2.23,8.61-1.21c0.88,0.29,1.69,0.7,2.41,1.21c3.49,2.39,5.11,6.89,3.7,11.1
									c-4.02,11.93-5.97,26.77-6.09,43.53c-0.02,1.93-0.01,3.9,0.03,5.9c0.51,30.2,6.55,65.98,16.81,101.97
									c5.82,20.44,13,40.94,21.3,60.53c5.91,13.98,12.4,27.48,19.36,40.17c5.81,10.6,11.95,20.62,18.38,29.86
									C1716.492,2156.575,1719.972,2162.145,1723.182,2167.855z"/>
							</g>
						</g>
					</g>
				</g>
				<g>
					<g>
						<g>
							<g>
								<path style="fill:#0C647C;" d="M1714.812,2172.335c-1.59,0.85-3.19,1.7-4.79,2.53c-1.33,0.7-2.67,1.4-4,2.09
									c-3.97,2.06-7.95,4.1-11.94,6.1c-1.87,0.95-3.75,1.89-5.62,2.82c-2.72-0.87-5.43-1.82-8.14-2.82
									c-41.77-15.4-81.54-44.09-83.72-45.67c-4.35-3.16-5.31-9.23-2.15-13.58c3.15-4.34,9.24-5.29,13.57-2.14
									c0.57,0.42,50.11,36.13,93.55,47.86c2.5,0.68,4.97,1.28,7.41,1.78C1710.952,2171.715,1712.892,2172.055,1714.812,2172.335z"
									/>
							</g>
						</g>
					</g>
				</g>
			</g>
		</g>
		<g>
			<g>
				<path style="fill:#37202B;" d="M1555.009,667.326c0,0,108.479,263.34,73.433,347.456
					c-35.049,84.114-97.059,28.995-97.059,28.995s65.679,163.867-30.353,197.041c-60.519,20.905-103.739-104.176-103.739-104.176
					S1368.985,721.247,1555.009,667.326z"/>
			</g>
			<g>
				<path style="fill:#37202B;" d="M921.917,773.406c0,0-132.103,193.038-97.056,277.151c35.049,84.116,97.056,28.998,97.056,28.998
					s-65.677,163.865,30.353,197.039c60.519,20.907,103.741-104.176,103.741-104.176S1107.944,827.325,921.917,773.406z"/>
			</g>
			<g>
				<g>
					<g>
						<path style="fill:#EB7A23;" d="M1536.921,565.744c0,0,117.781,41.383,108.175,99.893
							c-9.606,58.508-136.902-17.381-136.902-17.381S1498.569,572.389,1536.921,565.744z"/>
					</g>
				</g>
			</g>
			<g>
				<g>
					<g>
						<path style="fill:#F69986;" d="M1029.919,1260.214v102.668c12.012,9.706,24.155,18.15,36.34,25.461
							c178.267,107.064,370.589-25.461,370.589-25.461v-355.964l-358.401,223.093L1029.919,1260.214z"/>
					</g>
				</g>
			</g>
			<g>
				<path style="fill:#0C647C;" d="M1166.166,1776.295c0,0-11.623-129.917,0.725-227.707
					c12.336-97.698,24.066-174.308,24.066-174.308s197.474-41.409,248.287-132.619c0,0,110.83,53.545,113.502,120.813
					C1552.745,1362.476,1347.376,1715.641,1166.166,1776.295z"/>
			</g>
			<g>
				<g>
					<g>
						<path style="fill:#37202B;" d="M1029.919,1260.214v102.668c12.012,9.706,24.155,18.15,36.34,25.461
							c151.79-60.088,262.274-219.349,262.274-219.349l-250.086,61.017L1029.919,1260.214z"/>
					</g>
				</g>
			</g>
			<g>
				<path style="fill:#0C647C;" d="M1029.917,1289.108c0,0-142.713-11.228-150.438,112.409
					c-15.353,245.697,134.831,326.709,134.831,326.709l48.367-164.88c17.354-54.812,27.258-133.227,31.435-187.317
					C1094.113,1376.029,1040.416,1346.714,1029.917,1289.108z"/>
			</g>
			<g>
				<g>
					<g>
						<g>
							<path style="fill:#37202B;" d="M1008.419,424.315c0,0-248.074,23.348-158.508,282.858
								C849.911,707.174,1014.142,492.143,1008.419,424.315z"/>
						</g>
					</g>
				</g>
				<g>
					<g>
						<g>
							<path style="fill:#F2765F;" d="M901.617,805.239c0,0-58.311-68.89-91.267,0c-32.956,68.89-7.607,208.324,81.126,185.506
								L901.617,805.239z"/>
						</g>
					</g>
				</g>
				<g>
					<g>
						<g>
							<path style="fill:#F69986;" d="M839.419,1046.816c0,0-0.309,212.256,220.48,211.776
								c219.416-0.411,368.938-172.717,376.716-180.701c0.138-0.135,0.24-0.204,0.24-0.204l2.399-44.61l12.472-231.546l6.68-123.757
								c0,0,28.027-222.844-183.749-263.478c-154.729-29.706-299.831-4.01-373.051,76.714
								c-26.965,29.773-44.166,67.05-48.483,111.798l-6.853,222.295l-1.677,54.476L839.419,1046.816z"/>
						</g>
					</g>
				</g>
				<g>
					<g>
						<g>
							<g>
								<path style="fill:#F2765F;" d="M1134.24,852.415c0,15.455,31.83,27.982,71.093,27.982s71.093-12.527,71.093-27.982
									c0-15.453-31.83-27.98-71.093-27.98S1134.24,836.962,1134.24,852.415z"/>
							</g>
						</g>
					</g>
				</g>
				<g style="opacity:0.8;">
					<g>
						<g>
							<g>
								<path style="fill:#F2765F;" d="M844.593,879.58c5.48,0.549,11.239,0.824,17.13,0.824c39.232,0,71.06-12.54,71.06-27.993
									c0-15.453-31.828-27.991-71.06-27.991c-5.31,0-10.483,0.238-15.453,0.684L844.593,879.58z"/>
							</g>
						</g>
					</g>
				</g>
				<g>
					<g>
						<g>
							<g>
								<path style="fill:#37202B;" d="M1121.291,767.352c0,21.227,9.626,38.432,21.502,38.432
									c11.876,0,21.502-17.206,21.502-38.432c0-21.224-9.626-38.43-21.502-38.43
									C1130.917,728.922,1121.291,746.128,1121.291,767.352z"/>
							</g>
						</g>
					</g>
					<g>
						<g>
							<g>
								<path style="fill:#37202B;" d="M911.296,767.352c0,21.227,9.628,38.432,21.504,38.432c11.874,0,21.502-17.206,21.502-38.432
									c0-21.224-9.628-38.43-21.502-38.43C920.924,728.922,911.296,746.128,911.296,767.352z"/>
							</g>
						</g>
					</g>
					<g>
						<g>
							<g>
								<path style="fill:#37202B;" d="M1034.533,874.206c-51.755,0-69.214-36.144-69.934-37.682
									c-1.111-2.384-1.091-5.138,0.058-7.504c35.485-73.117,71.429-148.269,71.786-149.018c2.079-4.348,7.296-6.191,11.645-4.112
									c4.352,2.081,6.192,7.295,4.11,11.647c-0.351,0.735-34.96,73.095-69.792,144.908c4.987,7.356,19.96,24.295,52.126,24.295
									c4.823,0,8.733,3.91,8.733,8.733C1043.266,870.296,1039.356,874.206,1034.533,874.206z"/>
							</g>
						</g>
					</g>
					<g>
						<g>
							<g>
								<path style="fill:#37202B;" d="M1242.82,669.945c-4.856-22.404-23.523-64.487-95.175-67.679
									c-8.748-0.389-16.617,5.383-18.939,13.827l0,0c-2.914,10.599,3.81,21.533,14.631,23.462
									c19.021,3.386,46.594,13.767,62.347,44.786c4.919,9.688,17.319,12.785,26.552,7.055l2.144-1.331
									C1241.196,685.836,1244.519,677.783,1242.82,669.945z"/>
							</g>
						</g>
					</g>
					<g>
						<g>
							<g>
								<path style="fill:#37202B;" d="M875.621,669.945c4.858-22.404,23.524-64.487,95.177-67.679
									c8.748-0.389,16.617,5.383,18.939,13.827l0,0c2.912,10.599-3.81,21.533-14.633,23.462
									c-19.021,3.386-46.592,13.767-62.345,44.786c-4.92,9.688-17.321,12.785-26.552,7.055l-2.146-1.331
									C877.247,685.836,873.924,677.783,875.621,669.945z"/>
							</g>
						</g>
					</g>
					<g>
						<g>
							<g>
								<path style="fill:#37202B;" d="M999.347,984.021c-25.561,0-52.63-7.218-79.497-26.392
									c-3.928-2.801-4.839-8.253-2.037-12.181c2.803-3.928,8.255-4.834,12.18-2.037c96.105,68.583,197.536-37.677,198.549-38.757
									c3.295-3.514,8.826-3.699,12.345-0.4c3.517,3.297,3.699,8.824,0.4,12.343
									C1140.445,917.495,1076.907,984.021,999.347,984.021z"/>
							</g>
						</g>
					</g>
				</g>
				<g>
					<g>
						<g>
							<path style="fill:#37202B;" d="M1367.518,991.771c1,2.353,28.942,67.155,69.112,86.131c0.131-0.131,0.218-0.218,0.218-0.218
								l2.395-44.611C1439.243,1033.074,1404.389,1027.123,1367.518,991.771z"/>
						</g>
					</g>
				</g>
				<g>
					<g>
						<g>
							<path style="fill:#F69986;" d="M1406.393,844.357c0,0,84.864-113.996,147.041-24.415
								c51.235,73.819-45.635,266.192-147.041,200.28V844.357z"/>
						</g>
					</g>
				</g>
				<g>
					<g>
						<g>
							<path style="fill:#37202B;" d="M1417.996,985.895c-0.317,0-0.638-0.018-0.96-0.051c-4.796-0.526-8.257-4.839-7.733-9.633
								c10.605-96.95,92.191-130.528,95.657-131.908c4.483-1.793,9.562,0.398,11.345,4.878c1.784,4.474-0.391,9.546-4.863,11.339
								l0,0c-3.07,1.24-75.341,31.319-84.776,117.59C1426.176,982.583,1422.392,985.895,1417.996,985.895z"/>
						</g>
					</g>
				</g>
				<g>
					<g>
						<g>
							<path style="fill:#37202B;" d="M1499.482,932.961c-1.933,0-3.879-0.64-5.498-1.953l0,0
								c-7.593-6.154-30.619-21.28-45.672-17.426c-4.676,1.191-9.433-1.624-10.626-6.296c-1.197-4.672,1.624-9.428,6.294-10.623
								c26.239-6.725,57.535,17.954,61.023,20.791c3.739,3.044,4.305,8.544,1.262,12.285
								C1504.538,931.859,1502.021,932.961,1499.482,932.961z"/>
						</g>
					</g>
				</g>
			</g>
			<g>
				<g>
					<g>
						<path style="fill:#37202B;" d="M901.617,491.01c1.566,7.442,4.743,13.885,9.661,19.019
							c42.913,45.004,144.275,29.031,238.239,0c93.964-28.984,159.941,39.17,159.941,39.17
							c-26.112,89.961,62.368,97.23,43.522,165.384c-18.888,68.199-11.619,158.157-11.619,158.157l55.141-7.267
							c11.883-32.032,40.345-66.226,102.988-79.824c64.391,11.852,68.092-122.051,34.991-228.007
							c0,0-48.063-102.712-259.839-143.362C1119.922,384.599,974.821,410.277,901.617,491.01z"/>
					</g>
				</g>
			</g>
			<g>
				<g>
					<g>
						<path style="fill:#F7991C;" d="M1555.009,648.241l-107.375-82.297l-13.867-10.619l-30.391-23.297
							c-212.029-96.061-478.444-81.914-478.444-81.914s52.85-194.528,303.372-202.772c90.75-3.004,164.244,18.445,219.643,53.585
							c9.573,6.043,18.583,12.505,27.036,19.352c50.335,40.483,81.495,93.438,92.602,147.267
							C1591.373,582.921,1555.009,648.241,1555.009,648.241z"/>
					</g>
				</g>
			</g>
			<g>
				<g>
					<g>
						<g>
							<path style="fill:#EB7A23;" d="M1447.633,565.944l-13.867-10.619c41.391-43.802,55.189-101.857,41.007-173.115
								c-6.287-31.752-17.255-60.326-26.827-81.284c9.573,6.043,18.583,12.505,27.036,19.352
								c6.498,17.255,12.645,37.131,16.908,58.542C1506.946,454.341,1491.646,518.23,1447.633,565.944z"/>
						</g>
					</g>
				</g>
			</g>
			<g>
				<g>
					<g>
						<path style="fill:#FCB912;" d="M1113.558,294.842c0,0,91.776-31.779,214.975,26.654l-20.336,68.823
							c0,0-117.599-40.752-201.531-39.588L1113.558,294.842z"/>
					</g>
				</g>
			</g>
			<g>
				<g>
					<g>
						<path style="fill:#EB7A23;" d="M834.012,565.744c0,0-289.23-164.124-144.85-285.218s497.585-17.397,714.219,251.501
							C1403.381,532.028,875.183,365.525,834.012,565.744z"/>
					</g>
				</g>
			</g>
		</g>
	</g>
</g>
</svg>
