<?xml version="1.0" encoding="utf-8"?>
<!-- Generator: Adobe Illustrator 27.5.0, SVG Export Plug-In . SVG Version: 6.00 Build 0)  -->
<svg version="1.1" id="Layer_1" xmlns="http://www.w3.org/2000/svg" xmlns:xlink="http://www.w3.org/1999/xlink" x="0px" y="0px"
	 viewBox="0 0 2400 2400" style="enable-background:new 0 0 2400 2400;" xml:space="preserve">
<path style="fill:#D0DDDE;" d="M2300.002,1199.995c0,215.92-62.21,417.31-169.68,587.22c-14.86,23.48-30.57,46.36-47.11,68.59
	c-75.27,101.21-167.54,189.04-272.57,259.27c-15.46,10.34-31.2,20.3-47.21,29.87c-5.16,3.08-10.34,6.12-15.56,9.12
	c-25.25,14.53-51.13,28.09-77.6,40.62c-10.67,5.06-21.44,9.95-32.3,14.66c-134.21,58.32-282.31,90.65-437.97,90.65
	c-8.26,0-16.5-0.09-24.72-0.28c-5.77-0.12-11.53-0.29-17.28-0.51c-182.59-6.85-353.79-58.21-503.08-143.54
	c-7.63-4.36-15.2-8.81-22.72-13.36c-132.84-80.2-247.35-187.72-335.75-314.76c-123.84-177.98-196.45-394.28-196.45-627.55
	c0-607.51,492.48-1100,1100-1100C1807.512,99.995,2300.002,592.485,2300.002,1199.995z"/>
<g>
	<g>
		<g>
			<g>
				<path style="fill:#0076BC;" d="M2083.212,1855.805c-75.27,101.21-167.54,189.04-272.57,259.27
					c-15.46,10.34-31.2,20.3-47.21,29.87c-5.16,3.08-10.34,6.12-15.56,9.12c-25.25,14.53-51.13,28.09-77.6,40.62
					c-10.67,5.06-21.44,9.95-32.3,14.66c-134.21,58.32-282.31,90.65-437.97,90.65c-8.26,0-16.5-0.09-24.72-0.28
					c-5.77-0.12-11.53-0.29-17.28-0.51c-182.59-6.85-353.79-58.21-503.08-143.54c-7.63-4.36-15.2-8.81-22.72-13.36
					c-18.21-247.87-63.01-386.54-46.4-463.22c10.81-49.9,34.59-83.13,66.56-106.97c1.79-1.34,3.6-2.64,5.44-3.91
					c70.74-49.12,178.21-56.64,274.92-95.05c1.34-0.53,2.67-1.06,4.01-1.6c4-1.63,7.98-3.31,11.92-5.05
					c47.36-20.85,91.44-50.32,126.37-97.23h410.2c0,0,0.03,0.02,0.08,0.06v0.01c1.71,1.44,30.79,25.55,87.77,52.29
					c1.37,0.65,2.76,1.3,4.17,1.95c0.7,0.32,1.41,0.65,2.12,0.98c2.13,0.98,4.3,1.96,6.51,2.93c0.74,0.32,1.48,0.65,2.23,0.98
					c0.74,0.33,1.48,0.66,2.23,0.98c49.41,21.48,116.31,43.39,201,55.82c43.3,6.34,82.24,21.24,116.69,44.18
					C1996.552,1588.355,2055.532,1700.225,2083.212,1855.805z"/>
			</g>
		</g>
		<g>
			<g>
				<path style="fill:#0076BC;" d="M654.922,2155.665c-7.63-4.36-15.2-8.81-22.72-13.36c-132.84-80.2-247.35-187.72-335.75-314.76
					l355.91-255.43l5.44-3.91C637.252,1607.455,649.912,2015.445,654.922,2155.665z"/>
			</g>
		</g>
		<g>
			<g>
				<g>
					<g>
						<path style="fill:#FFFFFF;" d="M1251.861,1728.349c-4.645,0-9.153-1.867-12.466-5.141c-0.807-0.846-1.547-1.727-2.184-2.678
							c-0.633-0.985-1.158-2.007-1.62-3.064c-0.419-1.056-0.773-2.148-0.983-3.273c-0.248-1.163-0.354-2.325-0.354-3.451
							c0-4.65,1.867-9.192,5.141-12.466c0.813-0.81,1.727-1.55,2.679-2.184c0.95-0.635,2.006-1.163,3.062-1.62
							c1.059-0.423,2.149-0.776,3.276-0.986c5.739-1.162,11.795,0.703,15.881,4.789c3.311,3.309,5.175,7.816,5.175,12.466
							c0,4.613-1.864,9.156-5.175,12.466C1261.018,1726.482,1256.477,1728.349,1251.861,1728.349z"/>
					</g>
				</g>
			</g>
			<g>
				<g>
					<g>
						<path style="fill:#FFFFFF;" d="M1222.567,2291.658c0.457,0.035,0.914,0.072,1.371,0.072c9.12,0,16.834-7.043,17.535-16.269
							c0.743-9.683-6.514-18.17-16.197-18.909c-9.683-0.74-18.171,6.512-18.91,16.197
							C1205.627,2282.432,1212.882,2290.919,1222.567,2291.658z"/>
					</g>
					<g>
						<path style="fill:#FFFFFF;" d="M1235.665,2104.006c0.35,0.034,0.705,0.034,1.056,0.034c9.226,0,17.007-7.218,17.571-16.547
							c0.565-9.722-6.832-18.068-16.55-18.628c-9.718-0.564-18.029,6.83-18.628,16.547
							C1218.55,2095.096,1225.947,2103.442,1235.665,2104.006z"/>
					</g>
					<g>
						<path style="fill:#FFFFFF;" d="M1245.455,1916.143c0.244,0,0.492,0.034,0.74,0.034c9.364,0,17.183-7.431,17.568-16.902
							c0.389-9.718-7.145-17.922-16.867-18.312c-9.718-0.388-17.924,7.15-18.309,16.868
							C1228.164,1907.55,1235.734,1915.755,1245.455,1916.143z"/>
					</g>
				</g>
			</g>
		</g>
		<g>
			<g>
				<g>
					<path style="fill:#0053A4;" d="M1699.042,2074.005c0.75,0.87,24.47,28.13,64.39,70.94c-5.16,3.08-10.34,6.12-15.56,9.12
						c-38.57-41.42-61.4-67.64-62.14-68.51c-3.21-3.7-2.79-9.26,0.88-12.43C1690.272,2069.955,1695.832,2070.345,1699.042,2074.005z
						"/>
				</g>
			</g>
			<g>
				<g>
					<path style="fill:#0053A4;" d="M1640.222,2191.905l30.05,2.78c-10.67,5.06-21.44,9.95-32.3,14.66
						c-4.52-0.74-7.75-4.86-7.32-9.49C1631.102,2195.015,1635.402,2191.405,1640.222,2191.905z"/>
				</g>
			</g>
		</g>
		<g>
			<g>
				<g>
					<path style="fill:#0053A4;" d="M932.733,1473.172l44.316,110.149c1.623,4.041,5.975,6.217,10.155,5.146
						c120.925-31.052,197.223,65.074,197.983,66.075c2.659,3.419,7.495,4.352,11.226,2.107
						c5.388-3.212,133.221-77.336,211.902,33.78c1.624,2.313,4.249,3.66,7.047,3.66c0.311,0,0.656-0.034,0.966-0.069
						c3.143-0.346,5.803-2.383,7.012-5.284c0.932-2.211,78.095-188.07,167.001-259.292c-6.01-2.59-11.779-5.215-17.27-7.805
						c-76.609,66.178-140.543,202.75-159.851,246.857c-77.473-93.328-191.144-44.349-219.225-30.119
						c-19.1-20.966-93.846-92.671-203.682-68.39l-41.655-103.481C943.407,1468.82,938.088,1471.031,932.733,1473.172z"/>
				</g>
			</g>
		</g>
		<g>
			<g>
				<g>
					<path style="fill:#0053A4;" d="M1175.282,2299.715c-5.77-0.12-11.53-0.29-17.28-0.51c28.04-350.56,25.77-615.89,25.39-646.82
						c-0.02-1.8-0.04-2.81-0.04-2.99c-0.07-4.58,3.44-8.39,7.95-8.78c0.18-0.02,0.36-0.03,0.55-0.03c1.36-0.04,2.64,0.24,3.78,0.77
						c2.93,1.34,4.94,4.3,4.99,7.73c0,0.25,0.03,1.99,0.06,5.17C1201.132,1693.875,1202.762,1955.815,1175.282,2299.715z"/>
				</g>
			</g>
		</g>
	</g>
	<g>
		<g>
			<path style="fill:#0076BC;" d="M2130.322,1787.215c-14.86,23.48-30.57,46.36-47.11,68.59
				c-75.27,101.21-167.54,189.04-272.57,259.27c-103.2-141.25-170.41-251.93-173.9-257.7c-64.43-106.5-30.33-245.05,76.17-309.48
				c61.16-37.01,132.91-41.5,195.11-18.44c46.08,17.07,86.93,49.27,114.35,94.57
				C2023.962,1626.655,2065.112,1694.075,2130.322,1787.215z"/>
		</g>
	</g>
	<g>
		<g>
			<g>
				<path style="fill:#5F252A;" d="M1696.583,927.049c19.561,90.719-65.088,131.526-93.755,154.965
					c-70.484,57.5-23.101,106.064-91.056,159.012c-9.781,7.588-18.549,12.478-26.474,15.175v-174.356l2.361-45.022
					c88.696,12.647,161.204-148.557,115.169-214.827c-33.049-47.72-72.508-38.108-102.522-18.548v0.169c0,0,0,0-0.169,0
					c-26.643,17.536-45.528,42.999-45.528,42.999v0.843c-5.227,3.373-10.455,6.071-15.344,7.251
					c-24.451,4.553-44.686-19.222-36.086-42.492c8.094-21.247,9.274-44.011-10.623-59.356
					c-46.878-36.254,38.109-57.838,8.769-104.04c-29.341-46.203-32.208-75.544-5.903-111.797
					c26.643-36.254-20.066-91.562-97.801-51.767c-77.735,39.626-165.588,70.822-244.335,36.254
					c-47.721-21.078-73.183-32.545-102.354-26.474c-1.686-1.687-3.542-3.204-5.565-4.384c-2.192,2.529-4.552,5.227-6.576,7.756
					c-5.227,6.408-9.948,13.153-14.164,20.066c-15.177,24.451-24.619,52.611-27.823,84.649l-5.396,173.176
					c-4.721,0.169-9.443,1.18-14.164,3.541c-7.757-14.333-12.141-33.218-7.588-53.622c10.455-47.383,13.49-63.065-15.851-140.8
					c-19.223-51.093,3.542-79.084,21.584-92.237c-75.038-66.1-131.358-243.829-35.748-299.138
					c84.986-49.069,203.191-23.775,327.466,45.36c124.444,69.136,192.736,9.106,344.666,64.414
					c151.761,55.309,24.282,154.46,141.643,251.08c117.362,96.452,47.215,193.41,6.914,232.362
					C1620.029,826.38,1677.023,836.329,1696.583,927.049z"/>
				<path style="fill:#5F252A;" d="M1487.66,1036.823l-2.361,45.022v174.356c-56.488,18.38-67.449-79.59-69.473-109.942
					c-0.506-5.565-0.506-8.769-0.506-8.769s-14.67-22.595-39.289-59.187c-32.039-47.888-80.602-119.553-134.731-195.771
					c-11.635-16.356-23.607-32.882-35.579-49.575c-6.07-8.6-12.14-17.031-18.379-25.462c-6.408-8.6-12.647-17.199-18.886-25.63
					c-23.945-32.208-47.889-63.74-70.991-93.249c0-0.169,0-0.169,0-0.169c-3.542-4.216-6.745-8.262-10.117-12.309
					c-12.816-16.357-25.462-31.701-37.772-46.203c-5.901-6.914-11.635-13.659-17.199-20.066
					c-21.922-24.957-42.156-46.203-59.693-61.717c-19.897-17.705-36.422-28.329-48.057-29.678
					c4.216-6.913,8.937-13.659,14.164-20.066c2.024-2.529,4.384-5.227,6.576-7.756c2.023,1.181,3.879,2.698,5.565,4.384
					c29.171-6.071,54.634,5.396,102.354,26.474c78.747,34.568,166.6,3.372,244.335-36.254
					c77.735-39.795,124.444,15.513,97.801,51.767c-26.305,36.253-23.439,65.595,5.903,111.797
					c29.34,46.203-55.647,67.786-8.769,104.04c19.897,15.344,18.717,38.109,10.623,59.356c-8.6,23.27,11.635,47.046,36.086,42.492
					c4.89-1.179,10.117-3.878,15.344-7.251v-0.843c0,0,18.886-25.462,45.528-42.999c0.169,0,0.169,0,0.169,0v-0.169
					c30.014-19.56,69.473-29.171,102.522,18.548C1648.864,888.266,1576.356,1049.469,1487.66,1036.823z"/>
			</g>
		</g>
		<g>
			<g>
				<g>
					<path style="fill:#F27571;" d="M1485.299,1010.349v358.998c0,0-85.492,59.018-195.771,66.775
						c-36.592,2.698-75.88-0.338-115.676-12.984c-20.74-6.577-41.481-15.682-62.222-28.16c-12.309-7.419-24.45-15.851-36.591-25.631
						v-103.535l4.553-2.866l44.348-27.654l252.092-156.988l63.57-39.457l19.561-12.141l0.169-0.169L1485.299,1010.349z"/>
				</g>
			</g>
			<g>
				<g>
					<path style="fill:#F27571;" d="M1290.094,1437.051l-98.102,212.185l-18.065-226.101
						C1173.926,1423.135,1269.874,1382.071,1290.094,1437.051z"/>
				</g>
			</g>
			<g>
				<g>
					<path style="fill:#00232C;" d="M1075.026,1265.772v103.5c12.109,9.784,24.35,18.296,36.635,25.667
						c153.019-60.576,264.398-221.127,264.398-221.127l-252.113,61.513L1075.026,1265.772z"/>
				</g>
			</g>
		</g>
		<g>
			<g>
				<path style="fill:#EF4A51;" d="M945.705,807.158l-1.349,23.775l-2.529,48.057l-6.408,115.17
					c-19.897,5.058-36.76,2.023-50.418-6.576c-47.384-29.678-57.164-126.467-31.365-180.426
					c7.083-14.671,15.176-23.102,23.608-27.318c4.721-2.36,9.443-3.372,14.164-3.541c10.961-0.338,21.922,4.552,31.027,10.623
					C936.093,795.859,945.705,807.158,945.705,807.158z"/>
			</g>
		</g>
		<g>
			<g>
				<path style="fill:#5F252A;" d="M970.492,616.95c-3.204,23.101-8.262,47.046-14.333,69.641v0.169
					c-10.623,41.144-23.944,78.073-33.725,100.162c-5.396,12.478-9.612,20.066-11.635,20.74c-4.721,1.686-12.478-2.023-20.066-9.274
					c-4.721-4.722-9.612-11.13-13.49-18.549c4.721-2.36,9.443-3.372,14.164-3.541l5.396-173.176
					c3.204-32.038,12.647-60.199,27.823-84.649c4.216-6.913,8.937-13.659,14.164-20.066c2.024-2.529,4.384-5.227,6.576-7.756
					c2.023,1.181,3.879,2.698,5.565,4.384c12.647,11.803,19.223,30.521,21.752,53.116C974.876,568.724,973.696,592.5,970.492,616.95
					z"/>
			</g>
		</g>
		<g>
			<g>
				<path style="fill:#F27571;" d="M1500.307,803.616l-4.722,86.335l-0.505,8.769l-0.844,17.874l-0.336,6.239l-6.239,113.989
					l-2.361,45.022c0,0-0.169,0-0.338,0.169c-3.035,3.204-27.486,31.026-69.135,64.245c-12.478,9.779-26.474,20.235-41.987,30.521
					c-66.101,44.179-158.675,87.178-268.617,87.347c-8.938,0-17.369-0.338-25.631-1.18
					c-196.278-15.008-196.615-210.948-196.615-212.297l2.024-63.065l3.203-105.558l1.687-54.97l0.843-28.666l0.674-22.09
					l5.396-173.176c3.204-32.038,12.647-60.199,27.823-84.649c4.216-6.913,8.937-13.659,14.164-20.066
					c2.024-2.529,4.384-5.227,6.576-7.756c2.023,1.181,3.879,2.698,5.565,4.384c29.171-6.071,54.634,5.396,102.354,26.474
					c78.747,34.568,166.6,3.372,244.335-36.254c77.735-39.795,124.444,15.513,97.801,51.767
					c-26.305,36.253-23.439,65.595,5.903,111.797c29.34,46.203-55.647,67.786-8.769,104.04
					c19.897,15.344,18.717,38.109,10.623,59.356c-8.6,23.27,11.635,47.046,36.086,42.492c4.89-1.179,10.117-3.878,15.344-7.251
					v-0.843c0,0,18.886-25.462,45.528-42.999C1500.307,803.616,1500.307,803.616,1500.307,803.616z"/>
			</g>
		</g>
		<g>
			<g>
				<path style="fill:#5F252A;" d="M1299.907,658.755L1299.907,658.755c-11.292,25.017-40.526,36.402-65.741,25.559
					c-14.725-6.332-32.091-12.557-50.401-16.542c-25.964-5.651-41.997-31.747-34.97-57.374l0,0
					C1148.794,610.398,1252.415,600.9,1299.907,658.755z"/>
			</g>
		</g>
		<g>
			<g>
				<path style="fill:#5F252A;" d="M897.416,658.755L897.416,658.755c11.293,25.017,40.528,36.402,65.742,25.559
					c14.724-6.332,32.091-12.557,50.4-16.542c25.964-5.651,41.998-31.747,34.97-57.374l0,0
					C1048.529,610.398,944.909,600.9,897.416,658.755z"/>
			</g>
		</g>
		<g>
			<g>
				<path style="fill:#5F252A;" d="M950.932,495.036c-3.878,0.843-7.926,1.855-12.141,3.372c2.024-2.529,4.384-5.227,6.576-7.756
					C947.39,491.832,949.246,493.349,950.932,495.036z"/>
				<path style="fill:#5F252A;" d="M1500.138,803.616c-1.349,1.686-9.78,11.973-20.909,23.101
					c-7.419,7.419-16.188,15.177-24.619,20.74v-0.843C1454.609,846.615,1473.495,821.153,1500.138,803.616z"/>
			</g>
		</g>
		<g style="opacity:0.8;">
			<g>
				<g>
					<ellipse style="fill:#EF4A51;" cx="1251.861" cy="854.67" rx="71.668" ry="28.208"/>
				</g>
			</g>
		</g>
		<g style="opacity:0.8;">
			<g>
				<g>
					<path style="fill:#EF4A51;" d="M888.199,882.056c5.527,0.552,11.329,0.829,17.27,0.829c39.548,0,71.636-12.642,71.636-28.22
						s-32.088-28.219-71.636-28.219c-5.354,0-10.569,0.242-15.577,0.69L888.199,882.056z"/>
				</g>
			</g>
		</g>
		<g>
			<g>
				<g>
					<path style="fill:#00232C;" d="M1167.137,768.919c0,21.396,9.705,38.742,21.678,38.742c11.972,0,21.677-17.346,21.677-38.742
						c0-21.398-9.705-38.742-21.677-38.742C1176.842,730.177,1167.137,747.522,1167.137,768.919z"/>
				</g>
			</g>
			<g>
				<g>
					<ellipse style="fill:#00232C;" cx="977.121" cy="768.919" rx="21.677" ry="38.742"/>
				</g>
			</g>
			<g>
				<g>
					<path style="fill:#00232C;" d="M1079.676,876.635c-52.17,0-69.773-36.434-70.499-37.985c-1.121-2.402-1.101-5.18,0.059-7.565
						c35.771-73.711,72.009-149.468,72.373-150.224c2.094-4.386,7.346-6.241,11.74-4.144c4.385,2.097,6.238,7.354,4.14,11.74
						c-0.354,0.743-35.247,73.686-70.362,146.082c5.027,7.412,20.124,24.49,52.548,24.49c4.862,0,8.804,3.941,8.804,8.803
						C1088.48,872.694,1084.538,876.635,1079.676,876.635z"/>
				</g>
			</g>
			<g>
				<g>
					<path style="fill:#00232C;" d="M1044.208,980.452c-25.767,0-53.058-7.277-80.141-26.605c-3.958-2.825-4.877-8.322-2.054-12.28
						c2.83-3.959,8.325-4.872,12.28-2.053c96.882,69.139,199.135-37.982,200.156-39.073c3.326-3.547,8.897-3.729,12.445-0.404
						c3.546,3.326,3.728,8.896,0.402,12.444C1186.448,913.386,1122.397,980.452,1044.208,980.452z"/>
				</g>
			</g>
		</g>
		<g>
			<g>
				<path style="fill:#00232C;" d="M1487.66,1036.823l-2.361,45.022c0,0-0.169,0-0.338,0.169
					c-17.874-8.6-33.556-26.136-45.36-43.168c-14.67-21.584-23.775-42.325-24.282-43.674c14.67,13.827,29.004,23.27,40.807,29.678
					c1.179,0.505,2.192,1.181,3.204,1.686c12.478,6.071,21.921,8.769,25.968,9.781
					C1486.142,1036.485,1486.816,1036.654,1487.66,1036.823z"/>
			</g>
		</g>
		<g>
			<g>
				<path style="fill:#F27571;" d="M1487.66,1036.823c-0.844-0.169-1.518-0.338-2.361-0.506c-8.6-1.517-17.369-4.553-26.136-9.612
					c-1.012-0.674-2.023-1.181-3.035-1.855c-0.506-0.338-1.012-0.674-1.518-1.012V846.615c0,0,18.886-25.462,45.528-42.999
					c0.169,0,0.169,0,0.169,0v-0.169c30.014-19.56,69.473-29.171,102.522,18.548
					C1648.864,888.266,1576.356,1049.469,1487.66,1036.823z"/>
			</g>
		</g>
		<g>
			<g>
				<path style="fill:#00232C;" d="M1466.244,989.231c-0.32,0-0.643-0.018-0.966-0.051c-4.835-0.53-8.325-4.877-7.796-9.71
					c10.692-97.735,92.942-131.585,96.435-132.978c4.519-1.806,9.639,0.403,11.437,4.92c1.799,4.509-0.395,9.624-4.904,11.43l0,0
					c-3.094,1.249-75.953,31.573-85.465,118.544C1474.49,985.891,1470.677,989.231,1466.244,989.231z"/>
			</g>
		</g>
		<g>
			<g>
				<path style="fill:#00232C;" d="M1548.394,935.866c-1.95,0-3.91-0.645-5.544-1.969c-7.658-6.204-30.863-21.448-46.045-17.564
					c-4.715,1.2-9.509-1.637-10.712-6.347c-1.207-4.71,1.637-9.505,6.345-10.71c26.438-6.765,58.006,18.098,61.52,20.958
					c3.768,3.067,4.34,8.612,1.272,12.384C1553.49,934.756,1550.952,935.866,1548.394,935.866z"/>
			</g>
		</g>
	</g>
</g>
</svg>
