<?xml version="1.0" encoding="utf-8"?>
<!-- Generator: Adobe Illustrator 27.5.0, SVG Export Plug-In . SVG Version: 6.00 Build 0)  -->
<svg version="1.1" id="Layer_1" xmlns="http://www.w3.org/2000/svg" xmlns:xlink="http://www.w3.org/1999/xlink" x="0px" y="0px"
	 viewBox="0 0 2400 2400" style="enable-background:new 0 0 2400 2400;" xml:space="preserve">
<g>
	<path style="fill:#A894A2;" d="M2300.002,1199.995c0,182.84-44.61,355.25-123.53,506.96c-99.92,192.06-254.84,350.94-443.89,455.75
		c-3.43,1.9-6.88,3.79-10.33,5.65c-155.37,83.97-333.25,131.64-522.25,131.64c-180.38,0-350.61-43.41-500.83-120.35
		c-5.16-2.65-10.3-5.34-15.41-8.07c-4.72-2.5-9.41-5.04-14.08-7.62c-26.33-14.51-51.99-30.07-76.94-46.62
		c-95.18-63.14-179.96-140.69-251.24-229.54c-26.78-33.38-51.66-68.36-74.46-104.77c-9.25-14.77-18.16-29.78-26.72-45.02
		c-89.36-159.06-140.32-342.58-140.32-538.01c0-607.51,492.48-1100,1100-1100C1807.512,99.995,2300.002,592.485,2300.002,1199.995z"
		/>
	<g>
		<g>
			<g>
				<path style="fill:#5F252A;" d="M983.123,971.009c-1.687-1.18-5.902-4.721-11.973-10.117c-2.192-1.855-4.721-4.216-7.419-6.745
					c-8.768-8.262-19.729-19.391-31.701-33.218c-1.348-1.518-2.36-2.867-3.709-4.384v-0.169c-0.338-0.169-0.506-0.338-0.675-0.506
					c-0.336-0.505-0.674-1.012-1.012-1.348c-3.878-4.722-7.925-9.78-11.972-15.008c-0.338-0.506-0.843-1.012-1.18-1.686
					c-0.169-0.169-0.506-0.506-0.506-0.675c-10.117-13.152-20.403-28.16-30.014-44.685c-10.286-17.369-20.066-36.76-28.666-57.67
					c24.788-12.647,50.587-3.878,71.496,9.78c0,0,0.169,0,0.169,0.169c11.466,7.251,26.474,18.548,38.614,34.568
					c0.338,0.338,0.506,0.506,0.675,0.843c3.878,4.384,5.901,7.251,5.901,7.251v1.518c2.023,3.035,3.878,6.239,5.396,9.78
					l-2.361,2.023C974.185,860.73,973.005,904.909,983.123,971.009z"/>
				<path style="fill:#5F252A;" d="M1272.986,525.845c-91.731,48.395-186.328,124.443-242.312,220.222
					c-1.518-9.612-3.542-19.223-6.071-28.33c-18.886-68.123,69.474-75.543,43.505-165.419c0,0,65.932-68.123,159.855-39.12
					C1242.971,517.75,1257.979,522.134,1272.986,525.845z"/>
			</g>
		</g>
		<g>
			<g>
				<g>
					<path style="fill:#00415D;" d="M1732.582,2162.705c-3.43,1.9-6.88,3.79-10.33,5.65c-155.37,83.97-333.25,131.64-522.25,131.64
						c-180.38,0-350.61-43.41-500.83-120.35c-5.16-2.65-10.3-5.34-15.41-8.07c-4.72-2.5-9.41-5.04-14.08-7.62
						c-26.33-14.51-51.99-30.07-76.94-46.62c-95.18-63.14-179.96-140.69-251.24-229.54c23.16-168.13,80.14-290.08,168.97-355.51
						c26.16-19.28,55.09-33.65,86.73-42.85c0.01,0,0.01,0,0.01,0c12.87-3.75,26.19-6.64,39.96-8.66
						c113.27-16.59,194.46-50.33,244.2-77c6.65-3.56,12.74-7,18.26-10.26c26.85-15.8,40.48-27.27,41.04-27.74
						c0.01-0.01,0.02-0.02,0.02-0.02h406.77c0.01,0.01,0.01,0.02,0.02,0.03c10.31,13.83,21.07,26.2,32.16,37.32
						c9.07,9.09,18.36,17.35,27.82,24.89c84.27,67.22,181.74,78.03,250.82,118.52l0.03,0.01c44.89,26.31,77.79,65.18,87.26,140.23
						C1755.602,1766.225,1727.322,1906.585,1732.582,2162.705z"/>
				</g>
			</g>
			<g>
				<path style="fill:#00415D;" d="M2176.472,1706.955c-99.92,192.06-254.84,350.94-443.89,455.75c-3.43,1.9-6.88,3.79-10.33,5.65
					l-63.97-621.84l0.03,0.01L2176.472,1706.955z"/>
			</g>
			<g>
				<g>
					<g>
						<path style="fill:#00617E;" d="M820.502,1872.995c-0.27,1.23-11.28,49.7-37.6,121.55c-3.28,8.95-6.8,18.27-10.57,27.91
							c-18.25,46.71-42.3,100.86-73.16,157.19c-5.16-2.65-10.3-5.34-15.41-8.07c87.1-158.84,119.23-300.25,119.7-302.34
							c1.04-4.71,5.71-7.68,10.4-6.65C818.572,1863.625,821.552,1868.285,820.502,1872.995z"/>
					</g>
				</g>
				<g>
					<g>
						<path style="fill:#00617E;" d="M765.648,2025.117c-2.875,0-5.688-1.416-7.355-4.014c-2.604-4.058-1.426-9.46,2.633-12.062
							c57.862-37.139,93.586-68.116,93.939-68.426c3.635-3.161,9.149-2.794,12.317,0.845c3.168,3.632,2.792,9.146-0.843,12.314
							c-1.482,1.293-36.955,32.076-95.985,69.959C768.896,2024.671,767.263,2025.117,765.648,2025.117z"/>
					</g>
				</g>
			</g>
			<g>
				<g>
					<path style="fill:#00617E;" d="M940.312,1943.734c0,0-5.246,197.219,37.061,328.589c0,0,400.139-10.862,581.334-37.333
						c0,0-28.128-167.281-28.128-306.505L940.312,1943.734z"/>
				</g>
			</g>
			<g>
				<g>
					<path style="fill:#00617E;" d="M1178.97,1554.182c-18.636,0-38.312-1.845-58.96-5.56
						c-74.393-13.386-134.342-45.788-136.859-47.161c-4.23-2.309-5.789-7.61-3.481-11.842c2.307-4.231,7.611-5.793,11.841-3.485
						c0.596,0.325,60.308,32.556,131.986,45.376c94.13,16.837,163.437-6.082,206-68.112c2.728-3.973,8.158-4.982,12.138-2.26
						c3.975,2.728,4.987,8.162,2.26,12.139C1307.206,1526.743,1250.832,1554.182,1178.97,1554.182z"/>
				</g>
			</g>
			<g>
				<g>
					<path style="fill:#00617E;" d="M1120.826,1693.715c-41.234,0-86.54-6.554-135.743-19.675
						c-4.657-1.241-7.428-6.026-6.186-10.683c1.243-4.658,6.031-7.426,10.684-6.187c114.408,30.507,206.177,24.425,272.765-18.081
						c77.572-49.522,93.004-132.839,93.151-133.675c0.834-4.742,5.345-7.925,10.097-7.094c4.745,0.825,7.925,5.333,7.105,10.081
						c-0.641,3.707-16.658,91.425-100.697,145.237C1230.297,1680.342,1179.72,1693.715,1120.826,1693.715z"/>
				</g>
			</g>
		</g>
		<g>
			<g>
				<path style="fill:#F27571;" d="M1347.517,1272.677v93.08c-11.973,9.779-24.113,18.211-36.422,25.461
					c-178.235,107.076-370.466-25.461-370.466-25.461v-355.796l25.631,16.019h0.169l19.222,11.973l12.479,7.756
					c5.395,21.753,12.14,44.854,20.234,68.461c7.419,21.584,18.549,40.975,32.713,58.344c1.18,1.686,2.53,3.373,3.879,4.89
					C1119.538,1252.104,1239.598,1284.48,1347.517,1272.677z"/>
			</g>
		</g>
		<g>
			<g>
				<path style="fill:#00232C;" d="M1347.517,1272.677v93.08c-11.973,9.779-24.113,18.211-36.422,25.461
					c-18.212-7.251-35.748-15.851-52.61-25.461c-113.484-64.583-194.761-173.345-207.744-191.219c-1.18-1.686-1.856-2.53-1.856-2.53
					l2.192,0.506c1.18,1.686,2.53,3.373,3.879,4.89C1119.538,1252.104,1239.598,1284.48,1347.517,1272.677z"/>
			</g>
		</g>
		<g>
			<g>
				<g>
					<path style="fill:#5F252A;" d="M1527.438,710.15c-1.348-1.687-11.129-14.502-25.294-34.062
						c-10.96-15.177-24.618-34.568-38.952-55.814c-17.199-25.462-35.41-53.96-51.261-81.445
						c22.258-3.709,40.975-11.804,54.128-25.63c4.89-5.227,8.094-11.635,9.611-19.055c26.98,29.846,44.18,67.112,48.564,111.797
						L1527.438,710.15z"/>
				</g>
			</g>
			<g>
				<g>
					<path style="fill:#EF4A51;" d="M1551.383,973.876c-1.012-32.038-7.252-55.814-17.706-63.065h-0.168
						c-15.851-10.791-34.231-16.356-53.117-18.548l-0.843-12.647l-2.53-47.552l-1.349-23.775c0,0,26.643-31.365,53.96-30.521
						c13.153,0.336,26.643,8.094,37.266,30.521C1589.491,855.334,1584.771,935.092,1551.383,973.876z"/>
				</g>
			</g>
			<g>
				<g>
					<path style="fill:#F27571;" d="M1054.957,1177.404c-1.518-1.012-2.867-1.855-4.216-2.866
						c-65.763-44.01-105.222-89.032-109.605-93.586h-0.169v-0.169c-0.169,0-0.338-0.169-0.338-0.169l-2.361-44.517l-6.07-112.977
						l-0.169-2.192l-0.169-4.216l-1.012-17.537l-0.336-8.431l-4.722-86.166c0,0,0.169,0,0.169,0.169
						c11.466,7.251,26.474,18.548,38.614,34.568c0.338,0.338,0.506,0.506,0.675,0.843c3.878,4.384,5.901,7.251,5.901,7.251v1.518
						c2.023,3.035,3.878,6.239,5.396,9.78l-2.361,2.023c0,0-1.181,44.179,8.938,110.279c2.023,12.647,4.384,26.136,7.251,40.301
						c1.012,4.89,2.023,9.78,3.035,14.839c1.518,6.408,3.035,12.815,4.722,19.56c5.395,21.753,12.14,44.854,20.234,68.461
						c7.419,21.584,18.549,40.975,32.713,58.344C1052.258,1174.2,1053.607,1175.887,1054.957,1177.404z"/>
					<path style="fill:#F27571;" d="M1457.46,960.724c-26.812,19.055-53.791,26.305-79.422,26.305
						c-77.566,0-140.969-66.438-141.812-67.449c-3.373-3.542-3.204-8.938,0.337-12.309c3.542-3.204,8.938-3.035,12.31,0.337
						c4.216,4.553,102.522,107.245,198.469,38.784c3.879-2.699,9.443-1.856,12.141,2.023
						C1462.35,952.461,1461.507,957.857,1457.46,960.724z"/>
					<path style="fill:#F27571;" d="M1533.509,910.811c-15.851-10.791-34.231-16.356-53.117-18.548
						c-54.465-6.577-111.46,14.501-111.46,14.501c-61.379-28.497-139.283-20.235-206.901,0
						c-67.618,20.404-124.949-97.97-124.949-97.97l-0.169,0.169c-0.675-19.561-2.361-41.482-6.239-62.896
						c-1.518-9.612-3.542-19.223-6.071-28.33c-18.886-68.123,69.474-75.543,43.505-165.419c0,0,65.932-68.123,159.855-39.12
						c15.008,4.552,30.015,8.936,45.023,12.647c50.587,12.647,100.162,19.391,138.945,12.983
						c22.258-3.709,40.975-11.804,54.128-25.63c4.89-5.227,8.094-11.635,9.611-19.055c26.98,29.846,44.18,67.112,48.564,111.797
						l3.204,104.209l2.192,67.618l1.518,50.418l1.517,54.465L1533.509,910.811z"/>
				</g>
			</g>
			<g>
				<g>
					<path style="fill:#5F252A;" d="M1612.592,189.775c-115.34-17.37-265.41,84.82-504.69,78.41
						c-239.28-6.57-169.63,171.83-169.63,171.83s-130.52,65.26-110.96,246.86c4.22,39.8,14.17,75.88,26.98,107.92
						c24.79-12.64,50.59-3.88,71.5,9.78c0,0,0.17,0,0.17,0.17c11.46,7.25,26.47,18.55,38.61,34.57c0.34,0.34,0.51,0.51,0.68,0.84
						c3.87,4.39,5.9,7.25,5.9,7.25v1.52c2.02,3.04,3.88,6.24,5.39,9.78l-2.36,2.02c0,0-1.18,44.18,8.94,110.28
						c2.02,12.65,4.39,26.14,7.25,40.31c1.01,4.89,2.02,9.78,3.04,14.83c1.51,6.41,3.03,12.82,4.72,19.56
						c5.39,21.76,12.14,44.86,20.23,68.47c7.42,21.58,18.55,40.97,32.72,58.34c1.18,1.68,2.53,3.37,3.87,4.89
						c64.59,74.7,184.65,107.08,292.57,95.27c20.06-2.19,39.79-5.9,58.68-11.13c108.08-30.18,148.72-194.08,145.18-287.5v-0.17
						c-1.01-32.04-7.25-55.81-17.71-63.06h-0.16c-15.85-10.8-34.23-16.36-53.12-18.55c-54.46-6.58-111.46,14.5-111.46,14.5
						c-61.38-28.5-139.28-20.24-206.9,0c-67.62,20.4-124.95-97.97-124.95-97.97l-0.17,0.17c-0.67-19.56-2.36-41.48-6.24-62.9
						c-1.52-9.61-3.54-19.22-6.07-28.33c-18.88-68.12,69.48-75.54,43.51-165.42c0,0,65.93-68.12,159.85-39.12
						c15.01,4.55,30.02,8.94,45.02,12.65c50.59,12.65,100.17,19.39,138.95,12.98c22.26-3.71,40.97-11.8,54.13-25.63
						c4.89-5.22,8.09-11.63,9.61-19.05c26.98,29.84,44.18,67.11,48.56,111.8l3.21,104.2c46.54-134.73,1.85-205.72-51.77-242.81
						C1619.502,479.305,1727.932,207.145,1612.592,189.775z M1236.562,907.275c3.54-3.21,8.94-3.04,12.31,0.33
						c4.22,4.55,102.52,107.25,198.47,38.79c3.88-2.7,9.44-1.86,12.14,2.02c2.87,4.05,2.02,9.44-2.02,12.31
						c-26.81,19.05-53.79,26.3-79.42,26.3c-77.57,0-140.97-66.43-141.82-67.45C1232.852,916.035,1233.022,910.645,1236.562,907.275z
						"/>
					<path style="fill:#5F252A;" d="M1457.46,960.724c-26.812,19.055-53.791,26.305-79.422,26.305
						c-77.566,0-140.969-66.438-141.812-67.449c-3.373-3.542-3.204-8.938,0.337-12.309c3.542-3.204,8.938-3.035,12.31,0.337
						c4.216,4.553,102.522,107.245,198.469,38.784c3.879-2.699,9.443-1.856,12.141,2.023
						C1462.35,952.461,1461.507,957.857,1457.46,960.724z"/>
				</g>
			</g>
			<g style="opacity:0.8;">
				<g>
					<g>
						<path style="fill:#EF4A51;" d="M1243.192,855.461c0,15.448-31.818,27.972-71.07,27.972c-39.25,0-71.068-12.524-71.068-27.972
							c0-15.448,31.818-27.972,71.068-27.972C1211.373,827.489,1243.192,840.012,1243.192,855.461z"/>
					</g>
				</g>
			</g>
			<g style="opacity:0.8;">
				<g>
					<g>
						<path style="fill:#EF4A51;" d="M1532.747,882.618c-5.48,0.547-11.234,0.822-17.126,0.822
							c-39.218,0-71.037-12.537-71.037-27.984c0-15.447,31.819-27.983,71.037-27.983c5.308,0,10.481,0.24,15.447,0.685
							L1532.747,882.618z"/>
					</g>
				</g>
			</g>
			<g>
				<g>
					<g>
						<path style="fill:#00232C;" d="M1256.14,770.427c0,21.218-9.624,38.418-21.497,38.418c-11.872,0-21.496-17.201-21.496-38.418
							c0-21.219,9.624-38.418,21.496-38.418C1246.516,732.008,1256.14,749.208,1256.14,770.427z"/>
					</g>
				</g>
				<g>
					<g>
						<ellipse style="fill:#00232C;" cx="1444.568" cy="770.427" rx="21.496" ry="38.418"/>
					</g>
				</g>
				<g>
					<g>
						<path style="fill:#00232C;" d="M1342.869,877.242c-4.822,0-8.73-3.908-8.73-8.73c0-4.822,3.908-8.73,8.73-8.73
							c32.12,0,47.094-16.897,52.106-24.291c-34.819-71.787-69.417-144.12-69.77-144.856c-2.081-4.35-0.241-9.562,4.109-11.642
							c4.354-2.08,9.563-0.237,11.641,4.109c0.359,0.751,36.294,75.876,71.766,148.969c1.147,2.366,1.169,5.12,0.057,7.502
							C1412.062,841.112,1394.605,877.242,1342.869,877.242z"/>
					</g>
				</g>
				<g>
					<g>
						<path style="fill:#5F252A;" d="M1134.648,673.051c4.856-22.399,23.516-64.466,95.145-67.658
							c8.746-0.389,16.611,5.381,18.932,13.823l0,0c2.913,10.595-3.808,21.527-14.627,23.453
							c-19.016,3.385-46.58,13.762-62.327,44.772c-4.918,9.685-17.314,12.782-26.542,7.054l-2.145-1.331
							C1136.273,688.935,1132.95,680.886,1134.648,673.051z"/>
					</g>
				</g>
				<g>
					<g>
						<path style="fill:#5F252A;" d="M1501.727,673.051c-4.855-22.399-23.515-64.466-95.145-67.658
							c-8.746-0.389-16.61,5.381-18.931,13.823l0,0c-2.914,10.595,3.807,21.527,14.626,23.453
							c19.015,3.385,46.579,13.762,62.326,44.772c4.918,9.685,17.314,12.782,26.543,7.054l2.145-1.331
							C1500.103,688.935,1503.426,680.886,1501.727,673.051z"/>
					</g>
				</g>
				<g>
					<g>
						<path style="fill:#8E3E4E;" d="M1457.46,960.724c-26.812,19.055-53.791,26.305-79.422,26.305
							c-77.566,0-140.969-66.438-141.812-67.449c-3.373-3.542-3.204-8.938,0.337-12.309c3.542-3.204,8.938-3.035,12.31,0.337
							c4.216,4.553,102.522,107.245,198.469,38.784c3.879-2.699,9.443-1.856,12.141,2.023
							C1462.35,952.461,1461.507,957.857,1457.46,960.724z"/>
					</g>
				</g>
			</g>
			<g>
				<g>
					<path style="fill:#00232C;" d="M993.409,1026.149c-2.192,3.878-4.89,7.925-7.757,11.804
						c-11.466,17.03-26.811,34.568-44.516,42.999h-0.169c-0.169-0.169-0.338-0.338-0.338-0.338l-2.361-44.517
						c0.506,0,1.012-0.168,1.518-0.337c0.338,0,0.505,0,0.843-0.169c0.338-0.169,0.843-0.169,1.18-0.337
						c0.674-0.169,1.518-0.505,2.53-0.674c0.337,0,0.674-0.169,1.012-0.337c0.336-0.169,0.505-0.169,0.843-0.338
						c0.505,0,0.843,0,1.349-0.337c4.721-1.518,11.129-3.879,18.717-7.588h0.169c0.843-0.338,1.686-0.843,2.529-1.349
						c0.169,0,0.338-0.169,0.506-0.337c0.337,0,0.505-0.338,0.843-0.506c0.338-0.169,0.505-0.338,0.843-0.505
						c5.902-3.036,12.478-7.083,19.223-11.973C991.385,1016.2,992.397,1021.091,993.409,1026.149z"/>
				</g>
			</g>
			<g>
				<g>
					<path style="fill:#F27571;" d="M971.15,847.408v175.875c-0.338,0.168-0.505,0.337-0.843,0.505
						c-0.338,0.169-0.506,0.506-0.843,0.506c-0.169,0.168-0.338,0.337-0.506,0.337c-0.843,0.506-1.686,1.012-2.529,1.349h-0.169
						c-6.239,3.709-12.478,6.07-18.717,7.588c-0.506,0.337-0.844,0.337-1.349,0.337c-0.338,0.169-0.506,0.169-0.843,0.338
						c-0.338,0-0.506,0.169-0.844,0.169l-0.168,0.169c-1.012,0.169-1.856,0.505-2.53,0.674c-0.337,0.169-0.843,0.169-1.18,0.337
						c-0.338,0.169-0.505,0.169-0.843,0.169c-0.506,0.169-1.012,0.337-1.518,0.337c-87.852,12.31-159.854-147.377-114.157-213.139
						c9.612-13.996,19.897-22.934,30.183-28.161c24.788-12.647,50.587-3.878,71.496,9.78c0,0,0.169,0,0.169,0.169
						c17.031,11.297,30.858,25.631,38.614,34.568c0.338,0.338,0.506,0.506,0.675,0.843
						C969.127,844.542,971.15,847.408,971.15,847.408z"/>
				</g>
			</g>
			<g>
				<g>
					<path style="fill:#00232C;" d="M959.531,988.898c-4.396,0-8.179-3.31-8.669-7.78c-9.432-86.244-81.68-116.315-84.751-117.553
						c-4.466-1.8-6.638-6.879-4.848-11.348c1.792-4.467,6.853-6.65,11.326-4.865c3.469,1.381,85.028,34.949,95.63,131.867
						c0.523,4.793-2.935,9.103-7.729,9.628C960.168,988.88,959.848,988.898,959.531,988.898z"/>
				</g>
			</g>
			<g>
				<g>
					<path style="fill:#00232C;" d="M878.067,935.978c-2.535,0-5.05-1.1-6.776-3.22c-3.044-3.74-2.479-9.239,1.26-12.281
						c3.484-2.836,34.777-27.506,61.005-20.783c4.669,1.195,7.487,5.95,6.292,10.622c-1.197,4.67-5.963,7.487-10.622,6.292
						c-15.053-3.848-38.598,11.669-45.653,17.409C881.953,935.337,880.005,935.978,878.067,935.978z"/>
				</g>
			</g>
		</g>
		<g>
			<g>
				<path style="fill:#5F252A;" d="M971.15,847.408v1.518c-1.686-3.035-3.709-5.901-5.901-8.769
					C969.127,844.542,971.15,847.408,971.15,847.408z"/>
			</g>
		</g>
		<g>
			<g>
				<g>
					<path style="fill:#F27571;" d="M341.502,1887.795c-26.78-33.38-51.66-68.36-74.46-104.77c2.37-4.17,4.75-8.34,7.14-12.51
						l37.33-65.02l38.27-65.19c35.76-60.89,95.86-98.6,160.69-108.02c48.5-7.06,99.65,1.72,145.2,28.47
						c105.46,61.95,141.39,197.02,81.19,303l-0.98,1.78l-143.14,251.8C497.562,2054.195,412.782,1976.645,341.502,1887.795z"/>
				</g>
			</g>
			<g>
				<g>
					<path style="fill:#00415D;" d="M669.682,2163.955c-26.33-14.51-51.99-30.07-76.94-46.62
						c-95.18-63.14-179.96-140.69-251.24-229.54c-26.78-33.38-51.66-68.36-74.46-104.77c-9.25-14.77-18.16-29.78-26.72-45.02
						c158.93-270.33,355.19-248.76,356.88-248.57c0.01,0,0.01,0,0.01,0s182.9,76.84,212.78,262.89
						C825.482,1848.765,747.952,2020.695,669.682,2163.955z"/>
				</g>
			</g>
		</g>
		<g>
			<g>
				<path style="fill:#FFFFFF;" d="M1234.126,1714.763c-75.883,0-156.924-47.908-236.835-140.646
					c-70.045-81.284-115.605-169.726-116.057-170.61c-2.634-5.151-0.595-11.461,4.556-14.095c5.15-2.638,11.461-0.597,14.098,4.555
					c1.748,3.415,177.156,341.211,370.019,295.693c47.523-11.213,82.041-35.719,102.599-72.836
					c49.047-88.559,4.997-220.914,4.547-222.241c-1.861-5.476,1.071-11.427,6.549-13.287c5.481-1.865,11.426,1.071,13.288,6.549
					c1.963,5.776,47.436,142.547-6.055,239.129c-23.538,42.5-62.605,70.451-116.117,83.078
					C1261.381,1713.198,1247.835,1714.763,1234.126,1714.763z"/>
			</g>
		</g>
	</g>
</g>
</svg>
