<?xml version="1.0" encoding="utf-8"?>
<!-- Generator: Adobe Illustrator 27.5.0, SVG Export Plug-In . SVG Version: 6.00 Build 0)  -->
<svg version="1.1" id="Layer_1" xmlns="http://www.w3.org/2000/svg" xmlns:xlink="http://www.w3.org/1999/xlink" x="0px" y="0px"
	 viewBox="0 0 1800 1800" style="enable-background:new 0 0 1800 1800;" xml:space="preserve">
<path style="fill:#FCE1DC;" d="M1694.962,899.995c0,138.44-35.39,268.62-97.61,381.97c-2.87,5.23-5.8,10.43-8.79,15.59
	c-51.79,89.51-120.54,167.99-201.85,231.03c-30.99,24.04-63.81,45.83-98.22,65.14c-8.72,4.89-17.54,9.63-26.47,14.2
	c-0.01,0.01-0.02,0.01-0.04,0.02c-108.57,55.63-231.61,87.01-361.98,87.01c-163.2,0-314.91-49.18-441.13-133.52
	c-3-2.01-5.98-4.03-8.95-6.08c-32.23-22.17-62.75-46.67-91.3-73.23c-156-145.15-253.58-352.24-253.58-582.13
	c0-18.02,0.6-35.91,1.78-53.63c0.05-0.72,0.1-1.43,0.15-2.14c28.62-413.02,372.73-739.19,793.03-739.19
	C1339.042,105.035,1694.962,460.955,1694.962,899.995z"/>
<g>
	<path style="fill:#311D12;" d="M288.688,1006.177c0,0,10.068-75.516,130.894-145.997c120.824-70.482,75.515-37.758,133.411-123.342
		c57.895-85.585,156.065-208.926,156.065-208.926h407.784l60.412,236.615c0,0,40.274,110.756,113.273,173.685
		c72.998,62.93,108.239,57.895,67.964,143.48c-40.274,85.583-168.65,171.168-239.132,166.133
		c-70.482-5.034-302.062-35.24-415.336-40.274c-113.273-5.035-244.167,37.758-304.579,17.62
		C339.032,1205.034,266.033,1101.83,288.688,1006.177z"/>
	<g>
		<g>
			<path style="fill:#BC765E;" d="M592.502,1213.805c-0.67,11.36-1.73,22.62-3.16,33.76c-4.77,37.36-13.58,73.4-24.79,107.36
				c-28.57,86.5-72.75,159.49-105.68,206.51c-3-2.01-5.98-4.03-8.95-6.08c-32.23-22.17-62.75-46.67-91.3-73.23
				c-156-145.15-253.58-352.24-253.58-582.13c0-18.02,0.6-35.91,1.78-53.63l32.91,9.1l208.14,57.53l171.31,47.36l3.35,0.92l7.25,2
				C581.522,1046.915,597.212,1132.845,592.502,1213.805z"/>
			<path style="fill:#B66245;" d="M592.502,1213.805c-0.67,11.36-1.73,22.62-3.16,33.76c-4.77,37.36-13.58,73.4-24.79,107.36
				c-28.57,86.5-72.75,159.49-105.68,206.51c-3-2.01-5.98-4.03-8.95-6.08c-32.23-22.17-62.75-46.67-91.3-73.23
				c49.68-72.93,84.77-164.92,109.33-252.64c31.86-113.85,45.98-220.53,51.23-269.13l3.35,0.92l7.25,2
				C581.522,1046.915,597.212,1132.845,592.502,1213.805z"/>
			<g>
				
					<rect x="157.877" y="803.094" transform="matrix(0.2597 -0.9657 0.9657 0.2597 -710.2841 790.8141)" style="fill:#311D12;" width="5.49" height="111.111"/>
			</g>
		</g>
		<g>
			<g>
				<g>
					<path style="fill:#BC765E;" d="M1597.352,1281.965c-2.87,5.23-5.8,10.43-8.79,15.59c-51.79,89.51-120.54,167.99-201.85,231.03
						c-30.99,24.04-63.81,45.83-98.22,65.14c-8.72,4.89-17.54,9.63-26.47,14.2c-0.01,0.01-0.02,0.01-0.04,0.02
						c-19.92-16.52-35.11-31.63-45.48-42.84c-0.76-0.83-1.5-1.64-2.23-2.42c-1.06-1.18-2.08-2.31-3.04-3.39
						c-0.46-0.52-0.91-1.03-1.34-1.52c-0.22-0.25-0.43-0.49-0.64-0.73s-0.41-0.48-0.62-0.71c-0.4-0.47-0.79-0.92-1.17-1.36
						c-0.19-0.22-0.37-0.44-0.56-0.65c-0.36-0.43-0.71-0.84-1.05-1.24c-0.16-0.19-0.33-0.39-0.49-0.58
						c-0.48-0.58-0.93-1.12-1.35-1.63c-0.56-0.68-1.07-1.3-1.52-1.85c-0.22-0.28-0.43-0.54-0.63-0.79
						c-1.02-1.28-1.67-2.12-1.92-2.46c-0.04-0.05-0.08-0.09-0.1-0.12c-0.03-0.04-0.04-0.06-0.04-0.06l-6.5-191.04l-3.74-109.97
						l-0.24-6.96v-0.01l-0.17-4.96l-7.32-215.18c0,0,0.41,0.25,1.22,0.75c0.23,0.14,0.49,0.3,0.78,0.48
						c0.58,0.36,1.29,0.8,2.13,1.32c0.62,0.38,1.31,0.81,2.07,1.28c0.09,0.06,0.19,0.12,0.28,0.17c2.09,1.3,4.66,2.9,7.68,4.78
						c0.43,0.27,0.87,0.55,1.32,0.83c4.51,2.82,9.93,6.21,16.14,10.13v0.01c28.1,17.71,72.53,46.11,123.41,80.06
						c36.9,24.63,77.19,52.17,117.1,80.68c133.94,95.67,133.94,95.67,133.94,95.67L1597.352,1281.965z"/>
				</g>
				<path style="fill:#B66245;" d="M1386.712,1528.585c-30.99,24.04-63.81,45.83-98.22,65.14c-8.72,4.89-17.54,9.63-26.47,14.2
					c-19.93-16.51-35.13-31.62-45.52-42.82c-0.76-0.83-1.5-1.64-2.23-2.42c-1.06-1.18-2.08-2.31-3.04-3.39
					c-0.46-0.52-0.91-1.03-1.34-1.52c-0.22-0.25-0.43-0.49-0.64-0.73s-0.41-0.48-0.62-0.71c-0.4-0.47-0.79-0.92-1.17-1.36
					c-0.19-0.22-0.37-0.44-0.56-0.65c-0.36-0.43-0.71-0.84-1.05-1.24c-0.16-0.19-0.33-0.39-0.49-0.58
					c-0.48-0.58-0.93-1.12-1.35-1.63c-0.56-0.68-1.07-1.3-1.52-1.85c-0.22-0.28-0.43-0.54-0.63-0.79c-1.02-1.28-1.67-2.12-1.92-2.46
					c-0.04-0.05-0.08-0.09-0.1-0.12c-0.03-0.04-0.04-0.06-0.04-0.06l-6.5-191.04l-3.74-109.97l-0.24-6.96v-0.01l-0.17-4.96
					l-7.32-215.18c0,0,0.41,0.25,1.22,0.75c0.23,0.14,0.49,0.3,0.78,0.48c0.58,0.36,1.29,0.8,2.13,1.32
					c0.62,0.38,1.31,0.81,2.07,1.28c0.09,0.06,0.19,0.12,0.28,0.17c2.09,1.3,4.66,2.9,7.68,4.78c0.43,0.27,0.87,0.55,1.32,0.83
					c4.51,2.82,9.93,6.21,16.14,10.13v0.01c8.56,17.09,35.75,71.98,66.03,139.51c45.33,101.13,97.6,230.61,104.66,303.99
					C1385.722,1497.235,1386.532,1513.235,1386.712,1528.585z"/>
				
					<rect x="1572.472" y="1272.217" transform="matrix(0.5657 -0.8246 0.8246 0.5657 -378.3036 1858.524)" style="fill:#311D12;" width="5.49" height="32.367"/>
			</g>
		</g>
		<g>
			<path style="fill:#F9A537;" d="M1288.492,1593.725c-8.72,4.89-17.54,9.63-26.47,14.2c-0.01,0.01-0.02,0.01-0.04,0.02
				c-108.57,55.63-231.61,87.01-361.98,87.01c-163.2,0-314.91-49.18-441.13-133.52c-3-2.01-5.98-4.03-8.95-6.08
				c43.86-67.63,70.66-137.58,86.09-204.72c8.59-37.34,13.66-73.81,16.2-108.54c0.57-7.8,1.01-15.5,1.33-23.1
				c5.82-136.04-25.61-240.85-31.01-257.72c-0.5-1.57-0.78-2.38-0.78-2.38l154.34-21.2c0,0,158.91,20.46,307.57,20.87
				c148.66,0.4,204.66,62.41,204.66,62.41c-0.01,0.17-0.01,0.33-0.01,0.5c-1.67,54.64,13.2,124.23,32.94,195.33
				c2.29,8.24,4.64,16.51,7.04,24.77c1.19,4.1,2.4,8.2,3.61,12.3c0.36,1.21,0.72,2.42,1.08,3.63c2.69,9.08,5.44,18.15,8.2,27.16
				c0.92,3.01,1.84,6.01,2.76,9c0.37,1.2,0.74,2.39,1.11,3.59c1.11,3.59,2.21,7.17,3.33,10.73l1.11,3.57
				c1.17,3.76,2.34,7.51,3.51,11.24c0.8,2.56,1.6,5.11,2.4,7.66c1.96,6.26,3.91,12.47,5.84,18.63
				c12.75,40.65,24.62,78.82,33.07,111.57C1304.322,1499.425,1299.582,1546.945,1288.492,1593.725z"/>
			<path style="fill:#FBB869;" d="M830.219,1369.366c174.708,0,350.146-13.243,431.022-20.277
				c-10.869-34.65-22.353-71.035-32.949-107.512c-143.535,11.655-482.277,33.619-676.185,0.501
				c-2.534,34.742-7.642,71.188-16.226,108.541C619.715,1364.54,724.805,1369.366,830.219,1369.366z"/>
			<g>
				<path style="fill:#B64526;" d="M1238.006,1427.853c-40.083-100.209-92.583-365.553-93.108-368.222l10.773-2.122
					c0.523,2.659,52.826,267.003,92.53,366.266L1238.006,1427.853z"/>
			</g>
		</g>
	</g>
	<g>
		<g>
			<g>
				<path style="fill:#BC765E;" d="M1137.772,551.77c0,0,30.466-55.854,69.818-29.197c39.352,26.658-10.155,178.989-92.667,121.865
					L1137.772,551.77z"/>
				<g>
					<path style="fill:#311D12;" d="M1154.557,657.749c-7.239,0-14.905-1.365-22.965-4.097l1.762-5.2
						c17.391,5.895,32.656,4.908,45.378-2.934c29.159-17.977,36.22-66.226,36.288-66.711l5.438,0.758
						c-0.29,2.084-7.469,51.268-38.829,70.617C1173.456,655.224,1164.401,657.749,1154.557,657.749z"/>
					<g>
						<path style="fill:#311D12;" d="M1174.304,590.048c-2.025,0-4.146-0.26-6.335-0.868l1.469-5.29
							c11.572,3.216,21.319-6.541,21.416-6.64l3.932,3.833C1194.371,581.508,1185.908,590.048,1174.304,590.048z"/>
						<path style="fill:#311D12;" d="M1168.313,621.359c-6.562,0-11.605-2.716-11.902-2.879l2.646-4.811
							c0.071,0.04,8.127,4.306,15.932,0.811c6.577-2.944,11.346-10.481,14.175-22.404c8.104-34.154-19.625-42.484-20.81-42.822
							l1.487-5.285c0.341,0.096,34.006,10.007,24.664,49.375c-3.253,13.709-9.087,22.517-17.339,26.177
							C1174.108,620.877,1171.076,621.359,1168.313,621.359z"/>
					</g>
				</g>
			</g>
			<path style="fill:#BC765E;" d="M1147.385,626.062c0.11,0,0,0.11,0,0.11c0,0.769,0,1.647-0.11,2.416
				c-0.11,1.428-0.22,2.965-0.439,4.392c-1.098,14.165-2.855,27.672-5.271,40.409c-0.22,1.208-0.439,2.306-0.769,3.514v0.11
				c-32.723,171.74-160.21,200.73-160.21,200.73l0.11,2.745l1.428,37.445l1.537,40.629
				c-135.613,95.533-307.573-20.864-307.573-20.864s-17.46-104.647-22.181-360.281c-4.392-240.041,135.504-347.434,293.408-337.771
				C1128.827,250.737,1162.648,415.998,1147.385,626.062z"/>
			<g>
				<g>
					<ellipse style="fill:#B66245;" cx="842.131" cy="647.854" rx="60.511" ry="45.615"/>
					<path style="fill:#B66245;" d="M1147.385,626.062c0.11,0,0,0.11,0,0.11c0,0.769,0,1.647-0.11,2.416
						c-0.11,1.428-0.22,2.965-0.439,4.392c-1.098,14.165-2.855,27.672-5.271,40.409c-0.22,1.208-0.439,2.306-0.769,3.514v0.11
						c-10.981,10.102-27.781,16.471-46.449,16.471c-33.382,0-60.505-20.424-60.505-45.68c0-25.146,27.123-45.57,60.505-45.57
						C1117.407,602.233,1137.282,611.897,1147.385,626.062z"/>
				</g>
				<g>
					<g>
						<path style="fill:#311D12;" d="M903.616,576.753c0,4.891-3.965,8.856-8.855,8.856c-4.891,0-8.856-3.965-8.856-8.856
							c0-4.89,3.965-8.855,8.856-8.855C899.65,567.899,903.616,571.864,903.616,576.753z"/>
						<path style="fill:#311D12;" d="M854.494,562.784l-13.102-9.982c1.019-1.343,25.487-32.849,71.088-29.202l-1.313,16.419
							C874.773,537.109,855.305,561.734,854.494,562.784z"/>
					</g>
					<g>
						<path style="fill:#311D12;" d="M1044.438,576.753c0,4.891-3.964,8.856-8.855,8.856s-8.855-3.965-8.855-8.856
							c0-4.89,3.964-8.855,8.855-8.855S1044.438,571.864,1044.438,576.753z"/>
						<path style="fill:#311D12;" d="M1069.541,560.516c-23.938-20.819-48.832-12.715-49.88-12.36l-5.43-15.55
							c1.405-0.495,34.743-11.805,66.118,15.482L1069.541,560.516z"/>
					</g>
					<g>
						<path style="fill:#B66245;" d="M964.337,539.495l15.256,60.388c3.008,11.904-5.573,23.601-17.831,24.308"/>
						<path style="fill:#311D12;" d="M961.921,626.932l-0.316-5.481c5.022-0.29,9.609-2.782,12.585-6.838
							c2.975-4.056,3.974-9.179,2.742-14.057l-15.255-60.388l5.322-1.345l15.255,60.388c1.636,6.47,0.31,13.268-3.638,18.649
							S968.584,626.548,961.921,626.932z"/>
					</g>
					<path style="fill:#311D12;" d="M966.971,675.168c-17.844,0-29.881-13.847-30.036-14.03l4.18-3.56
						c0.715,0.833,17.742,20.26,40.871,8.193l2.539,4.867C978.257,673.91,972.349,675.168,966.971,675.168z"/>
					<path style="fill:#B66245;" d="M957.908,688.69c-13.08,0-20.908-7.672-21.249-8.012l3.875-3.891
						c0.07,0.07,7.205,6.959,18.787,6.377l0.273,5.483C959.024,688.677,958.461,688.69,957.908,688.69z"/>
				</g>
			</g>
			<g>
				<path style="fill:#BC765E;" d="M678.523,551.77c0,0-30.466-55.854-69.818-29.197c-39.352,26.658,10.156,178.989,92.668,121.865
					L678.523,551.77z"/>
				<g>
					<path style="fill:#311D12;" d="M661.738,657.749c-9.845,0-18.898-2.524-27.07-7.566c-31.36-19.349-38.539-68.533-38.829-70.617
						l5.438-0.758c0.068,0.485,7.129,48.735,36.288,66.711c12.719,7.841,27.985,8.828,45.376,2.934l1.763,5.2
						C676.644,656.384,668.977,657.749,661.738,657.749z"/>
					<g>
						<path style="fill:#311D12;" d="M641.993,590.048c-11.606,0-20.068-8.54-20.482-8.966l3.936-3.828
							c0.093,0.094,9.845,9.851,21.413,6.636l1.47,5.29C646.139,589.788,644.016,590.048,641.993,590.048z"/>
						<path style="fill:#311D12;" d="M647.982,621.359c-2.763,0-5.794-0.482-8.854-1.838c-8.252-3.661-14.086-12.468-17.339-26.177
							c-9.342-39.368,24.323-49.279,24.664-49.375l1.487,5.285c-1.185,0.338-28.914,8.668-20.809,42.822
							c2.829,11.922,7.598,19.46,14.174,22.404c7.809,3.497,15.859-0.771,15.94-0.815l2.638,4.815
							C659.588,618.643,654.543,621.359,647.982,621.359z"/>
					</g>
				</g>
			</g>
			<path style="fill:#311D12;" d="M1167.589,685.468c-14.165,28.221-2.306,100.255-1.318,106.075
				c-3.075-5.6-48.426-90.262-36.566-128.037c12.189-39.202,10.981-67.313-7.357-114.969
				c-14.275-37.335-23.389-76.097-26.683-91.251c-0.988-4.283-1.427-6.698-1.427-6.698l-129.684-36.676
				c0,0-143.19-58.638-188.431,17.13c-3.734,6.259-6.808,12.518-9.334,18.448c-27.562,66.544,17.02,117.166,20.315,169.983
				c3.733,57.43-24.377,44.033-42.715,69.728c-18.448,25.695-3.733,75.768-3.733,75.768
				c-69.728,3.733-48.865-168.775-73.352-206.659c-15.263-23.719-20.534-40.19-17.569-68.63c1.757-17.13,6.479-38.433,13.836-68.411
				c19.656-79.501,70.936-222.582,261.783-214.016c17.789,0.769,34.26,2.855,49.524,5.71c0.11,0,0.22,0.11,0.329,0.11
				c136.821,41.508,179.537,207.538,189.419,257.281c0,4.283,0.11,8.675,0.11,12.957c0.11,35.029-0.769,68.74-3.294,83.564
				C1155.401,602.343,1182.304,656.149,1167.589,685.468z"/>
			<g>
				<g>
					<path style="fill:#B66245;" d="M982.123,917.932c-45.79-3.514-91.031-40.409-93.886-42.825
						c15.703,11.42,58.308,9.444,92.459,5.381L982.123,917.932z"/>
					<path style="fill:#311D12;" d="M946.868,886.761c-47.29,0-84.963-15.064-85.426-15.253l2.069-5.085
						c0.558,0.227,56.401,22.52,116.839,12.07l0.936,5.41C969.526,885.936,957.93,886.761,946.868,886.761z"/>
				</g>
				<path style="fill:#311D12;" d="M859.839,996.37c-26.784,0-54.819-4.014-83.581-11.982
					c-59.004-16.348-101.269-44.124-101.689-44.403l3.035-4.575c0.414,0.274,42.073,27.632,100.275,43.729
					c53.495,14.795,132.365,22.834,204.308-22.894l2.945,4.633c-32.561,20.696-69.183,32.464-108.85,34.978
					C870.86,996.199,865.374,996.37,859.839,996.37z"/>
			</g>
		</g>
		<g>
			<g>
				<path style="fill:#F9A537;" d="M877.451,212.617c0,10.535-10.247,19.075-22.888,19.075s-22.89-8.54-22.89-19.075
					c0-10.534,10.248-19.074,22.89-19.074S877.451,202.083,877.451,212.617z"/>
				<path style="fill:#F05648;" d="M1167.041,484.519c0,0-0.769-0.439-2.306-1.208c-7.247-3.514-31.515-14.824-69.069-26.025
					c-70.936-20.973-189.09-41.508-328.876-7.796c-37.664,9.114-76.866,22.181-117.056,40.19c-4.392,1.867-8.675,3.843-13.067,5.93
					c0,0,16.91-274.411,253.328-291.322c31.735-2.306,59.846,1.098,84.882,8.675c0.11,0,0.22,0.11,0.329,0.11
					c136.821,41.508,179.537,207.538,189.419,257.281C1166.382,479.358,1167.041,484.519,1167.041,484.519z"/>
				<g>
					<path style="fill:#F9A537;" d="M1085.577,416.984c-17.81-94.526-80.473-146.696-129.904-173.815
						c-53.762-29.494-103.991-36.628-104.493-36.697l0.743-5.44c0.51,0.07,51.593,7.302,106.226,37.234
						c32.132,17.604,59.227,39.505,80.529,65.095c26.654,32.018,44.249,69.904,52.294,112.607L1085.577,416.984z"/>
					<path style="fill:#F9A537;" d="M716.2,464.163l-5.366-1.159c0.107-0.499,11.042-50.55,34.068-107.291
						c21.326-52.555,57.706-121.804,109.909-153.256l2.833,4.703c-50.909,30.672-86.643,98.836-107.655,150.618
						C727.14,414.082,716.307,463.668,716.2,464.163z"/>
				</g>
			</g>
			<g>
				<path style="fill:#F9A537;" d="M666.61,482.651c0,0,404.227-272.286,589.046-189.305
					c184.821,82.98-84.867,214.995-84.867,214.995S1069.254,377.04,666.61,482.651z"/>
				<path style="fill:#311D12;" d="M685.627,475.025l-2.971-4.617c0.738-0.475,74.787-47.971,165.78-94.847
					c53.474-27.547,102.265-49.501,145.017-65.251c53.613-19.752,97.899-29.768,131.629-29.768v5.49
					c-59.444,0-154.237,32.646-274.131,94.41C760.188,427.199,686.362,474.553,685.627,475.025z"/>
				<g>
					<path style="fill:#B64526;" d="M1289.802,341.541c-6.383-6.229-12.743-9.606-12.807-9.64l1.276-2.431
						c0.272,0.143,6.762,3.582,13.448,10.105L1289.802,341.541z"/>
					<path style="fill:#B64526;" d="M1206.73,476.566l-1.582-2.243c9.58-6.755,18.799-13.534,27.398-20.151l1.674,2.176
						C1225.591,462.988,1216.342,469.79,1206.73,476.566z M1243.181,449.335l-1.711-2.146c9.688-7.72,18.387-15.131,25.854-22.027
						l1.863,2.017C1261.67,434.119,1252.921,441.574,1243.181,449.335z M1277.424,419.29l-1.938-1.945
						c9.184-9.148,16.075-17.403,20.483-24.534c0.298-0.481,0.585-0.959,0.861-1.436l2.373,1.382
						c-0.29,0.497-0.589,0.996-0.899,1.497C1293.784,401.567,1286.759,409.99,1277.424,419.29z M1303.987,382.166l-2.615-0.836
						c1.221-3.819,1.839-7.634,1.839-11.341c0-6.913-2.13-13.636-6.332-19.984l2.289-1.516c4.505,6.805,6.789,14.039,6.789,21.5
						C1305.957,373.98,1305.294,378.077,1303.987,382.166z"/>
					<path style="fill:#B64526;" d="M1183.749,492.206l-1.488-2.307c0.053-0.034,5.385-3.479,13.647-9.149l1.553,2.264
						C1189.163,488.708,1183.803,492.172,1183.749,492.206z"/>
				</g>
			</g>
		</g>
	</g>
</g>
</svg>
