<?xml version="1.0" encoding="utf-8"?>
<!-- Generator: Adobe Illustrator 27.5.0, SVG Export Plug-In . SVG Version: 6.00 Build 0)  -->
<svg version="1.1" id="Layer_1" xmlns="http://www.w3.org/2000/svg" xmlns:xlink="http://www.w3.org/1999/xlink" x="0px" y="0px"
	 viewBox="0 0 2400 2400" style="enable-background:new 0 0 2400 2400;" xml:space="preserve">
<path style="fill:#D5B898;" d="M2300.002,1199.995c0,195.33-50.91,378.77-140.19,537.77c-16.53,29.44-34.38,58.05-53.46,85.73
	c-70.08,101.67-156.82,190.97-256.28,263.96c-0.52,0.38-1.04,0.76-1.56,1.13c-3.45,2.53-6.91,5.03-10.39,7.51
	c-35.81,25.55-73.21,49-112.03,70.18c-68.48,37.36-141.37,67.66-217.69,89.9c-6.12,1.79-12.26,3.52-18.42,5.2
	c-92.39,25.18-189.61,38.62-289.98,38.62c-14.51,0-28.96-0.28-43.33-0.84c-6.92-0.27-13.82-0.6-20.7-0.99
	c-9.42-0.54-18.81-1.2-28.16-1.98c-7.49-0.62-14.95-1.32-22.39-2.09c-137.25-14.2-267-53.64-384.54-113.59
	c-22.85-11.65-45.25-24.08-67.14-37.27c-31.86-19.16-62.68-39.9-92.33-62.1c-4.52-3.38-9-6.79-13.46-10.24
	c-3.8-2.93-7.57-5.88-11.32-8.87c-76.55-60.76-144.82-131.51-202.85-210.27c-134.37-182.41-213.78-407.81-213.78-651.76
	c0-607.51,492.48-1100,1100-1100C1807.512,99.995,2300.002,592.485,2300.002,1199.995z"/>
<g>
	<g>
		<g>
			<path style="fill:#F9A31A;" d="M2106.352,1823.495c-70.08,101.67-156.82,190.97-256.28,263.96c-0.52,0.38-1.04,0.76-1.56,1.13
				c-3.45,2.53-6.91,5.03-10.39,7.51c-35.81,25.55-73.21,49-112.03,70.18c-68.48,37.36-141.37,67.66-217.69,89.9
				c-6.12,1.79-12.26,3.52-18.42,5.2c-92.39,25.18-189.61,38.62-289.98,38.62c-14.51,0-28.96-0.28-43.33-0.84
				c-6.92-0.27-13.82-0.6-20.7-0.99c-9.42-0.54-18.81-1.2-28.16-1.98c-7.49-0.62-14.95-1.32-22.39-2.09
				c-137.25-14.2-267-53.64-384.54-113.59c-22.85-11.65-45.25-24.08-67.14-37.27c-31.86-19.16-62.68-39.9-92.33-62.1
				c-4.52-3.38-9-6.79-13.46-10.24c-3.8-2.93-7.57-5.88-11.32-8.87c-18.03-135.37-39.52-263.4-58.62-328.24
				c-0.18-0.69-0.39-1.33-0.56-1.93c-20.12-67.07-24.33-121.87-6.03-168.2c23.09-58.47,82.01-103.43,189.99-142.48
				c45.91-16.6,93.44-36.97,139.26-58.32c30.37-14.2,59.98-28.83,87.87-43.12c4.79-2.44,9.54-4.88,14.21-7.32
				c17.71-9.24,34.65-18.22,50.48-26.82c27.42-14.93,51.64-28.58,71.27-39.83c1.77-1.02,3.51-2.02,5.21-3
				c0.29-0.16,0.58-0.33,0.87-0.5c1.48-0.85,2.92-1.69,4.34-2.51c1.09-0.63,2.15-1.24,3.19-1.85c0.52-0.3,1.03-0.6,1.55-0.9
				c2.57-1.49,5.01-2.92,7.34-4.28c2.81-1.64,5.45-3.19,7.9-4.64c0.36-0.21,0.72-0.42,1.06-0.63c1.44-0.84,2.81-1.65,4.1-2.43
				c0.6-0.35,1.19-0.7,1.77-1.04c0.02-0.01,0.04-0.02,0.05-0.03c0.59-0.35,1.16-0.69,1.72-1.02c0.17-0.1,0.34-0.2,0.5-0.3
				c0.4-0.24,0.79-0.47,1.17-0.7c1.08-0.65,2.1-1.25,3.04-1.81c1.08-0.65,2.07-1.24,2.96-1.78c0.1-0.06,0.2-0.12,0.3-0.18
				c1.16-0.7,2.16-1.3,3-1.82c0.21-0.12,0.41-0.24,0.6-0.36c1.71-1.04,2.6-1.58,2.6-1.58h390.3c0,0,25.84,11.25,74.79,35.68
				c5.09,2.52,10.43,5.22,16.04,8.04c8.94,4.5,18.52,9.37,28.75,14.59c3.98,2.1,8.04,4.19,12.19,6.38
				c26.44,13.73,56.64,29.82,90.44,48.38c103.19,56.56,239.88,136.09,404.68,242.15c1.11,0.73,2.18,1.46,3.25,2.27
				c13.02,9.4,22.69,23.02,29.44,40.22c0,0,0.04,0.1,0.12,0.29c0.08,0.17,0.14,0.35,0.21,0.52c0.01,0.01,0.01,0.02,0.01,0.03
				c5.94,15.42,9.59,33.65,11.25,54.26C2122.722,1710.375,2117.472,1763.885,2106.352,1823.495z"/>
			<g>
				<g>
					<g>
						<path style="fill:#FDC77B;" d="M1133.753,1360.72c-16.173,117.608-93.78,220.628-208.393,257.036
							c-113.672,36.107-245.956,6.46-329.68-79.319c-8.642-8.856,4.963-22.503,13.604-13.604
							c44.366,45.436,102.508,74.142,165.011,84.495c112.219,18.525,229.142-24.815,292.288-121.373
							c52.28-80.089,65.97-183.921,33.671-273.551h20.279C1136.32,1261.165,1140.556,1311.307,1133.753,1360.72z"/>
					</g>
					<g>
						<path style="fill:#FDC77B;" d="M656.342,1938.13c60.935-87.021,159.759-145.854,265.659-156.717
							c118.301-12.138,231.525,37.288,333.565,91.535c99.016,52.641,196.458,114.015,306.695,140.478
							c97.82,23.482,212.12,20.199,294.735-43.808c74.044-57.367,117.596-161.013,80.486-251.274
							c-4.647-11.301-23.28-6.352-18.564,5.118c36.589,88.992-10.838,191.536-88.62,241.593
							c-94.469,60.797-217.892,48.931-319.052,13.03c-201.749-71.601-382.5-248.817-611.308-213.067
							c-104.713,16.362-199.604,76.831-260.221,163.394C632.597,1938.584,649.279,1948.215,656.342,1938.13L656.342,1938.13z"/>
					</g>
					<g>
						<path style="fill:#FDC77B;" d="M1508.402,2256.175c-6.12,1.79-12.26,3.52-18.42,5.2c-14.68-49.18-44.35-93.64-86.57-123.94
							c-0.18-0.14-0.36-0.27-0.54-0.41c-36.57-27.63-72.08-55.94-117.77-65.56c-1.28-0.27-2.57-0.53-3.87-0.77
							c-4.67-0.86-9.38-1.56-14.13-2.08c-15.58-1.72-31.51-1.61-47.17,0.46h-0.01c-5.87,0.77-11.68,1.82-17.44,3.15
							c-21.04,4.87-41.1,13.5-58.57,26.22c-65.4,47.66-64.09,129.5-36.1,197.74c-7.49-0.62-14.95-1.32-22.39-2.09
							c-29.33-80.29-17.05-177.06,64.39-222.15c14.07-7.79,29.08-13.57,44.58-17.46c5.67-1.43,11.41-2.6,17.2-3.53
							c20.89-3.35,42.33-3.47,63.29-0.66c3.84,0.51,7.67,1.13,11.47,1.84c2.14,0.4,4.26,0.84,6.36,1.32
							c46.35,10.51,82.96,39.06,120.42,67.35C1459.492,2154.085,1492.302,2202.525,1508.402,2256.175z"/>
					</g>
				</g>
				<g>
					<path style="fill:#FCBE5B;" d="M1359.44,1269.939c-8.883,116.571-9.812,260.046,107.074,325.084
						c114.851,63.903,249.599,11.792,329.588-82.126c7.989-9.382-5.565-23.063-13.615-13.613
						c-75.582,88.745-203.828,140.571-311.772,75.931c-105.298-63.055-100.166-198.431-92.023-305.276
						C1379.635,1257.582,1360.378,1257.643,1359.44,1269.939L1359.44,1269.939z"/>
				</g>
			</g>
			<g>
				<path style="fill:#CB7128;" d="M1579.843,1279.091c-10.182,78.976-38.289,155.557-86.077,219.858
					c-95.405,128.348-265.035,195.515-419.523,141.353c-133.995-46.975-223.751-181.354-205.697-320.568
					c4.791-2.438,9.541-4.877,14.203-7.317c-11.508,71.147,6.032,145.247,47.145,205.098
					c89.672,130.529,271.455,160.563,409.041,93.908c132.369-64.131,211.218-196.498,228.716-338.707
					C1571.629,1274.813,1575.693,1276.91,1579.843,1279.091z"/>
			</g>
			<path style="fill:#B24726;" d="M1522.858,1250.085c-40.601,128.774-129.332,369.895-390.089,341.231
				c-186.359-20.493-205.783-189.91-199.535-305.721c27.423-14.932,51.638-28.58,71.274-39.83
				c33.242-19.081,53.265-31.361,53.265-31.361h390.302C1448.074,1214.404,1473.915,1225.656,1522.858,1250.085z"/>
			<path style="fill:#B24726;" d="M779.672,1610.155c-0.24,6.36-0.5,12.78-0.78,19.25c-2.47,57.75-6.37,119.93-12.23,182.92
				c-0.74,7.9-1.5,15.81-2.3,23.72c-12.31,122.15-32.2,245.66-63.48,344.46c-22.85-11.65-45.25-24.08-67.14-37.27
				c-31.86-19.16-62.68-39.9-92.33-62.1c-4.52-3.38-9-6.79-13.46-10.24c-3.8-2.93-7.57-5.88-11.32-8.87
				c-18.03-135.37-39.52-263.4-58.62-328.24c-0.18-0.69-0.39-1.33-0.56-1.93c-20.12-67.07-24.33-121.87-6.03-168.2
				c23.09-58.47,82.01-103.43,189.99-142.48c45.91-16.6,93.44-36.97,139.26-58.32
				C782.902,1410.795,783.792,1501.635,779.672,1610.155z"/>
			<g>
				<path style="fill:#B24726;" d="M665.652,2071.275c0,0-11.62,26.99-31.91,71.96c-31.86-19.16-62.68-39.9-92.33-62.1
					c-4.52-3.38-9-6.79-13.46-10.24c-3.8-2.93-7.57-5.88-11.32-8.87c-76.55-60.76-144.82-131.51-202.85-210.27
					c61-128.04,116.31-243.58,137.64-288.1c5.99-12.51,9.3-19.42,9.3-19.42L665.652,2071.275z"/>
				<g>
					<path style="fill:#702020;" d="M527.322,1895.955l14.09,185.18c-4.52-3.38-9-6.79-13.46-10.24l-13.24-173.99
						c-0.26-3.48,2.35-6.52,5.83-6.78C524.132,1889.945,527.052,1892.475,527.322,1895.955z"/>
				</g>
			</g>
			<g>
				<path style="fill:#B24726;" d="M2107.992,1612.955c2.86,6.9,23.03,55.7,51.82,124.81c-16.53,29.44-34.38,58.05-53.46,85.73
					c-70.08,101.67-156.82,190.97-256.28,263.96c-4.61-10.5-7.06-16.18-7.06-16.18l263.47-457.13l1.17-2.03c0,0,0.04,0.1,0.12,0.29
					c0.05,0.13,0.12,0.3,0.21,0.52C2107.992,1612.935,2107.992,1612.945,2107.992,1612.955z"/>
			</g>
			<path style="fill:#B24726;" d="M2106.352,1823.495c-70.08,101.67-156.82,190.97-256.28,263.96c-0.52,0.38-1.04,0.76-1.56,1.13
				c-3.45,2.53-6.91,5.03-10.39,7.51c-35.81,25.55-73.21,49-112.03,70.18c-11.68-43.93-22.23-91.18-31.53-140.16
				c-1.18-6.22-2.35-12.48-3.48-18.76c-23.8-130.81-38.79-272.37-42.98-395.32c-0.24-6.72-0.43-13.39-0.59-19.99
				c-2.85-114.89,4.16-211.5,22.77-264.57c103.19,56.56,239.88,136.09,404.68,242.15c1.11,0.73,2.18,1.46,3.25,2.27
				c11.85,8.91,21.18,23.3,28.27,42.25c5.61,14.98,9.81,32.82,12.76,53.07C2122.722,1710.375,2117.472,1763.885,2106.352,1823.495z"
				/>
			<g>
				<path style="fill:#702020;" d="M1810.512,1998.035c11.82,30.57,24.6,60.7,38,90.55c-3.45,2.53-6.91,5.03-10.39,7.51
					c-13.81-30.64-26.96-61.57-39.12-92.95c-2.32-5.98-4.6-11.97-6.85-17.98c-0.5-1.34-0.99-2.68-1.49-4.02
					c-2.83-7.66,9.4-10.93,12.19-3.36c0.27,0.72,0.54,1.45,0.81,2.17C1805.902,1985.995,1808.192,1992.025,1810.512,1998.035z"/>
			</g>
		</g>
		<g>
			<path style="fill:#272B34;" d="M976.809,526.657c0,0-199.916-54.19-94.387-273.805l114.819,71.302
				c0,0-26.688-54.19,3.403-108.381c0,0,51.69,99.825,142.141,79.86s275.841,19.965,347.145,96.973
				c71.304,77.009,32.799,155.607,32.799,155.607s58.47,27.039,52.766,87.367c-5.705,60.327-70.83,92.476-70.83,92.476
				L976.809,526.657z"/>
			<g>
				<path style="fill:#272B34;" d="M947.207,439.299c0,0-49.267,73.414-19.405,126.633c29.862,53.221,43.599,49.365,43.532,96.506
					c-0.067,47.144,29.55,43.417,48.093,36.65C1037.972,692.321,1072.133,464.656,947.207,439.299z"/>
			</g>
			<g>
				<g>
					<g>
						<g>
							<path style="fill:#B24726;" d="M1448.082,1237.307c-61.556,105.906-326.117,335.378-405.724,34.748l41.793-156.327
								l27.578-103.154l19.291-72.225l289.558-55.023C1409.159,1018.968,1420.118,1134.876,1448.082,1237.307z"/>
						</g>
					</g>
				</g>
				<g>
					<g>
						<g>
							<path style="fill:#272B34;" d="M1354.112,994.012c-127.105,156.357-242.355,176.004-280.478,161.052l38.095-142.49
								L1354.112,994.012z"/>
						</g>
					</g>
				</g>
			</g>
			<g>
				<g>
					<g>
						<path style="fill:#B24726;" d="M1450.908,805.275c-0.799,11.74-2.15,22.548-4.131,32.755
							c-4.571,23.614-12.387,43.987-24.14,64.709c-15.498,27.285-37.807,55.28-68.49,92.097
							c-48.209,57.814-123.739,76.816-195.667,73.316c-191.047-9.268-201.683-140.35-175.877-336.198
							c16.053-121.606-14.935-191.075,17.985-236.963l0.056,0.005c2.153-2.089,4.361-4.12,6.563-6.094
							c52.545-47.569,122.331-71.716,193.232-69.569c13.667,0.427,26.691,1.26,39.183,2.501c2.838,0.194,5.667,0.499,8.438,0.855
							c1.17,0.079,2.334,0.214,3.44,0.401c3.163,0.327,6.268,0.707,9.365,1.197c2.217,0.263,4.432,0.582,6.586,0.951
							c5.037,0.735,9.9,1.57,14.647,2.452c151.66,28.666,184.882,123.609,185.543,215.666
							C1468.128,705.941,1453.505,767.161,1450.908,805.275z"/>
					</g>
				</g>
				<path style="fill:#272B34;" d="M972.31,819.669c0,0-26.379,124.994,36.699,214.836c63.08,89.843,369.357,93.662,378.792-164.227
					c0,0-81.732-33.679-56.828-142.22h-47.172c0,0,24.27,68.292-32.399,91.111C1194.732,841.985,1133.411,790.659,972.31,819.669z"
					/>
				<g>
					<path style="fill:#272B34;" d="M1141.748,707.101c11.925,30.367,54.347,26.835,61.544-4.787
						c2.007-8.819-11.793-11.325-13.79-2.548c-4.145,18.211-27.833,19.707-34.607,2.457
						C1151.605,693.844,1138.438,698.672,1141.748,707.101L1141.748,707.101z"/>
				</g>
				<g>
					<path style="fill:#272B34;" d="M1009.653,698.778c12.134,27.231,48.848,28.479,62.38,1.622
						c4.07-8.08-8.615-14.058-12.672-6.006c-7.873,15.626-29.298,15.807-36.561-0.494
						C1019.15,685.708,1005.967,690.505,1009.653,698.778L1009.653,698.778z"/>
				</g>
				<g>
					<path style="fill:#FFFFFF;" d="M1137.645,872.17c1.821,21.044-13.761,39.581-34.806,41.402
						c-21.044,1.821-39.581-13.761-41.402-34.805c-1.823-21.044,13.761-39.581,34.806-41.402
						C1117.287,835.542,1135.824,851.126,1137.645,872.17z"/>
				</g>
				<g>
					<g>
						<g>
							<path style="fill:#272B34;" d="M1109.809,684.106c-16.756,21.916-33.51,43.832-50.267,65.75
								c-2.529,3.308-2.474,8.295,0.958,11.05c10.34,8.31,19.429,17.427,27.599,27.902c6.188,7.93,19.046-1.066,12.812-9.057
								c-8.993-11.529-18.913-21.69-30.317-30.853c0.319,3.684,0.637,7.367,0.956,11.052c16.756-21.916,33.512-43.832,50.267-65.75
								C1127.937,686.195,1115.957,676.064,1109.809,684.106L1109.809,684.106z"/>
						</g>
					</g>
				</g>
				<g>
					<g>
						<g>
							<path style="fill:#702020;" d="M1251.378,777.464c-0.713,10.466-17.572,17.842-37.659,16.474
								c-20.085-1.369-35.79-10.962-35.077-21.429c0.713-10.466,17.574-17.842,37.659-16.473
								C1236.387,757.405,1252.091,767,1251.378,777.464z"/>
						</g>
					</g>
				</g>
				<g>
					<g>
						<g>
							<path style="fill:#702020;" d="M976.809,781.267c6.382,4.912,16.539,8.44,28.126,9.229
								c20.054,1.368,36.923-5.991,37.638-16.488c0.712-10.45-15.004-20.026-35.059-21.393c-11.043-0.752-21.122,1.15-28.084,4.753
								L976.809,781.267z"/>
						</g>
					</g>
				</g>
				<g>
					<g>
						<g>
							<g>
								<path style="fill:#272B34;" d="M1169.248,640.399c11.979-4.059,29.022-2.661,33.844,11.357
									c2.927,8.507,10.692,14.723,20.115,12.471c8.109-1.938,15.437-11.495,12.471-20.115
									c-10.509-30.546-43.041-46.813-74.076-36.299c-8.522,2.887-14.714,10.721-12.471,20.115
									C1151.078,636.069,1160.613,643.323,1169.248,640.399L1169.248,640.399z"/>
							</g>
						</g>
					</g>
				</g>
				<g>
					<g>
						<g>
							<g>
								<path style="fill:#272B34;" d="M1028.296,664.595c5.818-13.719,14.572-21.611,29.917-22.317
									c21.525-0.99,20.526-34.446-1.003-33.455c-26.462,1.217-48.1,15.615-58.495,40.131
									C990.359,668.659,1019.875,684.455,1028.296,664.595L1028.296,664.595z"/>
							</g>
						</g>
					</g>
				</g>
			</g>
			<g>
				<g>
					<g>
						<path style="fill:#272B34;" d="M1378.813,854.308c26.904,2.224,49.59-4.224,67.964-16.277
							c-4.571,23.614-12.387,43.987-24.14,64.709C1404.301,892.098,1389.098,876.473,1378.813,854.308z"/>
					</g>
				</g>
			</g>
			<g>
				<g>
					<path style="fill:#272B34;" d="M1424.944,639.106c-77.305,15.53-93.696,144.547-131.128,119.638
						c-37.434-24.911,49.302-231.42-51.231-232.678c-100.533-1.258-89.418,18.56-135.435,18.724
						c-78.276,0.258-75.624-38.689-106.506-49.793c2.153-2.089,4.361-4.12,6.563-6.094c52.545-47.569,122.331-71.716,193.232-69.569
						c13.667,0.427,26.691,1.26,39.183,2.501c2.838,0.194,5.667,0.499,8.438,0.855c1.17,0.079,2.334,0.214,3.44,0.401
						c3.163,0.327,6.268,0.707,9.365,1.197c2.217,0.263,4.432,0.582,6.586,0.951c4.984,0.676,9.903,1.514,14.647,2.452
						c151.66,28.666,184.882,123.609,185.543,215.666C1456.125,637.596,1441.89,635.677,1424.944,639.106z"/>
				</g>
			</g>
			<g>
				<g>
					<path style="fill:#702020;" d="M1293.841,758.75c37.419,24.887,53.774-104.113,131.106-119.64
						c16.962-3.425,31.192-1.53,42.689,4.248c0.474,62.566-14.146,123.795-16.743,161.912c-0.777,11.424-2.062,21.992-3.976,31.949
						c34.583-77.01,73.614-167.972,83.057-206.859c1.924-7.846,3.099-15.281,3.632-22.348c-1.659-2.069-3.324-4.086-5.096-6.008
						c-7.551-8.542-16.107-15.92-25.396-22.37c-14.7-10.111-31.369-17.783-48.995-23.461
						c-57.205-18.565-125.075-16.55-173.355-11.242C1315.585,596.663,1263.217,738.342,1293.841,758.75z"/>
				</g>
			</g>
			<g>
				<g>
					<g>
						<path style="fill:#63646E;" d="M1083.252,944.471c14.104,5.774,29.433,6.844,41.773-3.283
							c6.256-5.133-2.007-14.577-8.249-9.455c-8.812,7.232-19.634,4.88-29.374,0.894
							C1079.912,929.559,1075.802,941.422,1083.252,944.471L1083.252,944.471z"/>
					</g>
				</g>
			</g>
			<g>
				<g>
					<g>
						<path style="fill:#B24726;" d="M1321.507,802.992c-8.192-31.335-0.199-64.632,19.348-90.458
							c25.316-33.453,71.341-84.44,111.517-76.031c59.05,12.357,62.498,65.991,52.943,119.719
							c-9.558,53.728-49.88,122.198-123.508,105.681C1344.991,853.647,1328.213,828.652,1321.507,802.992z"/>
					</g>
				</g>
			</g>
			<g>
				<g>
					<g>
						<g>
							<g>
								<path style="fill:#272B34;" d="M1393.167,798.235c-1.395-22.854-1.243-46.658,8.691-67.839
									c8.873-18.918,32.537-45.606,56.887-35.726c8.163,3.312,14.736-8.841,6.51-12.18c-23.462-9.519-47.292,3.054-62.795,21.422
									c-22.368,26.503-25.111,61.775-23.088,94.972C1379.913,807.736,1393.709,807.135,1393.167,798.235L1393.167,798.235z"/>
							</g>
						</g>
					</g>
				</g>
			</g>
		</g>
		<g>
			<g>
				<path style="fill:#FFFFFF;" d="M1407.186,719.886c0,0,32.561,0.754,40.896,23.992c8.335,23.238-28.138,27.84-55.357,27.678
					C1392.725,771.556,1388.971,747.525,1407.186,719.886z"/>
			</g>
			<g>
				<g>
					<path style="fill:#FFFFFF;" d="M1252.68,2132.898c-175.635-312.874-226.446-847.581-241.005-1094.835
						c-8.988-12.863-14.564-18.1-19.721-32.866c4.001,83.158,12.758,211.302,31.684,360.218
						c29.56,232.594,90.704,556.008,214.118,775.856c1.572,2.799,4.477,4.371,7.47,4.371c1.418,0,2.856-0.351,4.18-1.094
						C1253.528,2142.232,1254.993,2137.018,1252.68,2132.898z"/>
				</g>
			</g>
			<g>
				<path style="fill:#FFFFFF;" d="M1440.352,1206.725c-0.03,2.55-0.06,5.11-0.09,7.68c-0.16,12-0.38,24.14-0.67,36.4
					c-1.09,45.65-3.15,93.05-6.47,141.58c-1.48,21.65-3.18,43.07-5.09,64.25c-2.24,24.84-4.77,49.36-7.6,73.55
					c-1.02,8.75-2.08,17.46-3.18,26.12c-0.21,1.68-0.43,3.36-0.64,5.04c-0.78,6.04-1.58,12.05-2.4,18.05v0.01
					c-15.7,115.48-38.31,222.99-67.64,321.43c-1.86,6.25-3.75,12.47-5.66,18.64c-2.18,7.01-4.39,13.98-6.63,20.89
					c-12.73,39.24-26.59,76.94-41.57,113.09c-2.5,6.05-5.04,12.05-7.61,18.01c-10.12,23.5-20.72,46.31-31.8,68.44v0.01
					c-0.33,0.65-0.66,1.31-1,1.96v0.01c-28.72,57.11-60.63,109.59-95.63,157.27c-6.92-0.27-13.82-0.6-20.7-0.99
					c37.74-50.3,70.63-104.56,99.27-161.39c3.14-6.22,6.23-12.48,9.27-18.77c7.87-16.28,15.4-32.75,22.59-49.39
					c2.65-6.08,5.24-12.19,7.78-18.32c19-45.6,35.63-92.31,50.17-139.49c1.92-6.19,3.79-12.39,5.62-18.6v-0.01
					c29.62-99.95,50.13-201.6,64.14-298.9c0.81-5.62,1.6-11.23,2.37-16.82c1.79-13.07,3.47-26.04,5.03-38.92v-0.01
					c1.25-10.17,2.42-20.29,3.53-30.33v-0.01c0.92-8.41,1.8-16.77,2.64-25.07c3.13-31.02,5.64-61.29,7.65-90.59
					c2.72-39.81,4.6-78.85,5.79-116.79v-0.01c0.64-20.46,1.07-40.58,1.34-60.34c0.49-37.41,0.35-73.46-0.24-107.8
					c-1.01-57.92-3.33-110.95-6.16-157.32v-0.04c-0.7-11.49-1.43-22.56-2.18-33.2c-0.47-6.67-0.95-13.16-1.43-19.48
					c-0.25-3.28-0.5-6.51-0.75-9.69c-0.63-7.88-1.26-15.47-1.88-22.73c-0.33-3.83-0.66-7.57-0.99-11.22
					c-3.31-36.95-6.47-64.81-8.52-81.48c-1.37-11.23-2.23-17.37-2.29-17.78c-0.68-4.67,2.57-9.01,7.25-9.68
					c4.7-0.68,9.01,2.57,9.68,7.25c0.06,0.42,0.98,6.93,2.43,18.82c2.01,16.44,5.03,43.16,8.22,78.3c0.37,4.11,0.74,8.32,1.12,12.65
					v0.01c0.77,8.94,1.55,18.36,2.32,28.24C1436.022,969.815,1441.742,1080.395,1440.352,1206.725z"/>
			</g>
		</g>
	</g>
</g>
</svg>
