<?xml version="1.0" encoding="utf-8"?>
<!-- Generator: Adobe Illustrator 27.5.0, SVG Export Plug-In . SVG Version: 6.00 Build 0)  -->
<svg version="1.1" id="Layer_1" xmlns="http://www.w3.org/2000/svg" xmlns:xlink="http://www.w3.org/1999/xlink" x="0px" y="0px"
	 viewBox="0 0 2400 2400" style="enable-background:new 0 0 2400 2400;" xml:space="preserve">
<path style="fill:#9DBEC6;" d="M2300.002,1199.995c0,258.11-88.9,495.46-237.74,683.09c-72.08,90.85-158.2,170.05-255.09,234.3
	c-38.05,25.24-77.75,48.17-118.92,68.59c-147.12,72.99-312.89,114.02-488.25,114.02c-186.68,0-362.51-46.5-516.51-128.56
	c-8.95-4.76-17.82-9.65-26.62-14.65c-20.38-11.59-40.35-23.82-59.89-36.65c-5-3.28-9.97-6.61-14.91-9.98
	c-1.42-0.95-2.83-1.92-4.24-2.89c-77.4-53.18-147.66-116.01-209.03-186.76c-46.74-53.86-88.33-112.31-123.99-174.59
	c-92.14-160.87-144.81-347.24-144.81-545.92c0-607.51,492.48-1100,1100-1100C1807.512,99.995,2300.002,592.485,2300.002,1199.995z"
	/>
<g>
	<g>
		<g>
			<path style="fill:#00A6C8;" d="M2062.262,1883.085c-72.08,90.85-158.2,170.05-255.09,234.3
				c-38.05,25.24-77.75,48.17-118.92,68.59c-123.46-161.43-212.36-302.49-235.85-340.49c-3.41-5.53-5.44-8.88-5.99-9.79
				c-1.28-2.12-2.53-4.25-3.72-6.39c-63.66-112.75-26.52-256.43,85.02-323.91c65.75-39.78,142.96-44.37,209.67-19.16
				c48.61,18.36,91.65,52.54,120.63,100.45C1858.912,1588.175,1941.032,1723.395,2062.262,1883.085z"/>
		</g>
	</g>
	<g>
		<g>
			<g>
				<g>
					<g>
						<g>
							<path style="fill:#00A6C8;" d="M368.802,1920.505c18.79-226.58,84.91-385.07,195.08-456.97
								c31.16-20.35,65.84-33.76,103.97-39.83c83.18-13.22,148.95-36.63,197.46-59.54c5.93-2.8,11.54-5.55,16.97-8.35
								c57.25-29.18,89.84-55.5,90.34-55.9c0.01-0.01,0.01-0.01,0.01-0.01h398.96c3.06,4.46,6.18,8.77,9.38,12.93
								c32.69,42.68,72.4,70.62,114.81,90.87c5.15,2.47,10.36,4.82,15.63,7.12c76.6,33.05,160.07,44.67,225.97,75.41
								c55.93,26.07,99.19,65.93,114.83,144.34c16.18,81.09-26.84,227.02-45.04,486.81c-38.05,25.24-77.75,48.17-118.92,68.59
								c-147.12,72.99-312.89,114.02-488.25,114.02c-186.68,0-362.51-46.5-516.51-128.56c-8.95-4.76-17.82-9.65-26.62-14.65
								c-20.38-11.59-40.35-23.82-59.89-36.65c-5-3.28-9.97-6.61-14.91-9.98c-1.42-0.95-2.83-1.92-4.24-2.89
								C500.432,2054.085,430.172,1991.255,368.802,1920.505z"/>
						</g>
					</g>
				</g>
				<g>
					<g>
						<g>
							<path style="fill:#0084A5;" d="M1348.607,1861.137c-67.539,0-139.963-18.324-215.32-54.495
								c-129.599-62.199-224.66-157.279-225.604-158.234c-3.502-3.531-3.703-9.472-0.454-13.275
								c3.252-3.805,8.724-4.025,12.224-0.494c0.926,0.932,94.173,94.129,221.221,155.007
								c168.85,80.907,314.14,69.426,431.835-34.118c3.713-3.267,9.16-2.647,12.165,1.386c3.005,4.036,2.433,9.952-1.28,13.214
								c-67.845,59.688-145.83,90.305-231.786,90.998C1350.609,1861.135,1349.608,1861.137,1348.607,1861.137z"/>
						</g>
					</g>
				</g>
				<g>
					<g>
						<g>
							<path style="fill:#0084A5;" d="M1256.608,1521.082c-93.995,0-203.349-80.852-209.372-85.363
								c-3.933-2.946-4.923-8.798-2.212-13.07c2.71-4.272,8.092-5.342,12.029-2.404c1.834,1.374,184.556,136.463,269.622,56.863
								c3.621-3.384,9.08-2.951,12.199,0.984c3.118,3.931,2.712,9.866-0.906,13.25
								C1314.972,1512.864,1286.567,1521.082,1256.608,1521.082z"/>
						</g>
					</g>
				</g>
				<g>
					<g>
						<g>
							<g>
								<path style="fill:#0084A5;" d="M657.712,2037.625c-0.71,1-23.03,32.72-60.73,82.51c-5-3.28-9.97-6.61-14.91-9.98
									c38.35-50.62,61.11-82.97,61.8-83.96c2.91-4.14,8.35-4.87,12.16-1.73C659.842,2027.655,660.562,2033.535,657.712,2037.625z"
									/>
							</g>
						</g>
					</g>
					<g>
						<g>
							<g>
								<path style="fill:#0084A5;" d="M712.142,2166.735l-28.65,4.7c-8.95-4.76-17.82-9.65-26.62-14.65l52.51-8.62
									c4.7-0.83,9.16,2.75,9.92,7.89C720.072,2161.185,716.862,2165.965,712.142,2166.735z"/>
							</g>
						</g>
					</g>
				</g>
			</g>
			<g>
				<g>
					<path style="fill:#00A6C8;" d="M766.102,1828.575c-3.75,6.21-76.62,126.2-188.27,278.69
						c-77.4-53.18-147.66-116.01-209.03-186.76c-46.74-53.86-88.33-112.31-123.99-174.59c67.47-96.8,109.06-165.29,109.69-166.35
						c45.83-75.75,126.81-117.18,209.38-116.03c41.32,0.57,83.02,11.81,120.93,34.74
						C798.472,1567.035,834.872,1714.915,766.102,1828.575z"/>
				</g>
			</g>
			<g>
				<g>
					<g>
						<g>
							<g>
								<g>
									<path style="fill:#F48767;" d="M1380.968,1220.234v103.025c-12.054,9.74-24.24,18.213-36.468,25.549
										c-178.885,107.436-371.877-25.549-371.877-25.549V966.057l359.649,223.868L1380.968,1220.234z"/>
								</g>
							</g>
							<g>
								<g>
									<g>
										<g>
											<path style="fill:#37202B;" d="M1380.968,1220.234v103.025c-12.054,9.74-24.24,18.213-36.468,25.549
												c-152.318-60.298-263.186-220.113-263.186-220.113l250.958,61.23L1380.968,1220.234z"/>
										</g>
									</g>
								</g>
							</g>
						</g>
					</g>
				</g>
				<g>
					<g>
						<g>
							<g>
								<g>
									<path style="fill:#37202B;" d="M1432.883,365.937c0,0,199.641,50.365,126.074,213.395
										C1558.957,579.332,1427.139,434,1432.883,365.937z"/>
								</g>
							</g>
						</g>
					</g>
					<g>
						<g>
							<g>
								<g>
									<path style="fill:#F1634C;" d="M1509.717,763.675c0,0,58.511-69.129,91.583,0c33.073,69.129,7.633,209.05-81.407,186.152
										L1509.717,763.675z"/>
								</g>
							</g>
						</g>
					</g>
					<g>
						<g>
							<g>
								<g>
									<path style="fill:#F48767;" d="M1572.132,1006.093c0,0,0.308,212.995-221.248,212.513
										c-220.18-0.413-370.222-173.319-378.027-181.329c-0.136-0.138-0.241-0.207-0.241-0.207l-2.406-44.763l-12.515-232.354
										l-6.703-124.187c0,0-28.125-223.619,184.388-264.395c155.269-29.809,300.875-4.023,374.348,76.98
										c27.059,29.878,44.319,67.286,48.65,112.187l6.877,223.07l1.684,54.667L1572.132,1006.093z"/>
								</g>
							</g>
						</g>
					</g>
					<g>
						<g>
							<g>
								<g>
									<path style="fill:#37202B;" d="M877.791,655.466c4.605,46.365,21.032,71.47,31.972,88.565
										c62.861,13.648,91.413,47.955,103.361,80.071l55.299,7.288c0,0,7.288-90.263-11.62-158.714
										c-14.578-52.667,34.801-69.108,46.256-115.199c3.397-13.7,6.029-19.725,0-40.441c0,0,78.961-60.658,173.224-31.557
										c94.318,29.155,180.565,39.212,223.724-18.046c4.293-5.694,8.111-11.619,9.7-19.072
										c-73.439-81.001-219.054-106.814-374.314-77.001C922.86,412.137,874.633,515.223,874.633,515.223
										C858.246,567.672,873.299,610.307,877.791,655.466z"/>
								</g>
							</g>
						</g>
					</g>
					<g>
						<path style="fill:#F1634C;" d="M877.791,655.466c4.605,46.365,21.032,73.686,31.972,88.565
							c62.861,13.648,91.413,47.955,103.361,80.071l55.299,7.288c0,0,7.288-90.263-11.62-158.714
							c-14.578-52.667,34.801-69.108,46.256-115.199C1044.636,574.468,949.477,597.045,877.791,655.466z"/>
					</g>
					<g>
						<g>
							<g>
								<path style="fill:#008E4A;" d="M841.434,510.233c0,0,345.069-136.478,590.365-144.785c6.414-0.212,12.758-0.35,19.032-0.35
									c25.589-0.176,49.739,1.332,71.858,4.766c0,0-46.794-125.452-214.555-162.291c-19.103-4.207-39.783-7.256-62.147-8.869
									c-29.444-2.067-61.797-1.613-97.34,2.138c-1.156,0.105-2.312,0.209-3.506,0.35c-9.288,1.018-18.297,2.245-27.023,3.717
									c-26.992,4.381-51.458,10.62-73.68,18.402c-5.82,1.998-11.464,4.136-16.967,6.343
									c-41.151,16.615-73.856,38.489-99.792,62.779c-8.519,7.956-16.299,16.159-23.415,24.538
									C827.463,407.195,841.434,510.233,841.434,510.233z"/>
							</g>
						</g>
						<g>
							<g>
								<g>
									<path style="fill:#00703C;" d="M1245.986,198.704c55.592,20.05,139.297,65.864,185.813,166.743
										c2.593,5.573,5.047,11.321,7.397,17.246l16.299-6.415c-1.508-3.786-3.051-7.537-4.664-11.181
										c-35.892-82.653-94.921-130.641-142.698-157.524C1289.03,203.366,1268.349,200.317,1245.986,198.704z"/>
								</g>
							</g>
						</g>
						<g>
							<g>
								<g>
									<path style="fill:#00703C;" d="M1118.117,204.909c85.631,37.505,127.098,136.038,127.588,137.194l16.194-6.662
										c-1.857-4.555-37.645-89.451-113.253-134.599c-1.156,0.105-2.312,0.209-3.506,0.35
										C1135.853,202.21,1126.844,203.437,1118.117,204.909z"/>
								</g>
							</g>
						</g>
						<g>
							<g>
								<g>
									<path style="fill:#00703C;" d="M1027.47,229.654c6.065,43.571,27.413,133.586,101.511,179.643l9.254-14.862
										c-69.579-43.218-88.682-132.216-93.798-171.124C1038.618,225.309,1032.974,227.447,1027.47,229.654z"/>
								</g>
							</g>
						</g>
						<g>
							<g>
								<g>
									<path style="fill:#00703C;" d="M923.752,479.017l15.143-8.833c-32.108-54.822-23.555-127.485-11.217-177.75
										c-8.519,7.956-16.299,16.159-23.415,24.538C895.501,366.919,894.343,428.821,923.752,479.017z"/>
								</g>
							</g>
						</g>
						<g>
							<g>
								<path style="fill:#00703C;" d="M1547.284,436.321c0,0-355.016-68.758-674.507,183.545c0,0-51.915-42.489-31.344-113.846
									c0,0,305.46-274.447,681.256-156.438C1522.69,349.582,1562.461,382.295,1547.284,436.321z"/>
							</g>
						</g>
					</g>
					<g style="opacity:0.8;">
						<g>
							<g>
								<g>
									<g>
										<path style="fill:#F1634C;" d="M1276.282,811.016c0,15.507-31.941,28.079-71.338,28.079
											c-39.4,0-71.34-12.571-71.34-28.079c0-15.507,31.94-28.079,71.34-28.079
											C1244.342,782.937,1276.282,795.508,1276.282,811.016z"/>
									</g>
								</g>
							</g>
						</g>
					</g>
					<g style="opacity:0.8;">
						<g>
							<g>
								<g>
									<g>
										<path style="fill:#F1634C;" d="M1566.938,838.276c-5.499,0.549-11.277,0.825-17.191,0.825
											c-39.366,0-71.307-12.584-71.307-28.091c0-15.505,31.941-28.089,71.307-28.089c5.33,0,10.521,0.241,15.507,0.689
											L1566.938,838.276z"/>
									</g>
								</g>
							</g>
						</g>
					</g>
					<g>
						<g>
							<g>
								<g>
									<g>
										<path style="fill:#37202B;" d="M1289.279,725.657c0,21.3-9.66,38.564-21.578,38.564
											c-11.916,0-21.576-17.264-21.576-38.564c0-21.298,9.661-38.562,21.576-38.562
											C1279.618,687.095,1289.279,704.359,1289.279,725.657z"/>
									</g>
								</g>
							</g>
						</g>
						<g>
							<g>
								<g>
									<g>
										<path style="fill:#37202B;" d="M1500.002,725.657c0,21.3-9.66,38.564-21.576,38.564
											c-11.918,0-21.578-17.264-21.578-38.564c0-21.298,9.661-38.562,21.578-38.562
											C1490.341,687.095,1500.002,704.359,1500.002,725.657z"/>
									</g>
								</g>
							</g>
						</g>
						<g>
							<g>
								<g>
									<g>
										<path style="fill:#37202B;" d="M1167.326,627.911c4.875-22.483,23.606-64.712,95.507-67.914
											c8.779-0.392,16.674,5.401,19.003,13.874l0,0c2.924,10.636-3.822,21.61-14.68,23.543
											c-19.089,3.399-46.759,13.815-62.566,44.941c-4.936,9.721-17.38,12.831-26.642,7.083l-2.153-1.336
											C1168.955,643.856,1165.621,635.777,1167.326,627.911z"/>
									</g>
								</g>
							</g>
						</g>
						<g>
							<g>
								<g>
									<g>
										<path style="fill:#37202B;" d="M1535.802,627.911c-4.873-22.483-23.606-64.712-95.507-67.914
											c-8.779-0.392-16.674,5.401-19.005,13.874l0,0c-2.923,10.636,3.824,21.61,14.685,23.543
											c19.086,3.399,46.755,13.815,62.561,44.941c4.938,9.721,17.38,12.831,26.644,7.083l2.153-1.336
											C1534.171,643.856,1537.506,635.777,1535.802,627.911z"/>
									</g>
								</g>
							</g>
						</g>
						<g>
							<g>
								<g>
									<g>
										<path style="fill:#37202B;" d="M1269.212,875.42c0.846,0.901,64.603,67.659,142.434,67.659
											c25.65,0,52.815-7.244,79.774-26.483c3.941-2.81,4.854-8.282,2.044-12.224c-2.813-3.941-8.282-4.85-12.224-2.044
											c-96.437,68.821-198.221-37.808-199.239-38.893c-3.307-3.527-8.854-3.711-12.387-0.4
											C1266.083,866.344,1265.903,871.89,1269.212,875.42L1269.212,875.42z"/>
									</g>
								</g>
							</g>
						</g>
					</g>
					<g>
						<g>
							<g>
								<g>
									<path style="fill:#37202B;" d="M1042.194,950.857c-1.005,2.36-29.042,67.389-69.353,86.431
										c-0.132-0.132-0.218-0.22-0.218-0.22l-2.402-44.763C970.222,992.305,1005.195,986.33,1042.194,950.857z"/>
								</g>
							</g>
						</g>
					</g>
					<g>
						<g>
							<g>
								<g>
									<path style="fill:#F48767;" d="M1003.184,802.93c0,0-85.162-114.393-147.552-24.5
										c-51.414,74.076,45.793,267.119,147.552,200.977V802.93z"/>
								</g>
							</g>
						</g>
					</g>
					<g>
						<g>
							<g>
								<g>
									<g>
										<g>
											<path style="fill:#FFFFFF;" d="M916.91,943.079c0,10.835,8.785,19.618,19.62,19.618c10.835,0,19.62-8.783,19.62-19.618
												c0-10.835-8.785-19.62-19.62-19.62C925.695,923.459,916.91,932.244,916.91,943.079z"/>
										</g>
									</g>
								</g>
							</g>
						</g>
					</g>
					<g>
						<g>
							<g>
								<g>
									<path style="fill:#37202B;" d="M991.54,944.96c0.318,0,0.641-0.017,0.963-0.05c4.81-0.528,8.287-4.854,7.759-9.667
										c-10.643-97.287-92.51-130.981-95.989-132.367c-4.498-1.799-9.596,0.4-11.386,4.896c-1.789,4.49,0.394,9.579,4.882,11.378
										l0,0c3.08,1.242,75.602,31.427,85.07,118.001C983.331,941.636,987.128,944.96,991.54,944.96z"/>
								</g>
							</g>
						</g>
					</g>
					<g>
						<g>
							<g>
								<g>
									<path style="fill:#37202B;" d="M909.771,891.841c1.941,0,3.891-0.641,5.518-1.96l0,0
										c7.619-6.174,30.726-21.352,45.831-17.484c4.693,1.194,9.466-1.629,10.664-6.318c1.2-4.687-1.631-9.46-6.316-10.659
										c-26.33-6.75-57.737,18.016-61.236,20.862c-3.751,3.053-4.318,8.574-1.267,12.328
										C904.697,890.737,907.224,891.841,909.771,891.841z"/>
								</g>
							</g>
						</g>
					</g>
					<g>
						<g>
							<g>
								<g>
									<path style="fill:#37202B;" d="M1376.338,832.881c51.934,0,69.453-36.269,70.176-37.813
										c1.116-2.392,1.095-5.156-0.059-7.531c-35.607-73.372-71.675-148.783-72.036-149.535
										c-2.088-4.364-7.321-6.213-11.686-4.126c-4.368,2.088-6.213,7.321-4.126,11.686c0.352,0.739,35.084,73.351,70.036,145.414
										c-5.003,7.38-20.031,24.378-52.307,24.378c-4.84,0-8.764,3.924-8.764,8.764
										C1367.574,828.959,1371.498,832.881,1376.338,832.881z"/>
								</g>
							</g>
						</g>
					</g>
				</g>
			</g>
		</g>
	</g>
</g>
</svg>
