<?xml version="1.0" encoding="utf-8"?>
<!-- Generator: Adobe Illustrator 27.5.0, SVG Export Plug-In . SVG Version: 6.00 Build 0)  -->
<svg version="1.1" id="Layer_1" xmlns="http://www.w3.org/2000/svg" xmlns:xlink="http://www.w3.org/1999/xlink" x="0px" y="0px"
	 viewBox="0 0 2400 2400" style="enable-background:new 0 0 2400 2400;" xml:space="preserve">
<g>
	<path style="fill:#BDD6E8;" d="M2300.002,1199.992c0,357.845-170.874,675.78-435.474,876.66h-0.016
		c-0.512,0.404-1.025,0.792-1.537,1.18c-25.504,19.295-51.877,37.503-79.057,54.547
		c-110.506,69.371-234.222,119.633-366.537,146.146c-19.652,3.943-39.505,7.358-59.545,10.229c-2.018,0.311-4.036,0.59-6.069,0.854
		c-45.994,6.364-92.903,9.872-140.527,10.338c-3.741,0.046-7.482,0.062-11.238,0.062c-20.832,0-41.539-0.574-62.091-1.739
		c-106.067-5.883-208.113-26.823-304.074-60.678c-4.579-1.614-9.158-3.26-13.706-4.952c-9.779-3.585-19.481-7.326-29.121-11.176
		c-8.506-3.415-16.951-6.923-25.333-10.524c-5.821-2.515-11.611-5.06-17.385-7.668c-0.264-0.109-0.528-0.233-0.807-0.357
		c-62.882-28.422-122.614-62.587-178.542-101.813c-28.081-19.714-55.199-40.7-81.277-62.882
		c-22.322-18.984-43.867-38.838-64.59-59.514l-0.047-0.047c-11.037-11.006-21.825-22.244-32.38-33.7
		c-180.451-195.943-290.647-457.578-290.647-744.965c0-607.511,492.488-1100,1100-1100S2300.002,592.481,2300.002,1199.992z"/>
	<g>
		<g>
			<g>
				<g>
					<g>
						<g>
							<g>
								<g>
									<g>
										<path style="fill:#F38566;" d="M1841.571,1974.218v0.016c-1.723,6.737-3.834,13.427-6.349,20.071l-0.683,1.816
											l-1.242,3.167l-8.367,21.514l-1.18,3.011l-9.857,26.218c-1.614,4.3-3.229,8.615-4.828,12.93
											c-4.967,13.319-9.903,26.699-14.731,40.142c-3.508,9.748-6.985,19.497-10.416,29.276
											c-110.506,69.371-234.222,119.633-366.537,146.146c-19.652,3.943-39.505,7.358-59.545,10.229
											c-2.018,0.311-4.036,0.59-6.069,0.854c13.567-60.166,29.058-119.199,45.854-177.58c1.133-4.02,2.297-8.041,3.462-12.046
											c10.307-34.879,21.049-69.557,32.272-104.095c1.63-5.06,3.291-10.121,4.952-15.181
											c6.519-19.776,13.132-39.552,20.055-59.328l10.68-29.711l5.542-15.041l6.085-16.128
											c18.239-48.369,54.159-84.894,97.638-105.027c36.897-17.09,79.243-22.368,120.86-13.039
											c2.546,0.574,5.076,1.195,7.606,1.878c6.054,1.614,12.092,3.555,18.084,5.821c34.833,13.132,63.519,35.438,84.35,63.131
											c0.062,0.062,0.109,0.124,0.14,0.186c0,0,0.016,0,0,0.016C1843.045,1858.31,1856.177,1917.203,1841.571,1974.218z"/>
									</g>
								</g>
							</g>
						</g>
					</g>
				</g>
			</g>
			<g>
				<g>
					<g>
						<g>
							<g>
								<g>
									<g>
										<g>
											<path style="fill:#018747;" d="M1864.513,2076.652c-0.512,0.404-1.025,0.792-1.537,1.18
												c-25.504,19.295-51.877,37.503-79.057,54.547c-110.506,69.371-234.222,119.633-366.537,146.146
												c-19.652,3.943-39.505,7.358-59.545,10.229c-2.018,0.311-4.036,0.59-6.069,0.854
												c-45.994,6.364-92.903,9.872-140.527,10.338c-3.741,0.046-7.482,0.062-11.238,0.062c-20.832,0-41.539-0.574-62.091-1.739
												c-106.067-5.883-208.113-26.823-304.074-60.678c-4.579-1.614-9.158-3.26-13.706-4.952
												c-9.779-3.585-19.481-7.326-29.121-11.176c-8.506-3.415-16.951-6.923-25.333-10.524
												c-5.821-2.515-11.611-5.06-17.385-7.668c-0.264-0.109-0.528-0.233-0.807-0.357
												c-62.882-28.422-122.614-62.587-178.542-101.813c-28.081-19.714-55.199-40.7-81.277-62.882
												c-22.322-18.984-43.867-38.838-64.59-59.514c-0.683-8.46-1.164-16.858-1.428-25.178
												c-0.062-2.173-0.124-4.346-0.155-6.504c-0.016-0.528-0.031-1.056-0.016-1.583c-0.047-2.127-0.062-4.238-0.062-6.349
												c0-2.623,0.016-5.247,0.062-7.87v-0.311c0-0.14,0.016-0.279,0.016-0.419c0.062-3.632,0.171-7.265,0.326-10.866
												c0.062-1.257,0.124-2.499,0.186-3.741c0-0.186,0.016-0.342,0.031-0.512c0-0.078,0.016-0.155,0.031-0.233
												c0.31-5.185,0.683-10.369,1.164-15.507c0.047-0.652,0.109-1.288,0.171-1.925c0.047-0.652,0.124-1.288,0.186-1.925
												c0.109-1.118,0.233-2.22,0.373-3.337c0-0.14,0.016-0.279,0.046-0.419c-0.015-0.016,0-0.047,0.016-0.062l0.931-7.42
												c0-0.109,0.016-0.217,0.031-0.326c0.372-2.453,0.729-4.936,1.102-7.373c-0.016-0.016-0.016-0.031,0-0.047v-0.124
												c0.062-0.31,0.109-0.621,0.171-0.931c0.062-0.357,0.124-0.699,0.186-1.056c0.14-0.978,0.311-1.956,0.481-2.934
												c0.016-0.078,0.031-0.155,0.047-0.233c0-0.093,0.016-0.186,0.047-0.279c0.14-0.59,0.248-1.195,0.326-1.785
												c0.016-0.124,0.031-0.233,0.062-0.341c0.202-1.087,0.404-2.173,0.621-3.26c0-0.047,0-0.078,0.016-0.124
												c0.155-0.792,0.326-1.568,0.481-2.344c0.016-0.047,0.016-0.109,0.031-0.155c0.047-0.217,0.078-0.419,0.124-0.621
												c0.233-1.164,0.466-2.328,0.714-3.477c0.124-0.668,0.264-1.319,0.419-1.971c0.248-1.118,0.512-2.22,0.776-3.337
												c0.372-1.645,0.776-3.275,1.18-4.921c0-0.047,0.016-0.093,0.031-0.14c0.404-1.599,0.807-3.213,1.242-4.812
												c0.45-1.692,0.916-3.384,1.413-5.076c0.202-0.698,0.404-1.382,0.605-2.08c0.264-0.854,0.497-1.708,0.761-2.546
												c0.031-0.109,0.078-0.233,0.109-0.357c0.078-0.217,0.14-0.435,0.202-0.652c0.279-0.931,0.574-1.878,0.9-2.81
												c0.046-0.233,0.124-0.45,0.217-0.683l1.164-3.493c0.372-1.133,0.761-2.282,1.164-3.43
												c0.186-0.574,0.388-1.149,0.605-1.723c0.202-0.574,0.404-1.149,0.605-1.723c0.046-0.109,0.078-0.202,0.124-0.31
												c0.404-1.087,0.807-2.173,1.242-3.26c0.45-1.18,0.916-2.375,1.397-3.57c0.869-2.142,1.754-4.284,2.654-6.411
												c0.388-0.916,0.776-1.816,1.18-2.717c0.652-1.506,1.319-2.996,2.033-4.47c1.025-2.158,2.049-4.3,3.12-6.442
												c0.435-0.916,0.9-1.816,1.366-2.716c0.528-1.04,1.071-2.08,1.645-3.105c0.341-0.652,0.683-1.304,1.04-1.94
												c0.636-1.211,1.304-2.391,1.987-3.586c0.14-0.264,0.279-0.528,0.435-0.776c0.714-1.257,1.459-2.515,2.204-3.772
												c0.481-0.807,0.962-1.615,1.475-2.422c0.916-1.506,1.894-3.042,2.872-4.564c0.341-0.512,0.667-1.009,0.993-1.521
												c0.512-0.761,1.025-1.537,1.537-2.328c0.016-0.062,0.062-0.124,0.124-0.186c0.512-0.761,1.04-1.537,1.568-2.297
												c0.186-0.295,0.388-0.574,0.59-0.869c0.761-1.102,1.537-2.189,2.328-3.275c0.59-0.807,1.18-1.614,1.785-2.406
												c0.776-1.056,1.568-2.111,2.359-3.167c0.062-0.093,0.14-0.186,0.233-0.279c1.211-1.583,2.453-3.136,3.71-4.688
												c1.18-1.459,2.375-2.887,3.601-4.331c0.078-0.078,0.14-0.155,0.202-0.233c0.636-0.761,1.304-1.537,1.971-2.313
												c0.667-0.761,1.35-1.537,2.049-2.297c0.668-0.761,1.351-1.506,2.049-2.251c0.838-0.916,1.692-1.832,2.561-2.748
												c0.14-0.155,0.279-0.295,0.419-0.45c0.279-0.279,0.559-0.559,0.838-0.838c0.14-0.155,0.295-0.311,0.466-0.466
												c0.637-0.668,1.288-1.319,1.956-1.971c0.652-0.652,1.319-1.304,1.987-1.956c0.869-0.869,1.754-1.739,2.654-2.592
												c0.885-0.869,1.801-1.708,2.716-2.53v-0.016c0.016,0,0.016,0,0.016,0c0.202-0.202,0.388-0.388,0.59-0.559
												c0.233-0.202,0.466-0.435,0.699-0.636c0.078-0.062,0.155-0.14,0.233-0.202c0.295-0.279,0.59-0.543,0.885-0.792
												c0.45-0.404,0.9-0.792,1.35-1.195c1.319-1.164,2.67-2.328,4.02-3.477c0.559-0.481,1.118-0.947,1.677-1.413
												c0-0.016,0.016-0.016,0.031-0.031c0.016-0.016,0.047-0.047,0.078-0.062c0.605-0.497,1.211-0.994,1.816-1.475
												c0.279-0.248,0.559-0.481,0.854-0.698c0.931-0.745,1.878-1.506,2.841-2.235c0.528-0.435,1.071-0.854,1.614-1.257
												c0.792-0.621,1.583-1.226,2.391-1.816c0.466-0.357,0.931-0.699,1.397-1.056c0.279-0.202,0.574-0.419,0.854-0.621
												c0.264-0.202,0.543-0.404,0.823-0.605l0.838-0.605c0.279-0.186,0.559-0.388,0.838-0.574
												c0.605-0.466,1.226-0.9,1.847-1.319c0.761-0.543,1.521-1.071,2.297-1.599c0.854-0.59,1.707-1.164,2.577-1.739
												c1.009-0.683,2.034-1.35,3.073-2.018c0.248-0.186,0.512-0.342,0.776-0.512c1.071-0.683,2.158-1.366,3.244-2.049
												c0.404-0.248,0.807-0.497,1.211-0.745c0.016-0.016,0.016-0.031,0.031-0.016c0.807-0.497,1.614-0.993,2.422-1.506
												c0.838-0.481,1.661-0.978,2.499-1.459c1.925-1.149,3.881-2.251,5.868-3.337c1.738-0.978,3.508-1.925,5.293-2.841
												c0.885-0.481,1.754-0.947,2.623-1.397c0.9-0.481,1.816-0.947,2.732-1.397c0.574-0.295,1.149-0.59,1.723-0.869
												c0.248-0.124,0.497-0.248,0.745-0.373c0.155-0.078,0.31-0.155,0.466-0.217c1.04-0.512,2.096-1.025,3.151-1.521
												c0.792-0.388,1.583-0.761,2.391-1.118c0.186-0.093,0.357-0.171,0.543-0.264c1.475-0.668,2.949-1.351,4.455-2.018
												c0.823-0.357,1.646-0.714,2.468-1.071s1.661-0.714,2.499-1.071c0.078-0.031,0.171-0.078,0.248-0.109
												c0.202-0.078,0.404-0.171,0.59-0.248c1.863-0.776,3.741-1.552,5.635-2.297h0.016c0.543-0.233,1.102-0.45,1.645-0.652
												c1.909-0.761,3.85-1.49,5.805-2.22c0.404-0.155,0.807-0.31,1.211-0.466c0.745-0.264,1.49-0.543,2.235-0.792
												c0.931-0.341,1.863-0.667,2.794-0.993c1.692-0.59,3.4-1.18,5.122-1.754c16.873-5.619,33.544-11.006,49.781-16.144
												c102.683-32.474,189.454-54.547,221.292-62.37c0.031,0,0.047-0.016,0.062-0.016c0,0,0-0.016,0.016,0
												c2.251-0.59,4.222-1.04,5.899-1.459c1.055-0.264,1.971-0.481,2.747-0.698c0.109,0,0.202-0.016,0.295-0.031
												c0.093-0.016,0.186-0.047,0.295-0.062c0.016,0,0.031,0,0.031-0.016c0.109-0.031,0.202-0.047,0.31-0.078
												c0.497-0.171,0.962-0.248,1.35-0.342l0.016-0.016h0.016c0.14-0.031,0.248-0.031,0.341-0.093
												c0.419-0.093,0.792-0.155,1.055-0.264c0.279-0.031,0.466-0.062,0.543-0.062c0.016-0.016,0.031-0.016,0.031-0.016
												c0.016-0.016,0.016-0.016,0.016-0.016l42.998,3.539h0.016l397.815,33.017h0.016l13.21,1.102h0.016l24.479,2.018H1371
												l9.872,0.838h0.016l46.444,3.865c68.253,7.622,124.011,16.082,169.663,26.078c40.266,8.895,72.739,18.829,99.19,30.626
												l0.016,0.016c19.9,8.832,36.385,18.612,50.2,29.617c1.164,0.9,2.328,1.847,3.431,2.81
												c4.238,3.493,8.149,7.141,11.859,10.897c0.45,0.45,0.9,0.9,1.35,1.35c0.435,0.466,0.869,0.931,1.288,1.397
												c8.988,9.515,16.516,19.838,22.958,30.999c1.428,2.484,2.856,4.967,4.176,7.56c2.701,5.184,5.185,10.54,7.466,16.035
												c0.9,2.127,1.739,4.284,2.639,6.504c1.335,3.493,2.654,7.047,3.865,10.695c1.304,3.865,2.623,7.886,3.772,11.968
												c0.016,0.047,0.031,0.093,0.047,0.14c1.304,4.222,2.53,8.569,3.741,13.024c0.497,1.832,0.962,3.679,1.428,5.542
												c0.605,2.468,1.195,4.936,1.801,7.466c0.807,3.337,1.537,6.659,2.328,10.105c0.248,1.102,0.481,2.204,0.73,3.322
												c0.481,2.22,0.947,4.47,1.428,6.737c0.698,3.399,1.397,6.845,2.095,10.338c0.45,2.328,0.916,4.688,1.366,7.063
												c0.605,3.167,1.211,6.364,1.801,9.624c0.621,3.493,1.257,7.032,1.956,10.633c0.528,2.965,1.056,5.976,1.583,9.003
												c0.574,3.384,1.211,6.768,1.801,10.26c0.388,2.189,0.776,4.393,1.18,6.628c0.373,2.22,0.761,4.455,1.18,6.721
												c0.388,2.266,0.792,4.533,1.195,6.83c0.807,4.595,1.614,9.251,2.468,13.986c0.404,2.359,0.838,4.75,1.273,7.156
												c0.419,2.391,0.854,4.812,1.304,7.265c0.124,0.73,0.264,1.475,0.404,2.204c0.109,0.543,0.202,1.087,0.31,1.63
												c0.109,0.714,0.233,1.428,0.373,2.142c0.186,1.04,0.373,2.08,0.574,3.136v0.016c0.342,1.894,0.698,3.803,1.056,5.728
												c0.388,2.158,0.792,4.331,1.195,6.519c0.109,0.605,0.217,1.195,0.342,1.801c0.062,0.372,0.14,0.745,0.217,1.133
												c0.031,0.171,0.062,0.357,0.093,0.528c0.078,0.372,0.155,0.745,0.217,1.102c0.667,3.431,1.335,6.845,2.018,10.26
												c0.326,1.614,0.652,3.229,0.993,4.843c0.357,1.785,0.73,3.57,1.118,5.355c0.714,3.4,1.444,6.783,2.204,10.167
												c0.016,0.078,0.031,0.155,0.062,0.233c0.093,0.419,0.186,0.838,0.279,1.257c0.047,0.264,0.109,0.543,0.171,0.807
												c0.155,0.667,0.295,1.32,0.435,1.987c0.45,1.956,0.885,3.912,1.335,5.868c0.776,3.384,1.568,6.768,2.375,10.136
												c0.605,2.53,1.226,5.045,1.847,7.575c1.226,4.967,2.484,9.919,3.757,14.886c0.14,0.605,0.295,1.195,0.466,1.801
												c0.528,1.987,1.04,3.974,1.568,5.945v0.047C1863.721,2073.687,1864.078,2075.177,1864.513,2076.652z"/>
											<path style="fill:#018747;" d="M1864.544,2076.729c-0.016-0.031-0.016-0.047-0.031-0.078h0.016
												C1864.529,2076.683,1864.529,2076.698,1864.544,2076.729z"/>
										</g>
									</g>
								</g>
							</g>
						</g>
					</g>
					<g>
						<g>
							<g>
								<g>
									<g>
										<path style="fill:#005D32;" d="M626.384,1725.259c0.904,33.762-25.68,61.887-59.44,62.791
											c-33.762,0.956-61.833-25.628-62.791-59.387c-0.052-1.808,0-3.616,0.108-5.37c22.913-21.107,51.093-38.811,85.226-52.422
											C610.595,1679.961,625.693,1700.698,626.384,1725.259z"/>
									</g>
								</g>
							</g>
							<g>
								<g>
									<g>
										<path style="fill:#005D32;" d="M839.807,1744.665c0.935,33.747-25.663,61.866-59.41,62.802
											c-33.747,0.937-61.864-25.661-62.802-59.408c-0.938-33.749,25.661-61.866,59.41-62.802
											C810.752,1684.319,838.869,1710.917,839.807,1744.665z"/>
									</g>
								</g>
							</g>
							<g>
								<g>
									<g>
										<path style="fill:#005D32;" d="M1053.906,1757.629c0.935,33.748-25.663,61.864-59.41,62.802
											c-33.747,0.937-61.864-25.661-62.802-59.411c-0.935-33.747,25.663-61.864,59.41-62.802
											C1024.852,1697.284,1052.969,1723.882,1053.906,1757.629z"/>
									</g>
								</g>
							</g>
							<g>
								<g>
									<g>
										<path style="fill:#005D32;" d="M1268.701,1763.747c0.938,33.747-25.663,61.864-59.411,62.802
											c-33.747,0.935-61.864-25.663-62.802-59.41c-0.935-33.747,25.663-61.865,59.41-62.802
											C1239.647,1703.399,1267.764,1730,1268.701,1763.747z"/>
									</g>
								</g>
							</g>
							<g>
								<g>
									<g>
										<path style="fill:#005D32;" d="M1484.234,1762.608c0.935,33.747-25.663,61.864-59.411,62.802
											c-33.747,0.935-61.864-25.663-62.802-59.411c-0.935-33.747,25.663-61.864,59.41-62.802
											C1455.179,1702.26,1483.296,1728.86,1484.234,1762.608z"/>
									</g>
								</g>
							</g>
							<g>
								<g>
									<g>
										<path style="fill:#005D32;" d="M1700.543,1753.803c0.938,33.747-25.661,61.864-59.408,62.802
											c-33.747,0.935-61.866-25.663-62.802-59.411c-0.938-33.747,25.661-61.864,59.408-62.802
											C1671.489,1693.455,1699.608,1720.053,1700.543,1753.803z"/>
									</g>
								</g>
							</g>
						</g>
						<g>
							<g>
								<g>
									<g>
										<path style="fill:#005D32;" d="M568.943,2101.1c-28.081-19.714-55.199-40.7-81.277-62.882
											c2.577-29.648,26.544-53.724,57.155-55.571c33.638-2.018,62.556,23.626,64.574,57.279
											C611.056,2067.68,593.888,2092.221,568.943,2101.1z"/>
									</g>
								</g>
							</g>
							<g>
								<g>
									<g>
										<path style="fill:#005D32;" d="M819.755,2050.203c2.019,33.647-23.622,62.562-57.269,64.581
											c-33.647,2.021-62.56-23.619-64.581-57.267c-2.018-33.649,23.622-62.562,57.269-64.58
											C788.822,1990.916,817.737,2016.556,819.755,2050.203z"/>
									</g>
								</g>
							</g>
							<g>
								<g>
									<g>
										<path style="fill:#005D32;" d="M1034.111,2055.473c2.019,33.647-23.622,62.56-57.269,64.578
											c-33.647,2.021-62.56-23.619-64.581-57.267c-2.018-33.647,23.622-62.562,57.269-64.581
											C1003.178,1996.186,1032.09,2021.824,1034.111,2055.473z"/>
									</g>
								</g>
							</g>
							<g>
								<g>
									<g>
										<path style="fill:#005D32;" d="M1251.453,2055.127c2.018,33.647-23.622,62.562-57.269,64.581
											c-33.648,2.019-62.56-23.622-64.581-57.269c-2.019-33.647,23.622-62.56,57.269-64.581
											C1220.52,1995.84,1249.435,2021.48,1251.453,2055.127z"/>
									</g>
								</g>
							</g>
							<g>
								<g>
									<g>
										<path style="fill:#005D32;" d="M1470.777,2048.572c2.021,33.647-23.62,62.56-57.267,64.578
											c-33.65,2.021-62.562-23.62-64.581-57.267c-2.021-33.647,23.62-62.562,57.267-64.581
											C1439.844,1989.285,1468.759,2014.923,1470.777,2048.572z"/>
									</g>
								</g>
							</g>
							<g>
								<g>
									<g>
										<path style="fill:#005D32;" d="M1691.075,2035.203c2.021,33.647-23.62,62.562-57.267,64.58
											c-33.647,2.021-62.562-23.62-64.581-57.267c-2.019-33.649,23.62-62.562,57.269-64.581
											C1660.144,1975.916,1689.057,2001.556,1691.075,2035.203z"/>
									</g>
								</g>
							</g>
							<g>
								<g>
									<g>
										<path style="fill:#005D32;" d="M1864.513,2076.652c-0.512,0.404-1.025,0.792-1.537,1.18
											c-2.903,0.621-5.868,1.025-8.926,1.195c-17.215,1.04-33.219-5.216-44.985-16.066
											c-11.192-10.338-18.581-24.836-19.559-41.244c-0.885-14.622,3.477-28.36,11.471-39.381
											c8.817-12.232,22.12-21.111,37.658-24.153c0.76,4.315,1.568,8.693,2.391,13.117c0.186,0.963,0.357,1.94,0.543,2.918v0.016
											c0.342,1.894,0.698,3.803,1.056,5.728c0.388,2.158,0.792,4.331,1.195,6.519c0.109,0.605,0.217,1.195,0.342,1.801
											c0.062,0.372,0.14,0.745,0.217,1.133c0.031,0.171,0.062,0.357,0.093,0.528c0.078,0.372,0.155,0.745,0.217,1.102
											c0.667,3.431,1.335,6.845,2.018,10.26c0.326,1.614,0.652,3.229,0.993,4.843c0.186,0.885,0.388,1.785,0.574,2.685
											c0.14,0.714,0.295,1.428,0.45,2.142c0.507,2.41,1.031,4.828,1.557,7.242c0.268,1.231,0.532,2.462,0.805,3.691
											c0.093,0.417,0.176,0.837,0.277,1.253c0.202,0.931,0.404,1.863,0.605,2.794c0.45,1.956,0.885,3.912,1.335,5.868
											c0.776,3.384,1.568,6.768,2.375,10.136c0.605,2.53,1.211,5.045,1.832,7.575c0.093,0.388,0.186,0.792,0.295,1.18
											c0.264,1.056,0.512,2.111,0.792,3.182c0.512,2.065,1.025,4.145,1.568,6.209c0.357,1.444,0.73,2.872,1.118,4.315
											c0.652,2.577,1.335,5.169,2.018,7.746v0.016c0,0.015,0.016,0.015,0.016,0.031
											C1863.721,2073.687,1864.078,2075.177,1864.513,2076.652z"/>
									</g>
								</g>
							</g>
						</g>
						<g>
							<g>
								<g>
									<g>
										<path style="fill:#005D32;" d="M1211.241,2299.946c-3.741,0.046-7.482,0.062-11.238,0.062
											c-20.832,0-41.539-0.574-62.091-1.739c8.522-6.116,18.72-10.121,29.928-11.161
											C1184.06,2285.603,1199.381,2290.601,1211.241,2299.946z"/>
									</g>
								</g>
							</g>
							<g>
								<g>
									<g>
										<path style="fill:#005D32;" d="M1417.382,2278.524c-19.652,3.943-39.505,7.358-59.545,10.229
											c9.112-7.497,20.49-12.449,33.125-13.613C1400.214,2274.287,1409.186,2275.544,1417.382,2278.524z"/>
									</g>
								</g>
							</g>
						</g>
					</g>
					<g>
						<g>
							<g>
								<g>
									<g>
										<g>
											<path style="fill:#005D32;" d="M1380.869,1622.852c-17.689,45.296-61.858,101.519-171.437,115.548
												c-151.15,19.379-277.966-102.875-324.051-154.364c4.618-1.129,7.043-1.691,7.043-1.691L1380.869,1622.852z"/>
										</g>
									</g>
								</g>
							</g>
						</g>
					</g>
					<g>
						<g>
							<g>
								<g>
									<g>
										<g>
											<path style="fill:#FFFFFF;" d="M1270.719,1929.889c4.587,0,9.097-0.254,13.563-0.792
												c41.867-5.031,72.81-23.734,91.96-55.594c55.778-92.785-9.786-265.228-12.609-272.525
												c-2.237-5.807-8.799-8.674-14.565-6.449c-5.803,2.241-8.699,8.761-6.457,14.569
												c0.654,1.687,64.431,169.483,14.307,252.817c-15.606,25.938-40.24,40.592-75.319,44.808
												c-146.744,17.631-382.726-316.223-385.098-319.595c-3.566-5.093-10.596-6.326-15.698-2.752
												c-5.089,3.577-6.32,10.607-2.743,15.696C887.766,1613.908,1111.446,1929.889,1270.719,1929.889z"/>
										</g>
									</g>
								</g>
							</g>
						</g>
					</g>
					<g>
						<g>
							<g>
								<g>
									<g>
										<g>
											<path style="fill:#F38566;" d="M1696.202,1683.402c11.944,107.772,73.35,277.12,167.098,388.783
												c-7.099-26.763-13.352-53.801-18.593-81.128c-0.171-0.9-0.394-1.858-0.56-2.76c-0.508-2.814-1.019-5.578-1.521-8.339
												C1812.709,1819.119,1811.917,1734.724,1696.202,1683.402z"/>
										</g>
									</g>
								</g>
							</g>
						</g>
					</g>
					<g>
						<g>
							<g>
								<g>
									<g>
										<g>
											<path style="fill:#F38566;" d="M885.388,2041.524c-3.71,68.952-22.725,136.677-51.551,196.067
												c-4.579-1.614-9.158-3.26-13.706-4.952c-9.779-3.585-19.481-7.326-29.121-11.176
												c-8.506-3.415-16.951-6.923-25.333-10.524c-5.821-2.515-11.611-5.06-17.385-7.668c-0.264-0.109-0.528-0.233-0.807-0.357
												c-62.882-28.422-122.614-62.587-178.542-101.813c-28.081-19.714-55.199-40.7-81.277-62.882
												c-22.322-18.984-43.867-38.838-64.59-59.514l-0.047-0.047c-0.683-8.444-1.149-16.827-1.382-25.131
												c-0.062-2.173-0.124-4.346-0.155-6.504c-0.016-0.528-0.031-1.056-0.016-1.583c-0.047-2.127-0.062-4.238-0.062-6.349
												c0-2.623,0.016-5.247,0.062-7.87v-0.311c0-0.14,0.016-0.279,0.016-0.419c0.062-3.632,0.171-7.265,0.326-10.866
												c0.062-1.257,0.124-2.499,0.186-3.741c0-0.186,0.016-0.342,0.031-0.512c0.326-5.945,0.776-11.844,1.366-17.665
												c0.047-0.652,0.124-1.288,0.186-1.925c0.109-1.118,0.233-2.22,0.373-3.337c0-0.14,0.016-0.279,0.046-0.419
												c-0.015-0.016,0-0.047,0.016-0.062l0.931-7.42c0-0.109,0.016-0.217,0.031-0.326c0.372-2.453,0.729-4.936,1.102-7.373
												c-0.016-0.016-0.016-0.031,0-0.047c0.047-0.357,0.109-0.698,0.171-1.056s0.124-0.699,0.186-1.056
												c0.14-0.978,0.311-1.956,0.481-2.934l0.016-0.016c0-0.078,0.016-0.14,0.031-0.217c0-0.093,0.016-0.186,0.047-0.279
												c0.093-0.59,0.202-1.195,0.326-1.785c0.016-0.124,0.031-0.233,0.062-0.341c0.202-1.087,0.404-2.173,0.621-3.26
												c0-0.047,0-0.078,0.016-0.124c0.155-0.792,0.326-1.568,0.481-2.344c0.016-0.047,0.016-0.109,0.031-0.155
												c0.047-0.217,0.078-0.419,0.124-0.621c0.233-1.164,0.466-2.328,0.714-3.477c0.124-0.668,0.264-1.319,0.419-1.971
												c0.248-1.118,0.512-2.22,0.776-3.337c0.372-1.645,0.776-3.275,1.18-4.921c0-0.047,0.016-0.093,0.031-0.14
												c0.404-1.599,0.807-3.213,1.242-4.812c0.45-1.692,0.916-3.384,1.413-5.076c0.202-0.698,0.404-1.382,0.605-2.08
												c0.264-0.854,0.497-1.708,0.761-2.546c0.031-0.109,0.078-0.233,0.109-0.357c0.078-0.217,0.14-0.435,0.202-0.652
												c0.279-0.931,0.574-1.878,0.9-2.81c0.046-0.233,0.124-0.45,0.217-0.683l1.164-3.493c0.372-1.133,0.761-2.282,1.164-3.43
												c0.186-0.574,0.388-1.149,0.605-1.723c0.233-0.683,0.481-1.366,0.729-2.033c0.404-1.087,0.807-2.173,1.242-3.26
												c1.257-3.368,2.608-6.69,4.051-9.981c0.388-0.916,0.776-1.816,1.18-2.717c0.652-1.506,1.319-2.996,2.033-4.47
												c1.025-2.158,2.049-4.3,3.12-6.442c0.435-0.916,0.9-1.816,1.366-2.716c0.528-1.04,1.071-2.08,1.645-3.105
												c0.341-0.652,0.683-1.304,1.04-1.94c0.636-1.211,1.304-2.391,1.987-3.586c0.14-0.264,0.279-0.528,0.435-0.776
												c0.714-1.257,1.459-2.515,2.204-3.772c0.481-0.807,0.962-1.615,1.475-2.422c0.916-1.506,1.894-3.042,2.872-4.564
												c0.341-0.512,0.667-1.009,0.993-1.521c0.512-0.761,1.025-1.537,1.537-2.328c0.016-0.062,0.062-0.124,0.124-0.186
												c0.699-1.071,1.413-2.127,2.158-3.167c0.761-1.102,1.537-2.189,2.328-3.275c0.59-0.807,1.18-1.614,1.785-2.406
												c0.776-1.056,1.568-2.111,2.359-3.167c0.062-0.093,0.14-0.186,0.233-0.279c1.211-1.583,2.453-3.136,3.71-4.688
												c1.18-1.459,2.375-2.887,3.601-4.331c0.078-0.078,0.14-0.155,0.202-0.233c0.636-0.761,1.304-1.537,1.971-2.313
												c0.667-0.761,1.35-1.537,2.049-2.297c0.668-0.761,1.351-1.506,2.049-2.251c0.838-0.916,1.692-1.832,2.561-2.748
												c0.419-0.435,0.838-0.869,1.257-1.288c0.14-0.155,0.295-0.311,0.466-0.466c0.637-0.668,1.288-1.319,1.956-1.971
												c1.49-1.537,3.058-3.058,4.641-4.548c0.885-0.869,1.801-1.708,2.716-2.53v-0.016c0.016,0,0.016,0,0.016,0
												c0.202-0.202,0.388-0.388,0.59-0.559c0.233-0.202,0.466-0.435,0.699-0.636c0.078-0.062,0.155-0.14,0.233-0.202
												c0.295-0.279,0.59-0.543,0.885-0.792c0.295-0.279,0.59-0.559,0.9-0.823c0.295-0.264,0.605-0.528,0.9-0.792
												c0.31-0.264,0.621-0.543,0.931-0.807c0.869-0.761,1.754-1.506,2.639-2.251c0.341-0.31,0.699-0.605,1.056-0.916
												c0.016,0,0.031-0.016,0.047-0.031c0.186-0.155,0.372-0.31,0.574-0.466c0-0.016,0.016-0.016,0.031-0.031
												c0.016-0.016,0.047-0.047,0.078-0.062c0.605-0.497,1.211-0.994,1.816-1.475c0.279-0.248,0.559-0.481,0.854-0.698
												c0.931-0.745,1.878-1.506,2.841-2.235c0.528-0.435,1.071-0.854,1.614-1.257c0.792-0.621,1.583-1.226,2.391-1.816
												c0.745-0.574,1.49-1.133,2.251-1.677c0.264-0.202,0.543-0.404,0.823-0.605l0.838-0.605
												c0.279-0.186,0.559-0.388,0.838-0.574c0.605-0.466,1.226-0.9,1.847-1.319c0.761-0.543,1.521-1.071,2.297-1.599
												c0.854-0.59,1.707-1.164,2.577-1.739c1.009-0.683,2.034-1.35,3.073-2.018c0.248-0.186,0.512-0.342,0.776-0.512
												c0.667-0.435,1.35-0.869,2.033-1.304c0.404-0.248,0.807-0.497,1.211-0.745c0.404-0.248,0.807-0.497,1.211-0.745
												c0.016-0.016,0.016-0.031,0.031-0.016c0.807-0.497,1.614-0.993,2.422-1.506c0.838-0.481,1.661-0.978,2.499-1.459
												c1.925-1.149,3.881-2.251,5.868-3.337c0.341-0.202,0.683-0.388,1.024-0.59c0.357-0.186,0.699-0.388,1.04-0.574
												c0.124-0.062,0.233-0.124,0.357-0.202c1.645-0.869,3.306-1.754,4.983-2.623c0.078-0.047,0.171-0.093,0.264-0.14
												c0.078-0.047,0.155-0.078,0.248-0.109c0.9-0.481,1.816-0.947,2.732-1.397c0.574-0.295,1.149-0.59,1.723-0.869
												c0.248-0.124,0.497-0.248,0.745-0.373c0.155-0.078,0.31-0.155,0.466-0.217c1.04-0.512,2.096-1.025,3.151-1.521
												c0.559-0.264,1.133-0.543,1.692-0.807c0.233-0.109,0.466-0.217,0.698-0.31c0.186-0.093,0.357-0.171,0.543-0.264
												c1.475-0.668,2.949-1.351,4.455-2.018c0.823-0.357,1.646-0.714,2.468-1.071s1.661-0.714,2.499-1.071
												c0.078-0.031,0.171-0.078,0.248-0.109c0.202-0.078,0.404-0.171,0.59-0.248c1.863-0.776,3.741-1.552,5.635-2.297h0.016
												c0.543-0.233,1.102-0.45,1.645-0.652c1.909-0.761,3.85-1.49,5.805-2.22c1.133-0.435,2.282-0.854,3.446-1.257
												c0.931-0.341,1.863-0.667,2.794-0.993c1.692-0.59,3.4-1.18,5.122-1.754c16.873-5.619,33.544-11.006,49.781-16.144
												c34.584,7.109,67.819,20.816,97.715,41.787c29.695,20.816,56.114,48.803,77.272,84.599
												C870.58,1837.634,891.613,1925.523,885.388,2041.524z"/>
										</g>
									</g>
								</g>
							</g>
						</g>
					</g>
				</g>
			</g>
			<g>
				<g>
					<g>
						<g>
							<g>
								<g>
									<path style="fill:#1C1B12;" d="M1143.423,1324.84c0,0-226.244-32.925-298.971-256.837
										c-69.238-213.191-27.517-327.013,30.31-446.146c43.556-89.723,188.334-214.543,400.069-180.737
										c213.797,34.133,376.768,136.335,407.447,309.665C1739.683,1075.131,1493.088,1483.982,1143.423,1324.84z"/>
								</g>
							</g>
						</g>
					</g>
				</g>
				<g>
					<g>
						<g>
							<path style="fill:#1C1B12;" d="M1168.273,507.404c0,0,4.337-195.85-197.583-259.651
								c-201.92-63.799-366.366,125.239-352.186,274.106C632.681,670.722,837.54,840.651,970.69,731.591
								C1103.84,622.531,1168.273,507.404,1168.273,507.404z"/>
						</g>
					</g>
				</g>
				<g>
					<g>
						<g>
							<g>
								<g>
									<g>
										<g>
											<g>
												<g>
													<path style="fill:#EF6A52;" d="M1569.234,1076.526c0,0,70.661-60.742,93.049,14.854
														c22.384,75.594-26.157,213.622-112.905,175.919L1569.234,1076.526z"/>
												</g>
											</g>
										</g>
									</g>
								</g>
							</g>
						</g>
					</g>
					<g>
						<g>
							<g>
								<g>
									<path style="fill:#EE4254;" d="M1639.687,1312.989c-10.315,9.676-21.745,18.129-34.187,25.04
										c-47.425,26.319-109.841,30.146-185.178-8.347c0,0-97.349-123.454,41.523-345.052c0,0,129.459-35.78,204.638,41.842
										c8.295,8.507,15.95,18.449,22.649,29.988c4.147,7.018,7.922,14.673,11.271,22.913
										C1727.57,1145.885,1704.444,1252.752,1639.687,1312.989z"/>
								</g>
							</g>
						</g>
						<g>
							<g>
								<g>
									<g>
										<path style="fill:#C5203D;" d="M1639.687,1312.989c-10.315,9.676-21.745,18.129-34.187,25.04
											c64.014-136.798,64.333-261.101,60.983-311.557c8.295,8.507,15.95,18.449,22.649,29.988
											C1689.769,1113.561,1682.379,1207.612,1639.687,1312.989z"/>
									</g>
								</g>
							</g>
						</g>
					</g>
					<g>
						<g>
							<g>
								<g>
									<g>
										<g>
											<g>
												<g>
													<g>
														<path style="fill:#F38566;" d="M1361.538,1413.011l-32.25,234.855c0,0-122.556,152.385-399.632-49.451
															c45.185-94.137,89.492-269.594,78.023-347.604c0,0,21.164,11.542,54.101,38.968
															c6.445,5.368,14.565,9.411,22.603,14.421C1155.458,1348.336,1263.912,1405.095,1361.538,1413.011z"/>
													</g>
												</g>
											</g>
										</g>
									</g>
								</g>
							</g>
						</g>
						<g>
							<g>
								<g>
									<g>
										<g>
											<g>
												<g>
													<g>
														<path style="fill:#1C1B12;" d="M1361.538,1413.011l-10.734,91.266c-79.906-31.673-221.711-100.659-289.024-214.499
															c7.018,4.589,14.565,9.411,22.603,14.421C1155.458,1348.336,1263.912,1405.095,1361.538,1413.011z"/>
													</g>
												</g>
											</g>
										</g>
									</g>
								</g>
							</g>
						</g>
					</g>
					<g>
						<g>
							<g>
								<g>
									<g>
										<g>
											<g>
												<g>
													<path style="fill:#F38566;" d="M1628.753,1085.811c-3.256,20.043-6.422,38.922-9.563,56.686
														c-23.522,133.538-44.463,205.438-81.959,233.626c-189.582,142.32-518.692-116.271-529.281-124.61
														c-0.125-0.175-0.266-0.248-0.266-0.248c-0.937-15.598-1.539-31.04-1.875-46.238
														c-3.008-128.871,14.117-245.426,44.477-353.88c12.519-117.496,99.234-214.958,215.201-237.419
														c120.231-23.209,214.118,42.984,272.31,71.613c87.834,43.229,126.88,171.924,100.263,342.156
														C1634.854,1047.907,1631.746,1067.361,1628.753,1085.811z"/>
												</g>
											</g>
										</g>
									</g>
								</g>
							</g>
						</g>
					</g>
					<g>
						<g>
							<g>
								<g>
									<g>
										<path style="fill:#1C1B12;" d="M1448.553,1214.749c24.615,3.181,51.583-0.402,79.839-15.523
											c4.13-2.21,5.687-7.347,3.479-11.478c-2.216-4.131-7.353-5.681-11.478-3.477c-101.082,54.09-185.539-60.858-186.38-62.027
											c-2.737-3.797-8.038-4.66-11.838-1.92c-3.797,2.739-4.658,8.038-1.921,11.838
											C1320.954,1133.131,1373.863,1205.1,1448.553,1214.749z"/>
									</g>
								</g>
							</g>
						</g>
					</g>
					<g>
						<g>
							<g>
								<g>
									<g>
										<g>
											<g>
												<g>
													<path style="fill:#1C1B12;" d="M1402.276,831.167c0,0,33.237,8.734,16.435,37.795
														c-16.806,29.056-79.106-15.873-136.693,33.42C1282.018,902.382,1273.261,824.83,1402.276,831.167z"/>
												</g>
											</g>
										</g>
									</g>
								</g>
							</g>
						</g>
					</g>
					<g>
						<g>
							<g>
								<g>
									<g>
										<g>
											<g>
												<g>
													<g>
														<path style="fill:#EF6A52;" d="M1352.877,1070.858c-2.517,15.756-37.005,23.351-77.033,16.958
															c-40.028-6.389-70.44-24.342-67.924-40.101c2.519-15.752,37.005-23.345,77.033-16.952
															C1324.985,1037.153,1355.393,1055.106,1352.877,1070.858z"/>
													</g>
												</g>
											</g>
										</g>
									</g>
								</g>
							</g>
						</g>
					</g>
					<g style="opacity:0.8;">
						<g>
							<g>
								<g>
									<g>
										<g>
											<g>
												<g>
													<g>
														<path style="fill:#EF6A52;" d="M1628.753,1085.811c-3.256,20.043-6.422,38.922-9.563,56.686
															c-36.547-7.22-63.279-24.018-60.914-38.832C1560.656,1088.75,1591.587,1081.157,1628.753,1085.811z"/>
													</g>
												</g>
											</g>
										</g>
									</g>
								</g>
							</g>
						</g>
					</g>
					<g>
						<g>
							<g>
								<g>
									<g>
										<g>
											<g>
												<g>
													<g>
														<path style="fill:#1C1B12;" d="M1373.899,987.387c-3.458,21.639-16.073,37.614-28.18,35.68
															c-12.109-1.935-19.124-21.041-15.671-42.679c3.46-21.641,16.073-37.616,28.179-35.683
															C1370.337,946.64,1377.35,965.746,1373.899,987.387z"/>
													</g>
												</g>
											</g>
										</g>
									</g>
								</g>
							</g>
						</g>
						<g>
							<g>
								<g>
									<g>
										<g>
											<g>
												<g>
													<g>
														<path style="fill:#1C1B12;" d="M1587.984,1021.567c-3.454,21.639-16.073,37.611-28.179,35.68
															c-12.105-1.935-19.118-21.041-15.667-42.679c3.454-21.639,16.073-37.616,28.18-35.681
															C1584.426,980.821,1591.435,999.929,1587.984,1021.567z"/>
													</g>
												</g>
											</g>
										</g>
									</g>
								</g>
							</g>
						</g>
						<g>
							<g>
								<g>
									<g>
										<g>
											<g>
												<g>
													<g>
														<path style="fill:#1C1B12;" d="M1484.406,1087.564c10.378,1.656,17.67,1.042,18.281,0.985
															c2.512-0.235,4.814-1.512,6.341-3.518c1.527-2.012,2.141-4.57,1.7-7.049l-17.875-99.634
															c-0.879-4.901-5.56-8.155-10.469-7.282c-4.901,0.879-8.159,5.568-7.278,10.465l15.912,88.708
															c-9.009-0.983-22.711-4.131-35.206-13.669c-3.96-3.02-9.62-2.262-12.638,1.698c-3.025,3.96-2.262,9.615,1.693,12.638
															C1458.622,1081.399,1473.283,1085.79,1484.406,1087.564z"/>
													</g>
												</g>
											</g>
										</g>
									</g>
								</g>
							</g>
						</g>
					</g>
					<g>
						<g>
							<g>
								<g>
									<g>
										<g>
											<g>
												<g>
													<path style="fill:#1C1B12;" d="M1092.384,1174.954c-1.425,2.254-40.411,63.7-84.422,76.537
														c-0.035-0.004-0.042,0.033-0.077,0.029c-0.119-0.169-0.179-0.248-0.179-0.248c-0.941-15.602-1.548-31.035-1.893-46.246
														C1007.383,1205.023,1049.844,1204.425,1092.384,1174.954z"/>
												</g>
											</g>
										</g>
									</g>
								</g>
							</g>
						</g>
					</g>
					<g>
						<g>
							<g>
								<g>
									<g>
										<g>
											<g>
												<g>
													<path style="fill:#F38566;" d="M1076.73,1018.349c0,0-67.963-130.034-145.932-48.827
														c-64.247,66.92,3.197,278.811,117.311,228.116L1076.73,1018.349z"/>
												</g>
											</g>
										</g>
									</g>
								</g>
							</g>
						</g>
					</g>
					<g>
						<g>
							<g>
								<g>
									<g>
										<g>
											<g>
												<g>
													<path style="fill:#1C1B12;" d="M1041.868,1160.756c0.323,0.052,0.654,0.087,0.985,0.104
														c4.972,0.244,9.203-3.585,9.451-8.559c4.97-100.569-72.746-148.077-76.056-150.052
														c-4.279-2.547-9.813-1.148-12.359,3.127c-2.548,4.27-1.156,9.799,3.114,12.35l0,0
														c2.929,1.762,71.713,44.192,67.291,133.683C1034.067,1156.047,1037.385,1160.044,1041.868,1160.756z"/>
												</g>
											</g>
										</g>
									</g>
								</g>
							</g>
						</g>
					</g>
					<g>
						<g>
							<g>
								<g>
									<g>
										<g>
											<g>
												<g>
													<path style="fill:#1C1B12;" d="M967.403,1093.522c1.975,0.317,4.06-0.019,5.926-1.092
														c8.742-5.041,34.687-16.714,49.399-10.334c4.583,1.975,9.882-0.119,11.861-4.685c1.981-4.57-0.125-9.878-4.687-11.857
														c-25.674-11.12-61.587,8.94-65.603,11.263c-4.306,2.491-5.778,8.007-3.285,12.317
														C962.431,1091.58,964.818,1093.111,967.403,1093.522z"/>
												</g>
											</g>
										</g>
									</g>
								</g>
							</g>
						</g>
					</g>
				</g>
				<g>
					<g>
						<g>
							<g>
								<g>
									<g>
										<g>
											<g>
												<path style="fill:#1C1B12;" d="M1051.035,732.555c0,0,101.192,126.93,155.314,108.183
													c54.117-18.747-10.801-129.542-10.801-129.542s160.315,123.074,232.582,103.217
													c72.267-19.852-35.524-121.056-35.524-121.056s114.905,140.553,192.296,145.671
													c77.394,5.12,16.481-103.21,16.481-103.21s48.21,145.994,96.07,141.747c47.86-4.247,16.989-207.688-125.016-297.921
													C1430.429,489.41,1040.312,439.296,1051.035,732.555z"/>
											</g>
										</g>
									</g>
								</g>
							</g>
						</g>
					</g>
				</g>
				<g>
					<g>
						<g>
							<g>
								<g>
									<g>
										<path style="fill:#1C1B12;" d="M1147.936,790.097c0,0-0.479,253.3-62.906,244.483
											c-62.433-8.818-109.756-115.015-33.995-302.025L1147.936,790.097z"/>
									</g>
								</g>
							</g>
						</g>
					</g>
				</g>
				<g>
					<g>
						<g>
							<g>
								<g>
									<g>
										<g>
											<g>
												<path style="fill:#1C1B12;" d="M1555.313,855.601c0,0-34.306-2.05-27.386,30.796
													c6.922,32.845,80.118,9.553,119.492,74.321C1647.419,960.718,1679.889,889.75,1555.313,855.601z"/>
											</g>
										</g>
									</g>
								</g>
							</g>
						</g>
					</g>
				</g>
				<g>
					<g>
						<g>
							<g>
								<g>
									<g>
										<g>
											<g>
												<g>
													<path style="fill:#FFFFFF;" d="M1754.219,1044.522l-116.498-14.452l-2.568,16.083c0.077,0.013,0.152,0.023,0.231,0.035
														l116.834,14.492c4.46,0.552,8.53-2.616,9.08-7.078C1761.855,1049.145,1758.893,1044.964,1754.219,1044.522z"/>
												</g>
											</g>
										</g>
									</g>
								</g>
							</g>
						</g>
					</g>
					<g>
						<g>
							<g>
								<g>
									<g>
										<g>
											<g>
												<g>
													<g>
														<path style="fill:#FFFFFF;" d="M1458.859,964.622v-0.062c-0.202-5.588-0.792-11.068-1.739-16.501
															c0-0.016,0-0.016,0-0.031c-4.936-29.338-19.248-56.099-40.297-76.341l-0.016-0.016
															c-19.248-18.627-44.022-31.79-72.258-36.556c-0.016,0-0.016,0-0.031-0.016h-0.016
															c-0.466-0.093-0.869-0.202-1.335-0.248c-64.435-10.26-125.734,26.187-149.189,84.257v0.016
															c-2.064,5.029-3.803,10.152-5.185,15.507c-1.319,4.657-2.328,9.469-3.12,14.328
															c-5.775,36.09,3.12,71.141,22.197,99.128c0.016,0,0.016,0.016,0.016,0.016c6.52,9.531,14.234,18.255,22.911,25.814
															c0.031,0.031,0.078,0.062,0.109,0.093c0.015,0.016,0.015,0.016,0.031,0.016c18.798,16.625,42.346,28.22,68.843,32.427
															c44.752,7.14,87.889-8.227,117.988-37.674c0.016-0.016,0.031-0.031,0.047-0.047
															c20.304-19.885,34.647-46.227,39.459-76.387c0-0.109,0.062-0.264,0.062-0.372c0-0.016,0-0.047,0.016-0.062v-0.016
															C1458.766,982.706,1459.293,973.609,1458.859,964.622z M1302.374,1090.371c-0.605-0.078-1.04-0.171-1.645-0.326
															h-0.124c-0.078,0-0.155-0.031-0.233-0.047c-34.818-6.131-63.643-26.714-81.323-54.593
															c-15.228-24.06-22.104-53.538-17.292-83.853c1.009-6.209,2.468-12.247,4.362-18.084
															c0.016-0.031,0.031-0.078,0.031-0.109c0.078-0.186,0.14-0.373,0.202-0.559c0.062-0.171,0.109-0.326,0.155-0.497
															c0-0.016,0-0.031,0.016-0.062c15.073-45.218,55.478-77.225,102.17-82.162c0.016,0,0.016,0,0.031,0
															c10.369-1.102,21.064-0.885,31.853,0.854c23.222,3.71,43.852,13.815,60.414,28.298
															c0.016,0.016,0.016,0.016,0.031,0.016c30.455,26.575,47.003,67.772,40.173,110.553
															C1430.669,1055.771,1368.408,1100.958,1302.374,1090.371z"/>
													</g>
												</g>
											</g>
										</g>
									</g>
								</g>
							</g>
						</g>
						<g>
							<g>
								<g>
									<g>
										<g>
											<g>
												<g>
													<g>
														<path style="fill:#FFFFFF;" d="M1700.578,897.331c-3.803-1.801-7.668-3.384-11.689-4.874
															c-4.703-1.692-9.578-3.12-14.545-4.284c-0.016,0-0.016,0-0.031,0c-3.431-0.838-6.861-1.521-10.4-2.111
															c-6.504-1.055-13.008-1.583-19.357-1.692h-0.016c-7.777-0.155-15.43,0.372-22.943,1.537h-0.016
															c-20.847,3.167-40.406,11.114-57.387,22.803c0,0-0.016,0-0.016,0.016c-18.674,12.853-34.15,30.3-44.581,50.977v0.016
															c-2.747,5.231-5.06,10.695-7.078,16.345c0,0.016-0.016,0.031-0.016,0.047c-0.093,0.31-0.202,0.574-0.264,0.9
															c-2.592,7.404-4.548,15.181-5.821,23.16c-8.568,53.538,15.197,104.918,56.767,134.225
															c0.016,0,0.016,0.016,0.031,0.016c13.489,9.515,28.872,16.702,45.683,20.878c0.016,0,0.016,0,0.031,0
															c2.53,0.636,5.107,1.211,7.684,1.645h0.016c1.257,0.31,2.592,0.528,3.912,0.73c13.38,2.127,26.652,2.282,39.459,0.543
															c0.016,0,0.016,0,0.031,0c2.049-0.217,4.098-0.543,6.1-0.9h0.016c5.604-1.009,11.145-2.328,16.532-4.02h0.016
															c10.167-3.135,19.823-7.42,28.872-12.682c0-0.016,0.016-0.016,0.016-0.016c34.29-20.164,59.731-54.811,66.453-97.032
															C1787.924,981.712,1754.643,922.726,1700.578,897.331z M1761.955,1040.962c-0.419,2.623-0.9,5.216-1.521,7.73v0.016
															c-0.016,0.016-0.016,0.016-0.016,0.031c-0.792,3.71-1.801,7.296-3.011,10.85
															c-8.413,25.923-25.24,47.562-46.832,62.308c-7.932,5.464-16.501,9.903-25.55,13.396c-0.016,0-0.031,0.016-0.047,0.016
															c-5.635,2.111-11.44,3.85-17.401,5.107c-0.016,0-0.016,0-0.031,0c-1.739,0.373-3.431,0.698-5.154,0.962
															c-12.698,2.173-25.923,2.328-39.319,0.202c-1.195-0.202-2.391-0.419-3.601-0.636h-0.047
															c-0.745-0.155-1.475-0.31-2.22-0.419c-0.016,0-0.016,0-0.031,0c-19.667-4.191-37.332-12.961-51.97-25.131
															l-0.016-0.016c-2.158-1.723-4.269-3.57-6.271-5.51l-0.016-0.016c-28.034-26.559-42.951-66.08-36.401-107.091
															c1.49-9.205,3.974-18.037,7.311-26.342c10.944-27.025,31.139-48.71,56.115-61.842h0.016
															c15.445-8.149,32.737-13.008,50.837-13.862h0.016c2.918-0.109,5.806-0.109,8.817-0.047c0.016,0,0.016,0,0.031,0
															c5.169,0.155,10.416,0.636,15.678,1.475c3.819,0.637,7.56,1.382,11.207,2.328h0.016
															c5.138,1.319,10.043,2.965,14.855,4.921h0.016c3.787,1.475,7.544,3.213,11.13,5.122c0.016,0,0.016,0.016,0.031,0.016
															C1743.327,938.062,1770.368,988.325,1761.955,1040.962z"/>
													</g>
												</g>
											</g>
										</g>
									</g>
								</g>
							</g>
						</g>
						<g>
							<g>
								<g>
									<g>
										<g>
											<g>
												<g>
													<g>
														<path style="fill:#FFFFFF;" d="M1021.373,951.756c-0.96-0.15-1.902-0.475-2.791-0.99
															c-3.893-2.243-5.229-7.226-2.979-11.121c50.716-87.831,185.478-17.189,186.822-16.466
															c3.968,2.12,5.464,7.047,3.348,11.015c-2.11,3.952-7.041,5.46-11.013,3.35c-1.219-0.658-122.2-63.977-165.052,10.244
															C1027.974,950.792,1024.608,952.275,1021.373,951.756z"/>
													</g>
												</g>
											</g>
										</g>
									</g>
								</g>
							</g>
						</g>
					</g>
				</g>
				<g>
					<g>
						<g>
							<g>
								<g>
									<g>
										<g>
											<g>
												<path style="fill:#FFFFFF;" d="M1518.758,980.563c-2.068-0.331-4.018-1.464-5.335-3.306
													c-18.693-26.173-55.521-12.375-55.88-12.236c-4.195,1.606-8.907-0.471-10.521-4.67
													c-1.618-4.195,0.471-8.909,4.666-10.517c16.867-6.491,54.222-11.09,74.979,17.956c2.612,3.656,1.771,8.74-1.891,11.353
													C1522.966,980.442,1520.801,980.885,1518.758,980.563z"/>
											</g>
										</g>
									</g>
								</g>
							</g>
						</g>
					</g>
				</g>
				<g>
					<g>
						<g>
							<g>
								<path style="fill:#EE4254;" d="M1046.028,1241.32c-67.468,17.173-119.996,8.347-159.074-15.471
									c-6.222-3.829-12.121-8.028-17.704-12.548c-82.197-67.043-89.958-208.148-40.992-278.007
									c17.279-24.724,37.428-41.365,58.59-52.051c6.432-3.349,12.919-6.062,19.512-8.295
									c83.738-28.602,175.557,20.683,175.557,20.683C1168.259,1142.484,1046.028,1241.32,1046.028,1241.32z"/>
							</g>
						</g>
					</g>
					<g>
						<g>
							<g>
								<g>
									<path style="fill:#C5203D;" d="M886.954,1225.849c-6.222-3.829-12.121-8.028-17.704-12.548
										c60.821-142.539,38.12-266.046,17.598-330.058c6.432-3.349,12.919-6.062,19.512-8.295
										C928.265,942.737,952.935,1074.643,886.954,1225.849z"/>
								</g>
							</g>
						</g>
					</g>
				</g>
				<g>
					<g>
						<g>
							<g>
								<path style="fill:#FFFFFF;" d="M1664.196,672.066c-8.984-37.164-22.807-72.84-43.223-104.367
									c-42.907-66.245-110.11-106.333-199.695-119.094c-96.868-13.769-180.448,6.326-248.446,59.813
									c-21.214,16.696-40.034,35.889-56.675,56.623c-23.234,28.923-42.267,60.769-57.846,92.829
									c-53.963,111.436-65.82,225.427-65.98,227.075l-26.475-2.552c1.062-10.846,27.698-266.896,190.548-394.87
									c73.954-58.111,164.337-80.068,268.598-65.235c97.614,13.877,171.037,58.004,218.355,131.057
									c38.386,59.333,55.295,130.736,60.504,200.33C1694.927,727.146,1681.848,698.968,1664.196,672.066z"/>
							</g>
						</g>
					</g>
					<g>
						<g>
							<g>
								<path style="fill:#FFFFFF;" d="M1697.479,877.554c1.86-0.158,3.562-0.637,5.158-1.381
									c-7.603,88.84-26.69,156.522-28.338,162.317l-25.521-7.391c0.427-1.383,19.885-70.553,27.169-160.83
									C1683.018,875.427,1690.249,878.191,1697.479,877.554z"/>
							</g>
						</g>
					</g>
				</g>
			</g>
			<g>
				<g>
					<g>
						<g>
							<path style="fill:#F38566;" d="M828.203,2059.825c-1.801,3.648-3.71,7.249-5.666,10.742l-1.692,2.918l-33.265,58.024
								l-33.327,59.266c-2.251,4.036-4.517,8.087-6.768,12.139c-62.882-28.422-122.614-62.587-178.542-101.813
								c-28.081-19.714-55.199-40.7-81.277-62.882c-22.322-18.984-43.867-38.838-64.59-59.514l-0.047-0.047
								c-11.037-11.006-21.825-22.244-32.38-33.7l9.034-18.487l27.196-54.547l0.047-0.171l0.016-0.016l4.75-9.5
								c20.35-40.933,51.706-72.77,88.681-93.773c0.016-0.016,0.031-0.016,0.047-0.031c31.837-18.084,67.865-28.081,104.638-28.934
								c0.016,0,0.016,0,0.031,0c31.356-0.683,63.255,5.231,93.602,18.627l0.016,0.016c3.384,1.412,6.706,2.996,10.043,4.641
								c23.005,11.471,43.169,26.389,60.088,43.852l0.016,0.016C852.589,1872.203,871.325,1973.333,828.203,2059.825z"/>
						</g>
					</g>
				</g>
				<g>
					<g>
						<g>
							<g>
								<g>
									<g>
										<g>
											<path style="fill:#EF6A52;" d="M805.245,2139.457l-39.567,71.482c-5.821-2.515-11.611-5.06-17.385-7.668l40.344-73.019
												c2.592-4.61,8.305-6.256,12.899-3.71C806.145,2129.087,807.79,2134.846,805.245,2139.457z"/>
										</g>
									</g>
								</g>
							</g>
						</g>
					</g>
					<g>
						<g>
							<g>
								<g>
									<g>
										<g>
											<path style="fill:#EF6A52;" d="M820.131,2232.639c-9.779-3.585-19.481-7.326-29.121-11.176l21.825-6.178
												c5.045-1.444,10.276,1.506,11.704,6.551C825.75,2226.12,823.825,2230.544,820.131,2232.639z"/>
										</g>
									</g>
								</g>
							</g>
						</g>
					</g>
				</g>
			</g>
		</g>
	</g>
</g>
</svg>
