<?xml version="1.0" encoding="utf-8"?>
<!-- Generator: Adobe Illustrator 27.5.0, SVG Export Plug-In . SVG Version: 6.00 Build 0)  -->
<svg version="1.1" id="Layer_1" xmlns="http://www.w3.org/2000/svg" xmlns:xlink="http://www.w3.org/1999/xlink" x="0px" y="0px"
	 viewBox="0 0 1133.858 1133.858" style="enable-background:new 0 0 1133.858 1133.858;" xml:space="preserve">
<g>
	<path style="fill:#F48C79;" d="M1065.971,566.932c0,174.78-89.85,328.58-225.89,417.71c-0.54,0.36-1.08,0.71-1.62,1.05
		c-0.25,0.17-0.5,0.34-0.75,0.49c-0.21,0.14-0.42,0.28-0.63,0.41c-3.07,1.99-6.17,3.94-9.29,5.85c-1.8,1.11-3.61,2.2-5.42,3.27
		c-38.89,23.23-81.21,41.31-126.01,53.31c-6.21,1.67-12.47,3.21-18.78,4.64c-35.59,8.06-72.62,12.31-110.65,12.31
		c-4.93,0-9.84-0.07-14.73-0.21c-3.85-0.11-7.7-0.27-11.53-0.47c-2.39-0.12-4.77-0.26-7.15-0.42c-17.4-1.15-34.55-3.19-51.41-6.08
		c-5.48-0.94-10.92-1.96-16.33-3.08c-3.57-0.73-7.12-1.5-10.66-2.32c-1.44-0.32-2.88-0.66-4.32-1c-3.01-0.72-6.02-1.47-9.01-2.24
		c-5.76-1.49-11.48-3.07-17.16-4.76c-19.03-5.65-37.59-12.41-55.59-20.21c-2.51-1.07-5.01-2.18-7.5-3.3
		c-18.99-8.59-37.35-18.33-54.98-29.14c-8.2-5.01-16.24-10.27-24.11-15.74c-0.58-0.4-1.16-0.81-1.74-1.22
		c-0.47-0.32-0.94-0.65-1.4-0.98c-50.37-35.58-93.85-80.25-128.06-131.63c-52.67-79.1-83.37-174.08-83.37-276.24
		c0-275.62,223.43-499.05,499.05-499.05c270.54,0,490.8,215.28,498.82,483.89c0.09,3.25,0.16,6.51,0.19,9.77
		c0.01,1.25,0.02,2.49,0.02,3.74C1065.971,565.832,1065.971,566.382,1065.971,566.932z"/>
	<g>
		<path style="fill:#593422;" d="M561.927,163.24c0,0,98.282-45.113,167.562,9.666c69.28,54.78,33.834,225.565,58.002,259.399
			c24.168,33.835,107.949,66.058,90.226,148.228c-17.723,82.17-188.507,93.448-238.454,74.115
			c-49.947-19.334-209.453,98.281-294.845,74.114c-85.392-24.168-78.947-132.117-48.335-169.173
			c30.613-37.057,9.667-203.008,35.446-257.788C357.308,247.021,426.588,100.404,561.927,163.24z"/>
		<path style="fill:#F7A78E;" d="M447.97,665.471c0,0-15.763,168.017,147.882,163.418c168.63-4.74,150.583-170.227,150.583-170.227
			l-49.933-17.023L447.97,665.471z"/>
		<g>
			<g>
				<g>
					<path style="fill:#F7A78E;" d="M423.714,401.229c0,0-19.47-35.694-44.618-18.658c-25.148,17.036,6.49,114.384,59.22,77.879
						L423.714,401.229z"/>
					<g>
						<path style="fill:#311D12;" d="M412.985,468.956c-6.291,0-12.078-1.617-17.3-4.835c-20.04-12.368-24.628-43.798-24.811-45.131
							l3.471-0.484c0.043,0.312,4.556,31.145,23.194,42.632c8.123,5.013,17.88,5.636,28.996,1.875l1.128,3.32
							C422.511,468.08,417.611,468.956,412.985,468.956z"/>
						<g>
							<path style="fill:#311D12;" d="M400.37,425.69c-7.414,0-12.825-5.459-13.088-5.727l2.514-2.45
								c0.054,0.059,6.238,6.291,13.684,4.239l0.935,3.385C403.018,425.523,401.665,425.69,400.37,425.69z"/>
							<path style="fill:#311D12;" d="M404.195,445.703c-1.762,0-3.702-0.312-5.657-1.177c-5.276-2.337-9.005-7.968-11.084-16.731
								c-5.964-25.16,15.543-31.489,15.763-31.548l0.951,3.374c-0.758,0.215-18.477,5.539-13.297,27.368
								c1.805,7.618,4.857,12.432,9.058,14.318c4.98,2.219,10.144-0.494,10.192-0.527l1.682,3.079
								C411.615,443.968,408.391,445.703,404.195,445.703z"/>
						</g>
					</g>
				</g>
				<path style="fill:#FFFFFC;" d="M404.192,462.4c0,4.547-3.685,8.231-8.231,8.231c-4.547,0-8.232-3.685-8.232-8.231
					c0-4.547,3.686-8.232,8.232-8.232C400.507,454.168,404.192,457.854,404.192,462.4z"/>
			</g>
			<path style="fill:#F7A78E;" d="M403.536,448.706c-0.07,0,0,0.07,0,0.07c0,0.491,0,1.053,0.07,1.544
				c0.07,0.912,0.14,1.895,0.281,2.807c0.702,9.052,1.824,17.684,3.368,25.824c0.14,0.772,0.281,1.474,0.491,2.246v0.07
				C428.658,591.018,510.13,609.544,510.13,609.544l-0.07,1.754l-0.912,23.929l-0.982,25.964
				c86.664,61.051,196.556-13.333,196.556-13.333s11.158-66.875,14.175-230.24c2.807-153.4-86.594-222.029-187.504-215.854
				C415.395,208.853,393.782,314.464,403.536,448.706z"/>
			<g>
				<g>
					<path style="fill:#F7A78E;" d="M703.165,401.229c0,0,19.47-35.694,44.618-18.658c25.148,17.036-6.49,114.384-59.22,77.879
						L703.165,401.229z"/>
					<g>
						<path style="fill:#311D12;" d="M713.893,468.956c-4.626,0-9.526-0.876-14.678-2.622l1.128-3.32
							c11.105,3.766,20.878,3.138,28.996-1.875c18.638-11.487,23.151-42.321,23.194-42.632l3.471,0.484
							c-0.183,1.332-4.771,32.763-24.811,45.131C725.97,467.339,720.184,468.956,713.893,468.956z"/>
						<g>
							<path style="fill:#311D12;" d="M726.508,425.69c-1.295,0-2.649-0.167-4.046-0.553l0.935-3.385
								c7.42,2.042,13.63-4.18,13.695-4.239l2.509,2.45C739.338,420.231,733.927,425.69,726.508,425.69z"/>
							<path style="fill:#311D12;" d="M722.682,445.703c-4.191,0-7.414-1.741-7.602-1.843l1.682-3.079
								c0.059,0.038,5.211,2.762,10.187,0.527c4.201-1.88,7.253-6.7,9.058-14.318c5.179-21.829-12.54-27.154-13.297-27.368
								l0.951-3.374c0.22,0.059,21.727,6.388,15.763,31.548c-2.079,8.763-5.808,14.393-11.084,16.731
								C726.384,445.392,724.45,445.703,722.682,445.703z"/>
						</g>
					</g>
				</g>
				<path style="fill:#FFFFFC;" d="M727.456,468.651c0,4.547-3.686,8.232-8.232,8.232c-4.547,0-8.232-3.686-8.232-8.232
					c0-4.546,3.686-8.231,8.232-8.231C723.771,460.42,727.456,464.106,727.456,468.651z"/>
			</g>
			<g>
				<path style="fill:#F48C79;" d="M570.117,467.092c0,17.146,18.44,31.047,41.185,31.047c22.746,0,41.186-13.901,41.186-31.047
					c0-17.148-18.44-31.047-41.186-31.047C588.557,436.045,570.117,449.945,570.117,467.092z"/>
				<path style="fill:#F48C79;" d="M403.538,452.26c-0.075,0,0,0.074,0,0.074c0,0.523,0,1.121,0.074,1.644
					c0.075,0.972,0.15,2.018,0.299,2.99c0.747,9.641,1.943,18.834,3.587,27.504c0.149,0.822,0.299,1.569,0.523,2.392v0.074
					c7.474,6.876,18.909,11.211,31.615,11.211c22.72,0,41.181-13.901,41.181-31.091c0-17.115-18.461-31.017-41.181-31.017
					C423.941,436.041,410.414,442.618,403.538,452.26z"/>
			</g>
			<path style="fill:#F48C79;" d="M509.147,635.228c29.262-2.246,58.174-25.824,59.998-27.368
				c-10.035,7.298-37.262,6.035-59.086,3.439L509.147,635.228z"/>
			<g>
				<g>
					<path style="fill:#311D12;" d="M558.612,428.996c0,4.187,3.394,7.582,7.58,7.582c4.187,0,7.582-3.394,7.582-7.582
						c0-4.186-3.394-7.58-7.582-7.58C562.006,421.415,558.612,424.81,558.612,428.996z"/>
					<path style="fill:#593422;" d="M602.947,421.327c-0.731-0.946-18.122-23.135-51.03-20.604l-0.666-8.317
						c37.571-3.003,57.504,22.775,58.337,23.871L602.947,421.327z"/>
				</g>
				<g>
					<path style="fill:#311D12;" d="M468.832,427.152c0,4.187,3.394,7.582,7.581,7.582c4.187,0,7.58-3.394,7.58-7.582
						c0-4.186-3.394-7.581-7.58-7.581C472.225,419.571,468.832,422.966,468.832,427.152z"/>
					<path style="fill:#593422;" d="M445.457,411.082l-5.48-6.297c25.606-22.264,52.62-13.104,53.754-12.712l-2.762,7.871
						C490.002,399.622,467.292,392.073,445.457,411.082z"/>
				</g>
				<g>
					<path style="fill:#F48C79;" d="M523.912,394.366l-18.708,54.992c0,0,0.315,8.066,23.091,5.464L523.912,394.366z"/>
					<path style="fill:#311D12;" d="M520.019,457.69c-6.818,0-11.718-1.246-14.619-3.734c-2.337-2.004-2.531-4.105-2.547-4.508
						l-0.016-0.435l18.847-55.403l4.449,1.515l-18.504,54.388c0.688,1.542,5.33,4.696,20.395,2.971l0.537,4.674
						C525.446,457.512,522.598,457.69,520.019,457.69z"/>
				</g>
				<path style="fill:#CE4D2A;" d="M525.51,491.994c-4.61,0-9.66-1.075-15.027-3.874l2.171-4.169
					c19.782,10.321,34.369-6.302,34.987-7.011l3.578,3.046C551.09,480.142,540.779,491.994,525.51,491.994z"/>
			</g>
			<path style="fill:#311D12;" d="M537.099,614.975c-15.285,0-26.332-1.778-27.331-1.945l0.58-3.46
				c0.537,0.081,54.092,8.693,90.696-12.561l1.762,3.03C581.864,612.203,556.183,614.975,537.099,614.975z"/>
			<path style="fill:#311D12;" d="M411.427,500.435c-12.266-19.922-10.917-117.484-10.853-121.627l3.503,0.054
				c-0.011,1.005-1.397,100.673,10.337,119.736L411.427,500.435z"/>
			<g>
				<path style="fill:#FFFFFC;" d="M401.834,375.361c0,0-6.918-227.959,180.666-193.274s135.649,205.09,135.649,205.09
					s-35.84-152.708-137.773-165.45C478.444,208.986,401.834,375.361,401.834,375.361z"/>
				<path style="fill:#593422;" d="M721.65,386.94c-9.347-139.399-98.01-189.065-177.867-189.065c-4.18,0-8.381,0.126-12.602,0.387
					c-85.116,5.202-128.571,63.088-132.853,176.969l-0.158,4.194l4.156-0.589c10.972-1.559,105.781,10.177,143.414-92.179
					c3.581,10.982,7.199,30.937-5.095,48.557l-2.758,3.954l4.608,1.408c0.158,0.048,3.869,1.165,9.156,1.165
					c9.286,0,24.917-3.423,33.874-24.263c-2.109,11.353,1.543,8.807,14.605,32.549c26.171,47.583,69.638,75.117,104.101,81.133
					l2.988,0.521l14.48-44.061L721.65,386.94z"/>
				<path style="fill:#FFFFFC;" d="M700.267,270.554c-1.128,0-2.122-0.07-2.966-0.22l1.203-6.909
					c6.727,1.112,32.752-5.475,45.045-17.977c4.991-5.083,6.984-10.423,5.937-15.887c-0.596-3.095-2.052-5.104-4.583-6.324
					c-11.412-5.486-39.07,6.576-48.773,11.691l-10.332,5.443l5.625-10.24c5.674-10.321,19.041-39.833,12.868-52.222
					c-1.521-3.062-4.255-4.835-8.349-5.432c-4.303-0.623-7.866,0.414-10.858,3.191c-11.245,10.412-11.712,42.133-10.944,53.48
					l-7.006,0.473c-0.118-1.8-2.799-44.303,13.179-59.105c4.588-4.239,10.176-5.942,16.639-4.98
					c6.361,0.919,11.073,4.121,13.625,9.246c6.533,13.125-2.289,36.368-8.354,49.456c12.411-5.469,33.708-13.109,45.716-7.323
					c4.513,2.165,7.43,6.082,8.435,11.326c1.494,7.747-1.214,15.398-7.823,22.125C735.824,263.322,711.529,270.554,700.267,270.554z
					"/>
				<g>
					<path style="fill:#311D12;" d="M407.601,381.424c-5.502,0-8.999-0.21-9.547-0.247l0.226-3.503
						c0.575,0.043,56.456,3.401,91.502-19.105c46.452-29.829,57.821-86.591,57.928-87.161l3.449,0.655
						c-0.113,0.586-11.734,58.799-59.486,89.461C464.16,379.195,425.406,381.424,407.601,381.424z"/>
					<path style="fill:#311D12;" d="M551.186,342.22c-7.495,0-13.206-1.236-13.679-1.338l-2.826-0.634l1.87-2.214
						c0.177-0.21,17.45-21.142,7.522-50.82l3.331-1.118c8.698,26.02-1.934,45.313-6.404,51.83c6.388,0.951,22.533,2.332,33.59-5.324
						c6.13-4.234,9.864-10.692,11.095-19.202l3.471,0.505c-1.375,9.515-5.609,16.784-12.583,21.593
						C568.776,340.877,559.009,342.22,551.186,342.22z"/>
					<path style="fill:#311D12;" d="M707.139,433.432c-61.324-2.799-122.648-104.483-125.226-108.813l3.009-1.794
						c0.623,1.042,62.936,104.391,122.379,107.104L707.139,433.432z"/>
				</g>
			</g>
		</g>
		<g>
			<g>
				<path style="fill:#F7A78E;" d="M1065.971,566.932c0,174.78-89.85,328.58-225.89,417.71c-0.54,0.36-1.08,0.71-1.62,1.05
					c-0.25,0.17-0.5,0.34-0.75,0.49c-0.45-0.56-0.98-1.21-1.57-1.95c-1.91-2.41-4.5-5.8-7.55-10.1c-1.54-2.17-3.2-4.58-4.95-7.21
					c-1.09-1.64-2.21-3.36-3.36-5.17c-1.21-1.9-2.45-3.89-3.71-5.97c-8.88-14.67-18.92-33.88-27.43-56.88
					c-0.83-2.25-1.65-4.54-2.45-6.87c-6.72-19.51-12.23-41.52-15.03-65.6c-0.3-2.64-0.58-5.32-0.81-8.01
					c-2.17-24.36-1.51-50.71,3.46-78.64c0.58-3.3,1.23-6.62,1.94-9.96c1.32-6.25,2.86-12.57,4.65-18.96c0,0,0,0,0-0.01
					c1.29-4.68,2.72-9.4,4.28-14.15c1.98-6.04,4.17-12.14,6.59-18.3c1.45-3.69,2.98-7.41,4.6-11.14l208.59-81.37l57.67-22.49
					l0.18-0.66l2.94-10.97c0.09,3.25,0.16,6.51,0.19,9.77c0.01,1.25,0.02,2.49,0.02,3.74
					C1065.971,565.832,1065.971,566.382,1065.971,566.932z"/>
				<path style="fill:#311D12;" d="M1065.961,565.282l-60.09,23l-0.91-2.39l-0.34-0.89l58.19-22.26l3.13-1.2
					C1065.951,562.792,1065.961,564.032,1065.961,565.282z"/>
			</g>
			<g>
				<path style="fill:#F05F56;" d="M838.461,985.692c-0.25,0.17-0.5,0.34-0.75,0.49c-0.21,0.14-0.42,0.28-0.63,0.41
					c-3.07,1.99-6.17,3.94-9.29,5.85c-1.8,1.11-3.61,2.2-5.42,3.27c-38.89,23.23-81.21,41.31-126.01,53.31
					c-6.21,1.67-12.47,3.21-18.78,4.64c-35.59,8.06-72.62,12.31-110.65,12.31c-4.93,0-9.84-0.07-14.73-0.21
					c-3.85-0.11-7.7-0.27-11.53-0.47c-2.39-0.12-4.77-0.26-7.15-0.42c-17.4-1.15-34.55-3.19-51.41-6.08
					c-5.48-0.94-10.92-1.96-16.33-3.08c-3.57-0.73-7.12-1.5-10.66-2.32c-1.44-0.32-2.88-0.66-4.32-1c-3.01-0.72-6.02-1.47-9.01-2.24
					c-5.76-1.49-11.48-3.07-17.16-4.76c-19.03-5.65-37.59-12.41-55.59-20.21c-2.51-1.07-5.01-2.18-7.5-3.3
					c-18.99-8.59-37.35-18.33-54.98-29.14c-0.72-10.06-0.39-20.08,0.77-29.93c0.13-1.21,0.29-2.41,0.45-3.61
					c0.03-0.22,0.06-0.45,0.09-0.67c4.22-30.53,15.8-59.36,26.7-83.05c0.48-1.05,0.96-2.09,1.44-3.12c0-0.01,0.01-0.01,0.01-0.02
					c0.28-0.6,0.56-1.2,0.84-1.8c0.19-0.43,0.4-0.86,0.6-1.28c9.45-20.08,17.8-35.92,19.52-45.15c1.73-9.33,7.07-30.57,13.24-54.11
					c0.91-3.47,1.84-6.99,2.78-10.54c2.47-9.31,5-18.77,7.44-27.8c7.17-26.56,13.51-49.47,14.92-54.49c0.21-0.7,0.28-1.06,0.28-1.06
					c0.54-0.48,1.22-0.95,2.02-1.39c8.33-4.66,29.83-7.35,41.86-8.54c5.08-0.5,8.47-0.73,8.47-0.73c0,0.01,0,0.01,0,0.02
					c1.45,13.45,3.47,25.74,5.99,36.96c0.55,2.5,1.14,4.95,1.75,7.35c0.26,1.04,0.53,2.07,0.8,3.09
					c3.64,13.68,8.04,25.63,12.99,36.06c3.43,7.24,7.12,13.74,11,19.59c1.32,2,2.66,3.91,4.03,5.75
					c16.32,22.09,35.35,33.6,52.09,39.51c2.91,1.03,5.75,1.89,8.5,2.6c19.84,5.15,34.71,2.82,34.71,2.82
					c36.99,1.63,65.86-3.7,88.38-13.3c18.4-7.84,32.56-18.53,43.43-30.59c15.21-16.87,24-36.42,29.02-54.64
					c2.83-10.25,4.46-20.08,5.36-28.77c0.01-0.11,0.03-0.21,0.03-0.32c0.68-6.56,0.93-12.46,0.98-17.39c0.01-1.02,0.01-2,0-2.93
					c0-0.38,0-0.76-0.01-1.13c0-0.25,0-0.5-0.01-0.74c0-0.27-0.01-0.53-0.02-0.78c-0.02-0.76-0.04-1.49-0.06-2.17
					c0-0.26-0.01-0.51-0.02-0.75c-0.12-2.78-0.28-4.82-0.38-5.97c-0.07-0.71-0.11-1.08-0.11-1.08c3.08-0.24,6.13-0.3,9.1-0.22h0.03
					c0.54,0.01,1.05,0.05,1.58,0.08l0.01-0.01c0.9,0.04,1.8,0.08,2.69,0.14c0.03,0.01,0.06,0.01,0.09,0.01
					c0.91,0.06,1.82,0.14,2.71,0.22c0.9,0.09,1.79,0.19,2.66,0.29c0.88,0.11,1.74,0.23,2.6,0.35c16.41,2.36,28.42,7.77,28.42,7.77
					c-1.67,3.62-3.19,7.33-4.56,11.13c-2.18,6.01-4,12.23-5.49,18.63c-2.19,9.32-3.68,19.01-4.58,28.96
					c-0.27,2.99-0.49,6.01-0.65,9.04c-1.25,22.73,0.37,46.55,3.76,70.1c0.15,1.05,0.31,2.09,0.46,3.13c0.39,2.58,0.8,5.15,1.23,7.72
					c3.79,22.76,9.08,45.08,14.87,65.72c0.68,2.41,1.36,4.79,2.05,7.15c0.65,2.21,1.29,4.4,1.95,6.57c0.23,0.75,0.45,1.51,0.68,2.27
					c6.14,20.15,12.51,38.19,18.05,52.79c0.45,1.17,0.88,2.31,1.32,3.44c0.43,1.12,0.86,2.23,1.28,3.31
					c0.81,2.1,1.61,4.11,2.37,6.03C833.351,973.992,836.721,981.762,838.461,985.692z"/>
				<g style="opacity:0.4;">
					<path style="fill:#FFFFFC;" d="M786.531,815.962l-0.03,0.02l-14.84,10.45l-214.04,150.73l-89.97,63.36l-16.85,11.87
						c-3.01-0.72-6.02-1.47-9.01-2.24l26.91-18.95l86.75-61.09l215.4-151.69l14.42-10.16l0.03-0.02
						C785.691,810.822,786.101,813.392,786.531,815.962z"/>
					<path style="fill:#FFFFFC;" d="M803.441,888.832l-0.02,0.02l-14.28,10.05l-236.94,166.86c-3.85-0.11-7.7-0.27-11.53-0.47
						l246.02-173.26l14.68-10.33l0.01-0.01C802.061,884.112,802.751,886.462,803.441,888.832z"/>
					<path style="fill:#FFFFFC;" d="M781.711,725.982c-0.27,2.97-0.43,5.99-0.59,9l-0.07,0.05l-1.68,1.18l-5.06,3.57l-72.17,50.82
						l-28.99,20.42l-159.69,112.46l-38.72,27.26l-43.93,30.94l-61.77,43.5c-2.51-1.07-5.01-2.18-7.5-3.3l69.86-49.2l43.65-30.74
						l31.23-22l139.52-98.25l19.4-13.66l3.03-2.13l0.45-0.32c17.97-7.75,31.88-18.19,42.61-30.01l0.37-0.26l3.34-2.35l5.09-3.59
						l56.16-39.55l3.35-2.36l2.1-1.47L781.711,725.982z"/>
					<path style="fill:#FFFFFC;" d="M545.179,816.356c-2.754-0.714-5.589-1.561-8.51-2.589L306.409,975.92
						c-0.112,2.904-0.251,5.806-0.201,8.725L545.179,816.356z"/>
					<path style="fill:#FFFFFC;" d="M747.049,674.195l20.865-14.694c-3.419-0.496-7.017-0.859-10.749-1.014l-10.242,7.212
						C747.018,668.044,747.08,670.893,747.049,674.195z"/>
					<path style="fill:#FFFFFC;" d="M370.222,770l85.522-60.227c-0.603-2.38-1.139-4.906-1.695-7.389l-81.046,57.074
						C372.063,763.002,371.133,766.528,370.222,770z"/>
					<path style="fill:#FFFFFC;" d="M484.603,774.235c-1.367-1.847-2.721-3.735-4.048-5.732L337.454,869.277
						c-1.904,4.047-3.846,8.292-5.795,12.664L484.603,774.235z"/>
					<path style="fill:#FFFFFC;" d="M826.701,957.232l-0.68,0.48l-2.04,1.44l-3.7,2.6l-123.92,87.27
						c-6.21,1.67-12.47,3.21-18.78,4.64l138.99-97.88l6.96-4.9l0.57-0.4l0.01-0.01c0.44,1.17,0.88,2.32,1.31,3.45
						C825.851,955.042,826.281,956.152,826.701,957.232z"/>
				</g>
				<path style="fill:#FFFFFC;" d="M829.331,957.352l-0.26,5.91l-0.1,2.38l-0.38,8.49l-0.8,18.31c-1.8,1.11-3.61,2.2-5.42,3.27
					l1.27-28.79l0.34-7.77l0.09-2.04l1.76,0.08l0.87,0.04L829.331,957.352z"/>
				<path style="fill:#311D12;" d="M588.408,822.865c-95.956,0-120.67-72.488-120.928-73.273l3.336-1.085
					c0.274,0.817,28.019,81.235,138.776,69.716c112.805-11.702,130.014-96.859,130.175-97.718l3.449,0.645
					c-0.167,0.881-17.762,88.579-133.259,100.566C602.409,822.5,595.221,822.865,588.408,822.865z"/>
				<path style="fill:#311D12;" d="M840.081,984.642c-0.54,0.36-1.08,0.71-1.62,1.05c-0.25,0.17-0.5,0.34-0.75,0.49
					c-0.21,0.14-0.42,0.28-0.63,0.41c-0.32-0.79-0.63-1.58-0.94-2.36c-2.5-6.31-4.89-12.5-7.17-18.59
					c-1.01-2.66-1.99-5.31-2.95-7.93c-0.07-0.17-0.13-0.35-0.19-0.52c-0.78-2.12-1.55-4.22-2.3-6.31
					c-6.78-18.83-12.56-36.55-17.48-53.19c-0.23-0.76-0.45-1.52-0.68-2.27c-9.8-33.45-16.12-62.45-20.07-87.18
					c-0.17-1.05-0.33-2.09-0.49-3.11c-4.44-28.86-5.64-51.73-5.44-68.92c0.04-3.1,0.12-6.02,0.23-8.75
					c0.29-6.59,0.77-12.12,1.3-16.6c0,0,0,0,0-0.01c1.14-9.65,2.51-14.46,2.57-14.66l1.71,0.51l1.1,0.33l0.56,0.17
					C786.571,698.092,761.531,787.052,840.081,984.642z"/>
			</g>
			<g>
				<path style="fill:#FFFFFC;" d="M482.111,1058.792c-5.48-0.94-10.92-1.96-16.33-3.08c-3.57-0.73-7.12-1.5-10.66-2.32l11.52-4.55
					l15.95-6.3C482.731,1047.412,482.571,1052.842,482.111,1058.792z"/>
				<path style="fill:#FFFFFC;" d="M475.051,941.942c-0.08,2.91-0.19,5.85-0.31,8.8c-1,25.26-2.94,52.08-6.04,80.46
					c-0.34,3.09-0.69,6.2-1.05,9.32c-0.32,2.76-0.66,5.53-1.01,8.32c-0.27,2.28-0.56,4.57-0.86,6.87c-3.57-0.73-7.12-1.5-10.66-2.32
					c-1.44-0.32-2.88-0.66-4.32-1c-3.01-0.72-6.02-1.47-9.01-2.24c-5.76-1.49-11.48-3.07-17.16-4.76
					c2.76-22.19,4.78-43.43,6.18-63.71c0.21-3.02,0.41-6.02,0.59-9c1.68-27.67,2.2-53.51,1.85-77.48c0.01-0.01,0.01-0.02,0-0.03
					c-0.01-1.08-0.03-2.16-0.05-3.23c0-0.19,0-0.38-0.01-0.57c0-0.24,0-0.48-0.01-0.71c0-0.1,0-0.2-0.01-0.29
					c-0.02-1.23-0.04-2.44-0.08-3.66v-0.01c-0.62-26.72-2.32-51.03-4.68-72.9c-0.29-2.69-0.59-5.34-0.89-7.95v-0.01
					c-3.14-26.58-7.21-49.32-11.39-68.17c-0.56-2.54-1.13-5.01-1.69-7.4c-0.32-1.39-0.65-2.75-0.97-4.09
					c-6.48-26.61-12.77-43.85-15.81-51.46c-1.14-2.85-1.82-4.35-1.89-4.49c-4.92-10.54-0.37-23.07,10.16-27.99
					c10.55-4.93,23.07-0.37,27.99,10.16c0.47,1.02,2.57,5.63,5.6,13.78c2.39,6.47,5.38,15.18,8.59,26.1v0.02
					c1.1,3.72,2.22,7.67,3.35,11.9c0.63,2.34,1.26,4.75,1.9,7.25c0.19,0.77,0.39,1.56,0.59,2.35c2.9,11.62,5.81,24.87,8.53,39.73
					v0.01c1.42,7.83,2.8,16.09,4.08,24.81c0.38,2.56,0.75,5.17,1.1,7.81c2.92,21.34,5.28,45.19,6.65,71.52
					c0.14,2.74,0.27,5.51,0.39,8.3c0.3,7.03,0.54,14.23,0.68,21.6c0.02,0.51,0.03,1.02,0.03,1.53c0.02,0.7,0.03,1.4,0.04,2.1
					C475.731,907.322,475.621,924.242,475.051,941.942z"/>
			</g>
			<path style="fill:#F7A78E;" d="M395.361,677.172c-1.41,5.02-7.75,27.93-14.92,54.49c-2.44,9.03-4.97,18.49-7.44,27.8
				c-0.94,3.55-1.87,7.07-2.78,10.54c-6.17,23.54-11.51,44.78-13.24,54.11c-1.72,9.23-10.07,25.07-19.52,45.15
				c-0.49,1.02-0.97,2.06-1.45,3.1c-0.48,1.03-0.96,2.07-1.44,3.12c-10.9,23.69-22.48,52.52-26.7,83.05
				c-0.03,0.22-0.06,0.45-0.09,0.67c-6.24,3.64-12.56,7.5-18.87,11.43c-2.73,1.71-5.47,3.42-8.2,5.15c-0.47-0.32-0.94-0.65-1.4-0.98
				c-50.37-35.58-93.85-80.25-128.06-131.63c43.6-42.98,84.67-78.44,112.18-100.32c16.1-12.81,31.75-23.24,46.49-31.74
				C345.761,690.462,376.321,681.242,395.361,677.172z"/>
			<g>
				<path style="fill:#F7A78E;" d="M573.461,1034.632l-39.94,30.24c-17.4-1.15-34.55-3.19-51.41-6.08
					c-5.48-0.94-10.92-1.96-16.33-3.08c-3.57-0.73-7.12-1.5-10.66-2.32c-1.44-0.32-2.88-0.66-4.32-1c-3.01-0.72-6.02-1.47-9.01-2.24
					c-5.76-1.49-11.48-3.07-17.16-4.76c-19.03-5.65-37.59-12.41-55.59-20.21c-2.51-1.07-5.01-2.18-7.5-3.3
					c-18.99-8.59-37.35-18.33-54.98-29.14c-8.2-5.01-16.24-10.27-24.11-15.74c-0.58-0.4-1.16-0.81-1.74-1.22
					c2.73-1.73,5.47-3.44,8.2-5.15c6.31-3.93,12.63-7.79,18.87-11.43c4.53-2.67,9.01-5.26,13.44-7.75
					c22.05-12.42,42.65-22.42,59.68-27.99c4.39-1.43,8.54-2.57,12.42-3.38c2.09-0.44,4.09-0.78,6.01-1.02
					c1.34-0.16,2.64-0.28,3.89-0.35c0,0,2.32-2.69,6.42-6.91l0.01-0.01c4.71-4.84,11.79-11.72,20.44-18.9
					c1-0.84,2.03-1.68,3.08-2.52c0.24-0.19,0.48-0.39,0.72-0.58c-0.26,0.31-0.5,0.6-0.71,0.87c-0.38,0.47-0.69,0.85-0.91,1.14
					c-0.27,0.34-0.42,0.52-0.42,0.52c0.45-0.13,0.9-0.26,1.35-0.38c2.38-0.64,4.72-1.18,6.96-1.63c13.37-2.69,23.76-2.2,23.76-2.2
					c4.24,0,8.05,0.35,11.49,1c0.8,0.14,1.58,0.31,2.34,0.49c22.48,5.27,27.44,23.19,28.53,30.34c0.29,1.85,0.31,2.98,0.31,2.98
					c2.48,0,4.76,0.2,6.87,0.56c26.93,4.63,25.12,36.49,25.12,36.49c9.15,0.86,14.23,4.92,16.87,10.14c1.12,2.19,1.8,4.59,2.17,7.05
					c1.64,10.78-2.69,22.6-2.69,22.6C579.141,1001.932,573.461,1034.632,573.461,1034.632z"/>
				<path style="fill:#311D12;" d="M478.121,888.312l-0.37,1.29l-0.6,2.08c-0.57-0.16-1.14-0.32-1.7-0.47
					c-16.83-4.39-31.04-1.42-42.2,3.99c-0.05,0.03-0.1,0.05-0.14,0.08c-7.74,3.76-14,8.69-18.66,13.14
					c-6.3,5.99-9.66,11.1-9.75,11.24l-0.35,0.53l-0.61,0.19c-3.91,1.21-7.84,2.5-11.78,3.87c-8.92,3.1-17.93,6.59-26.96,10.41
					c-19.28,8.14-38.68,17.76-57.67,28.15c-8.39,4.6-16.7,9.34-24.88,14.19c-0.58-0.4-1.16-0.81-1.74-1.22
					c-0.47-0.32-0.94-0.65-1.4-0.98c9.37-5.57,18.91-11.02,28.56-16.27c4.43-2.41,8.88-4.77,13.35-7.08
					c18.7-9.68,37.66-18.45,56.38-25.66c5.26-2.04,10.51-3.95,15.72-5.71c2.85-0.97,5.69-1.9,8.52-2.78
					c0.09-0.03,0.18-0.06,0.27-0.09c0.04-0.06,0.09-0.13,0.14-0.2c2.27-3.19,11.94-15.88,27.84-24.12c0.71-0.38,1.44-0.74,2.18-1.09
					c0.3-0.14,0.61-0.29,0.92-0.43c3.4-1.56,7.07-2.89,10.98-3.89c9.11-2.32,19.55-2.79,31.21,0.1
					C476.291,887.802,477.201,888.042,478.121,888.312z"/>
			</g>
		</g>
	</g>
</g>
</svg>
