<?xml version="1.0" encoding="utf-8"?>
<!-- Generator: Adobe Illustrator 27.5.0, SVG Export Plug-In . SVG Version: 6.00 Build 0)  -->
<svg version="1.1" id="Layer_1" xmlns="http://www.w3.org/2000/svg" xmlns:xlink="http://www.w3.org/1999/xlink" x="0px" y="0px"
	 viewBox="0 0 1133.858 1133.858" style="enable-background:new 0 0 1133.858 1133.858;" xml:space="preserve">
<g>
	<path style="fill:#7DAFD3;" d="M1065.971,566.937c0,107.247-33.823,206.581-91.402,287.938
		c-32.642,46.146-72.948,86.514-119.032,119.239c-16.445,11.661-33.636,22.369-51.469,32.021c-2.858,1.553-5.737,3.065-8.637,4.557
		c-68.453,35.335-146.144,55.28-228.495,55.28c-75.516,0-147.117-16.777-211.262-46.809c-10.708-4.992-21.23-10.377-31.503-16.114
		c-14.995-8.368-29.515-17.481-43.495-27.298c-49.439-34.672-92.293-78.063-126.322-127.979
		c-54.576-80.01-86.473-176.694-86.473-280.834c0-275.614,223.441-499.055,499.055-499.055S1065.971,291.323,1065.971,566.937z"/>
	<g>
		<g>
			<g>
				<path style="fill:#3A3F4B;" d="M590.286,177.316c0,0,87.767-41.197,140.606,8.956s55.526,178.22,95.827,204.191
					c40.301,25.972,66.272,33.137,66.272,33.137S884.036,703.02,582.226,703.02c-301.811,0-299.123-222.999-284.794-299.123
					c14.329-76.124-4.188-202.732,116.425-233.746C507.893,145.971,590.286,177.316,590.286,177.316z"/>
				<path style="fill:#3A3F4B;" d="M756.056,241.434c16.831,67.935,70.87,121.275,139.042,137.159
					c5.193,1.21,7.41-6.786,2.205-7.998c-65.483-15.258-117.078-66.094-133.249-131.366
					C762.772,234.051,754.77,236.244,756.056,241.434L756.056,241.434z"/>
				<path style="fill:#3A3F4B;" d="M309.318,310.703c-2.731,23.847-8.113,47.346-16.062,69.998
					c-8.006,22.814-19.313,43.631-30.772,64.82c-10.806,19.981-18.834,40.661-21.615,63.331
					c-2.706,22.061-0.797,44.768,5.815,66.005c6.627,21.288,17.951,41.457,36.852,54.041c4.456,2.967,8.614-4.215,4.187-7.162
					c-35.545-23.664-44.141-77.306-38.042-116.508c3.487-22.412,12.641-42.312,23.522-62.001
					c10.581-19.147,20.306-38.5,27.642-59.152c8.434-23.741,13.903-48.354,16.768-73.371
					C318.219,305.409,309.919,305.453,309.318,310.703L309.318,310.703z"/>
			</g>
			<g>
				<g>
					<g>
						<path style="fill:#F48C83;" d="M398.764,358.493c0,0-44.143-29.025-70.032,19.413c-25.89,48.437,33.405,95.117,73.491,74.7
							L398.764,358.493z"/>
						<g>
							<g>
								<path style="fill:#3A3F4B;" d="M413.154,445.367c-1.794,0-3.449-1.171-3.981-2.982
									c-4.513-15.446-9.198-30.431-16.811-44.034c-5.808-10.38-16.016-24.349-31.634-31.93c-2.063-0.999-2.923-3.476-1.918-5.539
									c0.999-2.068,3.449-2.939,5.539-1.918c13.894,6.743,26.084,18.96,35.256,35.336c8.032,14.361,12.878,29.84,17.531,45.754
									c0.645,2.203-0.618,4.502-2.815,5.147C413.928,445.313,413.536,445.367,413.154,445.367z"/>
							</g>
							<path style="fill:#3A3F4B;" d="M381.762,424.521c-1.311,0-2.6-0.618-3.406-1.773c-4.513-6.474-6.565-14.684-5.636-22.517
								c0.886-7.43,4.459-14.555,9.853-19.734c0.575-1.246,1.617-2.251,2.928-2.45c2.257-0.36,4.282,0.575,4.631,2.842l-4.099,0.629
								l4.196-0.011l0.344,2.24l-1.596,2.128c-4.4,3.901-7.323,9.488-8.016,15.334c-0.698,5.845,0.833,11.965,4.196,16.79
								c1.311,1.88,0.849,4.465-1.026,5.776C383.406,424.279,382.579,424.521,381.762,424.521z"/>
						</g>
					</g>
					<g>
						<path style="fill:#F48C83;" d="M737.377,358.493c0,0,44.143-29.025,70.032,19.413c25.89,48.437-33.405,95.117-73.491,74.7
							L737.377,358.493z"/>
						<g>
							<g>
								<path style="fill:#3A3F4B;" d="M722.986,445.367c-0.381,0-0.774-0.054-1.166-0.167c-2.197-0.645-3.46-2.944-2.815-5.147
									c4.653-15.914,9.499-31.393,17.531-45.754c9.171-16.376,21.362-28.593,35.256-35.336c2.085-1.005,4.545-0.14,5.539,1.918
									c1.005,2.063,0.145,4.54-1.918,5.539c-15.618,7.581-25.826,21.55-31.634,31.93c-7.613,13.604-12.298,28.588-16.811,44.034
									C726.435,444.19,724.781,445.367,722.986,445.367z"/>
							</g>
							<path style="fill:#3A3F4B;" d="M754.379,424.521c-0.817,0-1.644-0.242-2.369-0.747c-1.875-1.311-2.337-3.895-1.026-5.776
								c3.363-4.825,4.895-10.944,4.196-16.79c-0.693-5.845-3.616-11.433-8.016-15.334l-1.692-1.504l0.553-3.535
								c0.371-2.257,2.493-3.831,4.771-3.406c1.913,0.317,3.299,1.897,3.449,3.739c5.018,5.115,8.328,11.949,9.177,19.062
								c0.93,7.833-1.123,16.043-5.636,22.517C756.979,423.903,755.69,424.521,754.379,424.521z"/>
						</g>
					</g>
				</g>
				<g>
					<path style="fill:#F48C83;" d="M656.696,522.724v131.893c0,25.015-20.279,45.294-45.295,45.294h-86.656
						c-25.015,0-45.295-20.279-45.295-45.294V522.724H656.696z"/>
					<path style="fill:#3A3F4B;" d="M656.696,522.724v28.466c-31.188,28.229-73.206,44.09-119.545,44.09
						c-20.24,0-39.651-3.018-57.701-8.818v-63.738H656.696z"/>
				</g>
				<g>
					<path style="fill:#F48C83;" d="M742.187,400.928c0,1.501,0,3.077-0.076,4.578v0.075c-0.825,38.501-12.309,71.899-31.371,98.616
						c-31.372,44.354-83.606,70.247-142.67,70.247c-58.99,0-111.074-25.743-142.52-69.947
						c-18.988-26.493-30.471-59.59-31.446-97.715c-0.15-1.952-0.15-3.903-0.15-5.854c0-104.996,35.049-194.906,174.116-194.906
						S742.187,295.932,742.187,400.928z"/>
					<g>
						<g>
							<g>
								<path style="fill:#3A3F4B;" d="M633.789,402.138c-12.051,0-24.344-3.723-35.057-11.347
									c-1.864-1.327-2.299-3.917-0.972-5.786c1.332-1.854,3.901-2.31,5.786-0.972c21.184,15.086,49.482,12.534,65.821-5.953
									c1.51-1.73,4.126-1.875,5.851-0.36c1.719,1.515,1.88,4.137,0.36,5.851C664.746,395.825,649.472,402.138,633.789,402.138z"/>
								<path style="fill:#3A3F4B;" d="M502.352,402.138c-15.688,0-30.957-6.313-41.789-18.568c-1.52-1.714-1.359-4.336,0.36-5.851
									c1.714-1.515,4.336-1.359,5.851,0.36c16.322,18.471,44.631,21.034,65.826,5.953c1.875-1.338,4.459-0.881,5.786,0.972
									c1.327,1.87,0.892,4.459-0.972,5.786C526.701,398.415,514.403,402.138,502.352,402.138z"/>
							</g>
							<g>
								<path style="fill:#3A3F4B;" d="M682.304,353.784c-0.817,0-1.644-0.242-2.369-0.747
									c-11.551-8.059-25.031-13.335-38.984-15.253c-7.742-1.08-13.26-0.5-17.397,1.768c-2.015,1.112-4.535,0.376-5.631-1.633
									c-1.107-2.009-0.376-4.529,1.633-5.631c7.581-4.169,16.494-3.546,22.522-2.724c15.253,2.101,29.985,7.866,42.605,16.671
									c1.875,1.311,2.337,3.895,1.026,5.776C684.904,353.166,683.615,353.784,682.304,353.784z"/>
								<path style="fill:#3A3F4B;" d="M453.836,353.784c-1.311,0-2.6-0.618-3.406-1.773c-1.311-1.88-0.849-4.465,1.026-5.776
									c12.62-8.806,27.352-14.571,42.605-16.671c6.034-0.822,14.936-1.445,22.522,2.724c2.009,1.101,2.74,3.621,1.633,5.631
									c-1.096,2.009-3.61,2.745-5.631,1.633c-4.142-2.267-9.676-2.848-17.397-1.768c-13.953,1.918-27.433,7.194-38.984,15.253
									C455.48,353.543,454.653,353.784,453.836,353.784z"/>
							</g>
							<path style="fill:#3A3F4B;" d="M571.331,464.811c-12.158,0-22.512-5.593-29.163-10.391c-1.859-1.343-2.273-3.933-0.935-5.792
								c1.332-1.854,3.922-2.294,5.792-0.935c5.867,4.234,15.027,9.139,25.52,8.8c9.139-0.36,17.601-5.41,21.056-12.577
								c0.983-2.063,3.444-2.939,5.534-1.934c2.063,0.994,2.928,3.471,1.934,5.534c-4.819,10.009-15.892,16.784-28.201,17.262
								C572.352,464.8,571.842,464.811,571.331,464.811z"/>
							<path style="fill:#3A3F4B;" d="M564.836,435.035c-1.923,0-3.648-1.343-4.056-3.304c-0.467-2.24,0.972-4.438,3.218-4.905
								c3.852-0.801,7.484-4.164,9.467-8.768c2.031-4.701,2.418-10.224,2.536-15.489c0.387-17.338-1.864-34.568-6.684-51.212
								c-0.634-2.203,0.634-4.502,2.831-5.142c2.23-0.607,4.502,0.639,5.142,2.831c5.05,17.461,7.409,35.53,7.006,53.705
								c-0.14,6.109-0.623,12.588-3.213,18.589c-3.084,7.151-8.838,12.239-15.398,13.609
								C565.4,435.008,565.115,435.035,564.836,435.035z"/>
						</g>
						<g>
							<g>
								<path style="fill:#F16764;" d="M482.288,449.109c0,29.57-25.142,53.737-56.738,55.387
									c-18.988-26.493-30.471-59.59-31.446-97.715c8.33-3.002,17.862-4.503,27.918-4.503
									C455.269,402.278,482.288,418.488,482.288,449.109z"/>
							</g>
							<g>
								<path style="fill:#F16764;" d="M742.111,405.506v0.075c-0.825,38.501-12.309,71.899-31.371,98.616
									c-29.946-3.152-53.211-26.568-53.211-55.087c0-30.621,27.018-46.831,60.265-46.831
									C726.426,402.278,734.682,403.405,742.111,405.506z"/>
							</g>
						</g>
					</g>
				</g>
			</g>
			<g>
				<path style="fill:#3A3F4B;" d="M459.532,235.528c0,0,1.158,109.802-60.768,122.965c0,0-33.268-52.215-4.609-90.724
					C422.813,229.259,459.532,235.528,459.532,235.528z"/>
				<path style="fill:#3A3F4B;" d="M446.994,242.693c0,0,32.241,106.573,148.666,94.036c0,0-75.228-42.988-34.927-115.53
					c0,0-3.753,120.345,179.211,135.816c0,0,25.876-72.23-22.484-120.591c-48.362-48.362-140.606-60.9-201.506-45.675
					C455.054,205.974,446.994,242.693,446.994,242.693z"/>
			</g>
			<g>
				<path style="fill:#FBB54F;" d="M392.355,456.232c-4.66-12.075-16.404-20.671-30.115-20.671c-7.498,0-14.436,2.589-19.925,6.918
					c-7.518,5.903-12.344,15.078-12.344,25.351c0,17.792,14.478,32.269,32.269,32.269c17.812,0,32.29-14.478,32.29-32.269
					C394.53,463.73,393.764,459.815,392.355,456.232z M362.24,491.815c-13.214,0-23.964-10.75-23.964-23.985
					c0-8.451,4.391-15.907,11.019-20.153c3.728-2.423,8.181-3.832,12.945-3.832c9.507,0,17.75,5.572,21.623,13.608
					c1.512,3.148,2.361,6.669,2.361,10.377C386.225,481.066,375.475,491.815,362.24,491.815z"/>
				<path style="fill:#FBB54F;" d="M791.6,444.281c-5.758-5.406-13.525-8.72-22.038-8.72c-13.276,0-24.709,8.057-29.639,19.552
					c-1.698,3.894-2.63,8.202-2.63,12.717c0,17.792,14.478,32.269,32.269,32.269c17.792,0,32.269-14.478,32.269-32.269
					C801.831,458.552,797.896,450.184,791.6,444.281z M769.562,491.815c-13.214,0-23.984-10.75-23.984-23.985
					c0-3.873,0.911-7.518,2.568-10.75c3.935-7.85,12.075-13.235,21.416-13.235c5.654,0,10.853,1.968,14.954,5.261
					c5.509,4.391,9.03,11.164,9.03,18.724C793.547,481.066,782.776,491.815,769.562,491.815z"/>
			</g>
		</g>
		<g>
			<g>
				<g>
					<g>
						<path style="fill:#F48C83;" d="M343.454,902.057l-19.283,100.992c-14.995-8.368-29.515-17.481-43.495-27.298
							c-49.439-34.672-92.293-78.063-126.322-127.979l13.649-74.377l0.041-0.269l0.186,0.145l28.541,20.961L343.454,902.057z"/>
						<g>
							<polygon style="fill:#3A3F4B;" points="168.131,773.141 333.496,953.579 342.97,901.902 							"/>
						</g>
					</g>
				</g>
				<g>
					<g>
						<path style="fill:#F48C83;" d="M974.569,854.875c-32.642,46.146-72.948,86.514-119.032,119.239
							c-16.445,11.661-33.636,22.369-51.469,32.021l-6.731-35.148l-4.391-23.052l-8.761-45.877l17.067-12.551l158.343-116.381
							l0.207,1.139L974.569,854.875z"/>
						<g>
							<polygon style="fill:#3A3F4B;" points="959.597,773.126 791.886,949.032 784.184,902.062 							"/>
						</g>
					</g>
				</g>
			</g>
			<g>
				<g>
					<g>
						<path style="fill:#F48C83;" d="M355.674,1019.163l-33.056-376.565h490.501l-11.868,246.908l-2.506,52.339l-1.408,29.142
							l-1.905,39.705c-68.453,35.335-146.144,55.28-228.495,55.28C491.421,1065.972,419.819,1049.195,355.674,1019.163z"/>
					</g>
					<g>
						<path style="fill:#FCE0D4;" d="M964.296,770.847l-4.494,3.418l-4.764,3.645l-119.86,91.381c0,0,5.447,8.326,10.894,22.907
							c6.959,18.599,13.898,47.368,9.465,81.916c-16.445,11.661-33.636,22.369-51.469,32.021c-2.858,1.553-5.737,3.065-8.637,4.557
							c-68.453,35.335-146.144,55.28-228.495,55.28c-75.516,0-147.117-16.777-211.262-46.809
							c-10.708-4.992-21.23-10.377-31.503-16.114c-14.995-8.368-29.515-17.481-43.495-27.298
							c-2.734-31.834,0.104-57.497,3.832-75.62c4.08-19.966,9.237-30.84,9.237-30.84l-124.541-94.965l-1.201-0.932l-3.355-2.548
							l14.354-48.052c14.623-48.942,59.63-82.475,110.705-82.475h134.959c0,0,0.352,0.787,1.056,2.278
							c2.568,5.551,9.776,20.816,19.904,40.388c1.222,2.32,2.465,4.722,3.749,7.166c30.012,56.979,81.108,142.395,117.478,141.587
							c31.109-0.684,62.55-51.614,89.745-102.856c4.308-8.098,8.492-16.197,12.551-24.109c2.092-4.08,4.142-8.098,6.172-12.034
							c4.453-8.678,8.72-16.963,12.8-24.606c1.346-2.506,2.651-4.95,3.977-7.311c3.728-6.835,7.311-12.986,10.687-18.227
							c0.497-0.766,0.974-1.533,1.471-2.258v-0.021h134.959c51.076,0,96.083,33.533,110.706,82.475L964.296,770.847z"/>
					</g>
				</g>
				<g>
					<path style="fill:#FBB54F;" d="M581.347,871.645c0-7.965-6.457-14.42-14.421-14.42c-7.964,0-14.42,6.456-14.42,14.42
						s6.457,14.42,14.42,14.42C574.891,886.066,581.347,879.61,581.347,871.645z"/>
				</g>
				<path style="fill:#FBB54F;" d="M564.477,871.55c-0.26,0-0.524-0.024-0.788-0.076c-52.149-10.04-94.116-53.01-121.365-124.261
					c-20.378-53.285-25.542-104.345-25.593-104.854c-0.222-2.276,1.443-4.302,3.72-4.525c2.281-0.217,4.303,1.441,4.527,3.719
					c0.194,1.985,20.84,198.789,140.277,221.786c2.247,0.433,3.718,2.604,3.285,4.85C568.159,870.172,566.423,871.55,564.477,871.55
					z"/>
				<path style="fill:#FBB54F;" d="M560.686,871.55c-1.946,0-3.681-1.378-4.063-3.361c-0.433-2.246,1.038-4.417,3.285-4.85
					c119.439-22.998,140.084-219.801,140.278-221.786c0.222-2.274,2.251-3.935,4.525-3.719c2.278,0.222,3.942,2.248,3.72,4.525
					c-0.049,0.51-5.214,51.57-25.591,104.854c-27.249,71.251-69.217,114.22-121.366,124.261
					C561.21,871.525,560.946,871.55,560.686,871.55z"/>
			</g>
		</g>
	</g>
</g>
</svg>
