<?xml version="1.0" encoding="utf-8"?>
<!-- Generator: Adobe Illustrator 27.5.0, SVG Export Plug-In . SVG Version: 6.00 Build 0)  -->
<svg version="1.1" id="Layer_1" xmlns="http://www.w3.org/2000/svg" xmlns:xlink="http://www.w3.org/1999/xlink" x="0px" y="0px"
	 viewBox="0 0 2400 2400" style="enable-background:new 0 0 2400 2400;" xml:space="preserve">
<g>
	<path style="fill:#CCAEB5;" d="M2300.002,1199.995c0,175.596-41.139,341.583-114.322,488.851
		c-57.153,115.022-133.85,218.632-225.753,306.461c-2.099,2.021-4.229,4.027-6.359,6.017c-2.192,2.068-4.385,4.12-6.592,6.157
		c-196.165,181.566-458.611,292.515-746.974,292.515c-79.775,0-157.592-8.489-232.547-24.627c-5.395-1.166-10.79-2.363-16.154-3.607
		c-12.516-2.892-24.938-6.002-37.283-9.313c-50.172-13.464-98.93-30.396-145.993-50.515c-0.404-0.171-0.793-0.342-1.182-0.513
		c-5.162-2.208-10.308-4.462-15.439-6.763c-16.651-7.447-33.086-15.283-49.286-23.539c-41.372-21.021-81.221-44.591-119.375-70.509
		c-52.8-35.853-102.335-76.199-148.03-120.464c-16.869-16.341-33.225-33.225-49.022-50.623
		c-10.806-11.878-21.331-23.974-31.593-36.319c-158.664-190.646-254.096-435.786-254.096-703.207c0-607.511,492.489-1100,1100-1100
		S2300.002,592.484,2300.002,1199.995z"/>
	<g>
		<g>
			<g>
				<g>
					<path style="fill:#EE3A4D;" d="M2185.68,1688.846c-57.153,115.022-133.85,218.632-225.753,306.461
						c-2.099,2.021-4.229,4.027-6.359,6.017c-2.192,2.068-4.385,4.12-6.592,6.157l-3.794-10.059l-194.16-513.836l12.967,6.095
						L2185.68,1688.846z"/>
				</g>
			</g>
			<g>
				<g>
					<path style="fill:#EE3A4D;" d="M1959.927,1995.307c-2.099,2.021-4.229,4.027-6.359,6.017c-2.192,2.068-4.385,4.12-6.592,6.157
						c-196.165,181.566-458.611,292.515-746.974,292.515c-79.775,0-157.592-8.489-232.547-24.627
						c-5.395-1.166-10.79-2.363-16.154-3.607c-12.516-2.892-24.938-6.002-37.283-9.313c-50.172-13.464-98.93-30.396-145.993-50.515
						c-0.404-0.171-0.793-0.342-1.182-0.513c-5.162-2.208-10.308-4.462-15.439-6.763c-16.651-7.447-33.086-15.283-49.286-23.539
						c-41.372-21.021-81.221-44.591-119.375-70.509l-4.198-25.934l-3.747-23.088c-26.789-195.808-33.941-345.237-7.976-449.577
						c24.099-96.831,76.728-154.84,168.661-175.005c34.547-7.572,68.721-18.035,101.247-29.883
						c36.475-13.293,70.882-28.328,101.418-43.021c7.027-3.389,13.853-6.763,20.461-10.09c1.804-0.917,3.607-1.835,5.38-2.736
						c1.182-0.606,2.348-1.197,3.514-1.804c1.166-0.591,2.317-1.197,3.467-1.788c1.011-0.529,2.021-1.042,3.032-1.57
						c0.124-0.062,0.264-0.14,0.404-0.218c0.56-0.28,1.12-0.575,1.664-0.871c1.679-0.871,3.343-1.757,4.991-2.628
						c2.192-1.151,4.369-2.301,6.483-3.452c0.295-0.155,0.606-0.311,0.902-0.482c0.762-0.404,1.524-0.808,2.27-1.228
						c1.042-0.56,2.068-1.119,3.094-1.664c0,0,0,0,0.016-0.016c1.633-0.871,3.234-1.741,4.804-2.612
						c1.088-0.591,2.177-1.182,3.25-1.772c1.073-0.575,2.13-1.166,3.203-1.741c8.349-4.54,16.216-8.769,23.43-12.625
						c1.026-0.544,2.052-1.073,3.047-1.617c1.026-0.544,2.037-1.073,3.032-1.617c1.601-0.84,3.156-1.664,4.68-2.456
						c1.633-0.871,3.234-1.71,4.773-2.519c14.366-7.525,24.223-12.547,27.146-14.04h0.016c0.591-0.295,0.886-0.451,0.886-0.451
						l342.671,14.382c0.591,0.466,1.151,0.917,1.71,1.353c2.006,1.601,4.042,3.187,6.126,4.742
						c18.859,14.211,40.719,26.913,64.383,38.869l0.016,0.016c18.253,9.204,37.579,17.989,57.464,26.649
						c9.577,4.198,19.279,8.349,29.059,12.531c17.413,7.416,35.029,14.864,52.567,22.591c18.097,7.96,36.086,16.201,53.593,24.97
						c29.354,14.693,57.355,30.8,82.31,49.473c38.138,28.515,69.156,62.984,87.005,107.357
						C1894.876,1711.172,1924.37,1853.558,1959.927,1995.307z"/>
				</g>
			</g>
			<g>
				<g>
					<path style="fill:#C92036;" d="M1452.427,1782.698c-33.415,0-68.959-8.148-106.034-24.513
						c-66.738-29.458-114.222-74.448-116.211-76.348c-3.261-3.119-3.378-8.291-0.262-11.554c3.118-3.26,8.293-3.384,11.554-0.265
						c0.469,0.447,47.686,45.131,111.896,73.379c84.515,37.178,157.164,29.742,215.932-22.115c3.391-2.982,8.553-2.659,11.537,0.722
						c2.987,3.384,2.664,8.55-0.722,11.538C1543.049,1766.247,1499.89,1782.698,1452.427,1782.698z"/>
				</g>
			</g>
			<g>
				<g>
					<path style="fill:#5F252A;" d="M1953.568,2001.324c-2.192,2.068-4.385,4.12-6.592,6.157
						c-196.165,181.566-458.611,292.515-746.974,292.515c-79.775,0-157.592-8.489-232.547-24.627
						c-5.395-1.166-10.79-2.363-16.154-3.607c-12.516-2.892-24.938-6.002-37.283-9.313c11.925-44.979,32.588-87.036,60.543-123.837
						c9.127-11.987,18.999-23.399,29.618-34.189c27.473-27.955,59.827-51.618,96.194-69.607h0.031
						c-6.079-92.042-41.823-244.519-80.49-388.117c-7.043-26.182-14.18-52.054-21.269-77.225
						c-14.584-51.867-28.903-100.702-41.528-142.806c-0.062-0.187-0.109-0.373-0.156-0.544c-0.84-2.814-1.679-5.597-2.503-8.349
						c-0.373-1.197-0.731-2.379-1.073-3.56c-0.979-3.296-1.974-6.561-2.939-9.764c-0.031-0.062-0.047-0.124-0.062-0.187
						c-0.855-2.83-1.695-5.628-2.534-8.396c-0.451-1.462-0.886-2.892-1.321-4.322c-0.824-2.736-1.648-5.426-2.456-8.085
						c-1.228-4.058-2.441-8.007-3.623-11.847c-0.777-2.55-1.539-5.053-2.301-7.51c7.027-3.389,13.853-6.763,20.461-10.09
						c1.804-0.917,3.607-1.835,5.38-2.736c1.182-0.606,2.348-1.197,3.514-1.804c1.166-0.591,2.317-1.197,3.467-1.788
						c1.011-0.529,2.021-1.042,3.032-1.57c0.124-0.062,0.264-0.14,0.404-0.218c0.56-0.28,1.12-0.575,1.664-0.871
						c1.679-0.871,3.343-1.757,4.991-2.628c2.192-1.151,4.369-2.301,6.483-3.452c0.311-0.155,0.606-0.311,0.902-0.482
						c0.762-0.404,1.524-0.808,2.27-1.228c1.042-0.56,2.068-1.119,3.094-1.664c0,0,0,0,0.016-0.016
						c1.633-0.871,3.234-1.741,4.804-2.612c1.088-0.591,2.177-1.182,3.25-1.772c1.073-0.575,2.13-1.166,3.203-1.741
						c8.349-4.54,16.216-8.769,23.43-12.625c1.026-0.544,2.052-1.073,3.047-1.617c1.026-0.544,2.037-1.073,3.032-1.617
						c1.601-0.84,3.156-1.664,4.68-2.456c1.633-0.871,3.234-1.71,4.773-2.519c0.591,1.477,1.197,2.97,1.803,4.478
						c0.995,2.488,1.99,5.006,3.016,7.587c0.653,1.695,1.337,3.405,2.006,5.131c0.28,0.7,0.544,1.415,0.808,2.115
						c0.311,0.746,0.591,1.493,0.871,2.239c1.026,2.612,2.037,5.271,3.078,7.96v0.016c2.581,6.763,5.208,13.744,7.867,20.943
						c0.684,1.835,1.368,3.669,2.037,5.519c2.674,7.276,5.395,14.739,8.147,22.404c0.933,2.596,1.866,5.208,2.799,7.836
						c2.083,5.862,4.198,11.832,6.328,17.895c0.56,1.617,1.119,3.234,1.695,4.851c1.648,4.711,3.296,9.469,4.96,14.288
						c1.99,5.706,3.965,11.49,5.955,17.32c2.27,6.685,4.571,13.433,6.872,20.274c2.177,6.406,4.338,12.858,6.499,19.372
						c2.161,6.499,4.353,13.06,6.53,19.668c1.461,4.4,2.923,8.831,4.369,13.278c2.907,8.862,5.83,17.818,8.753,26.804
						c1.461,4.493,2.907,9.002,4.369,13.511c0.979,3.032,1.943,6.048,2.938,9.08c3.389,10.557,6.779,21.145,10.137,31.733
						c19.528,61.367,38.512,122.905,55.288,178.254c4.151,13.667,8.162,26.944,12.003,39.771
						c3.716,12.345,7.292,24.27,10.666,35.651c0.124,0.435,0.249,0.855,0.389,1.275c1.322,4.416,2.612,8.753,3.871,13.014
						c0.14,0.482,0.28,0.948,0.42,1.43c1.539,5.131,3.016,10.121,4.447,14.988c0.016,0.031,0.031,0.078,0.047,0.124
						c0.466,1.57,0.917,3.141,1.384,4.695c0.715,2.394,1.415,4.758,2.099,7.074c0.218,0.777,0.451,1.539,0.684,2.301
						c1.026,3.436,2.021,6.779,2.97,10.044c0.218,0.746,0.435,1.477,0.653,2.208c0.544,1.835,1.073,3.623,1.586,5.395
						c0.109,0.373,0.218,0.746,0.326,1.104c1.322,4.447,2.581,8.722,3.763,12.811c0.016,0.078,0.031,0.14,0.062,0.218
						c0.373,1.275,0.746,2.55,1.119,3.794c0.171,0.622,0.358,1.244,0.544,1.866c0.544,1.85,1.073,3.654,1.586,5.411
						c0.171,0.591,0.342,1.166,0.513,1.741c0.684,2.332,1.337,4.555,1.959,6.717c0.155,0.529,0.311,1.073,0.466,1.601
						c0.311,1.057,0.606,2.099,0.917,3.125c0.746,2.55,1.446,4.96,2.115,7.261c0.42,1.384,0.808,2.721,1.166,3.996
						c0.435,1.461,0.84,2.845,1.213,4.151c0.171,0.637,0.358,1.244,0.529,1.85c0.342,1.119,0.653,2.192,0.933,3.203
						c0.187,0.669,0.373,1.322,0.575,1.943c-0.016,0.016-0.016,0.016,0,0.031c0.777,2.674,1.43,4.944,1.959,6.779
						c0.093,0.327,0.187,0.622,0.264,0.886c0.171,0.622,0.342,1.197,0.482,1.695c0.031,0.202,0.062,0.295,0.062,0.295
						c164.743,36.257,433.283-21.907,433.283-21.907c-21.16-216.642-159.473-514.474-208.743-613.233
						c-0.171-0.326-0.295-0.591-0.358-0.762c-0.078-0.124-0.124-0.202-0.124-0.233c0.56,0.233,1.119,0.466,1.679,0.715
						c1.135,0.482,2.301,0.98,3.498,1.477c1.197,0.513,2.441,1.042,3.7,1.586c3.141,1.337,6.452,2.752,9.904,4.213
						c0.016,0,0.016,0.016,0.016,0.016c1.368,0.591,2.767,1.182,4.198,1.772c0.016,0,0.016,0.016,0.016,0.016
						c1.415,0.606,2.861,1.228,4.322,1.835c0.016,0.016,0.016,0.016,0.016,0.016c3.436,1.477,6.981,2.985,10.604,4.54
						c0.466,0.202,0.933,0.389,1.399,0.591c1.306,0.575,2.628,1.15,3.965,1.71c1.788,0.777,3.623,1.555,5.457,2.348
						c1.104,0.482,2.223,0.964,3.343,1.446c1.275,0.56,2.565,1.104,3.871,1.664c1.368,0.606,2.736,1.197,4.105,1.788
						c29.152,12.64,59.517,26.167,78.905,35.869c0.031,0.062,0.062,0.109,0.093,0.171c8.427,15.688,16.994,33.568,25.623,53.049
						c3.312,7.494,6.639,15.221,9.951,23.166c0.047,0.093,0.078,0.171,0.124,0.28c3.98,9.5,7.96,19.295,11.91,29.323
						c0.016,0.062,0.047,0.124,0.078,0.187c2.643,6.67,5.271,13.449,7.883,20.305c6.639,17.382,13.231,35.309,19.714,53.546
						c2.565,7.198,5.115,14.459,7.634,21.751c5.1,14.693,10.122,29.494,15.035,44.28c3.7,11.085,7.323,22.171,10.883,33.179
						c5.348,16.558,10.541,32.977,15.532,49.022c1.461,4.68,2.907,9.329,4.307,13.946c1.353,4.384,2.69,8.722,4.011,13.013
						c0.979,3.218,1.943,6.406,2.907,9.577c1.042,3.436,2.068,6.856,3.094,10.246c1.524,5.006,3.001,9.966,4.447,14.848
						c3.996,13.386,7.789,26.276,11.35,38.512c0.731,2.503,1.462,4.991,2.161,7.432c0.56,1.928,1.104,3.825,1.664,5.722
						c1.182,4.089,2.332,8.1,3.436,12.003c0,0.016,0.016,0.031,0.016,0.047c1.15,3.965,2.254,7.836,3.327,11.614
						c1.928,6.794,3.747,13.262,5.473,19.372c0.264,0.979,0.544,1.959,0.824,2.938c0.047,0.187,0.093,0.373,0.156,0.56
						c0.233,0.855,0.466,1.695,0.7,2.534c0.109,0.389,0.218,0.762,0.327,1.151c0.202,0.731,0.404,1.477,0.606,2.192
						c2.099,7.494,3.98,14.335,5.659,20.445c0.156,0.575,0.311,1.151,0.482,1.71c0.311,1.182,0.637,2.348,0.948,3.467
						c0.156,0.606,0.327,1.213,0.482,1.788c0.7,2.534,1.337,4.897,1.928,7.105c0.171,0.606,0.327,1.197,0.482,1.772
						c2.301,8.458,3.794,14.102,4.4,16.356c0.202,0.762,0.295,1.119,0.295,1.119c49.644,7.852,98.744,23.462,129.248,34.625
						C1946.929,1998.805,1950.412,2000.111,1953.568,2001.324z"/>
				</g>
			</g>
			<g>
				<g>
					<g>
						<path style="fill:#823A41;" d="M967.455,2275.368c-5.395-1.166-10.79-2.363-16.154-3.607
							c3.561-53.733,12.485-97.795,23.259-133.15c9.127-11.987,18.999-23.399,29.618-34.189
							C987.9,2143.508,972.213,2199.479,967.455,2275.368z"/>
					</g>
				</g>
			</g>
			<g>
				<g>
					<path style="fill:#823A41;" d="M1262.88,1989.31c-11.915-41.245-142.469-491.888-218.842-680.719
						c-12.325,6.473-27.985,14.842-45.41,24.356c-17.588,9.644-37.988,20.302-60.481,31.156
						c48.255,157.057,150.606,507.24,162.252,670.715C1100.399,2034.817,1215.649,2080.266,1262.88,1989.31z"/>
				</g>
			</g>
			<g>
				<g>
					
						<ellipse transform="matrix(0.2883 -0.9575 0.9575 0.2883 -1035.8347 2512.6885)" style="fill:#5F252A;" cx="1172.415" cy="1953.17" rx="39.867" ry="39.866"/>
				</g>
			</g>
			<g>
				<g>
					<path style="fill:#823A41;" d="M1813.941,1962.796c-49.888,58.029-117.725,4.904-117.725,4.904
						c-21.152-216.652-159.473-514.478-208.74-613.242c-0.163-0.327-0.294-0.588-0.36-0.752c-0.098-0.163-0.131-0.262-0.131-0.262
						c35.373,15.071,104.55,44.363,139.008,61.625c83.234,154.863,181.573,523.698,187.654,546.615
						C1813.843,1962.437,1813.941,1962.796,1813.941,1962.796z"/>
				</g>
			</g>
			<g>
				<g>
					
						<ellipse transform="matrix(0.229 -0.9734 0.9734 0.229 -516.3403 3179.5815)" style="fill:#5F252A;" cx="1749.019" cy="1915.743" rx="30.707" ry="30.707"/>
				</g>
			</g>
		</g>
		<g>
			<g>
				<path style="fill:#00232C;" d="M1235.843,396.705c-56.492,12.292-102.49,37.106-136.817,71.694
					c-84.117,84.771-98.044,228.159-24.584,388.515c103.438,225.806-50.346,475.411-50.346,475.411
					c-30.109,3.923-58.748,5.59-85.915,5.46l3.825-84.771l-39.59,83.529c-36.615-2.354-70.288-7.977-100.921-15.79l17.392-91.244
					l-53.583,80.75c-30.698-10.135-57.8-22.198-81.306-34.719l33.346-83.398l-64.404,65.417
					c-55.054-34.523-82.973-67.15-82.973-67.15s185.267-75.421,185.267-245.715c0-170.294-119.588-543.967,53.386-675.357
					c170.36-129.429,333.036,3.727,398.127,80.75C1228.814,376.207,1239.668,395.855,1235.843,396.705z"/>
			</g>
			<g>
				<path style="fill:#F7991C;" d="M1235.843,396.705c-56.492,12.292-102.49,37.106-136.817,71.694
					C857.888,588.903,949.197,925.274,949.197,925.274s-170-194.977-71.988-402.605c74.277-157.446,249.279-173.825,329.538-172.583
					C1228.814,376.207,1239.668,395.855,1235.843,396.705z"/>
			</g>
			<g>
				<path style="fill:#00232C;" d="M1100.385,1115.056c0,0-228.014-86.399-223.111-337.71
					c4.904-251.311,144.311-422.853,402.347-388.605C1279.621,388.741,1361.092,1100.968,1100.385,1115.056z"/>
			</g>
			<g>
				<path style="fill:#00232C;" d="M1618.646,577.221c0,0,52.803,207.24,18.982,243.39c-33.822,36.15-83.791-41.456-83.791-41.456
					S1578.457,585.545,1618.646,577.221z"/>
			</g>
			<g>
				<g>
					<g>
						<path style="fill:#EF4A51;" d="M1560.44,851.621c0,0,54.573-64.475,85.418,0c30.845,64.475,7.118,194.975-75.927,173.62
							L1560.44,851.621z"/>
					</g>
				</g>
				<g>
					<g>
						<g>
							<path style="fill:#F27571;" d="M1422.6,1182.532v177.813c0,0-93.739,153.523-373.542-32.496
								c53.009-59.173,54.607-173.526,33.19-241.723c0,0,20.478,13.825,54.394,28.929c6.94,3.105,14.383,6.342,22.297,9.677
								C1228.874,1154.09,1334.075,1189.398,1422.6,1182.532z"/>
						</g>
					</g>
					<g>
						<g>
							<path style="fill:#F27571;" d="M1049.059,1327.849c0,0,227.401,364.516,349.282,316.655
								c121.881-47.862,24.26-308.081,24.26-308.081L1049.059,1327.849z"/>
						</g>
					</g>
					<g>
						<g>
							<path style="fill:#00232C;" d="M1422.6,1182.532v83.234c-76.059-16.934-209.428-58.421-285.958-150.711
								c6.94,3.105,14.383,6.342,22.297,9.677C1228.874,1154.09,1334.075,1189.398,1422.6,1182.532z"/>
						</g>
					</g>
				</g>
				<g>
					<g>
						<path style="fill:#F27571;" d="M1574.62,1124.373c-149.404,154.537-480.969-29.914-491.627-35.896
							c-0.163-0.098-0.261-0.163-0.261-0.163c-3.073-13.829-5.819-27.56-8.304-41.127
							c-21.119-114.946-22.427-221.719-10.756-323.164c-5.59-106.969,58.094-206.583,158.721-243.263
							c104.288-37.988,197.788,7.846,253.986,25.173c84.804,26.154,138.157,135.771,138.648,291.942
							C1615.616,989.55,1611.693,1085.992,1574.62,1124.373z"/>
					</g>
				</g>
				<g>
					<g>
						<path style="fill:#00232C;" d="M1375.91,655.841c0,0,31.002,3.068,20.113,31.482c-10.889,28.414-73.085-2.902-117.59,49.453
							C1278.432,736.776,1259.506,668.607,1375.91,655.841z"/>
					</g>
				</g>
				<g>
					<g>
						<path style="fill:#00232C;" d="M1516.401,655.841c0,0-31.003,3.068-20.113,31.482c10.889,28.414,73.085-2.902,117.59,49.453
							C1613.878,736.776,1632.804,668.607,1516.401,655.841z"/>
					</g>
				</g>
				<g style="opacity:0.8;">
					<g>
						<g>
							<path style="fill:#EF4A51;" d="M1365.946,877.475c0,14.463-29.79,26.188-66.537,26.188
								c-36.747,0-66.537-11.725-66.537-26.188c0-14.463,29.79-26.188,66.537-26.188
								C1336.156,851.287,1365.946,863.011,1365.946,877.475z"/>
						</g>
					</g>
				</g>
				<g style="opacity:0.8;">
					<g>
						<g>
							<path style="fill:#EF4A51;" d="M1637.034,902.899c-5.131,0.513-10.518,0.77-16.034,0.77
								c-36.717,0-66.507-11.737-66.507-26.199c0-14.462,29.79-26.199,66.507-26.199c4.97,0,9.813,0.224,14.462,0.641
								L1637.034,902.899z"/>
						</g>
					</g>
				</g>
				<g>
					<g>
						<g>
							<ellipse style="fill:#00232C;" cx="1357.942" cy="797.863" rx="20.125" ry="35.968"/>
						</g>
					</g>
					<g>
						<g>
							<path style="fill:#00232C;" d="M1574.604,797.863c0,19.865-9.01,35.968-20.125,35.968c-11.115,0-20.125-16.103-20.125-35.968
								c0-19.865,9.01-35.968,20.125-35.968C1565.593,761.895,1574.604,777.998,1574.604,797.863z"/>
						</g>
					</g>
					<g>
						<g>
							<path style="fill:#00232C;" d="M1478.852,987.386c-50.505,0-94.859-35.866-95.5-36.396c-3.483-2.87-3.98-8.021-1.109-11.505
								c2.87-3.485,8.015-3.98,11.498-1.114l0,0c3.362,2.758,82.992,66.893,142.749,8.483c3.228-3.156,8.401-3.097,11.557,0.131
								c3.156,3.228,3.097,8.403-0.131,11.557C1525.976,979.989,1501.775,987.386,1478.852,987.386z"/>
						</g>
					</g>
					<g>
						<g>
							<path style="fill:#00232C;" d="M1486.077,873.629c-10.212,0-23.964-1.833-37.773-9.262
								c-3.976-2.139-5.466-7.094-3.327-11.069c2.136-3.978,7.1-5.462,11.069-3.327c12.665,6.811,25.338,7.656,33.49,7.246
								l-26.939-77.18c-1.488-4.261,0.761-8.922,5.024-10.409c4.259-1.486,8.922,0.761,10.409,5.024l30.24,86.635
								c0.753,2.16,0.568,4.537-0.512,6.555c-1.081,2.016-2.958,3.488-5.175,4.056
								C1502.046,872.034,1495.6,873.629,1486.077,873.629z"/>
						</g>
					</g>
				</g>
				<g>
					<g>
						<path style="fill:#00232C;" d="M1147.626,1007.89c-0.948,2.223-27.069,62.802-64.633,80.587c-0.033,0-0.033,0.033-0.065,0.033
							c-0.131-0.131-0.196-0.196-0.196-0.196c-3.073-13.829-5.819-27.56-8.304-41.127
							C1075.834,1046.958,1113.757,1040.353,1147.626,1007.89z"/>
					</g>
				</g>
				<g>
					<g>
						<path style="fill:#F27571;" d="M1111.233,869.934c0,0-79.428-106.691-137.618-22.852
							c-47.952,69.089,42.339,253.032,139.44,185.831L1111.233,869.934z"/>
					</g>
				</g>
				<g>
					<g>
						<path style="fill:#00232C;" d="M1100.375,1002.401c-4.115,0-7.658-3.098-8.116-7.284
							c-8.831-80.746-76.471-108.897-79.346-110.055c-4.181-1.686-6.214-6.441-4.538-10.625c1.678-4.181,6.412-6.227,10.604-4.554
							c3.247,1.293,79.604,32.718,89.53,123.456c0.49,4.487-2.749,8.523-7.236,9.014
							C1100.972,1002.385,1100.672,1002.401,1100.375,1002.401z"/>
					</g>
				</g>
				<g>
					<g>
						<path style="fill:#00232C;" d="M1024.107,952.857c-2.374,0-4.728-1.03-6.344-3.014c-2.85-3.502-2.321-8.65,1.18-11.498
							c3.261-2.653,32.553-25.747,57.114-19.457c4.372,1.119,7.009,5.571,5.891,9.945c-1.121,4.374-5.586,7.008-9.945,5.89
							c-14.092-3.604-36.135,10.925-42.741,16.3C1027.745,952.257,1025.92,952.857,1024.107,952.857z"/>
					</g>
				</g>
			</g>
			<g>
				<path style="fill:#00232C;" d="M1453.286,400.9c76.558,21.656,141.852,73.004,178.085,143.837
					c22.701,44.38,45.086,104.056-21.784,105.859c-182.417,4.919-305.96-166.731-305.96-166.731s-9.386,176.538-153.232,176.538
					c-143.846,0-155.157-106.794-84.117-178.718C1124.186,423.058,1283.398,352.844,1453.286,400.9z"/>
			</g>
			<g>
				<path style="fill:#00232C;" d="M1133.405,627.808c0,0,50.9,218.549-11.344,251.008
					c-62.244,32.459-115.57-148.669-87.208-301.233L1133.405,627.808z"/>
			</g>
		</g>
		<g>
			<g>
				<g>
					<g>
						<g>
							<path style="fill:#F27571;" d="M953.835,1736.313l-0.871,1.57l-128.471,225.986c-21.549,37.703-42.849,75.5-64.057,113.296
								l-31.935,56.625l-20.181,36.179l-6.203,11.148c-41.372-21.021-81.221-44.591-119.375-70.509
								c-52.8-35.853-102.335-76.199-148.03-120.464c-16.869-16.341-33.225-33.225-49.022-50.623l28.281-53.049
								c21.145-39.071,42.383-78.081,63.839-116.919c10.697-19.419,21.58-38.76,32.432-58.086
								c10.852-19.341,21.705-38.698,32.744-57.946l23.835-41.512l9.313-16.216l33.987-57.9
								c55.505-94.499,177.104-126.139,271.618-70.633C975.385,1522.268,1007.288,1642.203,953.835,1736.313z"/>
						</g>
					</g>
				</g>
			</g>
			<g>
				<g>
					<g>
						<g>
							<path style="fill:#EF4A51;" d="M708.322,2169.97l-6.203,11.148c-41.372-21.021-81.221-44.591-119.375-70.509
								c-52.8-35.853-102.335-76.199-148.03-120.464l143.832,94.53L708.322,2169.97z"/>
						</g>
					</g>
				</g>
			</g>
			<g>
				<g>
					<g>
						<path style="fill:#EE3A4D;" d="M1016.975,1701.067c-9.966,60.978-39.802,136.369-75.655,210.516
							c-2.115,4.385-4.26,8.785-6.437,13.153c-57.682,116.841-128.315,228.271-157.203,272.52
							c-4.12,6.328-7.401,11.288-9.655,14.677c-0.404-0.171-0.793-0.342-1.182-0.513c-5.162-2.208-10.308-4.462-15.439-6.763
							c-16.651-7.447-33.086-15.283-49.286-23.539c-41.372-21.021-81.221-44.591-119.375-70.509
							c-52.8-35.853-102.335-76.199-148.03-120.464c-16.869-16.341-33.225-33.225-49.022-50.623
							c-10.806-11.878-21.331-23.974-31.593-36.319c29.883-51.261,78.345-135.576,151.512-265.835
							c142.946-254.516,324.216-233.433,324.216-233.433s2.488,1.042,6.903,3.187c25.809,12.563,117.416,62.751,161.541,161.51
							c0,0.016,0.016,0.016,0.016,0.031c0.14,0.264,0.249,0.544,0.358,0.808c9.111,20.523,16.138,43.114,20.119,67.897
							c0.482,3.032,0.871,6.141,1.151,9.329c0.031,0.358,0.062,0.7,0.093,1.057c0,0.016,0,0.016,0,0.031
							C1021.312,1663.752,1020.146,1681.678,1016.975,1701.067z"/>
					</g>
				</g>
			</g>
			<g>
				<g>
					<path style="fill:#C92036;" d="M1023.691,1709.929c-0.466,4.789-8.023,72.499-62.377,189.76
						c-3.98,8.582-8.209,17.445-12.718,26.556c-36.553,74.069-90.736,165.35-170.916,271.012
						c-3.545,4.696-7.168,9.406-10.837,14.164c-5.162-2.208-10.308-4.462-15.439-6.763
						c234.459-302.9,255.822-494.386,256.024-496.329c0.451-4.493,4.462-7.758,8.94-7.339c0.202,0.016,0.404,0.047,0.606,0.078
						C1021.157,1701.813,1024.127,1705.637,1023.691,1709.929z"/>
				</g>
			</g>
			<g>
				<g>
					<path style="fill:#C92036;" d="M941.945,1928.782c-2.862,0-5.64-1.504-7.137-4.176c-2.208-3.94-0.805-8.92,3.134-11.126
						c67.298-37.718,94.097-68.967,94.361-69.28c2.907-3.445,8.065-3.889,11.511-0.987c3.45,2.902,3.903,8.042,1.007,11.497
						c-1.135,1.357-28.627,33.653-98.888,73.028C944.668,1928.447,943.297,1928.782,941.945,1928.782z"/>
				</g>
			</g>
		</g>
	</g>
</g>
</svg>
