<?xml version="1.0" encoding="utf-8"?>
<!-- Generator: Adobe Illustrator 27.5.0, SVG Export Plug-In . SVG Version: 6.00 Build 0)  -->
<svg version="1.1" id="Layer_1" xmlns="http://www.w3.org/2000/svg" xmlns:xlink="http://www.w3.org/1999/xlink" x="0px" y="0px"
	 viewBox="0 0 1800 1800" style="enable-background:new 0 0 1800 1800;" xml:space="preserve">
<path style="fill:#FCE0D4;" d="M1694.962,899.995c0,228.93-96.77,435.26-251.64,580.32c-23.3,21.83-47.92,42.27-73.73,61.2
	c-18.62,13.65-37.86,26.51-57.67,38.54c-60.53,36.74-126.35,65.63-196.06,85.25c-1.9,0.54-3.81,1.06-5.72,1.58
	c-1.6,0.45-3.21,0.88-4.82,1.3c-2.72,0.73-5.44,1.44-8.17,2.13c-3.76,0.97-7.53,1.9-11.31,2.8
	c-59.62,14.29-121.84,21.85-185.84,21.85c-116.8,0-227.72-25.19-327.62-70.43c-15.92-7.21-31.56-14.93-46.89-23.13
	c-3.32-1.78-6.63-3.58-9.91-5.4c-25.15-13.92-49.46-29.16-72.84-45.64c-4.43-3.11-8.83-6.28-13.19-9.49
	c-20.29-14.92-39.84-30.77-58.6-47.51c-1.89-1.69-3.78-3.38-5.65-5.1c-1.59-1.43-3.16-2.88-4.73-4.33c-0.98-0.9-1.95-1.8-2.91-2.7
	c-20.43-19.06-39.84-39.19-58.16-60.29c-43.95-50.62-81.61-106.86-111.76-167.49c-52.93-106.47-82.7-226.49-82.7-353.46
	c0-439.04,355.91-794.96,794.96-794.96C1339.042,105.035,1694.962,460.955,1694.962,899.995z"/>
<g>
	<g>
		<g>
			<path style="fill:#804E30;" d="M1047.334,325.661c0,0-9.362-101.98,143.547-105.62c152.91-3.641,171.113,147.911,134.706,210.482
				c-36.407,62.571-84.404,72.332-167.472,45.287C1075.047,448.764,1047.334,325.661,1047.334,325.661z"/>
		</g>
		<g>
			<path style="fill:#804E30;" d="M998.521,282.637c0,0-246.885-62.185-346.97,158.924c-49.98,110.419,0.632,441.956-63.652,526.231
				c0,0,416.205,145.624,658.497-4.464c0,0-40.523-217.288-22.043-321.756C1242.834,537.102,1271.58,324.263,998.521,282.637z"/>
		</g>
	</g>
	<g>
		<g>
			<path style="fill:#7578AA;" d="M582.272,928.885c0,0-0.66,1.44-1.9,4.2c-4.14,9.17-14.79,32.86-29.42,66.12
				c-4.6,10.45-9.59,21.84-14.9,34.03c-0.67,1.54-1.34,3.1-2.02,4.66c-13.02,29.94-27.81,64.39-43.28,101.18
				c-18.16,43.2-37.25,89.62-55.48,135.76c-1.22,3.1-2.44,6.2-3.65,9.29c-0.25,0.63-0.49,1.26-0.74,1.89
				c-6.8,17.34-13.46,34.59-19.88,51.58c-1.32,3.51-2.64,7.01-3.94,10.5c-3.76,10.03-7.42,19.96-10.98,29.74
				c-12.28,33.82-23.23,65.86-32.02,94.52c-1.21,3.93-2.37,7.79-3.49,11.58c-0.98-0.9-1.95-1.8-2.91-2.7
				c-20.43-19.06-39.84-39.19-58.16-60.29c-43.95-50.62-81.61-106.86-111.76-167.49c60.61-84.62,152.14-209.8,217.13-298.38
				c0-0.01,0-0.01,0-0.01c0.91-1.24,1.81-2.45,2.7-3.67c13.7-18.67,26.16-35.62,36.81-50.12c5.5-7.47,10.51-14.3,14.97-20.36
				c14.62-19.87,23.27-31.61,23.27-31.61s9.42,2.39,22.5,7.56C532.432,867.635,575.672,890.505,582.272,928.885z"/>
		</g>
		<g>
			<g>
				<path style="fill:#36336A;" d="M405.901,960.222c31.075,39.795,74.21,67.257,123.343,78.805
					c6.835,1.607,9.754-8.922,2.904-10.533c-47.495-11.162-88.511-37.563-118.525-75.996
					C409.301,946.965,401.621,954.743,405.901,960.222L405.901,960.222z"/>
			</g>
		</g>
		<g>
			<path style="fill:#7578AA;" d="M572.382,1624.535c-15.92-7.21-31.56-14.93-46.89-23.13c-3.32-1.78-6.63-3.58-9.91-5.4
				c-25.15-13.92-49.46-29.16-72.84-45.64c-4.43-3.11-8.83-6.28-13.19-9.49c-20.29-14.92-39.84-30.77-58.6-47.51
				c-1.89-1.69-3.78-3.38-5.65-5.1c-1.59-1.43-3.16-2.88-4.73-4.33c-0.98-0.9-1.95-1.8-2.91-2.7
				c-20.43-19.06-39.84-39.19-58.16-60.29c30.3-34.78,71.4-80.05,110.86-117.38c6.34-6,12.64-11.8,18.84-17.3
				c0.81-0.73,1.62-1.44,2.42-2.14c4.05-3.58,8.06-7.02,12.02-10.32c34.9-29.11,65.3-46.77,81.15-38.13
				c10.08,5.5,21.14,18.97,31.67,38.27c2.07,3.8,4.13,7.83,6.15,12.07C599.142,1362.595,625.162,1507.695,572.382,1624.535z"/>
		</g>
		<g>
			<g>
				<path style="fill:#D2CCB3;" d="M572.521,1014.618l-112.283-80.225c-19.103-13.651-21.651-51.634-5.092-75.879l200.259-293.209
					c10.993-16.097,27.247-20.927,39.929-11.865l112.281,80.227c19.103,13.649,21.653,51.634,5.093,75.879L612.45,1002.755
					C601.456,1018.85,585.203,1023.68,572.521,1014.618z"/>
			</g>
			<g>
				<path style="fill:#FFFFFF;" d="M583.856,1022.719l-112.281-80.227c-19.103-13.649-21.653-51.634-5.093-75.879l200.259-293.209
					c10.993-16.097,27.247-20.925,39.93-11.865l112.281,80.226c19.103,13.649,21.653,51.634,5.093,75.88l-200.259,293.209
					C612.791,1026.951,596.539,1031.78,583.856,1022.719z"/>
			</g>
			<g>
				<path style="fill:#D2CCB3;" d="M814.766,675.297c-0.089-0.637-0.238-1.706-2.11-3.044l-112.279-80.225
					c-0.293-0.209-0.588-0.391-0.89-0.552c-4.773-2.541-12.675-0.623-18.54,7.966L498.693,866.287
					c23.736,17.743,45.554,38.267,68.769,56.611c18.269,14.435,36.573,28.829,54.958,43.115l187.418-274.407
					C814.571,684.674,815.132,677.908,814.766,675.297z"/>
			</g>
			<g>
				<path style="fill:#E87E5A;" d="M475.889,825.267c0,0,22.929-158.543,109.51-210.733c67.67-40.79,103.421,17.616,117.553,37.749
					c14.133,20.135-18.258,43.106-45.978,18.952c-27.721-24.154-60.459-12.766-60.459-12.766s40.918,19.793,49.109,33.702
					c8.192,13.908-17.383,43.556-24.374,67.741c-6.992,24.183-39.143,36.593-38.242,13.542
					c1.491-38.249,25.414-44.915,10.159-61.723s-36.216-2.277-36.216-2.277S498.595,813.89,475.889,825.267z"/>
			</g>
			<g>
				<path style="fill:#E87E5A;" d="M551.168,704.489c0,0,24.875,4.882,25.228,21.802c0.353,16.918-4.68,38.184-3.843,53.881
					c0.837,15.695-6.641,47.6-23.016,37.299c-13.489-8.485-4.464-47.402-14.097-51.824c-9.633-4.423-26.574-7.238-26.574-7.238
					S543.201,702.721,551.168,704.489z"/>
			</g>
		</g>
	</g>
	<g>
		<g>
			<g>
				<path style="fill:#7578AA;" d="M1369.592,1541.515c-18.62,13.65-37.86,26.51-57.67,38.54
					c-60.53,36.74-126.35,65.63-196.06,85.25c-1.9,0.54-3.81,1.06-5.72,1.58c-1.6,0.45-3.21,0.88-4.82,1.3
					c-2.72,0.73-5.44,1.44-8.17,2.13c-3.76,0.97-7.53,1.9-11.31,2.8c-59.62,14.29-121.84,21.85-185.84,21.85
					c-116.8,0-227.72-25.19-327.62-70.43c-15.92-7.21-31.56-14.93-46.89-23.13c-3.32-1.78-6.63-3.58-9.91-5.4
					c-25.15-13.92-49.46-29.16-72.84-45.64c-4.43-3.11-8.83-6.28-13.19-9.49c-4.14-48.81-9.28-93.19-13.2-133.48
					c0-0.02-0.01-0.03-0.01-0.04v-0.01c-2.41-24.78-4.36-48-5.34-69.75c-0.52-11.78-0.76-23.12-0.64-34.03
					c0.06-4.81,0.18-9.53,0.39-14.18c1.36-30.96,6.18-58.35,16.53-82.46c10.01-23.27,33.39-46.25,63.47-67.85
					c0.25-0.17,0.49-0.34,0.73-0.51c0.27-0.2,0.54-0.39,0.81-0.58c1.97-1.4,3.95-2.79,5.97-4.18c0.77-0.52,1.55-1.05,2.33-1.58
					c39.62-26.83,88.76-51.27,134.06-71.14c40.71-17.83,78.28-31.98,103.09-40.87h0.01c5.19-1.85,9.81-3.48,13.8-4.86
					c4.32-1.5,7.88-2.71,10.56-3.61h0.01c3.77-1.27,5.82-1.93,5.82-1.93l20.33-1.1c0,0,0,0,0.01,0l85.82-4.67l4.15-0.23l2.14-0.11
					l71.83-3.9l41.41-2.25c0,0,1.26,0.61,3.64,1.77c4.12,2.02,11.61,5.7,21.73,10.79c8.75,4.41,19.48,9.86,31.71,16.2
					c15.99,8.29,34.56,18.09,54.65,29.01c26.43,14.38,55.52,30.73,84.87,48.17c84.21,50.02,170.49,109,202.2,156.37
					c16.31,24.35,25.38,49.33,28.54,75.54C1428.292,1394.945,1405.522,1461.055,1369.592,1541.515z"/>
			</g>
		</g>
		<g>
			<g>
				<path style="fill:#A8B4D8;" d="M969.691,1029.607c-68.755,49.188-85.11,143.504-44.293,216.023
					c45.015,79.974,138.068,112.558,225.818,98.876c6.925-1.079,3.983-11.607-2.903-10.533
					c-80.907,12.615-167.323-16.809-210.755-89.159c-40.561-67.564-28.139-158.713,37.645-205.776
					C980.871,1034.984,975.423,1025.506,969.691,1029.607L969.691,1029.607z"/>
			</g>
		</g>
		<g>
			<g>
				<path style="fill:#7578AA;" d="M427.332,1337.025c0.06,0.46,0.2,1.71,0.31,3.69
					C427.472,1338.745,427.372,1337.495,427.332,1337.025z"/>
				<path style="fill:#7578AA;" d="M429.552,1540.875c-20.29-14.92-39.84-30.77-58.6-47.51c23.35-32.66,37.21-61.88,45.38-85.98
					c0.01-0.01,0.01-0.02,0.01-0.03v-0.01c0.01-0.01,0.02-0.02,0.02-0.03c0.01-0.03,0.02-0.06,0.03-0.08c0-0.01,0-0.01,0-0.02
					c1.19-3.49,2.25-6.87,3.19-10.13c8.33-28.46,8.47-48.38,8.06-56.37c0.7,8.51,2.5,30.45,4.81,60.7
					c0.29,3.76,0.58,7.64,0.88,11.64c2.85,37.93,6.31,86.49,9.41,137.31C438.312,1547.255,433.912,1544.085,429.552,1540.875z"/>
			</g>
		</g>
		<g>
			<g>
				<g>
					<path style="fill:#A8B4D8;" d="M885.975,1003.412c-29.235,85.302-99.246,152.764-188.406,176.174
						c-69.647,18.276-153.783,6.772-206.1-41.031c2.985-2.112,6.007-4.223,9.102-6.335c52.463,46.637,137.873,54.538,205.554,33.567
						c79.331-24.647,140.385-85.629,167.982-161.756L885.975,1003.412z"/>
				</g>
			</g>
			<g>
				<g>
					<path style="fill:#A8B4D8;" d="M1065.792,1624.005c10.41,14.91,20.83,30.43,31.36,46.31c-3.76,0.97-7.53,1.9-11.31,2.8
						c-6.11-9.25-12.26-18.45-18.49-27.59c-55.99-82.21-120.65-159.03-198.02-221.98c-87.32-71.04-195.42-122.42-306.72-137.53
						c-43.77-5.95-88.04-6.28-131.73,0c-0.56,0.08-1.12,0.16-1.68,0.25c-6.16,0.9-12.31,1.94-18.45,3.12
						c0.18-3.67,0.37-7.28,0.66-10.81c7.92-1.45,15.87-2.7,23.86-3.74c2.78-0.37,5.58-0.71,8.37-1.03
						c37.35-4.21,75.26-4.03,112.82,0.14c17.06,1.9,34.05,4.62,50.89,8.13C802.022,1322.705,955.112,1465.565,1065.792,1624.005z"/>
				</g>
			</g>
			<g>
				<g>
					<path style="fill:#A8B4D8;" d="M525.492,1601.405c-3.32-1.78-6.63-3.58-9.91-5.4c30.07-28.17,54.12-63.58,35.01-101.28
						c-20.79-41.03-72.74-66.12-117.23-81.66c-0.01,0-0.02-0.01-0.03-0.01c-5.78-2.08-11.48-3.92-16.94-5.63
						c-0.02-0.03-0.03-0.03-0.04-0.03c0,0-0.01-0.01-0.02-0.01h-0.01c0.01-0.01,0.02-0.02,0.02-0.03v-0.01
						c0.01-0.01,0.02-0.02,0.02-0.03c0.01-0.03,0.02-0.06,0.03-0.08c0-0.01,0-0.01,0-0.02c-0.4-3.88-0.8-7.7-1.12-11.48
						c1.44,0.44,2.9,0.87,4.31,1.35c0.01,0,0.01,0,0.02,0c4.29,1.34,8.59,2.8,12.85,4.33c7.35,2.58,14.67,5.42,21.88,8.48
						c43.83,18.53,105.44,49.51,113.26,102.52C572.722,1547.195,551.292,1576.995,525.492,1601.405z"/>
				</g>
			</g>
			<g>
				<g>
					<path style="fill:#A8B4D8;" d="M633.562,1967.175"/>
				</g>
			</g>
		</g>
		<g>
			<g>
				<path style="fill:#36336A;" d="M393.992,1437.535c-7.2,18.94-17.2,35.3-28.69,50.73c-1.59-1.43-3.16-2.88-4.73-4.33
					c-0.98-0.9-1.95-1.8-2.91-2.7c2.21-2.9,4.35-5.86,6.4-8.88c2.19-3.25,4.29-6.57,6.25-9.99c14.92-26.02,23.54-54.98,25.77-84.53
					c1.33-17.42,0.43-35.04-2.7-52.39c-1.24-6.88,9.28-9.81,10.53-2.9c1.53,8.49,2.58,17.02,3.15,25.55
					C409.062,1378.415,404.892,1408.825,393.992,1437.535z"/>
			</g>
		</g>
	</g>
	<g>
		<g>
			<g>
				<g>
					<path style="fill:#E87E5A;" d="M1018.236,1042.058c0,0-170.405,153.725-294.422,18.018l29.218-83.576l31.882-91.196
						l22.31-63.849l218.326-82.689L1018.236,1042.058z"/>
				</g>
			</g>
			<g>
				<g>
					<path style="fill:#241E22;" d="M964.557,839.484C853.749,988.281,779.262,984.5,753.032,976.5l31.882-91.196L964.557,839.484z"
						/>
				</g>
			</g>
		</g>
		<g>
			<g>
				<path style="fill:#E87E5A;" d="M1096.047,703.222c-29.302,62.578-51.29,81.271-109.693,137.402
					c-52.124,50.098-130.73,67.253-169.087,64.335c-139.364-10.594-194.621-76.375-148.377-260.39
					c28.743-114.256,6.846-183.961,43.323-224.109l0.053,0.011c2.306-1.753,4.611-3.45,6.914-5.093
					c55.43-39.589,124.665-54.927,192.058-45.039C1246.187,419.487,1138.099,613.407,1096.047,703.222z"/>
			</g>
		</g>
		<g>
			<g>
				<path style="fill:#FFFFFF;" d="M718.489,704.751c0,0,40.916,6.553,121.197,19.898c0,0-28.13,82.669-84.943,66.754
					C706.559,777.905,718.489,704.751,718.489,704.751z"/>
			</g>
		</g>
		<g>
			<g>
				<path style="fill:#241E22;" d="M747.63,621.344c-2.259,9.264-9.722,15.4-16.671,13.705c-6.946-1.695-10.747-10.578-8.488-19.842
					c2.261-9.264,9.724-15.398,16.671-13.704C746.09,603.199,749.889,612.082,747.63,621.344z"/>
			</g>
		</g>
		<g>
			<g>
				<path style="fill:#241E22;" d="M851.583,632.181c-2.259,9.264-9.722,15.4-16.671,13.705
					c-6.946-1.695-10.747-10.578-8.488-19.842c2.261-9.264,9.724-15.398,16.671-13.704
					C850.043,614.035,853.843,622.919,851.583,632.181z"/>
			</g>
		</g>
		<g>
			<g>
				<path style="fill:#241E22;" d="M785.842,618.47c-6.244,9.311-12.941,18.258-20.386,26.65
					c-6.378,7.19-16.385,13.898-20.43,22.833c-6.896,15.233,8.057,23.071,20.717,25.296c6.928,1.216,8.368-9.61,1.453-10.826
					c-6.765-0.071-16.636-2.65-9.346-13.88c2.117-2.077,4.231-4.158,6.339-6.242c3.379-3.409,6.699-6.868,9.881-10.462
					c7.435-8.399,14.14-17.337,20.386-26.65C798.356,619.371,789.762,612.626,785.842,618.47L785.842,618.47z"/>
			</g>
		</g>
		<g>
			<path style="fill:#804E30;" d="M769.41,341.647c0,0-91.718,75.06-100.176,140.453c0,0,194.304,58.639,320.229,49.384
				c0,0-13.15,79.509,13.48,98.361c26.632,18.85,74.123,29.774,113.963,58.093c39.84,28.317,58.57-98.587,38.85-179.596
				C1136.036,427.333,992.543,291.149,769.41,341.647z"/>
		</g>
		<g>
			<g>
				<path style="fill:#3C2416;" d="M724.094,492.758c17.597-38.289,40.139-73.513,67.733-105.38c4.58-5.29-3.113-13.048-7.724-7.724
					c-28.188,32.555-51.452,68.451-69.441,107.592C711.749,493.588,721.158,499.144,724.094,492.758L724.094,492.758z"/>
			</g>
		</g>
		<g>
			<g>
				<path style="fill:#3C2416;" d="M814.396,513.055c16.886-40.122,33.771-80.245,50.657-120.367
					c2.721-6.47-7.842-9.295-10.533-2.905c-16.886,40.124-33.769,80.247-50.655,120.369
					C801.143,516.621,811.708,519.446,814.396,513.055L814.396,513.055z"/>
			</g>
		</g>
		<g>
			<g>
				<path style="fill:#3C2416;" d="M923.523,404.679c-10.704,39.656-18.686,79.817-24.147,120.524
					c-0.932,6.943,9.999,6.875,10.922,0c5.328-39.718,13.314-78.934,23.756-117.618
					C935.889,400.789,925.356,397.891,923.523,404.679L923.523,404.679z"/>
			</g>
		</g>
		<g>
			<g>
				<path style="fill:#3C2416;" d="M991.174,537.566c36.389-0.741,73.91-3.899,97.733-34.801c4.287-5.561-5.195-11.006-9.431-5.512
					c-21.078,27.342-56.626,28.747-88.302,29.391C984.155,526.788,984.131,537.71,991.174,537.566L991.174,537.566z"/>
			</g>
		</g>
		<g>
			<g>
				<g>
					<path style="fill:#B3462C;" d="M743.011,813.584c12.821,7.067,27.329,9.779,40.221,1.48c6.537-4.207-0.306-14.131-6.826-9.934
						c-9.207,5.927-19.274,2.49-28.126-2.39C741.471,798.987,736.242,809.852,743.011,813.584L743.011,813.584z"/>
				</g>
			</g>
		</g>
		<g>
			<g>
				<path style="fill:#B3462C;" d="M921.795,694.133c-1.835,9.906-18.737,15.083-37.75,11.559
					c-19.012-3.522-32.938-14.41-31.103-24.318c1.837-9.906,18.737-15.083,37.75-11.559
					C909.706,673.337,923.632,684.224,921.795,694.133z"/>
			</g>
		</g>
		<g>
			<g>
				<path style="fill:#B3462C;" d="M722.958,667.783c-1.842,9.937-18.748,15.094-37.732,11.577
					c-8.954-1.658-16.78-4.951-22.336-8.987c1.789-8.346,3.772-16.949,5.992-25.798c0.069-0.375,0.186-0.741,0.248-1.069
					c6.422-1.429,14.395-1.551,22.74-0.005C710.855,647.018,724.792,657.891,722.958,667.783z"/>
			</g>
		</g>
		<g>
			<g>
				<g>
					<path style="fill:#241E22;" d="M853.661,578.38c14.397-2.65,31.893,2.982,34.945,19.139
						c2.849,15.082,26.908,13.214,24.023-2.066c-5.379-28.476-32.41-46.364-61.035-41.096
						C836.49,557.137,838.365,581.196,853.661,578.38L853.661,578.38z"/>
				</g>
			</g>
		</g>
		<g>
			<g>
				<g>
					<path style="fill:#241E22;" d="M713.86,570.551c11.19-9.562,25.623-23.681,41.393-16.565
						c14.139,6.379,24.693-15.302,10.536-21.688c-25.114-11.33-46.697,2.248-65.584,18.387
						C688.516,560.675,702.059,580.636,713.86,570.551L713.86,570.551z"/>
				</g>
			</g>
		</g>
		<g>
			<g>
				<g>
					<g>
						<path style="fill:#E87E5A;" d="M956.142,731.728c-3.69-25.499,5.616-51.092,23.406-69.745
							c23.044-24.163,64.056-60.321,95.133-50.069c45.678,15.069,43.621,57.76,31.252,99.36
							c-12.369,41.6-50.427,92.086-107.282,72.423C970.224,773.864,959.164,752.606,956.142,731.728z"/>
					</g>
					<g>
						<path style="fill:#FFFFFF;" d="M1080.312,836.235l-26.94-55.36v-0.01l-2.48-5.09l-8.29-17.05c-0.8-1.64-2.37-2.78-4.18-3.02
							c-1.81-0.24-3.63,0.44-4.84,1.81l-8.72,9.95l-16.61,18.94l-31.49,35.92c-1.4,1.59-1.75,3.86-0.9,5.8l6.95,15.81l29.91,68.08
							c0.76,1.74,2.39,2.96,4.27,3.21c0.25,0.04,0.49,0.05,0.73,0.05c1.32,0,2.61-0.48,3.6-1.36c0.23-0.2,0.44-0.42,0.64-0.66
							l57.68-71.2C1080.982,840.415,1081.242,838.135,1080.312,836.235z M1021.752,896.165l-2.63,3.25l-27.89-63.47v-0.01
							l-3.97-9.02l34.09-38.88l3.1-3.53l11.93-13.61l6.67,13.72l0.2,0.4l25.72,52.87L1021.752,896.165z"/>
					</g>
				</g>
			</g>
			<g>
				<g>
					<g>
						<g>
							<path style="fill:#241E22;" d="M1019.401,734.999c0.499-17.781,2.259-36.192,11.41-51.896
								c8.173-14.028,28.328-33.047,46.49-23.721c6.087,3.127,12.014-5.825,5.878-8.974c-17.499-8.987-36.807-0.905-50.074,12.242
								c-19.139,18.964-23.697,46.071-24.424,71.902C1008.488,741.438,1019.206,741.926,1019.401,734.999L1019.401,734.999z"/>
						</g>
					</g>
				</g>
			</g>
		</g>
	</g>
	<g>
		<g>
			<g>
				<path style="fill:#241E22;" d="M1020.176,951.095c-32.522,35.795-82.93,61.715-131.36,65.669
					c-45.367,3.704-98.141,2.807-135.423-26.925c-0.417-0.331-3.77-2.101-4.198-2.365c-6.719,0.71-10.132,11.177-7.482,21.4
					c41.713,30.099,97.101,33.802,147.103,29.734c46.559-3.788,96.333-25.915,130.869-56.587
					C1025.617,971.587,1028.137,962.017,1020.176,951.095z"/>
			</g>
		</g>
	</g>
	<g>
		<g>
			<g>
				<path style="fill:#7578AA;" d="M1443.322,1480.315c-23.3,21.83-47.92,42.27-73.73,61.2c-18.62,13.65-37.86,26.51-57.67,38.54
					c-60.53,36.74-126.35,65.63-196.06,85.25c-1.9,0.54-3.81,1.06-5.72,1.58l-21.8-98.47l-28.52-128.85
					c2.94-12.41,6.37-24.13,10.3-35.24c7.6-21.5,16.95-40.56,27.72-57.21c2.32-3.58,4.7-7.05,7.14-10.41
					c15.59-21.43,33.71-38.37,53.5-50.96c79.58-50.75,186.04-31.09,262.49,49.66c0.48,0.48,0.95,0.95,1.39,1.42
					C1422.362,1336.825,1431.052,1394.495,1443.322,1480.315z"/>
			</g>
		</g>
		<g>
			<path style="fill:#E87E5A;" d="M1443.322,1480.315c-23.3,21.83-47.92,42.27-73.73,61.2c-18.62,13.65-37.86,26.51-57.67,38.54
				c-80.05-42.4-121.83-106.17-140.7-175.73c-10.48-38.63-13.83-79.08-12.74-118.58c1.82-67.97,16.89-133.28,31.75-182.25
				c84.21,50.02,170.49,109,202.2,156.37c16.31,24.35,25.38,49.33,28.54,75.54c0.48,0.48,0.95,0.95,1.39,1.42
				C1422.362,1336.825,1431.052,1394.495,1443.322,1480.315z"/>
		</g>
	</g>
	<g>
		<g>
			<path style="fill:#36336A;" d="M1088.342,1568.415c9.46,32.23,18.81,64.47,27.52,96.89c-1.9,0.54-3.81,1.06-5.72,1.58
				c-1.6,0.45-3.21,0.88-4.82,1.3c-22.81-84.92-50.03-168.6-72.06-254.18c-1.76-6.82,8.78-9.71,10.53-2.9
				C1057.412,1464.015,1073.022,1516.205,1088.342,1568.415z"/>
		</g>
	</g>
</g>
</svg>
