<?xml version="1.0" encoding="utf-8"?>
<!-- Generator: Adobe Illustrator 27.5.0, SVG Export Plug-In . SVG Version: 6.00 Build 0)  -->
<svg version="1.1" id="Layer_1" xmlns="http://www.w3.org/2000/svg" xmlns:xlink="http://www.w3.org/1999/xlink" x="0px" y="0px"
	 viewBox="0 0 1800 1800" style="enable-background:new 0 0 1800 1800;" xml:space="preserve">
<g>
	<path style="fill:#FCE1DC;" d="M1694.962,899.995c0,168.54-52.45,324.82-141.91,453.42c-34.22,49.2-73.85,94.34-118.04,134.56
		c-44.4,40.44-93.41,75.9-146.14,105.53c-19.36,10.89-39.23,20.98-59.55,30.24c-3.37,1.54-6.75,3.05-10.15,4.54
		c-3.18,1.4-6.36,2.77-9.56,4.12c-10.79,4.57-21.71,8.91-32.75,13.01c-4.48,1.67-8.99,3.29-13.51,4.88
		c-50.98,17.9-104.35,30.74-159.48,37.93c-20.87,2.73-41.99,4.64-63.33,5.72c-13.43,0.67-26.94,1.01-40.54,1.01
		c-112.8,0-220.11-23.49-317.31-65.85c-21.8-9.5-43.1-19.96-63.83-31.31c-4.02-2.2-8.02-4.43-12-6.7
		c-9.94-5.67-19.75-11.54-29.41-17.63c-34.68-21.8-67.56-46.21-98.36-72.95c-0.81-0.7-1.61-1.4-2.42-2.1
		c-16.65-14.57-32.68-29.82-48.04-45.72c-3.23-3.32-6.42-6.68-9.59-10.07c-0.45-0.48-0.89-0.96-1.34-1.44
		c-78.75-84.68-139.24-186.56-175.22-299.39c-24.32-76.25-37.44-157.49-37.44-241.8c0-439.04,355.91-794.96,794.96-794.96
		C1339.042,105.035,1694.962,460.955,1694.962,899.995z"/>
	<g>
		<g>
			<g>
				<g>
					<path style="fill:#241E22;" d="M602.898,1101.246l666.824,18.017c79.193-52.801,93.941-228.377,26.935-264.137
						c-69.643-37.168-64.105-119.757-38.82-217.693c15.374-59.54,71.205-149.059-18.321-254.046
						c-65.73-77.083-24.263-92.049-120.888-156.506c-87.932-58.659-195.092-12.547-195.092-12.547s-66.134-24.02-109.674-13.487
						c0,0-149.156,18.068-180.833,143.412c-31.677,125.343,54.993,261.681,8.11,321.427
						C403.648,968.35,576.23,1043.725,602.898,1101.246z"/>
				</g>
			</g>
			<g>
				<g>
					<g>
						<path style="fill:#FFFFFF;" d="M459.682,1644.565c0.9-3.31,1.79-6.61,2.67-9.91c13.44,2.47,27.17,3.54,41.04,3.2
							c2.94-0.06,5.88-0.19,8.83-0.4c3.36-0.22,6.73-0.53,10.1-0.92c6.51-0.76,6.43,9.44,0,10.18c-4,0.47-7.99,0.82-11.98,1.05
							c-2.67,0.16-5.34,0.26-8.01,0.31C487.942,1648.385,473.662,1647.195,459.682,1644.565z"/>
						<path style="fill:#FFFFFF;" d="M1288.872,1593.505c-19.36,10.89-39.23,20.98-59.55,30.24c-3.37,1.54-6.75,3.05-10.15,4.54
							c-3.18,1.4-6.36,2.77-9.56,4.12c-10.79,4.57-21.71,8.91-32.75,13.01c-4.48,1.67-8.99,3.29-13.51,4.88
							c-50.98,17.9-104.35,30.74-159.48,37.93c-20.87,2.73-41.99,4.64-63.33,5.72c-13.43,0.67-26.94,1.01-40.54,1.01
							c-112.8,0-220.11-23.49-317.31-65.85c-21.8-9.5-43.1-19.96-63.83-31.31c-4.02-2.2-8.02-4.43-12-6.7
							c-9.94-5.67-19.75-11.54-29.41-17.63c11.82-52.05,20.52-102,25.62-146.28c3.63-31.42,5.43-59.99,5.25-84.43
							c-0.31-42.14,1.64-80.89,4.83-115.63c10.86-118.33,36.17-190.05,36.17-190.05c1.03-0.31,2.06-0.62,3.11-0.94h0.01
							c10.08-3.03,20.54-6.24,31.25-9.56c31.32-9.7,64.75-20.39,97.06-30.87c3.92-1.28,7.82-2.55,11.7-3.81
							c5.4-1.76,10.75-3.51,16.04-5.24c3.89-1.27,7.74-2.54,11.55-3.79c0.93-0.3,1.86-0.6,2.78-0.91c1.75-0.57,3.48-1.15,5.21-1.71
							c5.13-1.69,10.18-3.35,15.13-4.99c3.71-1.23,7.36-2.44,10.95-3.62c3.59-1.2,7.13-2.37,10.6-3.52
							c1.16-0.39,2.31-0.77,3.45-1.15c5.12-1.7,10.08-3.35,14.87-4.95c4.46-1.49,8.77-2.93,12.91-4.32h0.01
							c1.43-0.48,2.83-0.95,4.21-1.41c0.88-0.29,1.75-0.58,2.61-0.87c0.49-0.17,0.98-0.33,1.47-0.49c0.54-0.19,1.07-0.37,1.6-0.54
							c2.31-0.78,4.54-1.53,6.7-2.25c0.79-0.27,1.57-0.53,2.34-0.79c0.92-0.31,1.83-0.62,2.72-0.91c0.41-0.14,0.82-0.28,1.22-0.41
							c9.39-3.17,17.2-5.81,23.05-7.79c0.43-0.14,0.85-0.29,1.25-0.42c3.85-1.3,6.74-2.29,8.57-2.91c0.12-0.04,0.23-0.08,0.33-0.11
							c0.45-0.15,0.82-0.28,1.11-0.39c0.13-0.03,0.24-0.07,0.33-0.1c0.32-0.11,0.49-0.17,0.49-0.17l211.36,4.59
							c0,0,2.03,0.95,5.8,2.75c0.54,0.26,1.11,0.54,1.72,0.83c0.02,0.01,0.03,0.02,0.04,0.02c0.65,0.31,1.35,0.65,2.08,1
							c0.89,0.43,1.83,0.89,2.83,1.37c3.4,1.65,7.44,3.62,12.04,5.89c0.35,0.17,0.71,0.35,1.07,0.53c0.72,0.35,1.45,0.71,2.2,1.09
							c1.67,0.81,3.4,1.67,5.19,2.57c0.82,0.41,1.65,0.82,2.5,1.24c1.47,0.73,2.97,1.48,4.51,2.26c0.66,0.33,1.32,0.66,1.98,1
							c2.58,1.28,5.24,2.63,8,4.03c0,0,0.01,0,0.02,0.01c0.01,0,0.03,0.01,0.05,0.02c0.24,0.13,0.48,0.25,0.72,0.37
							c0.75,0.38,1.51,0.77,2.28,1.16c2.88,1.46,5.84,2.98,8.89,4.54c1,0.51,2.01,1.03,3.03,1.56c0.18,0.09,0.36,0.19,0.55,0.28
							c1.2,0.63,2.43,1.26,3.66,1.89c1.23,0.64,2.47,1.28,3.72,1.93c0.74,0.39,1.48,0.77,2.22,1.16
							c11.28,5.88,23.43,12.31,36.16,19.2c4.92,2.66,9.92,5.4,14.99,8.2c37.26,20.53,78.28,44.47,116.45,69.62
							c38.04,25.04,73.25,51.27,99.11,76.5c23.76,23.17,39.62,45.5,42.52,65.29
							C1457.962,1275.755,1370.992,1421.865,1288.872,1593.505z"/>
					</g>
				</g>
				<g>
					<path style="fill:#B75441;" d="M1176.576,999.425c-32.474,123.187-150.847,319.344-353.626,287.855
						c-171.778-26.71-164.81-168.594-130.494-295.385c86.324-28.124,161.494-53.761,161.494-53.761l211.367,4.593
						C1065.316,942.727,1113.914,965.499,1176.576,999.425z"/>
				</g>
				<g>
					<g>
						<g>
							<path style="fill:#241E22;" d="M594.149,1331.589c142.833,63.142,308.925,63.071,451.85,0.268
								c6.426-2.825,1.657-12.632-4.772-9.806c-140.384,61.688-303.192,61.253-443.39-0.725
								C591.407,1318.484,587.763,1328.767,594.149,1331.589L594.149,1331.589z"/>
						</g>
					</g>
				</g>
				<g>
					<g>
						<g>
							<path style="fill:#AE712B;" d="M1261.502,1483.405c-9.4,13.04-18.21,26.53-26.49,40.36c-4.24,7.07-8.34,14.23-12.31,21.48
								c-7.36,13.44-14.28,27.17-20.8,41.11c-9.06,19.34-17.36,39.09-25.04,59.06c-4.48,1.67-8.99,3.29-13.51,4.88
								c10.54-28.16,22.27-55.95,35.54-82.88c8.21-16.65,17.01-32.96,26.49-48.81c4.14-6.93,8.41-13.76,12.82-20.5
								c4.62-7.08,9.39-14.05,14.33-20.9C1256.632,1471.515,1265.612,1477.705,1261.502,1483.405z"/>
						</g>
					</g>
				</g>
				<g>
					<g>
						<path style="fill:#FFFFFF;" d="M513.122,1222.805c-0.01-2.58-0.02-3.94-0.02-3.94S513.192,1220.225,513.122,1222.805z"/>
						<path style="fill:#FFFFFF;" d="M503.392,1637.855c-0.34,3.54-0.69,6.95-1.06,10.22c-14.39,0.31-28.67-0.88-42.65-3.51
							c0.9-3.31,1.79-6.61,2.67-9.91C475.792,1637.125,489.522,1638.195,503.392,1637.855z"/>
						<path style="fill:#FFFFFF;" d="M512.292,1421.615c-0.9,58.38-2.53,119.68-5.43,169.48c-9.94-5.67-19.75-11.54-29.41-17.63
							c-34.68-21.8-67.56-46.21-98.36-72.95c-0.1-1.09-0.17-2.18-0.24-3.26c-2.1-36.04,9.06-72.85,43.38-106.89
							c83.15-82.49,90.43-150.8,90.89-167.56c0.02,1.19,0.03,2.63,0.03,4.32C513.312,1252.645,513.632,1333.825,512.292,1421.615z"
							/>
					</g>
				</g>
			</g>
			<g>
				<g>
					<g>
						<g>
							<g>
								<path style="fill:#B75441;" d="M1077.287,978.162c0,0-141.618,112.535-276.68,6.153l14.261-81.562l15.56-88.998
									l10.883-62.309l188.903-109.484L1077.287,978.162z"/>
							</g>
						</g>
						<g>
							<g>
								<path style="fill:#241E22;" d="M989.237,744.172c-79.64,154.148-157.151,208.889-182.57,205.492l23.762-135.91
									L989.237,744.172z"/>
							</g>
						</g>
					</g>
					<g>
						<g>
							<path style="fill:#B75441;" d="M1089.865,598.449c-17.528,62.2-34.978,82.791-80.339,143.462
								c-40.487,54.151-110.418,81.927-146.256,85.064C733.057,838.377,672.071,786.073,686.78,609.24
								c9.16-109.801-21.638-170.796,5.92-213.387h0.049c1.862-1.966,3.732-3.883,5.604-5.749
								c45.134-44.958,106.691-69.633,170.385-70.749C1185.294,313.807,1115.021,509.181,1089.865,598.449z"/>
						</g>
					</g>
					<g>
						<path style="fill:#241E22;" d="M712.818,337.857c0,0-82.19,66.387-49.623,85.896c32.569,19.508,243.813,33.9,316.171-34.939
							c37.255-35.441-26.265,157.538,53.356,173.618c79.623,16.08,95.012,6.822,108.243-62.548
							c13.231-69.372-73.08-217.84-236.715-215.55C740.616,286.622,712.818,337.857,712.818,337.857z"/>
					</g>
					<g>
						<path style="fill:#86231D;" d="M1059.048,398.902c-18.657,2.879-53.28,15.784-68.143,30.521
							c-1.633,47.592-32.365,174.122,21.272,184.954c79.623,16.08,80.467,72.149,115.497-63.161
							c13.29-51.333,7.852-119.796-17.496-158.277C1093.167,394.339,1076.179,396.257,1059.048,398.902z"/>
					</g>
					<g>
						<g>
							<g>
								<path style="fill:#241E22;" d="M861.424,556.559c-11.234-1.919-22.148,4.01-27.314,13.997
									c-3.898,7.531-15.441,1.19-11.545-6.338c7.961-15.385,24.978-23.365,41.901-20.475
									C872.838,545.172,869.741,557.979,861.424,556.559L861.424,556.559z"/>
							</g>
						</g>
					</g>
					<g>
						<g>
							<g>
								<path style="fill:#241E22;" d="M752.95,579.607c-7.294-9.701-17.666-13.44-29.494-10.942
									c-8.253,1.744-11.991-10.888-3.681-12.643c18.095-3.822,33.388,2.071,44.473,16.817
									C769.334,579.6,758.008,586.335,752.95,579.607L752.95,579.607z"/>
							</g>
						</g>
					</g>
					<g>
						<g>
							<g>
								<path style="fill:#86231D;" d="M779.087,747.882c12.903,4.574,26.705,4.871,37.34-4.745
									c5.392-4.876-2.43-12.995-7.808-8.129c-7.596,6.869-17.407,5.226-26.317,2.068
									C775.447,734.647,772.273,745.467,779.087,747.882L779.087,747.882z"/>
							</g>
						</g>
					</g>
					<g>
						<g>
							<path style="fill:#86231D;" d="M927.688,616.542c-0.188,9.421-14.998,16.766-33.078,16.404
								c-18.081-0.36-32.586-8.292-32.397-17.713c0.188-9.421,14.999-16.766,33.08-16.404
								C913.373,599.189,927.877,607.121,927.688,616.542z"/>
						</g>
					</g>
					<g>
						<g>
							<path style="fill:#86231D;" d="M740.2,622.445c-0.189,9.45-15.005,16.778-33.058,16.418
								c-8.514-0.17-16.238-2.019-21.976-4.898c0.382-7.975,0.903-16.214,1.608-24.718c0.008-0.357,0.059-0.711,0.066-1.024
								c5.71-2.294,13.049-3.618,20.983-3.46C725.875,605.125,740.388,613.04,740.2,622.445z"/>
						</g>
					</g>
					<g>
						<g>
							<g>
								<path style="fill:#241E22;" d="M847.882,512.048c12.885-4.633,29.883-2.097,35.156,12.351
									c4.92,13.482,26.839,8.102,21.854-5.559c-9.292-25.458-36.952-37.859-62.567-28.647
									C828.809,495.055,834.194,516.97,847.882,512.048L847.882,512.048z"/>
							</g>
						</g>
					</g>
					<g>
						<g>
							<g>
								<path style="fill:#241E22;" d="M716.597,539.78c8.871-10.523,20.044-25.745,35.679-21.577
									c14.015,3.739,20.46-17.871,6.426-21.613c-24.896-6.638-42.749,9.171-57.725,26.934
									C691.707,534.52,707.239,550.88,716.597,539.78L716.597,539.78z"/>
							</g>
						</g>
					</g>
					<g>
						<g>
							<path style="fill:#FFFFFF;" d="M737.454,663.853c0,0,42.801,8.372,119.499-10.138c0,0-7.635,70.82-65.229,69.336
								C742.879,721.792,737.454,663.853,737.454,663.853z"/>
						</g>
					</g>
				</g>
				<g>
					<g>
						<g>
							<g>
								<path style="fill:#B75441;" d="M965.096,646.016c-7.28-22.969-2.582-48,11-67.917
									c17.591-25.798,49.944-65.397,80.178-60.659c44.44,6.963,49.031,46.671,43.939,86.937
									c-5.092,40.268-32.54,92.638-87.993,83.134C984.493,682.758,971.057,664.822,965.096,646.016z"/>
							</g>
						</g>
					</g>
					<g>
						<g>
							<path style="fill:#FFFFFF;" d="M1077.602,663.332c-2.532,2.699-5.189,5.273-7.842,7.852
								c15.679,5.307,27.01,20.119,27.01,37.567c0,21.89-17.81,39.699-39.7,39.699c-21.888,0-39.699-17.81-39.699-39.699
								c0-13.924,7.234-26.151,18.115-33.231c1.626-4.599,3.301-9.178,5.024-13.74c-19.377,6.847-33.326,25.278-33.326,46.971
								c0,27.508,22.38,49.886,49.886,49.886c27.506,0,49.886-22.379,49.886-49.886
								C1106.957,688.564,1094.887,671.175,1077.602,663.332z"/>
						</g>
					</g>
					<g>
						<g>
							<g>
								<g>
									<path style="fill:#241E22;" d="M1023.967,639.422c-2.241-16.484-3.414-33.742,2.642-49.625
										c5.411-14.185,21.121-34.8,39.296-28.952c6.093,1.959,10.202-7.2,4.061-9.177c-17.513-5.633-34.104,4.761-44.348,18.907
										c-14.779,20.409-14.866,46.115-11.609,70.061C1014.875,647.021,1024.839,645.841,1023.967,639.422L1023.967,639.422z"/>
								</g>
							</g>
						</g>
					</g>
				</g>
			</g>
			<g>
				<g>
					<g>
						<path style="fill:#FFFFFF;" d="M908.932,557.885c-0.63-2.86-1.43-5.65-2.37-8.35v-0.01c-2.26-6.43-5.36-12.38-9.18-17.65
							c-9.85-13.62-24.41-22.69-41.13-23.82c-6.3-0.43-12.52,0.28-18.48,2.05c-9.06,2.68-17.54,7.82-24.79,15.18
							c-9.7,9.83-16.28,22.67-19,36.86c-0.48,2.51-0.84,5.07-1.08,7.65c-0.06,0.62-0.11,1.24-0.15,1.86
							c-1.22,17.92,3.66,35.21,13.75,48.69c9.31,12.44,22.03,20.3,36.17,22.46c1.44,0.22,2.9,0.38,4.37,0.48
							c13.15,0.9,25.96-3.15,36.81-11.5c2.24-1.73,4.4-3.64,6.46-5.73c5.91-5.99,10.66-13.1,14.09-20.96
							c0.72-1.65,1.38-3.33,1.98-5.04c2.27-6.44,3.68-13.29,4.16-20.37C911.052,572.135,910.472,564.805,908.932,557.885z
							 M883.052,618.905c-3.48,3.52-7.28,6.43-11.3,8.68c-7.45,4.18-15.66,6.11-24.02,5.54c-12.85-0.87-24.62-7.58-33.07-18.88
							c-8.63-11.53-12.8-26.41-11.75-41.9c1.06-15.49,7.21-29.66,17.32-39.91c9.91-10.05,22.46-15.09,35.33-14.22
							c26.89,1.89,46.97,29.1,44.81,60.78h0.01c-0.48,6.96-1.98,13.66-4.42,19.85C892.992,606.425,888.622,613.265,883.052,618.905z
							"/>
					</g>
				</g>
				<g>
					<g>
						<path style="fill:#FFFFFF;" d="M774.322,573.965v-0.01c-0.39-2.85-0.93-5.64-1.63-8.36c-5.31-20.86-19.3-37.62-37.52-44.42
							c-4.62-1.72-9.52-2.81-14.62-3.15c-5.43-0.37-10.8,0.1-16,1.37c-6.09,1.49-11.94,4.07-17.37,7.67
							c-3.49,2.31-6.81,5.05-9.9,8.18c-11.82,11.99-19.01,28.46-20.23,46.38c-1.22,17.92,3.66,35.21,13.75,48.69
							c4.08,5.45,8.8,10.02,14.02,13.61c6.7,4.62,14.2,7.64,22.15,8.85c1.44,0.22,2.9,0.38,4.37,0.48
							c15.87,1.08,31.24-5.04,43.27-17.23c2.91-2.95,5.5-6.19,7.81-9.65c0.64-0.95,1.25-1.92,1.85-2.9
							c-6.99-7.77-3.52-19.64,4.51-25.13c1.49-1.02,3.34-1.1,5.03-0.57c0.39-2.24,0.72-4.49,0.91-6.79
							c0.05-0.44,0.09-0.88,0.12-1.33c0.12-1.79,0.18-3.57,0.18-5.34C775.022,580.795,774.782,577.345,774.322,573.965z
							 M756.982,615.865v0.01c-2.61,4.8-5.84,9.17-9.62,13c-9.91,10.04-22.46,15.09-35.33,14.22c-6.93-0.47-13.55-2.64-19.51-6.32
							c0,0-0.01,0-0.01-0.01c-2.53-1.56-4.94-3.39-7.2-5.5c-0.01,0-0.01-0.01-0.01-0.01c-2.27-2.09-4.4-4.45-6.34-7.05
							c-8.63-11.52-12.8-26.4-11.75-41.89c1.06-15.49,7.21-29.66,17.32-39.91c1.09-1.1,2.2-2.14,3.35-3.13
							c3.24-2.76,6.71-5.04,10.34-6.8c6.8-3.31,14.17-4.8,21.64-4.29c2.05,0.14,4.05,0.43,6.01,0.86
							c19.1,4.17,33.81,21.36,37.86,43.11v0.01c0.43,2.29,0.73,4.64,0.91,7.02c0.25,3.19,0.26,6.46,0.04,9.77
							c-0.18,2.68-0.52,5.33-1.01,7.92C762.412,603.655,760.152,610.065,756.982,615.865z"/>
					</g>
				</g>
				<g>
					<g>
						<g>
							<path style="fill:#241E22;" d="M779.444,634.006c-0.031-0.002-0.065-0.005-0.095-0.007
								c-7.74-0.761-22.438-6.199-22.647-21.358c-0.197-14.292,12.127-20.523,20.579-22.312l6.784-18.786
								c0.827-2.284,3.341-3.455,5.621-2.637c2.28,0.823,3.46,3.34,2.638,5.618l-7.662,21.207c-0.57,1.577-1.984,2.691-3.654,2.873
								c-0.625,0.073-15.696,1.961-15.526,13.915c0.153,11.085,14.141,12.681,14.739,12.744c2.406,0.253,4.16,2.402,3.915,4.808
								C783.896,632.445,781.811,634.186,779.444,634.006z"/>
						</g>
					</g>
				</g>
				<g>
					<g>
						<g>
							<path style="fill:#FFFFFF;" d="M768.723,568.851c7.548-7.448,18.293-9.795,28.169-5.694c4.538,1.886,1.43,8.866-3.119,6.978
								c-6.46-2.683-14.066-1.455-19.11,3.523C771.203,577.07,765.216,572.31,768.723,568.851L768.723,568.851z"/>
						</g>
					</g>
				</g>
				<g>
					<g>
						<g>
							<path style="fill:#FFFFFF;" d="M903.072,553.001c23.25-24.071,53.475-38.183,86.937-40.088
								c4.893-0.278,5.81,7.309,0.896,7.589c-31.384,1.788-60.027,14.666-81.894,37.306
								C905.624,561.315,899.646,556.547,903.072,553.001L903.072,553.001z"/>
						</g>
					</g>
				</g>
			</g>
		</g>
		<g>
			<g>
				<path style="fill:#EFA449;" d="M1435.012,1487.975c-44.4,40.44-93.41,75.9-146.14,105.53c-19.36,10.89-39.23,20.98-59.55,30.24
					c-3.37,1.54-6.75,3.05-10.15,4.54c-3.18,1.4-6.36,2.77-9.56,4.12c-10.79,4.57-21.71,8.91-32.75,13.01
					c-4.48,1.67-8.99,3.29-13.51,4.88c-50.98,17.9-104.35,30.74-159.48,37.93c-20.87,2.73-41.99,4.64-63.33,5.72
					c-2-105.92-7.29-209.41,66.83-276.76c78.35-71.21,126.25-196.58,135-301.36c0.86-10.21,1.34-20.22,1.43-29.96
					c0.52-49.24-8.65-91.73-28.53-118.56c0,0,0.01,0,0.02,0.01c0.01,0,0.03,0.01,0.05,0.02c1.65,0.54,31.15,10.45,72.44,26.3
					c38.54,14.81,87.34,34.83,133.27,57.31c59.62,29.17,114.4,62.49,135.64,93.92c0,0.01,0.01,0.01,0.01,0.02
					C1507.082,1219.445,1510.732,1387.715,1435.012,1487.975z"/>
			</g>
			<g>
				<path style="fill:#AE712B;" d="M940.542,1693.945c-2-105.92-7.29-209.41,66.83-276.76c78.35-71.21,126.25-196.58,135-301.36
					c0.86-10.21,1.34-20.22,1.43-29.96c0.52-49.24-8.65-91.73-28.53-118.56c0,0,0.01,0,0.02,0.01c0.92,0.3,30.66,10.26,72.49,26.32
					c1.31,4.39,2.59,9.05,3.78,13.99c6.85,28.06,11.41,64.86,7.74,109.74c-2.1,25.74-6.91,54.15-15.55,85.09
					c-46.58,166.66-150.07,221.64-170.36,335.09c-7.14,39.91-8.42,93.29-9.52,150.68
					C983.002,1690.955,961.882,1692.865,940.542,1693.945z"/>
			</g>
		</g>
		<g>
			<g>
				<path style="fill:#EFA449;" d="M806.642,949.665c-0.32,0.24-0.65,0.47-0.97,0.71c-3.32,2.44-6.56,4.88-9.72,7.32h-0.01
					c-5.67,4.39-11.06,8.79-16.23,13.21c-50.41,43.14-77.62,87.97-92.38,132.62c-5.53,16.73-9.32,33.44-11.92,50.02v0.01
					c-10.73,68.35-1.4,134.61-11.69,191.93c-0.65,3.62-1.37,7.2-2.19,10.75c-3.23,14.04-7.83,27.49-14.44,40.24
					c-44.33,85.59-47.23,145.66-64.4,232.63c-21.8-9.5-43.1-19.96-63.83-31.31c-4.02-2.2-8.02-4.43-12-6.7
					c-9.94-5.67-19.75-11.54-29.41-17.63c-34.68-21.8-67.56-46.21-98.36-72.95c-0.81-0.7-1.61-1.4-2.42-2.1
					c-16.65-14.57-32.68-29.82-48.04-45.72c-3.23-3.32-6.42-6.68-9.59-10.07c-0.45-0.48-0.89-0.96-1.34-1.44
					c0.93-4.62,2.14-9.19,3.61-13.71c10.25-31.64,32.97-60.71,57.63-89.38c14.94-17.37,30.59-34.59,44.6-52.15
					c21.33-26.71,38.9-54.19,44.44-84.15c0.32-1.69,0.6-3.38,0.83-5.08c12.37-89.3,7.32-161.31,61.96-185.99
					c1.57-0.72,3.2-1.39,4.88-2.03c7.45-2.81,15.91-4.83,25.55-5.99c37.43-4.54,88.05-14.99,133.56-25.41
					c36.88-8.44,70.43-16.87,90.98-22.16c10.41-2.69,17.48-4.56,19.95-5.22C806.252,949.765,806.572,949.675,806.642,949.665z"/>
			</g>
			<g>
				<path style="fill:#AE712B;" d="M806.642,949.665c-0.32,0.24-0.65,0.47-0.97,0.71c-3.32,2.44-6.56,4.88-9.72,7.32h-0.01
					c-5.67,4.39-11.06,8.79-16.23,13.21c-50.41,43.14-77.62,87.97-92.38,132.62c-5.53,16.73-9.32,33.44-11.92,50.02v0.01
					c-10.73,68.35-1.4,134.61-11.69,191.93c-0.65,3.62-1.37,7.2-2.19,10.75c-3.23,14.04-7.83,27.49-14.44,40.24
					c-44.33,85.59-47.23,145.66-64.4,232.63c-21.8-9.5-43.1-19.96-63.83-31.31c2.42-16.11,4.03-29.81,4.62-40.47
					c4.07-73.83,48.75-142.47,72.6-224.89v-0.01c1.01-3.5,1.99-7.03,2.92-10.59c9.39-35.73,14.49-74.11,10.53-116.64
					c-3.35-35.9,2.84-70.95,14.08-103.39c14.05-40.57,36.02-77.07,57.14-106.1c4.74-6.53,9.45-12.68,14.01-18.41
					c36.88-8.44,70.43-16.87,90.98-22.16c10.41-2.69,17.48-4.56,19.95-5.22C806.252,949.765,806.572,949.675,806.642,949.665z"/>
			</g>
			<g>
				<path style="fill:#FFFFFF;" d="M861.094,1200.382c-14.017,0.003-28.053-2.379-42.066-7.17
					c-24.934-8.525-42.774-24.806-53.017-48.394c-31.91-73.465,21.173-193.412,23.448-198.482c1.92-4.278,6.942-6.185,11.217-4.272
					c4.278,1.92,6.192,6.944,4.275,11.222c-0.528,1.173-52.297,118.209-23.358,184.786c8.379,19.284,22.423,32.063,42.925,39.076
					c12.521,4.282,24.73,6.244,36.576,6.244c129.401,0.01,216.479-234.069,217.421-236.653c1.611-4.404,6.489-6.666,10.886-5.063
					c4.402,1.608,6.67,6.482,5.063,10.886c-1.097,3-27.377,74.282-73.808,140.117
					C970.469,1163.842,916.004,1200.379,861.094,1200.382z"/>
			</g>
		</g>
		<g>
			<g>
				<path style="fill:#EFA449;" d="M1553.052,1353.415c-34.22,49.2-73.85,94.34-118.04,134.56c-44.4,40.44-93.41,75.9-146.14,105.53
					c-19.36,10.89-39.23,20.98-59.55,30.24c-3.37,1.54-6.75,3.05-10.15,4.54c-3.18,1.4-6.36,2.77-9.56,4.12
					c-2.75-15.84-5.32-31.25-7.71-46.05c-1.04-6.43-2.04-12.75-3.01-18.94c-13.53-86.32-20.41-147.8-20.41-147.8
					s133.32-214.45,228.64-265.87c18.33-9.88,35.26-13.73,49.56-8.87c0.01,0,0.01,0,0.02,0.01
					C1490.592,1156.435,1523.402,1249.615,1553.052,1353.415z"/>
			</g>
			<g>
				<g>
					<path style="fill:#AE712B;" d="M1229.322,1623.745c-3.37,1.54-6.75,3.05-10.15,4.54c-0.02-27.71,1.15-55.41,3.53-83.04
						c0.77-8.89,1.66-17.77,2.68-26.64c3.75-32.75,9.2-65.36,16.36-97.67c1.42-6.41,11.24-3.68,9.82,2.7
						c-5.46,24.67-9.92,49.52-13.36,74.47c-1.19,8.54-2.25,17.09-3.19,25.66C1231.332,1556.995,1229.442,1590.365,1229.322,1623.745
						z"/>
				</g>
			</g>
		</g>
		<g>
			<g>
				<path style="fill:#EFA449;" d="M319.452,1491.565"/>
				<path style="fill:#EFA449;" d="M539.602,1404.705c0,0-9.88,6.33-27.31,16.91c-2.87,1.75-5.95,3.61-9.22,5.57
					c-28.74,17.26-72.5,42.72-124.22,70.07c-0.72,0.39-1.45,0.77-2.18,1.16c-16.65-14.57-32.68-29.82-48.04-45.72
					c-3.23-3.32-6.42-6.68-9.59-10.07c-0.45-0.48-0.89-0.96-1.34-1.44c-78.75-84.68-139.24-186.56-175.22-299.39
					c134.29-49.62,305.32-122.14,388.29-131.07c1.93-0.21,3.81-0.39,5.64-0.53h0.01c15.49-1.16,27.46,0.2,34.97,4.76
					c4.75,2.89,8.83,6.8,12.3,11.62c11.1,15.43,15.92,40.08,16.52,69.6C602.612,1212.605,539.602,1404.705,539.602,1404.705z"/>
			</g>
			<g>
				<g>
					<path style="fill:#AE712B;" d="M500.902,1100.175c-6.11,74.75-33.45,146.54-79.58,205.79c-23.04,29.59-54.55,52.92-74.62,84.7
						c-12.12,19.2-16.92,40.33-18.07,62.03c-3.23-3.32-6.42-6.68-9.59-10.07c0.52-5.09,1.26-10.14,2.27-15.15
						c1.74-8.64,4.28-17.14,7.86-25.42c10.95-25.34,30.58-44.61,49.77-63.96c5.63-5.67,11.21-11.35,16.53-17.19
						c10.1-11.08,19.47-22.77,28.07-34.96c18.38-26.02,33.29-54.37,44.44-84.15c12.19-32.55,19.89-66.8,22.74-101.62
						C491.252,1093.675,501.442,1093.645,500.902,1100.175z"/>
				</g>
			</g>
		</g>
	</g>
</g>
</svg>
