<?xml version="1.0" encoding="utf-8"?>
<!-- Generator: Adobe Illustrator 27.5.0, SVG Export Plug-In . SVG Version: 6.00 Build 0)  -->
<svg version="1.1" id="Layer_1" xmlns="http://www.w3.org/2000/svg" xmlns:xlink="http://www.w3.org/1999/xlink" x="0px" y="0px"
	 viewBox="0 0 1800 1800" style="enable-background:new 0 0 1800 1800;" xml:space="preserve">
<g>
	<path style="fill:#EABD9B;" d="M1694.962,899.995c0,240.41-106.72,455.89-275.36,601.66c-45.56,39.38-95.64,73.67-149.36,102
		c-31.12,16.41-63.46,30.81-96.86,43.04c-85.25,31.23-177.32,48.26-273.38,48.26c-161.69,0-312.11-48.27-437.62-131.2
		c-29.03-19.17-56.72-40.2-82.92-62.91c-44.27-38.39-84.26-81.58-119.14-128.78c-97.59-132.01-155.28-295.3-155.28-472.07
		c0-439.04,355.91-794.96,794.96-794.96C1339.042,105.035,1694.962,460.955,1694.962,899.995z"/>
	<g>
		<g>
			<g>
				<g>
					<path style="fill:#BD4B4A;" d="M683.112,1370.605c-2.5,2.71-5.33,5.53-7.98,8.01l-16.24,15.12l-15.74,14.4l-31.49,28.33
						c-0.83,0.74-1.66,1.48-2.5,2.23c-3.75,3.33-7.5,6.66-11.26,9.97c-16.51,14.59-33.1,29.05-49.82,43.4
						c-28.21,24.21-56.73,48.12-85.7,71.69c-29.03-19.17-56.72-40.2-82.92-62.91c-44.27-38.39-84.26-81.58-119.14-128.78
						c31.51-29.43,62.65-59.64,93.39-90.35c18.66-18.64,37.18-37.49,55.49-56.46l27.26-28.53l13.4-14.26l12.7-13.75l0.88-0.95
						c3.5-3.78,7.14-7.35,10.92-10.69c16.7-14.77,35.98-25.2,56.34-31.22c48.85-14.46,103.86-3.58,144,33.49
						C735.362,1215.365,739.132,1309.945,683.112,1370.605z"/>
				</g>
			</g>
			<g>
				<g>
					<path style="fill:#F7991C;" d="M1325.482,1460.605c-14.56,33.88-28.45,69.01-41.38,104.29c-1.77,4.76-3.51,9.49-5.21,14.26
						c-2.62,7.31-5.2,14.59-7.75,21.91c-0.3,0.86-0.6,1.73-0.9,2.59c-31.12,16.41-63.46,30.81-96.86,43.04
						c-85.25,31.23-177.32,48.26-273.38,48.26c-161.69,0-312.11-48.27-437.62-131.2c-29.03-19.17-56.72-40.2-82.92-62.91
						c8.97-25.55,18.37-52.32,27.19-79.95c6.06-18.92,11.82-38.27,16.99-57.89c4.66-17.55,8.76-35.28,12.19-53.2
						c0.11-0.59,0.26-1.22,0.37-1.81c0.33-1.84,0.67-3.66,1-5.47c12.2-65.59,17.01-111.8,37.16-145.45
						c12.25-20.46,30.16-36.28,58.85-49.01c17.37-7.72,38.68-14.26,65.06-20.06c29.96-6.58,66.49-12.12,111.23-17.14l30.48-2.51
						l0.64-0.05l15.94-1.33l8.75-0.72l269.59-22.36l15.7-1.3l9.68-0.8c0,0,0.17,0.04,0.5,0.12c0.1,0.02,0.21,0.05,0.34,0.08
						c0.04,0.01,0.08,0.02,0.12,0.03c0.13,0.03,0.28,0.06,0.44,0.1c0.37,0.09,0.81,0.2,1.32,0.31c0.55,0.13,1.18,0.29,1.89,0.46
						c0.77,0.19,1.62,0.4,2.57,0.63c19.69,4.83,77.61,19.48,146.45,41.23c10.64,3.36,21.58,6.91,32.66,10.6l0.01,0.01
						c30.56,10.19,54.59,25.02,72.98,43.43c0.42,0.42,0.84,0.84,1.25,1.26c0.01,0.01,0.01,0.01,0.01,0.01
						c1.23,1.27,2.44,2.55,3.62,3.84c0.01,0,0.01,0.01,0.01,0.01c3.15,3.46,6.12,7.03,8.91,10.72
						c11.17,14.73,19.48,31.2,25.26,48.99c4.15,12.75,6.99,26.17,8.66,40.12C1375.222,1309.775,1356.862,1387.485,1325.482,1460.605
						z"/>
				</g>
			</g>
			<g>
				<g>
					<path style="fill:#EB7A23;" d="M739.991,1068.361c11.6,29.702,40.562,66.57,112.416,75.769
						c99.116,12.707,182.274-67.456,212.492-101.222c-3.029-0.739-4.617-1.108-4.617-1.108L739.991,1068.361z"/>
				</g>
			</g>
			<g>
				<g>
					<path style="fill:#FFFFFF;" d="M808.846,1262.316c-3.005,0-5.964-0.168-8.893-0.521c-27.455-3.299-47.744-15.563-60.302-36.454
						c-36.574-60.844,6.419-173.921,8.27-178.705c1.468-3.808,5.767-5.689,9.549-4.23c3.806,1.471,5.704,5.747,4.236,9.553
						c-0.43,1.106-42.25,111.139-9.38,165.782c10.231,17.007,26.387,26.618,49.389,29.381
						c96.223,11.562,250.966-207.357,252.521-209.568c2.338-3.341,6.948-4.149,10.293-1.804c3.337,2.345,4.145,6.954,1.8,10.292
						C1059.964,1055.112,913.288,1262.316,808.846,1262.316z"/>
				</g>
			</g>
			<g>
				<g>
					<path style="fill:#BD4B4A;" d="M533.215,1108.064c-7.832,70.671-48.099,181.72-109.571,254.94
						c4.654-17.548,8.755-35.28,12.191-53.197c0.11-0.591,0.258-1.219,0.369-1.811c0.333-1.846,0.666-3.657,0.997-5.468
						C456.818,1197.058,457.336,1141.72,533.215,1108.064z"/>
				</g>
			</g>
			<g>
				<g>
					<path style="fill:#BD4B4A;" d="M1064.899,1342.917c7.574,140.934,112.674,274.087,206.25,258.152
						c2.55-7.314,5.135-14.591,7.758-21.907c1.7-4.765,3.436-9.494,5.209-14.26c12.93-35.28,26.821-70.412,41.376-104.288
						c63.429-147.806,73.663-314.379-78.91-365.248c-11.082-3.694-22.017-7.241-32.657-10.603
						C1128.81,1102.275,1056.182,1180.629,1064.899,1342.917z"/>
				</g>
			</g>
			<g>
				<g>
					<path style="fill:#BD4B4A;" d="M1419.602,1501.655c-45.56,39.38-95.64,73.67-149.36,102c-31.12,16.41-63.46,30.81-96.86,43.04
						c-13.09-38.34-25.36-76.68-36.99-115.1c-4.29-14.14-8.49-28.29-12.61-42.45c-7.81-26.82-15.32-53.68-22.58-80.67l-10.7-40.64
						l-5.2-20.53l-2.58-10.41l-2.65-11.09c-19.22-80.3,30.29-160.96,110.58-180.18c76.05-18.2,152.44,25.25,176.63,98.12
						c0,0.01,0.01,0.03,0.02,0.05c1.34,4.05,2.52,8.19,3.53,12.41c0.89,3.71,1.63,7.41,2.23,11.11l0.08,0.56l1.37,8.69l1.56,9.35
						l3.27,18.96l6.95,38.17c4.79,25.5,9.84,51,15.15,76.41C1407.192,1446.975,1413.232,1474.395,1419.602,1501.655z"/>
				</g>
			</g>
			<g>
				<g>
					<path style="fill:#EB7A23;" d="M660.536,1468.004c-93.68,0-114.193-101.023-114.388-102.043
						c-0.772-4.008,1.855-7.88,5.859-8.651c4.03-0.773,7.883,1.855,8.651,5.859c0.744,3.806,18.559,90.058,99.879,90.058
						c85.329,0,270.942-130.325,272.807-131.639c3.338-2.357,7.944-1.562,10.297,1.775c2.352,3.334,1.558,7.944-1.776,10.296
						C934.094,1339.143,750.508,1468.004,660.536,1468.004z"/>
				</g>
			</g>
		</g>
		<g>
			<g>
				<path style="fill:#37202B;" d="M872.473,335.72c0,0,50.864-193.948,234.008-133.385
					c183.185,60.577,68.56,325.147,162.268,465.065c100.395,149.903,220.784-33.906,220.784-33.906s0,298.69-298.509,267.006
					C978.505,877.943,874.874,496.251,872.473,335.72z"/>
			</g>
			<g>
				<path style="fill:#37202B;" d="M920.645,911.101c0,0,149.907,2.07,220.146-135.403
					c66.876-130.889,51.628-208.908,26.499-292.029c-18.928-62.603-99.771-158.395-240.375-158.395
					c-141.968,0-258.065,49.33-295.849,158.395C560.362,687.759,677.773,978.002,920.645,911.101z"/>
			</g>
			<g>
				<g>
					<g>
						<g>
							<g>
								<path style="fill:#A9253A;" d="M670.587,706.285c0,0-39.474-46.638-61.786,0c-22.311,46.636-5.15,141.032,54.92,125.586
									L670.587,706.285z"/>
							</g>
						</g>
					</g>
				</g>
				<g>
					<g>
						<g>
							<g>
								<g>
									<path style="fill:#F7991C;" d="M698.166,805.85c21.756,12.448,38.259,37.289,38.259,64.091
										c0,39.811-32.386,72.198-72.196,72.198c-39.811,0-72.198-32.386-72.198-72.198c0-29.807,18.167-55.466,44.004-66.455
										c8.658-3.7,18.19-5.741,28.193-5.741c0.246,0,0.471,0.022,0.717,0.022c0.372,5.089-0.981,8.858-4.328,11.304
										c-8.141,0.471-15.856,2.556-22.854,5.943c-20.41,9.869-34.517,30.772-34.517,54.927c0,33.62,27.34,60.983,60.983,60.983
										c33.62,0,60.982-27.363,60.982-60.983c0-24.447-13.975-44.623-34.812-54.333L698.166,805.85z"/>
								</g>
							</g>
						</g>
					</g>
				</g>
				<g>
					<g>
						<g>
							<g>
								<g>
									<path style="fill:#BD4B4A;" d="M770.293,945.646l-5.243,127.003c0,0,73.047,112.665,275.439-21.89
										c-38.343-42.802-39.783-124.233-24.292-173.562c0,0-14.898,5.285-39.061,19.64c-4.727,2.809-10.402,4.587-16.127,6.999
										C910.422,925.072,834.327,950.611,770.293,945.646z"/>
								</g>
							</g>
						</g>
					</g>
					<g>
						<g>
							<g>
								<g>
									<path style="fill:#37202B;" d="M770.293,945.646l-2.486,60.207c55.017-12.25,153.973-42.26,209.329-109.016
										c-5.019,2.246-10.402,4.587-16.127,6.999C910.422,925.072,834.327,950.611,770.293,945.646z"/>
								</g>
							</g>
						</g>
					</g>
				</g>
				<g>
					<g>
						<g>
							<g>
								<path style="fill:#BD4B4A;" d="M660.332,903.577c108.068,111.782,347.903-21.637,355.612-25.966
									c0.117-0.07,0.189-0.117,0.189-0.117c2.222-10.003,4.208-19.936,6.006-29.749c15.276-83.145,16.222-160.38,7.78-233.757
									c4.044-77.375-42.022-149.429-114.809-175.962c-75.435-27.478-143.066,5.675-183.717,18.208
									c-61.342,18.919-99.935,98.209-100.29,211.173C630.677,806.053,633.515,875.814,660.332,903.577z"/>
							</g>
						</g>
					</g>
				</g>
				<g>
					<g>
						<g>
							<g>
								<path style="fill:#37202B;" d="M804.066,564.67c0,0-22.426,2.218-14.55,22.771c7.878,20.553,52.866-2.099,85.058,35.771
									C874.575,623.213,888.266,573.904,804.066,564.67z"/>
							</g>
						</g>
					</g>
				</g>
				<g style="opacity:0.8;">
					<g>
						<g>
							<g>
								<g>
									<path style="fill:#A9253A;" d="M811.273,724.986c0,10.462,21.548,18.943,48.129,18.943c26.58,0,48.128-8.481,48.128-18.943
										c0-10.463-21.548-18.943-48.128-18.943C832.82,706.043,811.273,714.523,811.273,724.986z"/>
								</g>
							</g>
						</g>
					</g>
				</g>
				<g style="opacity:0.8;">
					<g>
						<g>
							<g>
								<g>
									<path style="fill:#A9253A;" d="M615.185,743.375c3.711,0.372,7.607,0.558,11.597,0.558c26.558,0,48.107-8.49,48.107-18.951
										c0-10.462-21.549-18.95-48.107-18.95c-3.595,0-7.097,0.162-10.46,0.463L615.185,743.375z"/>
								</g>
							</g>
						</g>
					</g>
				</g>
				<g>
					<g>
						<g>
							<g>
								<g>
									<path style="fill:#37202B;" d="M802.506,667.399c0,14.37,6.517,26.018,14.557,26.018c8.041,0,14.558-11.648,14.558-26.018
										c0-14.369-6.517-26.017-14.558-26.017C809.023,641.382,802.506,653.03,802.506,667.399z"/>
								</g>
							</g>
						</g>
					</g>
					<g>
						<g>
							<g>
								<g>
									<path style="fill:#37202B;" d="M660.344,667.399c0,14.37,6.516,26.018,14.557,26.018c8.039,0,14.557-11.648,14.557-26.018
										c0-14.369-6.517-26.017-14.557-26.017C666.86,641.382,660.344,653.03,660.344,667.399z"/>
								</g>
							</g>
						</g>
					</g>
					<g>
						<g>
							<g>
								<g>
									<path style="fill:#37202B;" d="M729.604,804.49c-16.584,0-34.084-5.348-49.957-20.864c-2.337-2.282-2.378-6.024-0.097-8.36
										c2.286-2.335,6.027-2.377,8.36-0.094c43.227,42.251,100.826-4.141,103.257-6.138c2.52-2.069,6.247-1.706,8.318,0.812
										c2.074,2.519,1.714,6.241-0.804,8.317C798.217,778.546,766.132,804.49,729.604,804.49z"/>
								</g>
							</g>
						</g>
					</g>
					<g>
						<g>
							<g>
								<g>
									<path style="fill:#37202B;" d="M724.376,722.205c-6.89,0-11.549-1.155-11.938-1.254c-1.603-0.41-2.961-1.475-3.741-2.933
										c-0.783-1.46-0.917-3.178-0.372-4.741l21.874-62.665c1.075-3.084,4.443-4.708,7.531-3.634
										c3.083,1.076,4.708,4.447,3.632,7.53l-19.477,55.796c5.937,0.294,15.135-0.327,24.213-5.212
										c2.875-1.545,6.462-0.47,8.008,2.406c1.547,2.875,0.471,6.461-2.404,8.008C741.71,720.878,731.762,722.205,724.376,722.205
										z"/>
								</g>
							</g>
						</g>
					</g>
				</g>
				<g>
					<g>
						<g>
							<g>
								<path style="fill:#37202B;" d="M969.193,819.32c0.685,1.608,19.58,45.427,46.751,58.291c0.023,0,0.023,0.023,0.047,0.023
									c0.095-0.094,0.142-0.141,0.142-0.141c2.222-10.003,4.208-19.936,6.006-29.749
									C1021.121,847.578,993.69,842.802,969.193,819.32z"/>
							</g>
						</g>
					</g>
				</g>
				<g>
					<g>
						<g>
							<g>
								<path style="fill:#BD4B4A;" d="M995.516,719.531c0,0,57.453-77.174,99.544-16.529
									c34.686,49.974-30.893,180.209-99.544,135.585V719.531z"/>
							</g>
						</g>
					</g>
				</g>
				<g>
					<g>
						<g>
							<g>
								<g>
									<path style="fill:#F7991C;" d="M1079.483,813.106c21.756,12.448,38.259,37.289,38.259,64.091
										c0,39.81-32.386,72.196-72.196,72.196c-39.811,0-72.198-32.386-72.198-72.196c0-29.807,18.167-55.466,44.004-66.455
										c8.658-3.701,18.19-5.743,28.193-5.743c0.246,0,0.471,0.023,0.717,0.023c0.372,5.089-0.981,8.857-4.328,11.304
										c-8.141,0.47-15.856,2.556-22.854,5.943c-20.41,9.869-34.517,30.772-34.517,54.927c0,33.62,27.34,60.982,60.983,60.982
										c33.62,0,60.982-27.362,60.982-60.982c0-24.447-13.975-44.623-34.81-54.333L1079.483,813.106z"/>
								</g>
							</g>
						</g>
					</g>
				</g>
				<g>
					<g>
						<g>
							<g>
								<path style="fill:#37202B;" d="M1003.37,815.351c-0.215,0-0.432-0.011-0.649-0.036c-3.247-0.355-5.591-3.273-5.236-6.519
									c7.179-65.636,62.414-88.366,64.76-89.301c3.037-1.208,6.476,0.271,7.682,3.302c1.207,3.03-0.265,6.465-3.294,7.676l0,0
									c-2.078,0.838-51.006,21.201-57.394,79.608C1008.907,813.108,1006.347,815.351,1003.37,815.351z"/>
							</g>
						</g>
					</g>
				</g>
				<g>
					<g>
						<g>
							<g>
								<path style="fill:#37202B;" d="M1058.538,779.513c-1.309,0-2.625-0.432-3.723-1.322
									c-5.14-4.167-20.733-14.409-30.921-11.797c-3.171,0.804-6.385-1.098-7.194-4.262c-0.811-3.161,1.099-6.382,4.261-7.191
									c17.773-4.545,38.953,12.155,41.315,14.075c2.53,2.061,2.914,5.784,0.854,8.318
									C1061.96,778.768,1060.256,779.513,1058.538,779.513z"/>
							</g>
						</g>
					</g>
				</g>
			</g>
			<g>
				<g>
					<g>
						<g>
							<path style="fill:#37202B;" d="M1041.701,537.127c0,0-78.647,71.729-111.753,53.995
								c-33.106-17.736,20.384-82.767,20.384-82.767S833.8,571.476,789.057,551.148c-44.743-20.328,35.519-74.718,35.519-74.718
								s-88.935,79.135-139.579,74.449c-50.643-4.687,0-68.536,0-68.536s-46.312,89.552-76.866,81.853
								c-30.552-7.698,10.471-136.242,111.755-179.99S1078.965,348.34,1041.701,537.127z"/>
						</g>
					</g>
				</g>
			</g>
			<g>
				<g>
					<path style="fill:#37202B;" d="M973.005,564.369c0,0-25.876,164.07,15.461,164.814s82.96-63.129,53.235-192.056
						L973.005,564.369z"/>
				</g>
			</g>
			<g>
				<g>
					<g>
						<g>
							<path style="fill:#37202B;" d="M702.443,564.67c0,0,22.425,2.218,14.548,22.771s-52.865-2.099-85.057,35.771
								C631.935,623.213,618.244,573.904,702.443,564.67z"/>
						</g>
					</g>
				</g>
			</g>
		</g>
	</g>
</g>
</svg>
