<?xml version="1.0" encoding="utf-8"?>
<!-- Generator: Adobe Illustrator 27.5.0, SVG Export Plug-In . SVG Version: 6.00 Build 0)  -->
<svg version="1.1" id="Layer_1" xmlns="http://www.w3.org/2000/svg" xmlns:xlink="http://www.w3.org/1999/xlink" x="0px" y="0px"
	 viewBox="0 0 1800 1800" style="enable-background:new 0 0 1800 1800;" xml:space="preserve">
<path style="fill:#FCE1DC;" d="M1694.962,899.995c0,128.11-30.31,249.15-84.14,356.33c-0.12,0.25-0.24,0.49-0.37,0.74
	c-60.8,120.73-151.47,223.84-262.31,299.62c-94.96,64.94-204.73,109.81-323.2,128.5c-0.73,0.13-1.47,0.24-2.21,0.35
	c-5.58,0.87-11.18,1.68-16.8,2.43c-0.37,0.04-0.74,0.09-1.1,0.14c-12.31,1.62-24.7,2.96-37.17,4.01
	c-22.31,1.88-44.87,2.84-67.66,2.84c-22.27,0-44.32-0.92-66.13-2.71c-83.96-6.91-164.22-26.87-238.75-57.85
	c-0.19-0.08-0.38-0.16-0.56-0.24c-10.54-4.38-20.97-9-31.27-13.82c-23.73-11.11-46.81-23.36-69.19-36.67
	c-0.78-0.47-1.56-0.93-2.34-1.4c-116.85-70.06-214.2-169.29-282-287.62c-66.63-116.28-104.72-251.02-104.72-394.65
	c0-439.04,355.91-794.96,794.96-794.96C1339.042,105.035,1694.962,460.955,1694.962,899.995z"/>
<g>
	<g>
		<path style="fill:#F7A78E;" d="M1610.822,1256.325c-0.12,0.25-0.24,0.49-0.37,0.74c-60.8,120.73-151.47,223.84-262.31,299.62
			c-94.96,64.94-204.73,109.81-323.2,128.5c-0.73,0.13-1.47,0.24-2.21,0.35c-5.58,0.87-11.18,1.68-16.8,2.43
			c-0.37,0.04-0.74,0.09-1.1,0.14c-12.31,1.62-24.7,2.96-37.17,4.01c-22.31,1.88-44.87,2.84-67.66,2.84
			c-22.27,0-44.32-0.92-66.13-2.71c-83.96-6.91-164.22-26.87-238.75-57.85c-0.19-0.08-0.38-0.16-0.56-0.24
			c-10.54-4.38-20.97-9-31.27-13.82c-23.73-11.11-46.81-23.36-69.19-36.67c-0.78-0.47-1.56-0.93-2.34-1.4
			c-116.85-70.06-214.2-169.29-282-287.62c29.52-31.35,60.47-60.94,91.88-88.66c16.53-14.59,33.18-28.64,49.83-42.17
			c0,0,0,0,0.01-0.01c56.41-45.84,112.67-85.52,163.32-118.39c9.7-6.3,19.2-12.34,28.45-18.13c9.99-6.25,19.68-12.2,29.05-17.85
			c25.39-15.32,48.33-28.42,67.87-39.19c34.32-18.91,58.13-30.63,66.22-34.53c2-0.96,3.04-1.45,3.04-1.45s43.43,21.38,308.67,36.85
			c2.3,0.13,4.61,0.29,6.93,0.46c57.27,4.3,117.74,20.51,177.33,43.28c17.56,6.71,35.04,13.98,52.34,21.69
			c143.93,64.12,275.35,158.09,334.15,202.77l0.06,0.05l0.07,0.05C1598.082,1246.345,1605.442,1252.075,1610.822,1256.325z"/>
		<g>
			<path style="fill:#F48969;" d="M1016.916,1523.561l-11.225-1.211c12.791-118.487-15.067-176.312-15.351-176.882l10.101-5.047
				C1001.658,1342.853,1030.107,1401.364,1016.916,1523.561z"/>
			<path style="fill:#FFFDFD;" d="M1348.142,1556.685c-94.96,64.94-204.73,109.81-323.2,128.5c-0.73,0.13-1.47,0.24-2.21,0.35
				c-4.64-10.72-6.28-18.09-6.28-18.09s-1.97,4.59-6.46,12.28c0,0.01,0,0.01,0,0.01c-1.45,2.49-3.16,5.29-5.16,8.37
				c-12.31,1.62-24.7,2.96-37.17,4.01c-22.31,1.88-44.87,2.84-67.66,2.84c-22.27,0-44.32-0.92-66.13-2.71
				c-83.96-6.91-164.22-26.87-238.75-57.85c-0.19-0.08-0.38-0.16-0.56-0.24c-10.54-4.38-20.97-9-31.27-13.82
				c-23.73-11.11-46.81-23.36-69.19-36.67c-0.78-0.47-1.56-0.93-2.34-1.4c76.48-136.92,94.68-288.81,94.78-401.91
				c0.03-34.66-1.64-65.68-3.86-91.51c0-0.01,0-0.01,0-0.01c-3.82-44.52-9.25-73.64-10.38-79.4c-0.14-0.69-0.21-1.05-0.21-1.05
				s67.81-43.67,67.81-39.95c0,0.14,0.09,0.75,0.27,1.81c4.58,27.21,68.46,347.71,211.58,409.42
				c115.84,49.95,151.36,102.38,161.4,123.11c2.84,5.87,3.64,9.2,3.64,9.2c4.09-85.93,159.59-178.68,181.41-222.33
				c21.11-42.21,5.22-260.48,4.16-274.79c-0.04-0.49-0.06-0.74-0.06-0.74l51.74,17.21c0,0,0.22,1.81,0.66,5.22
				c4.68,36.67,34.12,258.39,78.54,400.98C1345.912,1478.205,1350.572,1518.715,1348.142,1556.685z"/>
			<g>
				<path style="fill:#311D12;" d="M1008.43,1689.281l-4.994-2.631c1.325-2.517,2.611-5.116,3.825-7.732l0.165-0.368
					c2.298-5.016,4.31-10.08,5.98-15.054c8.505-25.341,6.642-43.055,6.621-43.231l5.608-0.643c0.089,0.765,2.06,19.041-6.878,45.672
					c-1.672,4.975-3.67,10.033-5.943,15.045v0.006l-0.259,0.572C1011.251,1683.745,1009.863,1686.559,1008.43,1689.281z"/>
				<path style="fill:#311D12;" d="M1022.426,1686.463c-5.54-10.906-8.312-18.983-9.029-21.199l-0.058-0.183l5.365-1.755
					l0.075,0.237c0.476,1.468,3.188,9.531,8.68,20.343L1022.426,1686.463z"/>
			</g>
		</g>
		
			<rect x="1593.59" y="1227.351" transform="matrix(0.635 -0.7725 0.7725 0.635 -379.4796 1687.9226)" style="fill:#311D12;" width="5.645" height="36.348"/>
	</g>
	<g>
		<g>
			<path style="fill:#F05648;" d="M594.562,1634.155c-10.54-4.38-20.97-9-31.27-13.82l121.68-97.06l17.96-14.33
				c6.04,6.71,11.93,13.42,17.68,20.12c1.51,1.76,3.01,3.53,4.5,5.29c0.08,0.09,0.15,0.17,0.22,0.26
				c45.01,53.17,80.91,105.86,108.54,157.63c-83.96-6.91-164.22-26.87-238.75-57.85
				C594.932,1634.315,594.742,1634.235,594.562,1634.155z"/>
			<path style="fill:#F05648;" d="M738.74,1616.493l-33.306,6.323c-42.226-224.677-139.774-585.401-221.967-597.143
				c-61.193-8.694-106.806,70.79-134.241,144.064l-48.661,39.968c22.355-77.451,80.726-232.919,187.645-217.564
				c22.016,3.161,88.855,12.645,178.838,324.144C710.288,1465.768,738.514,1615.025,738.74,1616.493z"/>
		</g>
		<g>
			<path style="fill:#F7A78E;" d="M967.662,1692.115c-22.31,1.88-44.87,2.84-67.66,2.84c-22.27,0-44.32-0.92-66.13-2.71
				c-83.96-6.91-164.22-26.87-238.75-57.85c-0.19-0.08-0.38-0.16-0.56-0.24l39.07-21.67c0.07-0.04,0.14-0.07,0.2-0.11l0.25-0.14
				c0.14-0.08,0.21-0.12,0.21-0.12s0.19-0.18,0.56-0.53c0.15-0.15,0.32-0.31,0.52-0.5c0.11-0.09,0.22-0.19,0.34-0.31
				c5.85-5.56,29.13-27.43,57.19-50.81c9.4-7.82,19.34-15.83,29.34-23.44c0.96-0.73,1.91-1.46,2.87-2.17
				c19.3-14.55,38.65-27.45,54.63-34.72c0.01,0,0.02,0,0.03-0.01c11.18-5.08,20.72-7.41,27.43-5.6
				c38.96,10.48,28.47,43.45,28.47,43.45s37.46-7.49,55.44,7.49c17.98,14.99,3,43.46,3,43.46s25.47-10.49,41.95,8.99
				c16.49,19.48-2.99,41.95-2.99,41.95s25.79-2.33,41.95,14.99C980.972,1660.725,977.372,1674.815,967.662,1692.115z"/>
			<g>
				<path style="fill:#311D12;" d="M596.518,1636.848l-2.792-4.906c12.798-7.284,23.015-13.095,29.801-16.955l8.87-5.042
					c0.071-0.042,0.139-0.08,0.203-0.114l0.314-0.297c0.143-0.135,0.289-0.271,0.459-0.441l0.216-0.195
					c0.042-0.034,0.082-0.073,0.126-0.118c6.574-6.148,29.938-27.773,57.463-50.626c10.439-8.654,20.34-16.561,29.43-23.501
					c1.001-0.771,2.021-1.538,3.03-2.295c22.105-16.698,40.581-28.569,54.906-35.278l0.583-0.266
					c12.858-5.937,22.343-7.721,28.984-5.46l-1.82,5.344c-3.553-1.212-10.75-1.26-24.909,5.292l-0.482,0.459l-0.516,0.005
					c-13.894,6.588-31.839,18.164-53.352,34.414c-0.999,0.749-2,1.503-2.99,2.266c-9.039,6.901-18.88,14.761-29.26,23.365
					c-27.404,22.753-50.667,44.282-57.144,50.339c-0.098,0.1-0.227,0.219-0.363,0.336c-0.183,0.18-0.342,0.33-0.485,0.465
					l-0.807,0.762l-0.465,0.266c-0.068,0.041-0.144,0.083-0.226,0.127l0-0.001c-0.094,0.058-0.192,0.112-0.295,0.164l-8.68,4.939
					C619.531,1623.753,609.315,1629.564,596.518,1636.848z M632.436,1609.924c-0.002,0.001-0.005,0.003-0.007,0.004
					L632.436,1609.924z"/>
				<path style="fill:#311D12;" d="M496.546,1585.078l-4.888-2.824c25.371-43.909,42.337-84.977,50.426-122.06l5.516,1.203
					C539.387,1499.05,522.21,1540.662,496.546,1585.078z"/>
			</g>
		</g>
	</g>
	<g>
		<g>
			<path style="fill:#593422;" d="M823.771,255.169c0,0-40.98-35.126-108.307-20.491c-67.325,14.636-105.379,125.87-114.161,213.686
				c-8.782,87.816-84.889,207.832-105.38,242.958c-20.49,35.126,8.783,140.506,90.743,149.288
				c81.962,8.782,114.162-23.418,114.162-23.418s49.762,67.326,128.796,76.108c79.035,8.782,193.196-81.962,193.196-81.962
				s111.234,90.743,196.122,58.544c84.889-32.199,64.399-152.214,64.399-152.214s46.835-26.345,67.326-81.962
				c20.49-55.616-61.472-105.379-81.962-160.996c-20.491-55.617-64.399-204.904-158.07-248.812
				C1016.967,181.989,870.607,164.426,823.771,255.169z"/>
			<g>
				<path style="fill:#6F412F;" d="M714.552,284.327c-17.958,5.914-33.627,18.274-44.325,33.783
					c-5.885,8.532-10.775,17.843-14.805,27.386c-4.193,9.933-6.761,20.711-9.687,31.07c-1.188,4.203,5.329,7.237,7.254,3.059
					c4.084-8.858,8.284-17.632,12.743-26.306c4.58-8.909,8.644-17.909,14.26-26.258c9.788-14.552,21.655-27.509,37.958-34.671
					C722.517,290.38,719.268,282.773,714.552,284.327z"/>
				<path style="fill:#6F412F;" d="M585.331,602.151c-7.697,12.804-16.302,24.91-25.174,36.924
					c-4.36,5.906-8.971,11.621-12.865,17.847c-3.991,6.385-7.975,12.755-11.851,19.21c-2.903,4.836,4.097,10.554,7.965,6.146
					c4.953-5.642,9.643-11.433,14.235-17.371c4.698-6.078,8.566-12.586,12.487-19.186c7.716-12.982,15.041-26.175,22.82-39.119
					C595.879,601.727,588.255,597.286,585.331,602.151z"/>
				<path style="fill:#6F412F;" d="M584.568,714.699c-5.204,6.507-9.311,13.925-12.147,21.761c-0.945,2.608,1.059,5.91,3.695,6.511
					c2.671,0.607,5.881-0.804,6.51-3.696c0.395-1.811,0.864-3.604,1.423-5.372c0.278-0.878,0.576-1.751,0.894-2.617
					c0.108-0.292,0.223-0.585,0.336-0.877c0.034-0.042,0.349-0.735,0.422-0.883c1.63-3.335,3.577-6.504,5.793-9.483
					c1.31-1.758,0.436-4.474-1.136-5.689C588.78,713.134,585.943,712.98,584.568,714.699z"/>
				<path style="fill:#6F412F;" d="M619.224,763.989c-0.491-2.257-3.245-3.786-5.425-3.08c-2.482,0.803-3.47,2.976-3.081,5.425
					c1.227,7.717,2.454,15.433,3.683,23.148c0.417,2.628,3.832,4.321,6.238,3.543c2.732-0.884,4.147-3.458,3.543-6.239
					C622.529,779.187,620.877,771.588,619.224,763.989z"/>
				<path style="fill:#6F412F;" d="M1307.587,645.453c-0.46-0.785-0.91-1.576-1.344-2.377c-0.23-0.427-0.456-0.855-0.679-1.285
					c-0.58-1.126-1.359-1.968-2.394-2.704c-0.805-0.572-1.626-1.121-2.421-1.707c-0.299-0.221-0.595-0.446-0.89-0.671
					c-0.001,0,0,0-0.001,0c-0.199-0.16-0.4-0.317-0.598-0.476c-0.753-0.605-1.495-1.224-2.223-1.856
					c-0.711-0.615-1.379-1.382-2.141-1.925c-0.329-0.235,0.334,0.613-0.037-0.085c-0.094-0.177-0.204-0.348-0.305-0.522
					c-0.252-0.438-0.501-0.877-0.745-1.319c-0.49-0.887-0.96-1.785-1.416-2.69c-1.196-2.372-4.523-2.748-6.481-1.236
					c-0.956,0.738-1.498,1.68-1.658,2.877c-0.198,1.469,0.286,2.588,1.213,3.704c0.639,0.77,1.289,1.529,1.957,2.273
					c0.334,0.375,0.672,0.744,1.014,1.111c0.137,0.147,0.271,0.298,0.413,0.439c0.061,0.061,0.055,0.042,0.09,0.071
					c0.015,0.043,0,0.035,0.044,0.125c0.864,1.734,1.946,3.397,3.003,5.018c1.051,1.613,2.171,3.18,3.337,4.713
					c0.647,0.849,1.181,1.621,2.193,2.118c0.222,0.11,0.458,0.2,0.688,0.297c0.768,0.324,1.535,0.653,2.309,0.963
					c0.857,0.342,1.719,0.665,2.589,0.974c1.485,0.527,3.27-0.254,4.173-1.423C1308.242,648.613,1308.402,646.838,1307.587,645.453z
					"/>
				<path style="fill:#6F412F;" d="M1245.277,779.693c-2.01-0.808-4.384-0.134-5.507,1.805c-1.635,2.819-3.363,5.583-5.2,8.276
					c-1.915,2.806-3.072,6.036-4.582,9.077c-2.981,6.003-6.615,11.527-10.129,17.213c-2.899,4.692,3.768,9.819,7.619,5.879
					c4.933-5.045,9.096-11.09,12.851-17.047c1.958-3.107,4.123-6.325,5.117-9.883c0.93-3.339,1.717-6.715,2.386-10.117
					C1248.251,782.747,1247.404,780.549,1245.277,779.693z"/>
			</g>
		</g>
		<g>
			<g>
				<path style="fill:#F7A78E;" d="M1183.594,557.033c0,0,31.324-57.429,71.785-30.02c40.461,27.409-10.441,184.033-95.279,125.298
					L1183.594,557.033z"/>
				<g>
					<path style="fill:#311D12;" d="M1200.851,665.998c-7.443,0-15.325-1.403-23.612-4.212l1.813-5.347
						c17.88,6.061,33.576,5.047,46.653-3.016c29.981-18.483,37.241-68.093,37.311-68.592l5.592,0.779
						c-0.299,2.143-7.679,52.714-39.924,72.608C1220.282,663.403,1210.973,665.998,1200.851,665.998z"/>
					<g>
						<path style="fill:#311D12;" d="M1221.152,596.39c-2.082,0-4.261-0.267-6.512-0.892l1.51-5.439
							c11.905,3.304,21.92-6.727,22.02-6.829l4.042,3.94C1241.786,587.608,1233.084,596.39,1221.152,596.39z"/>
						<path style="fill:#311D12;" d="M1214.994,628.583c-6.745,0-11.932-2.792-12.236-2.96l2.721-4.946
							c0.075,0.04,8.354,4.428,16.381,0.833c6.762-3.027,11.665-10.777,14.574-23.035c8.332-35.117-20.179-43.683-21.396-44.03
							l1.528-5.435c0.351,0.099,34.965,10.29,25.36,50.768c-3.345,14.096-9.343,23.151-17.827,26.915
							C1220.953,628.088,1217.835,628.583,1214.994,628.583z"/>
					</g>
				</g>
			</g>
			<path style="fill:#F9A537;" d="M1191.173,769.286c-0.271,0-0.542-0.002-0.813-0.007c-19.881-0.342-32.221-13.322-32.736-13.874
				l8.254-7.704c0.078,0.082,9.79,10.106,24.847,10.292c0.146,0.002,0.291,0.003,0.438,0.003c12.284,0,24.914-6.402,37.548-19.035
				c36.502-36.502-16.801-94.779-17.343-95.363l8.266-7.691c0.618,0.664,15.25,16.505,24.926,37.792
				c13.366,29.406,10.646,54.733-7.865,73.246C1221.863,761.772,1206.553,769.286,1191.173,769.286z"/>
		</g>
		<path style="fill:#F7A78E;" d="M1193.512,633.448c0,0.113,0,0.113,0,0.113c0,0.79,0,1.694-0.113,2.484
			c-0.113,1.468-0.226,3.048-0.452,4.516c-0.113,1.016-0.113,2.032-0.339,3.048c-1.016,13.435-2.823,26.306-5.081,38.5
			c-0.226,1.242-0.452,2.371-0.79,3.613v0.113c-0.903,4.629-1.807,9.258-2.823,13.661
			c-37.709,164.499-161.903,192.725-161.903,192.725l0.113,2.823l1.468,38.5l1.581,41.774
			c-139.435,98.225-316.241-21.452-316.241-21.452s-17.952-107.596-22.806-370.434c-4.516-246.806,139.322-357.225,301.676-347.289
			C1174.432,247.546,1209.206,417.465,1193.512,633.448z"/>
		<g>
			<g>
				<ellipse style="fill:#F48969;" cx="858.786" cy="645.479" rx="62.216" ry="46.901"/>
				<path style="fill:#F48969;" d="M1192.609,643.609c-1.016,13.435-2.823,26.306-5.081,38.5c-0.226,1.242-0.452,2.371-0.79,3.613
					v0.113c-0.903,4.629-1.807,9.258-2.823,13.661c-11.29,9.032-27.322,14.565-44.935,14.565c-34.322,0-62.209-21-62.209-46.968
					c0-25.855,27.887-46.855,62.209-46.855C1162.125,620.239,1182.109,629.609,1192.609,643.609z"/>
			</g>
			<g>
				<g>
					<circle style="fill:#311D12;" cx="933.733" cy="594.011" r="9.104"/>
					<path style="fill:#311D12;" d="M890.097,577.924l-8.986-6.835c1.009-1.331,25.235-32.554,70.618-28.915l-0.9,11.254
						C911.773,550.307,890.963,576.795,890.097,577.924z"/>
				</g>
				<g>
					<circle style="fill:#311D12;" cx="1078.524" cy="594.011" r="9.104"/>
					<path style="fill:#311D12;" d="M1115.292,575.186c-26.128-22.722-53.753-13.355-54.029-13.257l-3.754-10.648
						c1.382-0.486,34.157-11.604,65.191,15.386L1115.292,575.186z"/>
				</g>
				<g>
					<path style="fill:#F48969;" d="M1005.27,555.702l15.687,62.09c3.091,12.24-11.519,21.926-33.126,20.326"/>
					<path style="fill:#311D12;" d="M992.464,641.114c-1.582,0-3.197-0.06-4.841-0.182l0.416-5.63
						c12.438,0.923,23.174-2.094,28.025-7.869c2.253-2.683,2.979-5.694,2.156-8.951l-15.687-62.09l5.473-1.383l15.687,62.09
						c1.274,5.043,0.131,9.872-3.307,13.964C1014.993,637.486,1004.762,641.114,992.464,641.114z"/>
				</g>
				<path style="fill:#311D12;" d="M1001.568,677.569c-18.347,0-30.723-14.237-30.882-14.425l4.298-3.66
					c0.733,0.856,18.238,20.834,42.021,8.424l2.611,5.005C1013.173,676.275,1007.099,677.569,1001.568,677.569z"/>
				<path style="fill:#F48969;" d="M992.25,691.473c-13.448,0-21.498-7.888-21.848-8.238l3.983-4
					c0.073,0.072,7.429,7.149,19.316,6.557l0.281,5.638C993.396,691.458,992.818,691.473,992.25,691.473z"/>
			</g>
		</g>
		<g>
			<g>
				<path style="fill:#F48969;" d="M1023.557,933.513c-47.081-3.613-93.596-41.548-96.532-44.031
					c16.145,11.741,59.951,9.708,95.064,5.532L1023.557,933.513z"/>
				<path style="fill:#311D12;" d="M987.309,901.465c-48.622,0-87.357-15.491-87.833-15.685l2.128-5.229
					c0.572,0.233,57.981,23.154,120.131,12.412l0.961,5.563C1010.605,900.617,998.683,901.465,987.309,901.465z"/>
			</g>
		</g>
		<g>
			<g>
				<path style="fill:#F7A78E;" d="M711.402,557.033c0,0-31.325-57.429-71.786-30.02c-40.461,27.409,10.441,184.033,95.279,125.298
					L711.402,557.033z"/>
				<g>
					<path style="fill:#311D12;" d="M694.144,665.998c-10.123,0-19.431-2.595-27.833-7.779
						c-32.244-19.894-39.625-70.465-39.923-72.608l5.591-0.779c0.07,0.499,7.33,50.109,37.311,68.592
						c13.079,8.063,28.775,9.077,46.655,3.016l1.813,5.347C709.47,664.595,701.586,665.998,694.144,665.998z"/>
					<g>
						<path style="fill:#311D12;" d="M673.843,596.39c-11.934,0-20.635-8.782-21.06-9.22l4.047-3.936
							c0.095,0.097,10.116,10.129,22.015,6.824l1.511,5.439C678.104,596.123,675.924,596.39,673.843,596.39z"/>
						<path style="fill:#311D12;" d="M680.001,628.583c-2.841,0-5.958-0.495-9.104-1.891c-8.485-3.764-14.482-12.819-17.827-26.914
							c-9.605-40.479,25.009-50.669,25.359-50.768l1.522,5.437l-0.761-2.718l0.768,2.716c-1.218,0.347-29.729,8.913-21.396,44.03
							c2.909,12.258,7.812,20.008,14.574,23.035c8.028,3.594,16.307-0.792,16.389-0.837l2.712,4.951
							C691.932,625.791,686.745,628.583,680.001,628.583z"/>
					</g>
				</g>
			</g>
			<path style="fill:#F9A537;" d="M670.992,763.307c-1.599,0-3.231-0.125-4.889-0.396c-12.874-2.113-23.615-12.377-31.925-30.507
				c-10.769-23.498-4.483-47.287,18.177-68.795c16.351-15.52,35.405-24.322,36.208-24.689l4.698,10.267
				c-0.701,0.322-69.826,32.677-48.819,78.514c6.648,14.504,14.551,22.603,23.49,24.07c12.974,2.129,25.196-10.409,25.316-10.537
				l8.222,7.738C700.869,749.609,687.765,763.307,670.992,763.307z"/>
		</g>
		<g>
			<path style="fill:#593422;" d="M988.109,230.481c-6.791-0.414-13.549-0.623-20.275-0.623
				c-126.432,0-267.847,77.984-285.588,296.866l-0.077,0.937l0.232,0.91c5.987,23.556,38.347,141.151,87.323,142.964l6.075,0.226
				l-5.392-149.183c18.534-2.464,76.419-16.786,104.06-99.92c6.549,6.02,16.771,13.59,26.814,13.59c2.304,0,4.509-0.392,6.572-1.164
				c10.485-3.93,16.052-17.007,18.886-27.294c19.339,24.764,74.192,83.3,160.578,83.3c15.391,0,31.213-1.924,47.024-5.717
				l3.936-0.943l1.721-18.401c8.082,34.615,24.333,78.761,55.392,86.678l7.035,1.797v-7.272
				C1202.305,342.898,1132.204,239.284,988.109,230.481z"/>
			<g>
				<path style="fill:#311D12;" d="M774.798,674.399c-34.815-13.218-62.31-48.396-79.514-101.729
					c-12.896-39.98-15.594-76.592-15.619-76.957l5.631-0.397c0.025,0.359,2.689,36.387,15.396,75.729
					c11.617,35.971,34.252,82.185,76.11,98.077L774.798,674.399z"/>
				<path style="fill:#311D12;" d="M771.036,525.329l-1.259-5.503c0.25-0.057,25.234-5.925,50.428-23.261
					c33.543-23.082,51.556-54.484,53.539-93.334l5.638,0.288c-2.591,50.773-31.958,81.212-56.137,97.807
					C797.174,519.218,772.092,525.088,771.036,525.329z"/>
				<path style="fill:#311D12;" d="M900.02,439.2c-15.904,0-27.216-14.093-27.769-14.796l4.432-3.496
					c0.136,0.171,13.726,17.011,30.28,11.497c13.949-4.643,20.387-33.39,21.689-44.076l5.604,0.684
					c-0.209,1.713-5.35,42.039-25.51,48.749C905.72,438.769,902.799,439.2,900.02,439.2z"/>
				<path style="fill:#311D12;" d="M1081.556,492.992c-7.878,0-16.533-0.256-25.95-0.876
					c-53.879-3.543-127.771-79.145-130.891-82.361l4.053-3.93c0.749,0.772,75.496,77.257,127.209,80.658
					c45.028,2.962,72.825-2.673,79.793-4.329l4.469-29.447l5.582,0.847l-5.021,33.086l-1.737,0.501
					C1138.068,487.427,1118.265,492.992,1081.556,492.992z"/>
			</g>
			<g>
				<path style="fill:#6F412F;" d="M804.369,353.284c-3.596,22.546-11.489,44.122-23.386,63.618
					c-5.933,9.723-12.783,18.859-20.498,27.24c-3.655,3.97-7.488,7.777-11.492,11.394c-4.689,4.235-9.731,9.322-15.733,11.475
					c-7.431,2.666-0.032,12.452,4.29,7.371c3.884-4.565,9.001-7.786,13.582-11.632c4.594-3.856,8.99-7.947,13.164-12.253
					c8.356-8.62,15.861-18.105,22.376-28.185c13.065-20.212,22.034-42.984,26.201-66.684
					C813.855,350.051,805.256,347.715,804.369,353.284z"/>
				<path style="fill:#6F412F;" d="M857.318,351.657c-2.014-0.553-3.815,0.431-4.98,2.027c-1.895,2.593-3.641,5.072-4.687,8.141
					c-1.1,3.231-1.905,6.306-2.136,9.734c-0.392,5.799-0.201,11.618,0.499,17.386c0.286,2.364,1.821,4.41,4.41,4.41
					c2.583,0,4.171-2.03,4.41-4.41c0.519-5.171,1.618-10.56,3.148-15.699c0.794-2.667,1.179-5.369,1.757-8.09
					c0.649-3.06,0.584-6.141,0.817-9.247C860.699,354.002,859.084,352.143,857.318,351.657z"/>
				<path style="fill:#6F412F;" d="M904.994,326.021c-0.154-0.979-1.175-2.186-2.027-2.635c-0.891-0.471-1.81-0.658-2.812-0.524
					c-2.074,0.279-3.923,2.129-3.824,4.332c0.236,5.26,0.472,10.52,0.707,15.779c0.142,3.18,2.753,5.635,5.995,5.198
					c1.437-0.193,2.566-0.843,3.454-1.99c1.104-1.429,1.219-2.877,0.947-4.613L904.994,326.021z"/>
				<path style="fill:#6F412F;" d="M1060.264,409.29c-46.162-15.147-73.376-57.558-91.934-99.94
					c-1.989-4.542-9.748-1.301-8.061,3.398c8.902,24.789,19.817,49.002,36.885,69.308c15.59,18.545,35.939,33.792,59.591,39.992
					C1065.032,424.219,1068.32,411.933,1060.264,409.29z"/>
				<path style="fill:#6F412F;" d="M1064.46,321.366c-1.602-1.666-4.647-1.732-6.237,0c-1.704,1.855-1.628,4.381,0,6.238
					c4.251,4.846,8.502,9.693,12.753,14.541c1.679,1.914,5.168,1.844,6.861,0c1.807-1.969,1.88-4.906,0-6.861L1064.46,321.366z"/>
				<path style="fill:#6F412F;" d="M1187.391,428.209c1.559,3.218,7.448,1.8,6.986-1.892c-0.663-5.29-1.294-10.675-2.457-15.883
					c-1.111-4.973-3.586-9.914-5.869-14.439c-4.649-9.211-9.932-18.083-15.757-26.597c-3.184-4.656-10.303-0.614-7.616,4.452
					c4.615,8.697,8.709,17.65,12.135,26.882c1.791,4.823,3.385,9.925,5.777,14.479
					C1182.867,419.544,1185.255,423.8,1187.391,428.209z"/>
				<path style="fill:#6F412F;" d="M1192.478,479.012c-1.253-2.03-2.508-4.06-3.762-6.091c-1.158-1.876-3.468-2.665-5.507-1.804
					c-1.977,0.834-3.172,3.075-2.553,5.204c0.664,2.278,1.329,4.557,1.993,6.835c0.277,0.95,0.57,1.888,1.139,2.712
					c0.34,0.491,0.68,0.983,1.02,1.476l2.04,2.952c1.26,1.821,3.387,2.698,5.507,1.804c2.054-0.867,3.065-3.038,2.554-5.203
					C1194.284,484.254,1193.916,481.341,1192.478,479.012z"/>
				<path style="fill:#6F412F;" d="M737.673,548.223c-0.595-2.672-1.631-5.276-2.931-7.681c-1.1-2.032-4.078-2.843-6.035-1.582
					c-2.007,1.294-2.829,3.903-1.583,6.034c0.444,0.759,0.815,1.551,1.182,2.347c0.76,1.9,1.306,3.87,1.609,5.896
					c0.038,0.384,0.087,0.767,0.109,1.153c0.031,0.601,0.057,1.198,0.176,1.792c0.244,1.235,1.045,2.077,2.039,2.765
					c1.088,0.752,2.917,0.736,4.007,0c0.938-0.635,1.678-1.438,2.005-2.548c0.166-0.559,0.19-1.199,0.184-1.783
					c-0.006-0.602-0.034-1.204-0.084-1.803C738.225,551.275,738.009,549.731,737.673,548.223z"/>
			</g>
		</g>
	</g>
</g>
</svg>
