<?xml version="1.0" encoding="utf-8"?>
<!-- Generator: Adobe Illustrator 27.5.0, SVG Export Plug-In . SVG Version: 6.00 Build 0)  -->
<svg version="1.1" id="Layer_1" xmlns="http://www.w3.org/2000/svg" xmlns:xlink="http://www.w3.org/1999/xlink" x="0px" y="0px"
	 viewBox="0 0 1800 1800" style="enable-background:new 0 0 1800 1800;" xml:space="preserve">
<path style="fill:#FAC5BC;" d="M1694.962,899.995c0,184.11-62.59,353.6-167.65,488.35c-9.88,12.69-20.14,25.06-30.77,37.11
	c-22.75,25.81-47.15,50.14-73.03,72.79c-9.45,8.28-19.09,16.33-28.92,24.15c-35.24,28.04-72.92,53.16-112.66,74.97
	c-113.35,62.21-243.51,97.59-381.93,97.59c-122.28,0-238.11-27.61-341.6-76.93c-28.16-13.42-55.4-28.44-81.6-44.97
	c-9.15-5.75-18.17-11.7-27.06-17.82c-78.03-53.71-145.98-121-200.44-198.46c-6.87-9.76-13.51-19.67-19.93-29.74
	c-78.72-123.35-124.33-269.87-124.33-427.04c0-439.04,355.91-794.96,794.96-794.96
	C1339.042,105.035,1694.962,460.955,1694.962,899.995z"/>
<g>
	<g>
		<g>
			<g>
				<path style="fill:#F69986;" d="M1496.542,1425.455c-22.75,25.81-47.15,50.14-73.03,72.79c-9.45,8.28-19.09,16.33-28.92,24.15
					c-35.24,28.04-72.92,53.16-112.66,74.97c-2.07-3.36-4.13-6.73-6.17-10.1c-16.12-26.66-31.38-53.56-46.01-80.69
					c-15.13-28.14-29.55-56.51-43.35-85.26c-0.27-0.55-0.53-1.11-0.79-1.66v-0.01c-2.1-4.37-4.18-8.74-6.24-13.14
					c-4.47-9.5-8.87-19.07-13.22-28.72l-9.82-22.24l-4.88-11.44l-2.46-5.91l-2.76-6.86c-18.05-50.71-6.39-104.78,25.95-143.18
					c16.12-19.15,37.39-34.4,62.67-43.4c25.48-9.07,51.81-10.64,76.57-5.85c5.06,0.97,10.05,2.22,14.96,3.72
					c42.71,13.04,78.92,45.44,95.05,90.75c-0.06-0.06,0.24,0.9,0.42,1.48l0.65,2.12l1.43,4.51l3.06,9.36l6.55,19.16
					c4.49,12.85,9.19,25.77,14.06,38.64c9.72,25.75,20.06,51.35,30.93,76.58C1484.372,1398.745,1490.372,1412.165,1496.542,1425.455
					z"/>
				<path style="fill:#F69986;" d="M1723.162,1715.485l-0.07,0.37c-0.37-0.05-0.73-0.08-1.06-0.11
					C1722.382,1715.675,1722.762,1715.585,1723.162,1715.485z"/>
			</g>
		</g>
		<g>
			<g>
				<g>
					<g>
						<g>
							<g>
								<path style="fill:#C81F44;" d="M1527.312,1388.345c-9.88,12.69-20.14,25.06-30.77,37.11
									c-22.75,25.81-47.15,50.14-73.03,72.79c-9.45,8.28-19.09,16.33-28.92,24.15l-118.83,64.87l-25.91,14.14
									c0,0-53.8-79.58-101.4-170.88c-2.41-4.63-4.81-9.29-7.19-13.97c-38.75-76.42-71.17-158.52-63.22-207.79
									c0.28-1.74,0.58-3.48,0.91-5.19c1-5.28,2.23-10.42,3.68-15.42c21.16-73.46,88.07-116.59,157.33-117.11
									c25.68-0.22,51.69,5.44,75.81,17.58c15.11,7.61,29.48,17.75,42.56,30.6c22.53,22.13,45.42,51.32,67,89.83
									C1474.442,1296.655,1507.092,1353.565,1527.312,1388.345z"/>
							</g>
						</g>
					</g>
				</g>
			</g>
		</g>
	</g>
	<g>
		<g>
			<g>
				<g>
					<path style="fill:#7F1416;" d="M857.667,372.109l-95.583,96.631c0,0-107.758,30.705-168.662-15.786
						c-9.067-6.865-17.123-15.498-23.589-26.19c-50.068-82.508,12.1-213.276,187.121-214.54
						c73.15-0.542,98.943,37.425,106.132,76.475C870.672,329.772,857.667,372.109,857.667,372.109z"/>
				</g>
				<g>
					<path style="fill:#EE4153;" d="M857.667,372.109l-95.583,96.631c0,0-107.758,30.705-168.662-15.786
						c39.148-61.741,139.482-158.079,269.664-164.255C870.672,329.772,857.667,372.109,857.667,372.109z"/>
				</g>
				<g>
					<g>
						<path style="fill:#EE4153;" d="M754.472,323.795l-5.26-5.98l-1.72-1.95c-4.39-4.98-14.68-16.34-27.97-28.8
							c-23.67-22.17-56.86-47.81-83.18-47.16h-0.01c-4.32,0.11-8.46,0.93-12.34,2.59c-13.9,5.95-19.78,13.83-21.88,21.08
							c-2.26,7.8-0.13,14.87,1.13,18c10.8,26.92,65.5,54.64,109.8,55.9h0.01c1.05,0.03,2.08,0.05,3.12,0.05
							c1.88,0,3.74-0.05,5.57-0.16c7.04-0.38,13.7-1.54,19.74-3.6c0.56-0.19,1.13-0.39,1.68-0.6l14.7-5.52L754.472,323.795z
							 M623.362,273.505c-0.86-2.14-2.46-6.11,9.15-11.08c1.62-0.69,3.47-1.02,5.5-1.02c18.81,0,53.89,28.08,79.98,54.6
							C681.432,317.055,630.752,291.935,623.362,273.505z"/>
					</g>
				</g>
				<g>
					<g>
						<path style="fill:#EE4153;" d="M799.742,217.365c-0.28-6.68-1.47-12.64-3.66-17.51c-2.68-5.93-13.68-24.36-42.56-12.09
							c-10.01,4.25-17.18,13.62-22.27,25.63c-8.85,20.87-11.41,49.74-11.73,73.67c-0.25,18.43,0.83,33.93,1.39,40.6l0.41,4.83
							l0.42,4.87l0.5,5.94l14.16-6.78c1.71-0.82,3.41-1.74,5.08-2.76c4.49-2.7,8.84-6.08,12.99-9.97c4.29-4.03,8.38-8.6,12.22-13.6
							v-0.01C787.452,283.215,800.922,244.355,799.742,217.365z M741.442,306.485c-1.04-36.11,2.73-79.35,14.89-94.25
							c1.72-2.11,3.6-3.65,5.66-4.52c4.13-1.75,7.01-2.39,9.06-2.39c3.71,0,4.66,2.1,5.28,3.46c0.58,1.29,1.04,2.77,1.37,4.41
							C782.032,234.455,765.662,282.675,741.442,306.485z"/>
					</g>
				</g>
			</g>
			<g>
				<path style="fill:#7F1416;" d="M1298.01,1188.158H922.636c0,0-6.201-88.23-8.03-189.679c-2.415-0.097-4.831-0.228-7.279-0.359
					c-1.827,101.613-8.03,190.038-8.03,190.038H523.924c0,0-55.49-140.358,29.377-199.112s19.585-159.942,13.057-306.827
					c-6.399-144.307,76.837-240.567,79.742-243.896c0,0,0-0.032,0.032-0.032c85.847-142.773,246.931-133.144,298.275-118.26
					c0,0,93.877-37.308,220.59,76.218c28.039,25.1,45.926,66.816,56.762,116.561c19.389,42.139,36.886,100.273,33.817,169.408
					c-6.528,146.885-71.81,248.073,13.057,306.827S1298.01,1188.158,1298.01,1188.158z"/>
			</g>
		</g>
		<g>
			<g>
				<path style="fill:#EE4153;" d="M1423.512,1498.245c-9.45,8.28-19.09,16.33-28.92,24.15c-35.24,28.04-72.92,53.16-112.66,74.97
					c-113.35,62.21-243.51,97.59-381.93,97.59c-122.28,0-238.11-27.61-341.6-76.93c-8.26-25.8-17.17-52.01-26.6-78.21l-0.01-0.01
					c-0.83-2.33-1.67-4.64-2.52-6.97c-0.65-1.8-1.31-3.6-1.98-5.4c-0.19-0.52-0.39-1.05-0.58-1.57v-0.01
					c-4.58-12.48-9.28-24.94-14.09-37.33c-8.47-21.86-17.29-43.5-26.37-64.64c-47.9-111.63-64.78-234.2-1.24-307.14
					c6.25-7.17,13.27-13.86,21.12-20.01c3.83-3.01,7.85-5.88,12.07-8.61c13.08-8.49,28.1-15.68,45.21-21.39
					c97.46-32.51,182.17-52.38,182.17-52.38l36.91,3.06l5.29,0.44l7.32,0.6l111.56,9.25l8.61,0.72l136.94,11.35l36.37,3.01
					c67.68,7.59,116.14,16.41,151.38,28.26c36.97,12.42,59.4,28.19,74.24,49.38v0.01c4.77,6.81,8.75,14.18,12.18,22.19
					c13.81,32.26,18.6,74.75,29.44,132.04C1370.982,1354.795,1400.712,1431.795,1423.512,1498.245z"/>
			</g>
			<g>
				<path style="fill:#C81F44;" d="M1136.468,1431.113c-87.979,0-267.495-126.005-275.094-131.37
					c-3.26-2.3-4.038-6.808-1.735-10.068c2.3-3.257,6.806-4.039,10.068-1.735c1.823,1.286,183.348,128.722,266.762,128.722
					c79.807,0,97.495-87.18,97.665-88.062c0.755-3.918,4.515-6.501,8.459-5.729c3.918,0.752,6.482,4.54,5.729,8.459
					C1248.131,1332.328,1228.074,1431.113,1136.468,1431.113z"/>
			</g>
		</g>
		<g>
			<g>
				<g>
					<g>
						<path style="fill:#7F1416;" d="M813.163,877.698c0,0-169.161-64.099-165.523-250.543
							c3.638-186.445,107.062-313.711,298.497-288.302C946.137,338.854,1006.579,867.247,813.163,877.698z"/>
					</g>
				</g>
			</g>
			<g>
				<g>
					<g>
						<path style="fill:#7F1416;" d="M1197.656,478.685c0,0,39.173,153.75,14.083,180.569
							c-25.093,26.818-62.164-30.756-62.164-30.756S1167.84,484.861,1197.656,478.685z"/>
					</g>
				</g>
			</g>
			<g>
				<g>
					<g>
						<g>
							<g>
								<path style="fill:#F2765F;" d="M1154.474,682.259c0,0,40.486-47.833,63.37,0c22.884,47.833,5.28,144.65-56.328,128.807
									L1154.474,682.259z"/>
							</g>
						</g>
					</g>
				</g>
				<g>
					<path style="fill:#FFFFFF;" d="M1222.445,794.83c0,15.324-12.422,27.746-27.746,27.746c-15.323,0-27.744-12.422-27.744-27.746
						c0-15.323,12.422-27.744,27.744-27.744C1210.024,767.086,1222.445,779.507,1222.445,794.83z"/>
				</g>
				<g>
					<g>
						<g>
							<g>
								<g>
									<path style="fill:#F69986;" d="M1052.212,927.759v131.916c0,0-69.543,113.898-277.127-24.107
										c39.327-43.9,40.513-128.737,24.623-179.332c0,0,15.193,10.257,40.355,21.462c5.148,2.304,10.67,4.705,16.541,7.179
										C908.488,906.658,986.535,932.852,1052.212,927.759z"/>
								</g>
							</g>
						</g>
					</g>
					<g>
						<g>
							<g>
								<g>
									<path style="fill:#F69986;" d="M775.085,1035.568c0,0,167.619,243.588,258.042,208.079
										c90.422-35.508,19.085-201.719,19.085-201.719L775.085,1035.568z"/>
								</g>
							</g>
						</g>
					</g>
					<g>
						<g>
							<g>
								<g>
									<path style="fill:#37202B;" d="M1052.212,927.759v61.749c-56.427-12.562-155.373-43.341-212.148-111.81
										c5.148,2.304,10.67,4.705,16.541,7.179C908.488,906.658,986.535,932.852,1052.212,927.759z"/>
								</g>
							</g>
						</g>
					</g>
					<g>
						<path style="fill:#FFFFFF;" d="M995.223,1150.571c-105.03,0-207.862-118.88-212.4-124.192c-2.59-3.033-2.232-7.594,0.8-10.184
							c3.034-2.593,7.594-2.236,10.187,0.797c1.117,1.306,112.989,130.636,215.607,118.293c20.078-2.409,33.89-9.879,41.059-22.201
							c14.401-24.764-0.999-62.102-1.157-62.479c-1.545-3.673,0.178-7.911,3.853-9.459c3.671-1.545,7.907,0.166,9.457,3.838
							c0.759,1.793,18.371,44.267,0.37,75.308c-9.561,16.487-27.01,26.357-51.86,29.339
							C1005.839,1150.267,1000.521,1150.571,995.223,1150.571z"/>
					</g>
				</g>
				<g>
					<g>
						<g>
							<g>
								<path style="fill:#F69986;" d="M1164.993,884.61c-110.841,114.649-356.825-22.191-364.731-26.63
									c-0.123-0.073-0.196-0.122-0.196-0.122c-2.28-10.26-4.316-20.446-6.16-30.511c-15.668-85.278-16.639-164.49-7.98-239.751
									c-4.147-79.358,43.101-153.262,117.754-180.474c77.37-28.183,146.736,5.822,188.43,18.676
									c62.915,19.404,102.497,100.727,102.861,216.589C1195.407,784.588,1192.497,856.136,1164.993,884.61z"/>
							</g>
						</g>
					</g>
				</g>
				<g>
					<g>
						<g>
							<g>
								<path style="fill:#7F1416;" d="M1017.572,537.012c0,0,23,2.276,14.921,23.357c-8.077,21.08-54.22-2.153-87.238,36.688
									C945.255,597.057,931.214,546.483,1017.572,537.012z"/>
							</g>
						</g>
					</g>
				</g>
				<g>
					<g>
						<g>
							<g>
								<path style="fill:#7F1416;" d="M1121.801,537.012c0,0-23,2.276-14.922,23.357c8.079,21.08,54.22-2.153,87.238,36.688
									C1194.118,597.057,1208.16,546.483,1121.801,537.012z"/>
							</g>
						</g>
					</g>
				</g>
				<g>
					<g>
						<g>
							<g>
								<g>
									<path style="fill:#F2765F;" d="M1010.181,701.44c0,10.73-22.101,19.428-49.363,19.428
										c-27.263,0-49.364-8.698-49.364-19.428c0-10.731,22.101-19.429,49.364-19.429
										C988.08,682.011,1010.181,690.709,1010.181,701.44z"/>
								</g>
							</g>
						</g>
					</g>
				</g>
				<g>
					<g>
						<g>
							<g>
								<path style="fill:#37202B;" d="M1093.944,782.982c-37.469,0-70.375-26.609-70.85-27.002
									c-2.585-2.13-2.953-5.952-0.824-8.535c2.13-2.585,5.946-2.952,8.531-0.826l0,0c2.494,2.046,61.57,49.627,105.903,6.293
									c2.394-2.342,6.234-2.297,8.574,0.097c2.342,2.394,2.298,6.234-0.097,8.573
									C1128.906,777.495,1110.951,782.982,1093.944,782.982z"/>
							</g>
						</g>
					</g>
				</g>
				<g>
					<g>
						<g>
							<g>
								<path style="fill:#FFFFFF;" d="M1081.172,646.195c-1.03-4.26-2.37-8.43-4-12.47c-10.59-26.22-33.48-46.96-63.11-53.5
									c-20.96-4.63-41.86-1.38-59.6,7.77l-0.01,0.01c-0.45,0.21-0.88,0.44-1.32,0.69c-2.91,1.55-5.74,3.28-8.46,5.15
									c-17.12,11.8-30.16,29.59-35.61,51.14c-0.24,0.89-0.45,1.79-0.65,2.7c-0.74,3.37-1.28,6.73-1.62,10.08
									c-1.46,14.06,0.53,27.86,5.34,40.46v0.01c1.73,4.56,3.84,8.96,6.29,13.16c4.26,7.29,9.54,13.97,15.7,19.81
									c11.28,10.69,25.5,18.54,41.75,22.13c15.46,3.41,30.88,2.54,45.03-1.81c3.71-1.15,7.34-2.53,10.85-4.14h0.01
									c21.7-9.94,39.18-28.48,47.19-52.26c1.01-3,1.87-6.09,2.57-9.25c0.19-0.85,0.36-1.7,0.52-2.55
									C1084.452,670.655,1084.022,658.045,1081.172,646.195z M978.662,740.695c-15.2-3.35-28.33-11.08-38.36-21.58l-0.01-0.01
									c-0.94-0.99-1.85-2-2.74-3.04c-6.73-7.85-11.82-17.03-14.9-26.95c-3.77-12.13-4.54-25.37-1.61-38.64
									c4.3-19.51,15.82-35.61,31.13-46.09v-0.01c16.68-11.42,37.85-16.2,59.1-11.51c40.76,8.99,66.6,49.46,57.61,90.22
									c-0.04,0.17-0.08,0.35-0.12,0.52c-0.21,0.93-0.43,1.84-0.68,2.76v0.01C1057.692,725.225,1018.312,749.455,978.662,740.695z"
									/>
							</g>
						</g>
					</g>
				</g>
				<g>
					<g>
						<g>
							<g>
								<path style="fill:#FFFFFF;" d="M912.898,658.996c-0.789,0.074-1.604,0.005-2.412-0.228
									c-50.673-14.678-92.728,8.531-93.145,8.766c-3.11,1.754-7.058,0.655-8.812-2.458c-1.756-3.112-0.655-7.058,2.458-8.813
									c1.904-1.072,47.266-26.097,103.1-9.923c3.432,0.995,5.409,4.582,4.413,8.015
									C917.739,656.978,915.462,658.751,912.898,658.996z"/>
							</g>
						</g>
					</g>
				</g>
				<g>
					<g>
						<g>
							<g>
								<path style="fill:#FFFFFF;" d="M1247.852,590.875c-9.04-7.32-19.65-12.96-31.44-16.29c-1.69-0.49-3.4-0.92-5.13-1.3
									c-6.91-1.53-13.82-2.19-20.61-2.07c-0.49,0-0.98,0.01-1.46,0.03c-9.08,0.31-17.93,2.01-26.29,4.96
									c-1.73,0.6-3.45,1.27-5.13,1.99h-0.01c-22.99,9.72-41.58,28.96-49.77,53.9c-0.93,2.81-1.72,5.7-2.37,8.65
									c-0.3,1.34-0.56,2.68-0.78,4.02c-0.59,3.38-0.98,6.74-1.16,10.09c-0.86,14.89,2.11,29.38,8.16,42.35
									c9.11,19.53,25.22,35.59,45.85,44.29c4.88,2.07,10.03,3.72,15.39,4.9c7.01,1.55,14.02,2.21,20.9,2.07
									c11.54-0.24,22.74-2.74,33.04-7.17c9.16-3.93,17.61-9.38,24.98-16.11c13.03-11.89,22.64-27.76,26.72-46.25
									C1286.212,645.055,1273.142,611.355,1247.852,590.875z M1266.112,676.145c-2.21,10.02-6.32,19.13-11.88,27.05v0.01
									c-6.97,9.95-16.21,18.01-26.81,23.6c-10.07,5.3-21.35,8.37-33.06,8.7c-6.08,0.18-12.27-0.38-18.47-1.75
									c-6.77-1.49-13.13-3.85-18.98-6.94c-29.4-15.5-46.14-49.29-38.64-83.28c4.8-21.78,18.59-39.3,36.62-49.53
									c7.98-4.53,16.79-7.63,26.02-9.03c3.37-0.51,6.79-0.8,10.25-0.84c1.16-0.01,2.32,0,3.48,0.04
									c4.59,0.14,9.22,0.71,13.86,1.74c3.31,0.73,6.53,1.67,9.64,2.81c13.71,4.99,25.3,13.72,33.83,24.74
									C1265.262,630.625,1271.142,653.335,1266.112,676.145z"/>
							</g>
						</g>
					</g>
				</g>
				<g>
					<g>
						<g>
							<g>
								<path style="fill:#37202B;" d="M1099.304,698.587c-7.576,0-17.778-1.36-28.024-6.871c-2.951-1.587-4.056-5.261-2.469-8.211
									c1.586-2.952,5.268-4.053,8.212-2.469c9.397,5.054,18.799,5.68,24.846,5.375l-19.986-57.258
									c-1.103-3.161,0.566-6.619,3.727-7.722c3.159-1.103,6.619,0.564,7.722,3.726l22.436,64.273
									c0.558,1.602,0.421,3.365-0.381,4.862c-0.801,1.496-2.194,2.589-3.839,3.01
									C1111.152,697.404,1106.37,698.587,1099.304,698.587z"/>
							</g>
						</g>
					</g>
				</g>
				<g>
					<g>
						<g>
							<g>
								<path style="fill:#FFFFFF;" d="M1071.855,649.344c-1.038-0.365-1.997-0.998-2.765-1.895
									c-2.323-2.713-2.008-6.797,0.705-9.121c0.814-0.695,20.202-16.885,44.893-3.176c3.122,1.734,4.249,5.672,2.513,8.796
									c-1.734,3.124-5.668,4.255-8.796,2.515c-16.917-9.399-30.063,1.581-30.193,1.692
									C1076.395,649.711,1073.961,650.084,1071.855,649.344z"/>
							</g>
						</g>
					</g>
				</g>
				<g style="opacity:0.8;">
					<g>
						<g>
							<g>
								<g>
									<path style="fill:#F2765F;" d="M1211.297,720.302c-3.807,0.379-7.803,0.57-11.895,0.57c-27.239,0-49.34-8.707-49.34-19.436
										c0-10.73,22.1-19.436,49.34-19.436c3.688,0,7.28,0.166,10.73,0.475L1211.297,720.302z"/>
								</g>
							</g>
						</g>
					</g>
				</g>
				<g>
					<g>
						<g>
							<g>
								<g>
									<path style="fill:#37202B;" d="M1019.172,642.377c0,14.738-6.683,26.684-14.93,26.684
										c-8.246,0-14.931-11.946-14.931-26.684c0-14.736,6.685-26.684,14.931-26.684
										C1012.489,615.693,1019.172,627.64,1019.172,642.377z"/>
								</g>
							</g>
						</g>
					</g>
					<g>
						<g>
							<g>
								<g>
									<path style="fill:#37202B;" d="M1164.981,642.377c0,14.738-6.684,26.684-14.93,26.684
										c-8.246,0-14.931-11.946-14.931-26.684c0-14.736,6.685-26.684,14.931-26.684
										C1158.297,615.693,1164.981,627.64,1164.981,642.377z"/>
								</g>
							</g>
						</g>
					</g>
				</g>
				<g>
					<g>
						<g>
							<g>
								<path style="fill:#37202B;" d="M848.212,798.194c-0.704,1.649-20.083,46.592-47.95,59.786c-0.024,0-0.024,0.024-0.049,0.024
									c-0.099-0.097-0.147-0.146-0.147-0.146c-2.28-10.26-4.316-20.446-6.16-30.511
									C794.949,827.177,823.084,822.277,848.212,798.194z"/>
							</g>
						</g>
					</g>
				</g>
				<g>
					<g>
						<g>
							<g>
								<path style="fill:#F69986;" d="M821.212,695.845c0,0-58.927-79.153-102.098-16.954
									c-35.574,51.258,31.412,187.722,103.45,137.867L821.212,695.845z"/>
							</g>
						</g>
					</g>
				</g>
				<g>
					<path style="fill:#FFFFFF;" d="M794.845,814.415c0,15.324-12.422,27.746-27.744,27.746c-15.324,0-27.746-12.422-27.746-27.746
						c0-15.323,12.422-27.744,27.746-27.744C782.424,786.67,794.845,799.092,794.845,814.415z"/>
				</g>
				<g>
					<g>
						<g>
							<g>
								<path style="fill:#37202B;" d="M813.156,794.121c-3.053,0-5.682-2.299-6.02-5.403
									c-6.553-59.905-56.734-80.788-58.866-81.649c-3.102-1.25-4.611-4.779-3.367-7.883c1.244-3.102,4.758-4.62,7.867-3.379
									c2.409,0.959,59.058,24.274,66.422,91.591c0.363,3.329-2.039,6.323-5.368,6.688
									C813.599,794.11,813.377,794.121,813.156,794.121z"/>
							</g>
						</g>
					</g>
				</g>
				<g>
					<g>
						<g>
							<g>
								<path style="fill:#37202B;" d="M756.574,757.365c-1.761,0-3.507-0.764-4.706-2.236c-2.114-2.597-1.722-6.418,0.875-8.53
									c2.42-1.968,24.151-19.101,42.373-14.435c3.244,0.831,5.199,4.134,4.37,7.378c-0.832,3.245-4.145,5.199-7.378,4.37
									c-10.455-2.674-26.81,8.106-31.709,12.092C759.274,756.921,757.919,757.365,756.574,757.365z"/>
							</g>
						</g>
					</g>
				</g>
			</g>
			<g>
				<g>
					<g>
						<path style="fill:#7F1416;" d="M1074.977,347.875c56.797,16.065,105.239,54.16,132.119,106.71
							c16.842,32.926,33.449,77.199-16.161,78.537c-135.333,3.649-226.989-123.696-226.989-123.696s-6.963,130.972-113.681,130.972
							c-106.716,0-115.108-79.231-62.404-132.59C830.822,364.313,948.939,312.222,1074.977,347.875z"/>
					</g>
				</g>
			</g>
			<g>
				<g>
					<path style="fill:#7F1416;" d="M852.203,525.184c0,0-49.926,72.59-18.396,138.076c31.531,65.486,41.163,120.282,24.422,160.447
						c0,0-16.508-71.424-51.101-122.266c-28.402-41.743-53.778-72.981-45.819-127.206
						C766.771,537.012,787.719,498.909,852.203,525.184z"/>
				</g>
			</g>
		</g>
		<g>
			<g>
				<g>
					<g>
						<g>
							<g>
								<path style="fill:#F69986;" d="M653.462,1340.065l-127.64,134.58c-4.41,4.62-8.81,9.25-13.2,13.88
									c-16.93,17.84-33.78,35.74-50.58,53.65l-12.3,13.06c-78.03-53.71-145.98-121-200.44-198.46l5.35-5.96
									c21.33-23.45,42.71-46.84,64.22-70.07c10.73-11.64,21.58-23.18,32.4-34.7c10.83-11.55,21.64-23.11,32.6-34.53l32.83-34.33
									l33.45-34.31c10.48-10.72,22.26-19.44,34.86-26.13c6.96-3.7,14.17-6.78,21.55-9.25c48.04-16.02,103.13-5.74,142.41,31.52
									c15.05,14.28,26.28,31.09,33.64,49.14c20.38,49.94,11.18,109.37-28.35,151.06L653.462,1340.065z"/>
							</g>
						</g>
					</g>
				</g>
			</g>
			<g>
				<g>
					<g>
						<g>
							<g>
								<path style="fill:#EE4153;" d="M726.092,1262.105c-0.16,1.74-0.36,3.49-0.58,5.24c-3.68,29.27-24.12,65.58-52.35,103.28
									c-6.59,8.81-13.61,17.7-20.95,26.59c-2.25,2.73-4.53,5.46-6.84,8.19c-37.26,44.07-81.28,87.68-118.08,122.03h-0.01
									c-19.58,18.28-37.11,33.93-50.48,45.62c-9.15-5.75-18.17-11.7-27.06-17.82c-78.03-53.71-145.98-121-200.44-198.46
									c-6.87-9.76-13.51-19.67-19.93-29.74c26.86-25.28,77.61-73.7,162.78-157.08c31.54-30.88,61.71-52.46,89.56-67.35
									c8.04-4.3,16.19-7.87,24.4-10.74c4.02-1.42,8.05-2.66,12.09-3.74c82.93-22.2,168.86,23.61,198.18,100.03
									C724.952,1210.495,728.692,1235.455,726.092,1262.105z"/>
							</g>
						</g>
					</g>
				</g>
			</g>
			<g>
				<g>
					<g>
						<g>
							<path style="fill:#C81F44;" d="M728.56,1328.269c-6.106,7.008-104.253,119.896-196.766,211.541
								c-1.662-4.659-3.36-9.283-5.094-13.944c92.586-92.223,190.3-204.605,191.782-206.302c2.42-2.782,6.611-3.071,9.393-0.686
								C730.654,1321.297,730.943,1325.488,728.56,1328.269z"/>
						</g>
					</g>
				</g>
				<g>
					<g>
						<g>
							<path style="fill:#C81F44;" d="M650.295,1410.524c0.917,0.227,1.895,0.259,2.881,0.063l88.512-17.475
								c3.606-0.712,5.953-4.209,5.24-7.817c-0.71-3.608-4.215-5.957-7.817-5.24l-88.513,17.475c-3.606,0.71-5.953,4.209-5.24,7.817
								C645.874,1407.967,647.863,1409.924,650.295,1410.524z"/>
						</g>
					</g>
				</g>
			</g>
		</g>
	</g>
</g>
</svg>
